<svg width="44" height="44" viewBox="0 0 44 44" fill="none" xmlns="http://www.w3.org/2000/svg">
<g opacity="0.7">
<path d="M39.1111 32.541C39.1111 33.8026 38.418 36.2321 36.8607 37.5666C36.5492 37.8096 36.2378 37.6725 36.3747 37.3185C36.8282 36.1939 37.8653 33.5926 37.3792 32.9939C37.0353 32.5392 35.6148 32.5739 34.4032 32.6781C33.8504 32.7492 33.3644 32.7822 32.9879 32.8603C32.6388 32.888 32.5686 32.5774 32.9178 32.3345C33.3724 32.009 33.8749 31.7583 34.4066 31.5917C36.3747 30.9947 38.649 31.354 38.9759 31.7357C39.0375 31.8086 39.1111 32.0151 39.1111 32.541ZM35.8219 34.7848C35.3706 35.1348 34.8966 35.4536 34.4032 35.7393C30.7717 37.9519 26.0673 39.1111 21.9823 39.1111C15.4056 39.1111 9.52373 36.6521 5.06055 32.5375C4.67721 32.2217 4.99381 31.7635 5.44218 32.0117C10.251 34.8577 16.2031 36.5792 22.3639 36.5792C26.2418 36.5792 30.4209 35.8434 34.4032 34.2607C34.6822 34.1549 34.9936 34.0108 35.2657 33.9102C35.8938 33.6238 36.4466 34.3301 35.8219 34.7848ZM25.2629 15.6436C25.2629 13.837 25.3348 12.7732 24.7444 11.8604C24.2207 11.109 23.3188 10.6578 22.0593 10.729C20.6937 10.8053 19.227 11.7129 18.854 13.3772C18.7804 13.7589 18.5613 14.1338 18.1061 14.2153L13.939 13.6774C13.6412 13.608 13.1877 13.3772 13.3366 12.7732C14.2316 7.99921 18.255 6.33498 22.061 6.11111H22.9543C25.0422 6.11111 27.7256 6.71676 29.442 8.30464C31.5247 10.276 31.3023 12.9242 31.3023 15.8015V22.6163C31.3023 24.6606 32.1203 25.5665 32.9417 26.632C33.1642 27.012 33.2412 27.4598 32.8664 27.7687C31.7883 28.7434 30.6946 29.7003 29.5858 30.639C29.2863 30.8698 28.7489 30.8941 28.5419 30.7171C27.2241 29.5978 26.9024 28.9765 26.0861 27.8398C24.6657 29.3513 23.4729 30.1861 22.0542 30.639C21.0565 30.8957 20.0304 31.0217 19.0011 31.0138C15.4244 31.0138 12.5922 28.7526 12.5922 24.2806C12.5922 20.7248 14.4575 18.3074 17.2128 17.1638C19.968 16.0184 23.9726 15.654 25.2629 15.647M24.4466 24.6571C25.3365 23.1439 25.2629 21.9048 25.2629 19.1299C24.1471 19.1299 23.0279 19.208 22.061 19.4388C20.2727 19.9647 18.8522 21.1048 18.8522 23.5257C18.8522 25.4172 19.8243 26.7049 21.4638 26.7049C21.6897 26.7049 21.8882 26.6771 22.0593 26.6268C23.2059 26.304 23.9212 25.7209 24.4466 24.6571Z" fill="black"/>
</g>
</svg>
