<svg width="45" height="44" viewBox="0 0 45 44" fill="none" xmlns="http://www.w3.org/2000/svg">
<g opacity="0.7">
<path d="M33.5944 19.9833C27.7278 16.5 17.9194 16.1333 12.3278 17.875C11.4111 18.15 10.4944 17.6 10.2194 16.775C9.94444 15.8583 10.4944 14.9417 11.3194 14.6667C17.8278 12.7417 28.5528 13.1083 35.3361 17.1417C36.1611 17.6 36.4361 18.7 35.9778 19.525C35.5194 20.1667 34.4194 20.4417 33.5944 19.9833ZM33.4111 25.1167C32.9528 25.7583 32.1278 26.0333 31.4861 25.575C26.5361 22.55 19.0194 21.6333 13.2444 23.4667C12.5111 23.65 11.6861 23.2833 11.5028 22.55C11.3194 21.8167 11.6861 20.9917 12.4194 20.8083C19.1111 18.7917 27.3611 19.8 33.0444 23.2833C33.5944 23.5583 33.8694 24.475 33.4111 25.1167ZM31.2111 30.1583C30.8444 30.7083 30.2028 30.8917 29.6528 30.525C25.3444 27.8667 19.9361 27.3167 13.5194 28.7833C12.8778 28.9667 12.3278 28.5083 12.1444 27.9583C11.9611 27.3167 12.4194 26.7667 12.9694 26.5833C19.9361 25.025 25.9861 25.6667 30.7528 28.6C31.3944 28.875 31.4861 29.6083 31.2111 30.1583ZM22.7778 3.66667C20.3702 3.66667 17.9862 4.14088 15.7619 5.06221C13.5376 5.98355 11.5166 7.33397 9.81415 9.03638C6.37598 12.4745 4.44444 17.1377 4.44444 22C4.44444 26.8623 6.37598 31.5255 9.81415 34.9636C11.5166 36.666 13.5376 38.0165 15.7619 38.9378C17.9862 39.8591 20.3702 40.3333 22.7778 40.3333C27.6401 40.3333 32.3032 38.4018 35.7414 34.9636C39.1796 31.5255 41.1111 26.8623 41.1111 22C41.1111 19.5924 40.6369 17.2084 39.7156 14.9841C38.7942 12.7598 37.4438 10.7388 35.7414 9.03638C34.039 7.33397 32.0179 5.98355 29.7936 5.06221C27.5693 4.14088 25.1853 3.66667 22.7778 3.66667Z" fill="black"/>
</g>
</svg>
