<svg width="287" height="257" viewBox="0 0 287 257" fill="none" xmlns="http://www.w3.org/2000/svg">
<path opacity="0.5" d="M104.939 65.2306L83.9395 39L62.9395 65.2306H75.7917V248H93.125V65.2306H104.939Z" fill="url(#paint0_linear_5568_12471)"/>
<path opacity="0.5" d="M206.939 48.457L167.437 0L127.939 48.457H152.108V257H184.72V48.457H206.939Z" fill="url(#paint1_linear_5568_12471)"/>
<path d="M154.584 132.688L123.534 94L92.4893 132.688H111.488V225.286H137.117V132.688H154.584Z" fill="url(#paint2_linear_5568_12471)"/>
<path d="M209.139 100.272L193.615 81.4336L178.092 100.272H187.593V169.253H200.405V100.272H209.139Z" fill="url(#paint3_linear_5568_12471)"/>
<path d="M203.533 214.534H131.147V226.851H203.533V214.534Z" fill="url(#paint4_linear_5568_12471)"/>
<path d="M203.533 224.042H131.147V226.851H203.533V224.042Z" fill="#EAA11F"/>
<path opacity="0.5" d="M195.43 214.534H173.984V226.851H195.43V214.534Z" fill="url(#paint5_linear_5568_12471)"/>
<path opacity="0.5" d="M140.115 214.534H131.147V226.851H140.115V214.534Z" fill="url(#paint6_linear_5568_12471)"/>
<path opacity="0.5" d="M148.165 214.534H140.116V226.797H148.165V214.534Z" fill="white"/>
<path d="M200.673 202.651H128.287V214.968H200.673V202.651Z" fill="url(#paint7_linear_5568_12471)"/>
<path d="M200.673 212.213H128.287V215.022H200.673V212.213Z" fill="#EAA11F"/>
<path opacity="0.5" d="M192.57 202.651H171.124V214.968H192.57V202.651Z" fill="url(#paint8_linear_5568_12471)"/>
<path opacity="0.5" d="M137.254 202.651H128.287V214.968H137.254V202.651Z" fill="url(#paint9_linear_5568_12471)"/>
<path opacity="0.5" d="M145.304 202.651H137.255V214.914H145.304V202.651Z" fill="white"/>
<path d="M204.886 190.549H132.5V202.865H204.886V190.549Z" fill="url(#paint10_linear_5568_12471)"/>
<path d="M204.886 200.11H132.5V202.919H204.886V200.11Z" fill="#EAA11F"/>
<path opacity="0.5" d="M196.783 190.549H175.337V202.865H196.783V190.549Z" fill="url(#paint11_linear_5568_12471)"/>
<path opacity="0.5" d="M141.467 190.549H132.5V202.865H141.467V190.549Z" fill="url(#paint12_linear_5568_12471)"/>
<path opacity="0.5" d="M149.518 190.549H141.469V202.811H149.518V190.549Z" fill="white"/>
<path d="M123.682 164.739H51.2959V177.056H123.682V164.739Z" fill="#FCD25B"/>
<path d="M123.682 174.247H51.2959V177.056H123.682V174.247Z" fill="#EAA11F"/>
<path opacity="0.5" d="M115.578 164.739H94.1328V177.056H115.578V164.739Z" fill="#F7A616"/>
<path opacity="0.5" d="M60.2631 164.739H51.2959V177.056H60.2631V164.739Z" fill="#F7A616"/>
<path opacity="0.5" d="M68.3126 164.739H60.2637V177.002H68.3126V164.739Z" fill="white"/>
<path d="M120.821 152.37H48.4346V164.687H120.821V152.37Z" fill="#FCD25B"/>
<path d="M120.821 161.932H48.4346V164.741H120.821V161.932Z" fill="#EAA11F"/>
<path opacity="0.5" d="M112.718 152.37H91.2725V164.687H112.718V152.37Z" fill="#F7A616"/>
<path opacity="0.5" d="M57.4018 152.37H48.4346V164.687H57.4018V152.37Z" fill="#F7A616"/>
<path opacity="0.5" d="M65.4503 152.37H57.4014V164.633H65.4503V152.37Z" fill="white"/>
<path d="M125.032 140H52.6465V152.316H125.032V140Z" fill="#FCD25B"/>
<path d="M125.032 149.562H52.6465V152.371H125.032V149.562Z" fill="#EAA11F"/>
<path opacity="0.5" d="M116.93 140H95.4844V152.316H116.93V140Z" fill="#F7A616"/>
<path opacity="0.5" d="M61.6137 140H52.6465V152.316H61.6137V140Z" fill="#F7A616"/>
<path opacity="0.5" d="M69.6631 140H61.6143V152.262H69.6631V140Z" fill="white"/>
<path d="M122.062 214.062H49.6758V226.378H122.062V214.062Z" fill="#FCD25B"/>
<path d="M122.062 223.623H49.6758V226.432H122.062V223.623Z" fill="#EAA11F"/>
<path opacity="0.5" d="M113.958 214.062H92.5127V226.378H113.958V214.062Z" fill="#F7A616"/>
<path opacity="0.5" d="M58.643 214.062H49.6758V226.378H58.643V214.062Z" fill="#F7A616"/>
<path opacity="0.5" d="M66.6377 214.062H58.5889V226.324H66.6377V214.062Z" fill="white"/>
<path d="M123.358 201.743H50.9717V214.06H123.358V201.743Z" fill="#FCD25B"/>
<path d="M123.358 211.251H50.9717V214.06H123.358V211.251Z" fill="#EAA11F"/>
<path opacity="0.5" d="M115.254 201.743H93.8086V214.06H115.254V201.743Z" fill="#F7A616"/>
<path opacity="0.5" d="M59.9389 201.743H50.9717V214.06H59.9389V201.743Z" fill="#F7A616"/>
<path opacity="0.5" d="M67.9873 201.744H59.9385V214.007H67.9873V201.744Z" fill="white"/>
<path d="M120.386 189.374H48V201.69H120.386V189.374Z" fill="#FCD25B"/>
<path d="M120.386 198.935H48V201.744H120.386V198.935Z" fill="#EAA11F"/>
<path opacity="0.5" d="M112.283 189.374H90.8369V201.69H112.283V189.374Z" fill="#F7A616"/>
<path opacity="0.5" d="M65.0166 189.374H56.9678V201.636H65.0166V189.374Z" fill="white"/>
<path d="M122.386 177.057H50V189.373H122.386V177.057Z" fill="#FCD25B"/>
<path d="M122.386 186.618H50V189.427H122.386V186.618Z" fill="#EAA11F"/>
<path opacity="0.5" d="M114.281 177.057H92.835V189.373H114.281V177.057Z" fill="#F7A616"/>
<path opacity="0.5" d="M67.0147 177.057H58.9658V189.319H67.0147V177.057Z" fill="white"/>
<path d="M228.847 216.641C243.554 201.5 243.554 176.952 228.847 161.811C214.14 146.67 190.294 146.67 175.587 161.811C160.88 176.952 160.88 201.5 175.587 216.641C190.294 231.782 214.14 231.782 228.847 216.641Z" fill="#EAA11F"/>
<path d="M202.22 224.178C220.97 224.178 236.17 208.53 236.17 189.227C236.17 169.924 220.97 154.276 202.22 154.276C183.47 154.276 168.271 169.924 168.271 189.227C168.271 208.53 183.47 224.178 202.22 224.178Z" fill="url(#paint13_linear_5568_12471)"/>
<g opacity="0.5">
<path opacity="0.8" d="M206.803 170.715L207.308 173.951C207.577 176.685 207.559 176.446 205.167 176.492C203.535 176.524 201.214 176.68 199.685 176.984C199.685 176.984 196.148 177.836 196.349 181.053C196.349 181.053 196.85 184.455 202.345 183.746C205.006 183.401 208.958 182.844 212.812 186.011C212.812 186.011 216.971 189.164 216.863 196.924C216.863 197.026 216.872 197.127 216.868 197.228C216.819 198.08 216.425 201.914 213.161 204.478C212.441 205.04 212.481 205.983 212.777 206.862L213.595 209.279C214.158 211.185 214.574 211.023 211.981 212.013L210.25 212.685C208.261 213.477 208.368 213.767 207.501 211.41L206.7 209.228C206.298 208.137 205.493 208.519 204.415 208.888C202.846 209.422 200.472 209.997 197.972 209.771C197.002 209.684 196.197 208.947 196.032 207.958L195.375 204.1C195.142 202.747 196.157 201.481 197.494 201.509C198.741 201.537 200.351 201.412 202.135 200.906C202.135 200.906 207.952 199.484 207.72 196.625C207.72 196.625 206.968 191.866 203.235 192.795C203.235 192.795 193.166 193.734 189.611 187.962C189.611 187.962 188.172 185.919 187.416 182.301C187.036 180.478 187.371 176.542 191.784 173.279C193.13 172.284 193.161 172.376 192.553 170.71L192.026 169.274C191.61 168.142 191.681 168.34 193.68 167.58L197.065 166.236C197.722 165.983 197.722 165.983 198.455 168.068C199.18 169.859 199.18 169.859 200.883 169.44C201.903 169.191 203.244 168.841 204.55 168.878C206.839 168.933 206.521 168.989 206.803 170.715Z" fill="#F7A616"/>
</g>
<defs>
<linearGradient id="paint0_linear_5568_12471" x1="84.1865" y1="39" x2="6.78912" y2="73.3797" gradientUnits="userSpaceOnUse">
<stop stop-color="white"/>
<stop offset="1" stop-color="#F5F6FA" stop-opacity="0"/>
</linearGradient>
<linearGradient id="paint1_linear_5568_12471" x1="167.904" y1="-5.87203e-06" x2="48.6534" y2="81.0267" gradientUnits="userSpaceOnUse">
<stop stop-color="white"/>
<stop offset="1" stop-color="#F5F6FA" stop-opacity="0"/>
</linearGradient>
<linearGradient id="paint2_linear_5568_12471" x1="92.4893" y1="225.286" x2="193.976" y2="177.286" gradientUnits="userSpaceOnUse">
<stop stop-color="#9285F9"/>
<stop offset="1" stop-color="#3B4AFF"/>
</linearGradient>
<linearGradient id="paint3_linear_5568_12471" x1="178.092" y1="169.253" x2="233.288" y2="149.74" gradientUnits="userSpaceOnUse">
<stop stop-color="#9285F9"/>
<stop offset="1" stop-color="#3B4AFF"/>
</linearGradient>
<linearGradient id="paint4_linear_5568_12471" x1="131.147" y1="226.851" x2="135.221" y2="202.911" gradientUnits="userSpaceOnUse">
<stop stop-color="#FFB380"/>
<stop offset="1" stop-color="#FFED69"/>
</linearGradient>
<linearGradient id="paint5_linear_5568_12471" x1="173.984" y1="226.851" x2="184.622" y2="208.327" gradientUnits="userSpaceOnUse">
<stop stop-color="#FFB380"/>
<stop offset="1" stop-color="#FFED69"/>
</linearGradient>
<linearGradient id="paint6_linear_5568_12471" x1="131.147" y1="226.851" x2="142.869" y2="218.317" gradientUnits="userSpaceOnUse">
<stop stop-color="#FFB380"/>
<stop offset="1" stop-color="#FFED69"/>
</linearGradient>
<linearGradient id="paint7_linear_5568_12471" x1="128.287" y1="214.968" x2="132.36" y2="191.028" gradientUnits="userSpaceOnUse">
<stop stop-color="#FFB380"/>
<stop offset="1" stop-color="#FFED69"/>
</linearGradient>
<linearGradient id="paint8_linear_5568_12471" x1="171.124" y1="214.968" x2="181.762" y2="196.444" gradientUnits="userSpaceOnUse">
<stop stop-color="#FFB380"/>
<stop offset="1" stop-color="#FFED69"/>
</linearGradient>
<linearGradient id="paint9_linear_5568_12471" x1="128.287" y1="214.968" x2="140.008" y2="206.434" gradientUnits="userSpaceOnUse">
<stop stop-color="#FFB380"/>
<stop offset="1" stop-color="#FFED69"/>
</linearGradient>
<linearGradient id="paint10_linear_5568_12471" x1="132.5" y1="202.865" x2="136.573" y2="178.926" gradientUnits="userSpaceOnUse">
<stop stop-color="#FFB380"/>
<stop offset="1" stop-color="#FFED69"/>
</linearGradient>
<linearGradient id="paint11_linear_5568_12471" x1="175.337" y1="202.865" x2="185.975" y2="184.342" gradientUnits="userSpaceOnUse">
<stop stop-color="#FFB380"/>
<stop offset="1" stop-color="#FFED69"/>
</linearGradient>
<linearGradient id="paint12_linear_5568_12471" x1="132.5" y1="202.865" x2="144.221" y2="194.331" gradientUnits="userSpaceOnUse">
<stop stop-color="#FFB380"/>
<stop offset="1" stop-color="#FFED69"/>
</linearGradient>
<linearGradient id="paint13_linear_5568_12471" x1="168.271" y1="224.178" x2="238.143" y2="156.307" gradientUnits="userSpaceOnUse">
<stop stop-color="#FFB380"/>
<stop offset="1" stop-color="#FFED69"/>
</linearGradient>
</defs>
</svg>
