<svg width="1366" height="631" viewBox="0 0 1366 631" fill="none" xmlns="http://www.w3.org/2000/svg">
<path d="M1436.77 2.96421C1373.63 2.96421 1310.38 -5.7345 1254.43 29.123C1219.6 50.8211 1197.04 84.6507 1177.49 119.909C1152.83 164.385 1136 215.944 1097.32 249.164C1058.64 282.384 1010.8 302.45 963.449 313.176C906.067 326.174 851.686 288.042 812.96 249.472C765.365 202.069 731.892 137.723 731.098 69.4382C730.834 46.7514 748.139 21.66 772.337 18.8133C814.14 13.8953 820.238 138.915 821.269 163.302C822.622 195.329 824.484 229.893 814.498 260.859C793.692 325.375 694 348.5 678.849 352.03C663.697 355.56 560.5 382 460.5 398.5C360.5 415 244.971 405.47 145.21 437.892C94.6366 454.328 41.7666 484.945 9.03083 527.601C-16.0686 560.306 -16.0372 589.918 -19.436 629.005" stroke="url(#paint0_linear_1_863)" stroke-width="4" stroke-linecap="round" stroke-dasharray="12 12"/>
<defs>
<linearGradient id="paint0_linear_1_863" x1="-19.0001" y1="528" x2="1388" y2="1.99998" gradientUnits="userSpaceOnUse">
<stop stop-color="#00A3F4" stop-opacity="0.42"/>
<stop offset="0.563099" stop-color="#00A4F4" stop-opacity="0.11"/>
<stop offset="0.887261" stop-color="#00A4F4" stop-opacity="0.6"/>
</linearGradient>
</defs>
</svg>
