<svg width="286" height="248" viewBox="0 0 286 248" fill="none" xmlns="http://www.w3.org/2000/svg">
<g opacity="0.5" clip-path="url(#clip0_5568_21982)">
<path fill-rule="evenodd" clip-rule="evenodd" d="M160.255 153.152H156.099L151.673 148.593V147.015H145.761V141.859H143.835L141.808 143.929H136.368L134.375 141.859H128.597L126.57 143.999L121.333 143.929V147.015L122.853 148.593L121.265 150.241V154.029L119.475 154.099V164.62H121.063V167.355L120.015 168.407V173.317H126.502L127.786 171.985H129.881V173.352H133.057L135.185 175.562L135.625 183.593L142.585 183.488L145.997 179.946V176.789L148.565 174.124H151.538L155.593 169.951V166.479L160.458 161.429H162.451V155.467L160.255 153.152Z" fill="white"/>
<path fill-rule="evenodd" clip-rule="evenodd" d="M219.955 52.2199V57.0245L223.097 60.286V72.3502L226.915 76.3482L224.651 78.6979L224.618 80.3812H231.476L234.72 83.7129L238.2 80.1007L235.396 77.2249L237.423 75.1207V73.1568L242.085 68.3171V64.5295H246.613L237.085 54.3943H232.456L229.28 51.0977H221.509L219.955 52.2199Z" fill="white"/>
<path fill-rule="evenodd" clip-rule="evenodd" d="M257.594 71.1225V67.1596L255.094 64.5644L246.85 64.5293H242.086V68.3169L237.424 73.1566L239.282 75.0503H241.14L243.708 72.4201H245.668V76.6285H249.857V74.0333H259.081V72.6656L257.594 71.1225Z" fill="white"/>
<path fill-rule="evenodd" clip-rule="evenodd" d="M243.708 72.4199L241.14 75.0502H239.282L237.424 73.1564V75.1203L235.396 77.2245L238.201 80.1003L236.106 82.2746H239.924L242.796 79.2937H246.276V84.5191L248.066 86.3428L252.526 81.6784H256.817V80.2055H260.196V74.7696L259.081 74.0332H249.857V76.6283H245.668V72.4199H243.708Z" fill="white"/>
<path fill-rule="evenodd" clip-rule="evenodd" d="M256.816 80.2048V81.6777H252.525L248.065 86.3421L246.275 84.5184V79.293H242.795L239.923 82.2739H236.105L234.72 83.7118L231.476 80.3801H224.618L224.651 84.4483L221.205 87.9553H223.469V92.795H228.571V90.2348L229.584 89.1827H236.882L239.281 91.6727L241.578 89.2529H244.383V91.5324H251.039L253.809 88.6567H257.661L259.519 86.7278V80.2399L256.816 80.2048Z" fill="white"/>
<path fill-rule="evenodd" clip-rule="evenodd" d="M239.281 91.6742L240.971 93.4277H243.167L248.539 99.0039H251.242L255.499 94.5851V92.2354H257.661V88.6582H253.81L251.039 91.534H244.383V89.2544H241.579L239.281 91.6742Z" fill="white"/>
<path fill-rule="evenodd" clip-rule="evenodd" d="M248.54 99.0039L243.168 93.4277H240.972V97.3205H242.289V99.8806H239.789V101.073L240.701 102.055V106.298H241.614H242.695H244.789L250.297 100.547V99.0039H248.54Z" fill="white"/>
<path fill-rule="evenodd" clip-rule="evenodd" d="M219.955 52.2207H217.353L211.238 58.5684V65.4422L209.143 67.6165V70.9832H211.812V73.7187L209.312 76.3139H202.25L198.162 80.5924H195.189V86.9752L192.621 89.6055V97.9872H196.743V101.81H200.493L202.757 99.4602H206.305V92.7969L208.095 90.9381H209.987V93.4281H215.191L218.84 89.6756H221.205V87.9572L224.617 84.4151L224.651 78.6987L226.915 76.349L223.097 72.351V60.2868L219.955 57.0253V52.2207Z" fill="white"/>
<path fill-rule="evenodd" clip-rule="evenodd" d="M211.237 65.4419V58.5681L217.352 52.2204V50.2565H212.183L210.088 48.1172H204.986L200.425 52.8517V48.9589L202.384 46.9248L196.641 40.9629H191.37V45.1713L186.775 49.9759V58.6733L184.714 61.7595H181.437L175.152 68.2825H182.585V79.3296L187.011 83.8887H188.836V87.2555H186.707L186.775 91.8847L192.62 97.9869V89.6052L195.188 86.9749V80.5922H198.161L202.249 76.3136H209.311L211.811 73.7184V70.9829H209.142V67.6162L211.237 65.4419Z" fill="white"/>
<path fill-rule="evenodd" clip-rule="evenodd" d="M187.824 105.525L192.622 100.545V97.9851H196.744V101.808H200.494L202.758 99.4581H206.306V92.7948L208.096 90.936H209.988V93.426H215.191L218.84 89.6735H221.205V87.9551H223.469V92.7948H228.571V90.2346L229.585 89.1825H236.882L240.971 93.426V97.3188H242.288V99.8789H239.788V101.071L240.7 102.053V106.297H244.789L239.214 112.048V115.906H234.078V121.061L235.903 122.955V137.649L233.402 140.245V144.102L229.585 148.1L226.172 144.558V139.613L230.091 135.545L225.598 130.881H219.888V127.514H212.117L210.901 126.357H205.934V123.446H202.217L196.879 129.022H193.365V122.289L191.372 120.22L191.473 105.525H187.824Z" fill="white"/>
<path fill-rule="evenodd" clip-rule="evenodd" d="M140.218 17.5352V23.3919H144.982L150.861 29.4941V34.6494L158.834 42.9259L161.402 40.2606H164.274V47.941H171.639L181.505 37.7005H191.168V45.2055L186.641 49.9049L186.742 58.6724L184.681 61.7586H181.404L175.119 68.2817V71.3328H178.228L172.315 77.47V88.0612L164.916 95.7416H131.67L117.209 80.5562L117.31 59.97L125.622 51.3428V45.1003L122.311 41.6634H114.607V27.0392L120.148 21.2877H131.805V17.5702H140.116L140.218 17.5352ZM175.694 34.5091V40.0502L170.153 45.8017H165.592V34.6845L175.694 34.5091Z" fill="white"/>
<path fill-rule="evenodd" clip-rule="evenodd" d="M166.539 20.8675L161.369 15.5018V11.2583L159.579 9.39957L155.457 5.08594V15.6771L151.571 19.7102H140.219V23.3926H144.983L150.862 29.4948V34.6501L156.639 40.6821L169.613 27.2152V20.8675H166.539Z" fill="white"/>
<path fill-rule="evenodd" clip-rule="evenodd" d="M58.2184 22.202H49.0284V27.3222H51.3259V29.9174H45.6159V36.0547L49.2987 39.8773V55.729L45.0753 60.1128H32.3715L28.7564 63.8302V70.704L24.7695 74.8072V79.0507H29.7362L33.1486 82.5928H45.9876L52.3057 89.1509H58.6576L63.9959 94.692L66.4285 92.202H74.8752L83.4908 83.2591H89.8427L95.0458 88.6599H114.237L117.277 85.5036L117.345 59.9374L125.69 51.3102V45.0677L122.379 41.5958H114.676V31.215L106.601 30.9344V35.704L103.56 38.8954H97.2758V29.5316L88.5926 20.5186H82.9164L74.9765 28.7601H66.9353V23.9906L61.7322 18.5547L58.2184 22.202Z" fill="white"/>
<path fill-rule="evenodd" clip-rule="evenodd" d="M101.634 0.28125V4.24418H97.4778V7.5057H91.7003V10.3464H88.5919L83.7942 5.36642H79.1992V9.08386H81.5305V17.641H85.7201V20.5167H88.5919L97.2751 29.5297V38.8935H103.559L106.6 35.7021V30.9326L114.675 31.2131V27.0047L108.83 20.9376V11.9596L112.006 8.66302L107.985 4.48967V0.28125H101.634Z" fill="white"/>
<path fill-rule="evenodd" clip-rule="evenodd" d="M98.3906 88.5525V103.212H108.155V112.085L102.175 118.292V123.903L106.33 128.182V135.511H118.291L118.325 140.807L121.332 143.928H126.569L128.596 141.824H134.373L136.401 143.928H141.807L143.8 141.859H145.76V147.014H149.611V139.72L157.247 131.759V127.34H162.045L164.95 124.324V95.7419H131.704L117.277 80.5215V85.5014L114.237 88.6578L98.3906 88.5525Z" fill="white"/>
<path fill-rule="evenodd" clip-rule="evenodd" d="M63.9941 94.6907V96.2338H74.9072V106.65L80.8199 112.787H87.78L93.0845 118.293H102.173L108.153 112.085V103.213H98.389V88.5534L95.0441 88.6586L89.841 83.2578H83.4891L74.8735 92.2007H66.4268L63.9941 94.6907Z" fill="white"/>
<path fill-rule="evenodd" clip-rule="evenodd" d="M162.45 155.466L160.254 153.151H156.098L151.672 148.592V147.014H149.611V139.719L157.247 131.758V127.339H162.045L164.95 124.323V113.346H168.16V116.538H173.566L176.066 113.943H178.431V116.573H187.925L191.473 112.855L191.372 120.22L193.365 122.289V127.515H191.405L189.04 125.06H186.912V134.178L183.803 137.405V147.715L181.269 150.345H171.505L169.748 152.169H165.626L162.45 155.466Z" fill="white"/>
<path fill-rule="evenodd" clip-rule="evenodd" d="M192.622 97.9857L186.777 91.8835L186.71 87.2542H188.838V83.8875H187.014L182.588 79.3283V68.2812H175.155V71.3324H178.263L172.35 77.4696V88.0608L164.951 95.7412V108.998V112.224V113.346H168.161V116.538H173.567L176.067 113.943H178.432V116.573H187.926L191.474 112.855V105.526H187.825L192.622 100.546V97.9857Z" fill="white"/>
<path fill-rule="evenodd" clip-rule="evenodd" d="M178.061 137.405H183.804V133.793H178.061V137.405Z" fill="white"/>
<path fill-rule="evenodd" clip-rule="evenodd" d="M162.449 155.466L165.625 152.17H169.747L171.504 150.346H181.268L183.802 147.716V137.405L186.911 134.179V125.06H189.039L191.404 127.515H193.364V129.023H196.878L202.216 123.447H205.933V126.358H210.899L212.116 127.515H219.887V130.882H225.597L230.09 135.546L226.171 139.615V144.559H221.643V149.434L223.671 151.503V157.956L214.278 167.706V171.213H201.777L197.418 175.737H189.141V168.442L184.309 163.427V159.219H176.336L173.126 162.55H169.781V158.377H162.517L162.449 155.466Z" fill="white"/>
<path fill-rule="evenodd" clip-rule="evenodd" d="M221.644 144.559H226.171L231.813 150.415V156.237L227.151 161.077V163.812L223.738 167.354H219.279L216.947 164.934L223.671 157.955V151.502L221.644 149.433V144.559Z" fill="white"/>
<path fill-rule="evenodd" clip-rule="evenodd" d="M201.776 171.213H214.277V167.706L216.946 164.936L219.278 167.355H223.737V171.213L217.419 177.771H204.885L203.263 179.455L198.566 174.545L201.776 171.213Z" fill="white"/>
<path fill-rule="evenodd" clip-rule="evenodd" d="M151.537 174.123L155.49 169.88L155.592 166.478L160.457 161.428H162.45L162.518 158.377H169.782V162.55H173.127L176.337 159.219H184.31V163.427L189.142 168.442V175.737H197.419L198.568 174.544L201.913 178.016L196.406 183.733H188.635L180.695 192.009H176.303V188.713H172.181V185.591L170.12 183.452V177.736H162.045L158.497 174.053L151.537 174.123Z" fill="white"/>
<path fill-rule="evenodd" clip-rule="evenodd" d="M142.584 183.489L145.996 179.947V176.79L148.564 174.125H158.498L162.011 177.807H170.12V183.454L172.181 185.593V188.714H176.303V192.011H179.31L175.289 196.184H171.505V198.253H160.761V201.585H153.598V199.446H145.794V194.045H139.645L142.584 190.994V183.489Z" fill="white"/>
<path fill-rule="evenodd" clip-rule="evenodd" d="M171.505 196.184V198.253H160.76V201.584H153.598V199.445H145.793V204.776H152.956V207.09H159.646L167.045 214.806V218.488H172.282V213.122L175.289 210.001V196.184H171.505Z" fill="white"/>
<path fill-rule="evenodd" clip-rule="evenodd" d="M142.247 204.775L134.881 212.421H131.401L120.725 223.538L123.056 225.958L126.198 222.696L132.753 229.5H137.618L146.436 238.653V244.72H149.95L153.329 241.213V232.972L160.897 225.116H163.836L154.815 234.48H158.228L169.58 222.661V218.488H167.046V214.805L159.647 207.09H152.957V204.775H142.247Z" fill="white"/>
<path fill-rule="evenodd" clip-rule="evenodd" d="M24.7695 79.0507V84.7671L29.601 89.7471V93.1138H32.135V96.691H39.5343L43.2846 92.7982V101.916H58.7589L62.3403 98.2341L63.9959 96.3403V94.692L58.6576 89.1509H52.3057L46.0214 82.5577H33.1486L29.7362 79.0156L24.7695 79.0507Z" fill="white"/>
</g>
<path d="M219 111.5C219 149.884 187.884 181 149.5 181C111.116 181 80 149.884 80 111.5C80 73.1162 111.116 42 149.5 42C187.884 42 219 73.1162 219 111.5ZM121.7 111.5C121.7 126.854 134.146 139.3 149.5 139.3C164.854 139.3 177.3 126.854 177.3 111.5C177.3 96.1465 164.854 83.7 149.5 83.7C134.146 83.7 121.7 96.1465 121.7 111.5Z" fill="#FFBB99"/>
<path d="M149.5 42C160.468 42 171.28 44.5958 181.052 49.575C190.825 54.5543 199.28 61.7758 205.727 70.6489C212.173 79.5221 216.429 89.795 218.144 100.628C219.86 111.461 218.988 122.546 215.598 132.977L175.939 120.091C177.295 115.918 177.644 111.484 176.958 107.151C176.271 102.818 174.569 98.7088 171.991 95.1596C169.412 91.6103 166.03 88.7217 162.121 86.73C158.212 84.7383 153.887 83.7 149.5 83.7V42Z" fill="#0F438A"/>
<path d="M169.993 132.001C180.71 120.956 180.71 103.048 169.993 92.003C159.277 80.9579 141.902 80.9579 131.185 92.003C120.469 103.048 120.469 120.956 131.185 132.001C141.902 143.046 159.277 143.046 169.993 132.001Z" fill="#FF8040"/>
<path d="M167.61 131.997C178.327 120.952 178.327 103.044 167.61 91.9991C156.894 80.954 139.519 80.954 128.802 91.9991C118.086 103.044 118.086 120.952 128.802 131.997C139.519 143.042 156.894 143.042 167.61 131.997Z" fill="#FFD175"/>
<path d="M148.212 138.112C141.537 138.112 135.248 135.436 130.531 130.559C125.814 125.698 123.203 119.216 123.203 112.336C123.203 105.456 125.799 98.9744 130.531 94.1128C135.248 89.2512 141.537 86.5605 148.212 86.5605C154.887 86.5605 161.176 89.2359 165.893 94.1128C170.61 98.9744 173.221 105.456 173.221 112.336C173.221 119.216 170.625 125.698 165.893 130.559C161.176 135.421 154.887 138.112 148.212 138.112ZM148.212 88.1046C135.248 88.1046 124.701 98.9744 124.701 112.336C124.701 125.698 135.248 136.568 148.212 136.568C161.176 136.568 171.722 125.698 171.722 112.336C171.722 98.9744 161.176 88.1046 148.212 88.1046Z" fill="#FFB31A"/>
<path d="M151.653 119.812C151.713 119.261 151.698 118.757 151.594 118.314C151.49 117.87 151.282 117.457 150.986 117.075C150.674 116.693 150.274 116.311 149.755 115.959C149.235 115.608 148.612 115.241 147.856 114.858C146.551 114.201 145.394 113.544 144.34 112.871C143.302 112.198 142.427 111.465 141.715 110.67C141.003 109.875 140.484 108.973 140.158 107.979C139.831 106.985 139.742 105.839 139.891 104.539C140.024 103.408 140.336 102.414 140.825 101.527C141.315 100.656 141.967 99.9068 142.768 99.3106C143.569 98.7143 144.489 98.2557 145.542 97.9499C146.595 97.6442 147.752 97.5066 149.013 97.5372L149.502 93.2871L152.825 93.6999L152.336 98.0111C153.507 98.3169 154.546 98.7755 155.451 99.3717C156.355 99.9833 157.112 100.717 157.705 101.573C158.298 102.445 158.714 103.423 158.951 104.539C159.188 105.655 159.233 106.863 159.085 108.193L153.092 107.459C153.27 105.869 153.062 104.646 152.469 103.775C151.876 102.903 151.001 102.399 149.858 102.261C149.235 102.185 148.687 102.215 148.227 102.338C147.752 102.46 147.366 102.659 147.04 102.934C146.714 103.209 146.462 103.545 146.269 103.958C146.076 104.371 145.957 104.814 145.898 105.303C145.839 105.793 145.853 106.251 145.957 106.664C146.046 107.077 146.239 107.474 146.551 107.857C146.847 108.239 147.263 108.606 147.782 108.973C148.301 109.339 148.968 109.737 149.755 110.15C151.03 110.822 152.187 111.51 153.226 112.183C154.264 112.856 155.139 113.605 155.836 114.4C156.548 115.21 157.053 116.097 157.394 117.091C157.72 118.084 157.809 119.216 157.661 120.5C157.527 121.662 157.216 122.686 156.711 123.557C156.207 124.429 155.569 125.163 154.768 125.759C153.967 126.34 153.048 126.783 151.98 127.074C150.912 127.364 149.755 127.486 148.494 127.456L148.034 131.4L144.741 131.003L145.186 127.074C144.059 126.814 142.976 126.416 141.952 125.896C140.929 125.361 140.039 124.673 139.297 123.833C138.556 122.976 137.992 121.967 137.636 120.76C137.265 119.567 137.176 118.161 137.354 116.586L143.347 117.32C143.243 118.252 143.273 119.063 143.465 119.72C143.643 120.377 143.94 120.928 144.311 121.356C144.696 121.784 145.156 122.105 145.675 122.334C146.209 122.548 146.758 122.701 147.322 122.762C147.975 122.839 148.553 122.824 149.057 122.716C149.562 122.609 150.007 122.411 150.378 122.151C150.748 121.891 151.03 121.555 151.253 121.157C151.46 120.76 151.609 120.316 151.653 119.827V119.812Z" fill="#FFB31A"/>
<defs>
<clipPath id="clip0_5568_21982">
<rect width="236" height="245" fill="white" transform="translate(24.5)"/>
</clipPath>
</defs>
</svg>
