<svg width="286" height="256" viewBox="0 0 286 256" fill="none" xmlns="http://www.w3.org/2000/svg">
<g clip-path="url(#clip0_5568_22031)">
<path d="M30.8926 120.001C30.8926 120.001 30.8926 118.427 31.1123 117.907C31.3319 117.387 32.1556 115.252 32.1556 115.252H35.3815C35.3815 115.252 35.9856 117.195 36.013 117.825C36.0542 118.454 36.013 120.001 36.013 120.001H30.8789H30.8926Z" fill="#0A1729"/>
<path d="M51.3594 120.001C51.3594 120.001 51.3594 118.427 51.1397 117.907C50.9201 117.387 50.0964 115.252 50.0964 115.252H46.8705C46.8705 115.252 46.2665 117.195 46.239 117.825C46.1978 118.454 46.239 120.001 46.239 120.001H51.3731H51.3594Z" fill="#0A1729"/>
<path d="M38.4562 31.702C38.4562 31.702 38.3463 35.2055 37.8933 36.7793L34.3379 39.2564L47.736 41.2545L44.5375 36.8477C44.5375 36.8477 43.5765 32.1536 44.0844 30.4156C44.5924 28.6775 38.4562 31.702 38.4562 31.702Z" fill="#FF9280"/>
<path d="M38.4277 32.1797C38.4277 32.1797 39.4848 34.7252 41.489 34.6704C43.4795 34.6157 43.9325 32.3576 43.9325 32.3576L38.4277 32.1797Z" fill="#B06949"/>
<path d="M37.2343 30.1273C37.2343 30.1273 36.5891 26.9249 36.1361 25.9532C35.6831 24.9815 35.3124 20.6432 40.2955 20.4242C40.2955 20.4242 42.2037 20.6432 43.2607 20.0137C43.2607 20.0137 43.2607 20.6432 42.9999 20.8759C42.9999 20.8759 44.7295 20.4653 46.0748 21.957C47.4201 23.4487 45.1688 28.6903 45.2924 29.922L37.2343 30.1409V30.1273Z" fill="#142E52"/>
<path d="M44.0161 24.0781H38.4976C37.7564 24.0781 37.1523 24.7898 37.1523 25.652V29.3607C37.1523 31.742 39.8155 33.658 41.2569 33.6854C42.9179 33.7127 45.3614 31.6462 45.3614 29.1554V25.652C45.3614 24.7898 44.7574 24.0781 44.0161 24.0781Z" fill="#FF9280"/>
<path d="M37.1517 27.6363C37.1517 27.6363 37.1517 25.4055 38.9363 25.0634C40.7072 24.7213 44.6744 26.1446 45.2373 24.5297C45.8001 22.9011 37.5773 22.9285 37.1655 23.9686C36.7536 25.0087 37.1655 27.6363 37.1655 27.6363H37.1517Z" fill="#142E52"/>
<path d="M31.3049 65.5176C31.3049 65.5176 31.8678 82.6929 31.0304 92.478C30.193 102.277 31.0304 115.908 31.0304 115.908C31.0304 115.908 33.721 117.386 36.6449 115.908C36.6449 115.908 39.8572 96.9806 39.8297 92.478C39.8023 87.6744 43.3165 66.2566 43.3165 66.2566L31.2912 65.5039L31.3049 65.5176Z" fill="#142E52"/>
<path d="M51.251 115.921C51.251 115.921 48.5604 117.399 45.6364 115.921C45.6364 115.921 42.4242 96.9943 42.4516 92.4917C42.4516 90.4663 41.8339 85.4711 41.1201 80.3801C40.1317 73.4141 38.9648 66.2703 38.9648 66.2703L51.4569 65.4902C51.4569 65.4902 50.4273 82.6929 51.2647 92.4917C52.1021 102.291 51.2647 115.921 51.2647 115.921H51.251Z" fill="#142E52"/>
<path d="M34.8595 68.9248C32.8278 68.6511 31.3864 68.3774 31.3864 68.3774C31.3864 68.3774 30.3019 68.4732 30.9471 63.1632C31.4276 59.126 31.2766 55.4857 31.1668 51.7222C31.1668 51.3116 31.1668 50.8052 31.1942 50.2578C31.5099 50.7505 34.9693 56.3205 35.889 60.4672C36.5617 63.4917 35.5458 67.0362 34.8595 68.9248Z" fill="#0041D9"/>
<path d="M49.0818 37.6689C47.462 37.272 45.9382 36.9983 44.5243 36.8341C43.2751 38.4763 42.3828 38.8595 41.2571 39.3111C39.4313 39.0648 37.8801 36.8067 37.8801 36.7656C35.8896 36.9709 34.5443 37.3404 33.9952 37.5046C33.8854 37.5046 28.0375 38.2847 19.7598 55.0768C19.7598 55.0768 20.199 56.6233 22.3817 59.3193C23.9192 61.2353 26.349 63.7398 30.0966 66.6685C30.0966 66.6685 30.4535 65.9158 30.7693 64.6977C30.7693 64.6977 28.5454 60.3731 27.2001 57.4444C26.5412 56.0211 26.1019 54.9263 26.2254 54.8168C26.4725 54.6115 29.1631 52.285 31.1536 50.5606C31.1399 50.9986 31.1399 51.3817 31.1536 51.7239C31.2635 55.4737 31.4145 59.1277 30.934 63.165C30.3025 68.4749 31.3733 68.3791 31.3733 68.3791C31.3733 68.3791 32.8284 68.6665 34.8463 68.9266C36.6858 69.1729 38.9783 69.4056 41.1061 69.4056C45.9657 69.4056 51.2919 68.3791 51.2919 68.3791C52.8294 68.3928 50.8664 58.8677 50.5781 53.1335C50.5095 51.806 50.4546 50.588 50.3859 49.4795C52.2117 51.067 56.275 54.5842 56.577 54.8305C56.7006 54.94 56.2613 56.0348 55.6024 57.4581C54.2571 60.3868 52.0332 64.7114 52.0332 64.7114C52.3627 65.9294 52.7059 66.6821 52.7059 66.6821C56.4535 63.7398 58.8695 61.249 60.4208 59.333C62.5897 56.637 63.0427 55.0905 63.0427 55.0905C54.6964 38.1342 49.0818 37.6826 49.0818 37.6826V37.6689Z" fill="#3B4AFF"/>
<path d="M42.437 92.4926C42.437 90.4672 41.8193 85.472 41.1055 80.3809C41.8468 77.3428 43.6725 74.4141 43.6725 74.4141C45.9787 80.8599 42.437 92.4926 42.437 92.4926Z" fill="#0A1729"/>
<path d="M30.3288 64.916C30.3288 64.916 32.3468 63.0411 33.1842 64.0948C34.0078 65.1349 34.1588 66.7909 33.5274 66.6677C32.8959 66.5582 31.5781 65.9561 31.3859 66.2571C31.1937 66.5582 30.3563 67.133 30.1092 66.6677C29.8484 66.2161 30.3426 64.9023 30.3426 64.9023L30.3288 64.916Z" fill="#FF9280"/>
<path d="M30.7821 64.7103C30.4526 65.9284 30.1094 66.6811 30.1094 66.6811C26.3618 63.7387 23.9457 61.2479 22.3945 59.3319C23.5614 59.2498 25.2636 58.8256 27.2129 57.457C28.5582 60.3857 30.7821 64.7103 30.7821 64.7103Z" fill="#FF9280"/>
<path d="M52.4847 64.916C52.4847 64.916 50.4668 63.0411 49.6294 64.0948C48.8058 65.1349 48.6548 66.7909 49.2862 66.6677C49.9177 66.5582 51.2355 65.9561 51.4277 66.2571C51.6199 66.5582 52.4573 67.133 52.7044 66.6677C52.9652 66.2161 52.471 64.9023 52.471 64.9023L52.4847 64.916Z" fill="#FF9280"/>
<path d="M52.0332 64.7103C52.3627 65.9284 52.7059 66.6811 52.7059 66.6811C56.4535 63.7387 58.8695 61.2479 60.4207 59.3319C59.2539 59.2498 57.5517 58.8256 55.6024 57.457C54.2571 60.3857 52.0332 64.7103 52.0332 64.7103Z" fill="#FF9280"/>
<path d="M56.5759 54.8306C56.2739 54.5842 52.1969 51.0397 50.3711 49.4658C50.3711 49.4658 52.1831 48.111 53.3088 50.0817C54.4344 52.0661 56.5759 54.8169 56.5759 54.8169V54.8306Z" fill="#0024A9"/>
<path d="M63.0426 55.0898C63.0426 55.0898 62.6034 56.6363 60.4207 59.3324C57.9085 59.2913 63.0426 55.0898 63.0426 55.0898Z" fill="#0024A9"/>
<path d="M38.0715 35.916C38.0715 35.916 37.4812 36.1624 37.3027 36.8329C37.3027 36.8329 39.6913 39.2826 41.2563 39.3237L38.0715 35.916Z" fill="#0024A9"/>
<path d="M41.2559 39.3238L44.3308 35.793C44.3308 35.793 44.9623 36.2035 44.9623 36.9015C44.9623 36.9015 42.5737 39.4196 41.2559 39.3238Z" fill="#0024A9"/>
<path d="M40.7075 39.0645C40.7075 39.0645 38.3601 59.3053 39.17 61.7687C39.5955 63.0415 40.1584 64.1363 40.5976 64.9027C40.9134 65.4501 41.7233 65.4501 42.039 64.9027C42.6568 63.8215 43.4804 62.2614 43.4804 61.4676C43.4804 60.1812 41.6959 39.0508 41.6959 39.0508H40.6937L40.7075 39.0645Z" fill="#FFB380"/>
<path d="M40.0892 38.0654C40.0892 38.0654 41.5168 37.9285 42.3817 38.0106C42.5464 38.0243 42.6425 38.2159 42.5601 38.3664C42.313 38.8044 41.8188 39.5571 41.3109 39.5571C40.803 39.5571 39.4577 38.1201 40.0892 38.0654Z" fill="#FFB380"/>
<path d="M43.1639 31.4683V33.0148C42.5187 33.4664 41.8186 33.7264 41.2145 33.7264C40.6929 33.7264 40.0203 33.4664 39.3613 33.0285V31.482C39.3613 30.6198 40.0752 29.9219 40.9263 29.9219H41.5852C42.45 29.9219 43.1501 30.6198 43.1501 31.482L43.1639 31.4683Z" fill="#142E52"/>
<path d="M44.9628 30.852C44.2215 32.5353 42.4918 33.7396 41.2151 33.7259C39.9934 33.6986 37.9068 32.33 37.2891 30.4825C37.2891 30.4688 37.2891 30.4277 37.2891 30.4277C37.2891 30.4277 38.5932 31.5363 39.4717 30.9888H43.1095C43.1095 30.9888 44.0567 31.5363 44.9765 30.8657L44.9628 30.852Z" fill="#142E52"/>
<path d="M41.6689 31.276H40.8864C40.708 31.276 40.4746 30.9886 40.4746 30.7971C40.4746 30.7971 40.708 30.6191 40.8864 30.6191H41.6689C41.8474 30.6191 42.1082 30.7697 42.1494 30.8792C42.1494 30.8792 42.0395 31.276 41.6689 31.276Z" fill="#FFB18F"/>
</g>
<path d="M99.502 107.461L97.828 114.443L95.3318 114.428L95.229 107.461H99.502Z" fill="#FFB18F"/>
<path d="M82.0664 107.766L77.3089 114.442L75.4587 112.086L78.322 106.85L82.0664 107.766Z" fill="#FFB18F"/>
<path d="M95.7678 20.3348C96.6682 20.0291 97.653 20.1747 98.3284 20.364C98.1877 20.1456 97.8641 20 97.8641 20C98.3002 20.0291 99.1584 20.6551 99.1584 20.6551C105.475 19.5341 104.659 28.677 104.139 30.7298C103.618 32.7825 105.574 33.9035 108.317 36.1747C113.523 40.5278 113.227 44.808 113.227 44.808C113.171 44.8226 113.129 44.8517 113.073 44.8662C112.876 44.2985 112.468 43.2211 112.003 42.9736C112.003 43.0173 112.341 44.4149 112.411 45.172C110.428 46.162 106.629 48.4914 103.97 50.151C104.054 49.7434 104.153 49.1465 104.068 48.7971L103.449 50.4713C102.028 51.3594 101.044 52 101.044 52C101.522 50.3549 95.7537 39.9163 92.3631 36.4513C91.6878 34.8062 91.8566 32.1711 91.8707 31.9672C91.6456 34.0346 91.7581 35.2429 91.927 35.9418C89.2257 32.0983 93.3761 21.1356 95.7678 20.3203V20.3348Z" fill="#142E52"/>
<path d="M92.9236 37.1482C92.909 37.1482 94.9353 38.1955 96.4624 37.7882C97.9014 37.3955 98.8412 35.5627 98.8118 35.5482C98.2098 35.4318 98.0336 34.6027 98.0483 31.0391L97.7693 31.0972L93.1439 31.9991C93.1439 31.9991 93.2467 33.4391 93.2467 34.7918C93.2467 35.9264 93.1733 37.0173 92.9236 37.1336V37.1482Z" fill="#FFB18F"/>
<path d="M100.77 23.0007C100.77 23.0007 99.2695 19 94.7695 21.639C94.7695 21.639 96.7871 21.6914 100.77 23.0007Z" fill="white"/>
<path d="M93.1452 32.0004C93.1452 32.0004 93.2479 33.4404 93.2479 34.7931C95.8323 34.7204 97.1979 32.3785 97.7559 31.084L93.1305 31.9858L93.1452 32.0004Z" fill="#FF9280"/>
<path d="M98.7238 31.2568C98.7238 31.2568 100.471 29.4386 101.161 27.7222C101.646 26.5004 101.954 21.6567 97.0351 21.3804C97.0351 21.3804 95.6255 21.2349 94.1424 21.8458C92.9677 22.3258 91.1616 23.5331 91.9986 27.9695L92.1454 29.4386L98.7238 31.2277V31.2568Z" fill="#142E52"/>
<path d="M75.8533 111.692C75.8533 111.692 77.1004 111.779 78.1027 111.772C78.3233 111.765 78.544 111.759 78.7194 111.743C79.2018 111.697 80.0625 111.44 80.6336 111.24L80.6774 111.236C80.9337 111.139 81.1197 111.077 81.19 111.041L81.2192 111.039C81.2192 111.039 86.6788 103.729 89.0799 92.6173C89.1297 92.3642 89.1928 92.0953 89.2559 91.8263C90.6152 86.2336 93.8632 79.0889 95.3282 72.7411C95.5567 71.726 95.7629 70.7861 95.9439 69.8923C96.0056 69.6089 96.0527 69.3269 96.1144 69.0434C97.1301 63.7169 97.2457 60.258 97.2969 56.5859L85.2955 60.8468C85.2955 60.8468 82.2319 83.5194 75.8373 111.679L75.8533 111.692Z" fill="#FFA375"/>
<path d="M92.3363 32.7276C92.3363 32.7276 98.3126 34.0222 99.0761 30.3276C99.8397 26.6185 101.117 24.3057 97.3287 23.3167C93.5403 22.3276 92.5125 23.593 91.9545 24.7712C91.3965 25.9494 90.8091 32.3058 92.3363 32.7276Z" fill="#FFB18F"/>
<path d="M94.6126 22.6773C94.6126 22.6773 95.3761 27.3464 97.7696 28.4955C100.163 29.6446 101.396 29.1936 101.396 29.1936C101.396 29.1936 99.7666 27.2882 99.9134 24.5536C99.9134 24.5536 96.2865 20.8591 94.6273 22.6918L94.6126 22.6773Z" fill="#142E52"/>
<path d="M94.9502 23.1122C94.9502 23.1122 93.5258 23.8395 93.0413 24.7268C92.5567 25.6141 92.0281 27.5195 91.4701 27.345C91.4701 27.345 90.8387 24.145 92.5714 22.7486C94.4069 21.265 94.9648 23.1122 94.9648 23.1122H94.9502Z" fill="#142E52"/>
<path d="M97.9149 114.051C97.9149 114.051 97.7094 115.433 98.238 116.916C98.238 116.916 98.6491 118.764 96.8137 118.807C94.9782 118.836 94.523 118.676 94.7286 117.542C94.9341 116.407 95.3306 114.444 95.3306 114.444L97.9149 114.065V114.051Z" fill="#FFB18F"/>
<path d="M98.239 116.917C98.239 116.917 98.5767 118.662 98.3711 119.593C98.3711 119.593 97.8132 120 96.4769 120C95.1407 120 94.5534 119.593 94.5534 119.593C94.5534 119.593 94.5093 117.673 94.847 116.873C94.847 116.873 96.1539 118.808 98.239 116.917Z" fill="#243342"/>
<path d="M71.0243 117.717C71.0243 117.717 74.4162 113.993 75.4588 112.088L77.9844 113.368L72.3458 118.619L71.0243 118.444V117.717Z" fill="#FFB18F"/>
<path d="M68.8664 119.898C68.8664 119.898 72.508 119.898 73.1394 119.825C73.7708 119.753 74.2701 118.865 74.9455 117.527C75.2245 116.974 75.8412 116.669 76.4873 116.509V119.622H77.4565L78.3669 116.32C78.9689 115.229 78.4109 114.24 77.9851 113.367C77.5005 113.367 76.1643 113.702 73.668 116.494C72.8458 117.411 71.9354 117.745 71.025 117.716C71.025 117.716 70.9956 117.716 70.9809 117.731C68.8958 118.662 68.8664 119.898 68.8664 119.898Z" fill="#243342"/>
<path d="M78.1039 111.771C78.3245 111.765 78.5452 111.758 78.7206 111.742C79.203 111.696 80.0637 111.439 80.6348 111.239L80.6786 111.235L81.1912 111.041L81.2204 111.038C81.2204 111.038 86.68 103.728 89.0811 92.6165C89.1309 92.3634 89.194 92.0944 89.2571 91.8255C90.6164 86.2327 93.8644 79.0881 95.3294 72.7403C95.5579 71.7252 95.7641 70.7852 95.9451 69.8915C96.0068 69.6081 96.0539 69.326 96.1156 69.0426L93.7828 67.6121C93.7828 67.6121 88.2378 78.6995 87.1524 88.7517C86.2432 97.0778 80.0381 108.359 78.1025 111.756L78.1039 111.771Z" fill="#FF8040"/>
<path d="M94.0411 89.7161C93.997 94.5306 94.2466 105.6 94.878 110.196C94.878 110.196 95.4801 110.72 96.9631 110.734C98.4903 110.734 99.1657 110.182 99.1657 110.182C100.752 102.211 101.882 95.6216 102.705 89.9343C103.38 85.2651 103.982 81.2797 104.437 77.8324C104.848 74.7778 105.142 72.1742 105.289 69.9196C105.304 69.6142 105.318 69.3087 105.333 69.0178C105.348 68.6251 105.362 68.2614 105.377 67.8978C105.377 67.5342 105.377 67.1705 105.377 66.836H105.318L102.249 66.5305L92.5433 65.5996C92.7048 74.036 94.0264 86.9379 93.997 89.7452L94.0411 89.7161Z" fill="#FFA375"/>
<path d="M96.9778 110.734C98.2699 110.806 99.1803 110.181 99.1803 110.181C100.766 102.21 101.897 95.6209 102.719 89.9336C103.395 85.2645 103.997 81.279 104.452 77.8317C104.863 74.7772 105.157 72.1735 105.303 69.919C105.318 68.8135 105.333 67.7517 105.348 66.8208C105.348 65.8898 105.377 65.0898 105.406 64.5371L102.279 66.5153L98.9894 68.5953C98.9894 68.5953 103.659 72.799 102.514 80.7408C101.368 88.6827 98.5636 109.599 96.9778 110.719V110.734Z" fill="#FF8040"/>
<path d="M94.4365 35.3888C94.4365 35.3888 89.4587 34.6033 87.7847 36.2469C85.729 38.2688 81.8819 49.847 82.0434 51.1706C82.1021 51.6797 84.1285 51.447 84.8186 50.7197C88.2693 47.127 93.2324 38.0651 94.4512 35.3742L94.4365 35.3888Z" fill="#0F438A"/>
<path d="M84.7578 67.7389C88.4728 68.6989 105.844 70.5898 105.991 66.2843C106.035 65.237 105.991 63.9716 105.902 62.5898C105.638 58.3279 104.933 53.077 104.596 50.1824C104.434 48.8588 104.963 42.9097 104.566 39.6806C104.507 39.2006 104.434 38.7788 104.331 38.4442C103.582 36.0006 100.205 35.346 98.4871 35.2878L93.2744 35.1133C93.2744 35.1133 87.8854 41.0769 87.1365 42.9097C86.3877 44.7424 86.1381 51.0115 85.5654 54.0515C84.978 57.0916 82.9664 67.288 84.7871 67.7534L84.7578 67.7389Z" fill="#0F438A"/>
<path opacity="0.7" d="M95.0089 53.1779C95.0089 53.1779 97.9163 62.0071 105.904 62.5889C105.64 58.327 104.935 53.0761 104.597 50.1816C104.436 48.8579 104.965 42.9088 104.568 39.6797C104.465 39.6942 104.362 39.7524 104.26 39.7815C95.4641 41.4688 94.216 51.3452 95.0089 53.1925V53.1779Z" fill="#142E52"/>
<path d="M82.2792 51.4027C82.2792 51.4027 87.5213 53.1045 93.9088 50.37C93.9088 50.37 95.6415 50.21 96.5078 50.4282C96.5078 50.4282 96.3169 48.7263 95.4799 48.2609C94.643 47.7954 91.0014 48.7991 89.9148 48.6536C87.536 48.3336 83.4099 48.0718 82.2792 51.4027Z" fill="#FF9280"/>
<path opacity="0.7" d="M86.9464 47.4334C86.9464 47.4334 86.4618 43.2152 88.1211 40.6698C88.1211 40.6698 87.5337 40.4661 87.1079 41.1352C86.6821 41.7898 83.7453 48.0589 85.1403 48.5244C86.5352 48.9898 86.9464 47.4334 86.9464 47.4334Z" fill="#142E52"/>
<path d="M94.5988 48.1309C94.6722 48.1309 97.0803 48.4363 97.4915 48.7418C97.9173 49.0327 97.5355 50.08 96.7426 50.1818C95.9497 50.2836 94.5988 48.1309 94.5988 48.1309Z" fill="#FF9280"/>
<path d="M101.162 49.731C101.162 49.731 94.3341 49.4837 88.1229 48.291C88.1229 48.291 86.9923 48.291 87.1244 49.2801C87.2566 50.2547 97.8729 55.7529 100.208 54.691L101.162 49.731Z" fill="#FFB18F"/>
<path d="M88.1211 48.2907C88.1211 48.2907 87.4016 47.418 86.9464 47.418C86.4912 47.418 85.3165 47.9852 85.1403 48.5089C84.9641 49.0325 86.5352 48.6543 87.1079 49.2798C87.6953 49.9053 88.1064 48.2907 88.1064 48.2907H88.1211Z" fill="#FFB18F"/>
<path d="M98.4749 35.2715C98.4749 35.2715 104.216 35.2715 105.053 37.3224C106.58 41.0461 101.529 53.4243 100.193 54.6897C99.6202 55.2279 96.9624 54.3843 96.9624 50.8206C96.9624 47.257 97.0946 38.166 98.4602 35.2715H98.4749Z" fill="#0F438A"/>
<g opacity="0.6">
<path d="M139.632 36.328C139.632 36.328 135.766 36.1414 135.656 33.9638C135.547 31.7862 132.355 30.2042 133.276 28.4621C134.407 26.3201 133.376 24.267 134.808 22.8271C136.386 21.2451 138.374 22.1072 139.432 21.1829C140.48 20.2585 142.405 19.4053 144.301 20.5518C146.198 21.6895 147.639 21.0762 148.888 22.1783C150.266 23.396 149.746 24.9247 150.877 25.7513C151.916 26.5157 151.497 28.5866 150.612 30.2753C149.983 31.4929 151.433 32.6306 148.934 34.0349C147.894 34.6126 148.122 36.0792 144.958 36.3369C143.535 36.4524 140.444 35.8036 139.614 36.3369L139.632 36.328Z" fill="white"/>
<path d="M132.255 119.999C132.255 119.999 132.255 118.47 132.474 117.963C132.693 117.457 133.514 115.395 133.514 115.395H136.705C136.705 115.395 137.298 117.279 137.335 117.892C137.371 118.505 137.335 119.999 137.335 119.999H132.246H132.255Z" fill="white"/>
<path d="M152.557 119.999C152.557 119.999 152.557 118.47 152.338 117.963C152.119 117.457 151.298 115.395 151.298 115.395H148.106C148.106 115.395 147.514 117.279 147.477 117.892C147.441 118.505 147.477 119.999 147.477 119.999H152.566H152.557Z" fill="white"/>
<path d="M139.742 34.4073C139.742 34.4073 139.632 37.8025 139.185 39.3223L135.656 41.7221L148.943 43.6597L145.779 39.3935C145.779 39.3935 144.821 34.8428 145.323 33.1541C145.824 31.4742 139.751 34.4073 139.751 34.4073H139.742Z" fill="white"/>
<path d="M139.724 34.8702C139.724 34.8702 140.773 37.3322 142.752 37.2789C144.731 37.2255 145.177 35.0391 145.177 35.0391L139.715 34.8613L139.724 34.8702Z" fill="white"/>
<path d="M142.533 36.3283C141.102 36.3016 138.457 34.444 138.457 32.1421V28.5424C138.457 27.698 139.059 27.0137 139.798 27.0137H145.269C146.008 27.0137 146.61 27.698 146.61 28.5424V31.9376C146.61 34.3552 144.184 36.3639 142.533 36.3283Z" fill="white"/>
<path d="M132.656 67.1875C132.656 67.1875 133.213 83.8258 132.383 93.3271C131.544 102.82 132.383 116.036 132.383 116.036C132.383 116.036 135.055 117.476 137.955 116.036C137.955 116.036 141.137 97.6911 141.11 93.3271C141.092 88.6787 144.566 67.9163 144.566 67.9163L132.647 67.1875H132.656Z" fill="white"/>
<path d="M152.437 116.035C152.437 116.035 149.765 117.475 146.865 116.035C146.865 116.035 143.682 97.6905 143.71 93.3264C143.71 91.3622 143.099 86.5271 142.387 81.5943C141.411 74.8483 140.244 67.9156 140.244 67.9156L152.628 67.1602C152.628 67.1602 151.607 83.8341 152.446 93.3264C153.285 102.819 152.446 116.035 152.446 116.035H152.437Z" fill="white"/>
<path d="M150.294 40.1944C148.689 39.8033 147.175 39.5455 145.78 39.3856C144.549 40.9854 143.664 41.3498 142.533 41.7853C140.719 41.5365 139.187 39.3589 139.187 39.3145C137.208 39.51 135.876 39.8655 135.338 40.0255C135.229 40.0344 129.438 40.781 121.23 57.0638C121.23 57.0638 121.668 58.5659 123.82 61.1789C125.352 63.0365 127.751 65.463 131.472 68.3071C131.472 68.3071 131.827 67.5783 132.146 66.3962C132.146 66.3962 129.94 62.2011 128.608 59.3658C127.961 57.9793 127.523 56.9216 127.651 56.8238C127.888 56.6283 130.569 54.3707 132.539 52.6909C132.52 53.1086 132.52 53.4908 132.529 53.8197C132.639 57.4549 132.785 60.9923 132.311 64.903C131.681 70.0492 132.748 69.9514 132.748 69.9514C132.748 69.9514 134.189 70.2269 136.195 70.4847C138.01 70.7247 140.299 70.9469 142.397 70.9469C147.212 70.9469 152.492 69.9514 152.492 69.9514C154.015 69.9692 152.063 60.7345 151.781 55.1795C151.717 53.8908 151.653 52.7087 151.598 51.6332C153.413 53.1708 157.435 56.575 157.726 56.8149C157.854 56.9127 157.416 57.9793 156.769 59.3569C155.437 62.1922 153.23 66.3873 153.23 66.3873C153.55 67.5694 153.905 68.2982 153.905 68.2982C157.626 65.4541 160.024 63.0276 161.557 61.1701C163.709 58.557 164.146 57.0549 164.146 57.0549C155.866 40.621 150.312 40.1766 150.312 40.1766L150.294 40.1944Z" fill="white"/>
<path d="M136.187 70.4942C134.181 70.2365 132.74 69.9609 132.74 69.9609C132.74 69.9609 131.673 70.0498 132.302 64.9125C132.785 61.0018 132.63 57.4644 132.521 53.8292C132.512 53.4292 132.521 52.9493 132.539 52.416C132.849 52.896 136.278 58.291 137.199 62.3084C137.874 65.2325 136.862 68.6811 136.178 70.5031L136.187 70.4942Z" fill="white"/>
<path d="M143.709 93.3268C143.709 91.3626 143.098 86.5275 142.387 81.5947C143.125 78.6439 144.931 75.8086 144.931 75.8086C147.22 82.0569 143.709 93.3268 143.709 93.3268Z" fill="white"/>
<path d="M131.7 66.6096C131.7 66.6096 133.706 64.7965 134.527 65.8097C135.347 66.8229 135.493 68.4139 134.864 68.3072C134.235 68.2006 132.931 67.6229 132.748 67.9073C132.566 68.2006 131.727 68.7516 131.481 68.3072C131.225 67.8628 131.709 66.6007 131.709 66.6007L131.7 66.6096Z" fill="white"/>
<path d="M132.146 66.3948C131.827 67.5769 131.472 68.3057 131.472 68.3057C127.751 65.4615 125.352 63.0351 123.82 61.1775C124.978 61.0975 126.656 60.6887 128.599 59.3555C129.93 62.1907 132.137 66.3859 132.137 66.3859L132.146 66.3948Z" fill="white"/>
<path d="M153.66 66.6096C153.66 66.6096 151.654 64.7965 150.833 65.8097C150.012 66.8229 149.866 68.4139 150.496 68.3072C151.125 68.2006 152.429 67.6229 152.611 67.9073C152.794 68.1917 153.633 68.7516 153.879 68.3072C154.134 67.8628 153.651 66.6007 153.651 66.6007L153.66 66.6096Z" fill="white"/>
<path d="M153.213 66.3948C153.532 67.5769 153.888 68.3057 153.888 68.3057C157.608 65.4615 160.007 63.0351 161.539 61.1775C160.381 61.0975 158.703 60.6887 156.76 59.3555C155.429 62.1907 153.222 66.3859 153.222 66.3859L153.213 66.3948Z" fill="white"/>
<path d="M157.718 56.8247C157.417 56.5847 153.368 53.1539 151.562 51.6252C151.562 51.6252 153.368 50.3098 154.481 52.2296C155.593 54.1494 157.718 56.8247 157.718 56.8247Z" fill="white"/>
<path opacity="0.2" d="M164.128 57.0723C164.128 57.0723 163.691 58.5743 161.538 61.1874C159.049 61.1519 164.128 57.0723 164.128 57.0723Z" fill="white"/>
<path d="M138.456 29.999C138.456 29.999 139.45 27.0393 142.715 27.5015C145.98 27.9636 146.262 28.6391 146.609 29.4302C146.956 30.2212 147.621 26.5505 147.621 26.5505L143.773 25.4395C143.773 25.4395 139.496 26.2749 138.785 26.7193C137.426 27.5637 137.426 28.177 137.426 28.177L138.456 30.0079V29.999Z" fill="white"/>
</g>
<g clip-path="url(#clip1_5568_22031)">
<path d="M132.253 119.999C132.253 119.999 132.253 118.47 132.472 117.963C132.691 117.457 133.512 115.395 133.512 115.395H136.704C136.704 115.395 137.296 117.279 137.333 117.892C137.369 118.505 137.333 119.999 137.333 119.999H132.244H132.253Z" fill="#080000"/>
<path d="M152.553 119.999C152.553 119.999 152.553 118.47 152.334 117.963C152.115 117.457 151.294 115.395 151.294 115.395H148.102C148.102 115.395 147.51 117.279 147.473 117.892C147.437 118.505 147.473 119.999 147.473 119.999H152.562H152.553Z" fill="#080000"/>
<path d="M139.742 34.4073C139.742 34.4073 139.632 37.8025 139.185 39.3223L135.656 41.7221L148.943 43.6597L145.779 39.3935C145.779 39.3935 144.821 34.8428 145.323 33.1541C145.824 31.4742 139.751 34.4073 139.751 34.4073H139.742Z" fill="#80492A"/>
<path d="M132.654 67.1875C132.654 67.1875 133.211 83.8258 132.381 93.3271C131.542 102.82 132.381 116.036 132.381 116.036C132.381 116.036 135.053 117.476 137.953 116.036C137.953 116.036 141.135 97.6911 141.108 93.3271C141.09 88.6787 144.564 67.9163 144.564 67.9163L132.645 67.1875H132.654Z" fill="#0041D9"/>
<path d="M152.435 116.035C152.435 116.035 149.763 117.475 146.863 116.035C146.863 116.035 143.68 97.6905 143.708 93.3264C143.708 91.3622 143.097 86.5271 142.385 81.5943C141.409 74.8483 140.242 67.9156 140.242 67.9156L152.626 67.1602C152.626 67.1602 151.605 83.8341 152.444 93.3264C153.283 102.819 152.444 116.035 152.444 116.035H152.435Z" fill="#0041D9"/>
<path d="M150.292 40.1944C148.687 39.8033 147.173 39.5455 145.778 39.3856C144.547 40.9854 143.662 41.3498 142.531 41.7853C140.717 41.5365 139.185 39.3589 139.185 39.3145C137.206 39.51 135.874 39.8655 135.336 40.0255C135.227 40.0344 129.436 40.781 121.229 57.0638C121.229 57.0638 121.666 58.5659 123.818 61.1789C125.35 63.0365 127.749 65.463 131.47 68.3071C131.47 68.3071 131.825 67.5783 132.144 66.3962C132.144 66.3962 129.938 62.2011 128.606 59.3658C127.959 57.9793 127.521 56.9216 127.649 56.8238C127.886 56.6283 130.567 54.3707 132.537 52.6909C132.518 53.1086 132.518 53.4908 132.527 53.8197C132.637 57.4549 132.783 60.9923 132.309 64.903C131.679 70.0492 132.746 69.9514 132.746 69.9514C132.746 69.9514 134.187 70.2269 136.193 70.4847C138.008 70.7247 140.297 70.9469 142.395 70.9469C147.21 70.9469 152.49 69.9514 152.49 69.9514C154.013 69.9692 152.061 60.7345 151.779 55.1795C151.715 53.8908 151.651 52.7087 151.596 51.6332C153.411 53.1708 157.433 56.575 157.724 56.8149C157.852 56.9127 157.414 57.9793 156.767 59.3569C155.435 62.1922 153.229 66.3873 153.229 66.3873C153.548 67.5694 153.903 68.2982 153.903 68.2982C157.624 65.4541 160.023 63.0276 161.555 61.1701C163.707 58.557 164.144 57.0549 164.144 57.0549C155.864 40.621 150.31 40.1766 150.31 40.1766L150.292 40.1944Z" fill="#FFA375"/>
<path d="M136.185 70.4942C134.179 70.2365 132.738 69.9609 132.738 69.9609C132.738 69.9609 131.671 70.0498 132.3 64.9125C132.784 61.0018 132.628 57.4644 132.519 53.8292C132.51 53.4292 132.519 52.9493 132.537 52.416C132.847 52.896 136.276 58.291 137.197 62.3084C137.872 65.2325 136.86 68.6811 136.176 70.5031L136.185 70.4942Z" fill="#FF8040"/>
<path d="M143.707 93.3268C143.707 91.3626 143.096 86.5275 142.385 81.5947C143.123 78.6439 144.929 75.8086 144.929 75.8086C147.218 82.0569 143.707 93.3268 143.707 93.3268Z" fill="#0024A9"/>
<path d="M131.696 66.6096C131.696 66.6096 133.702 64.7965 134.523 65.8097C135.343 66.8229 135.489 68.4139 134.86 68.3072C134.231 68.2006 132.927 67.6229 132.744 67.9073C132.562 68.2006 131.723 68.7516 131.477 68.3072C131.221 67.8628 131.705 66.6007 131.705 66.6007L131.696 66.6096Z" fill="#80492A"/>
<path d="M132.144 66.3948C131.825 67.5769 131.47 68.3057 131.47 68.3057C127.749 65.4615 125.35 63.0351 123.818 61.1775C124.977 61.0975 126.654 60.6887 128.597 59.3555C129.928 62.1907 132.135 66.3859 132.135 66.3859L132.144 66.3948Z" fill="#80492A"/>
<path d="M153.658 66.6096C153.658 66.6096 151.652 64.7965 150.831 65.8097C150.01 66.8229 149.864 68.4139 150.494 68.3072C151.123 68.2006 152.427 67.6229 152.609 67.9073C152.792 68.1917 153.631 68.7516 153.877 68.3072C154.132 67.8628 153.649 66.6007 153.649 66.6007L153.658 66.6096Z" fill="#80492A"/>
<path d="M153.211 66.3948C153.53 67.5769 153.886 68.3057 153.886 68.3057C157.606 65.4615 160.005 63.0351 161.537 61.1775C160.379 61.0975 158.701 60.6887 156.758 59.3555C155.427 62.1907 153.22 66.3859 153.22 66.3859L153.211 66.3948Z" fill="#80492A"/>
<path d="M157.714 56.8247C157.413 56.5847 153.364 53.1539 151.559 51.6252C151.559 51.6252 153.364 50.3098 154.477 52.2296C155.589 54.1494 157.714 56.8247 157.714 56.8247Z" fill="#FF8040"/>
<path opacity="0.2" d="M164.126 57.0723C164.126 57.0723 163.689 58.5743 161.536 61.1874C159.047 61.1519 164.126 57.0723 164.126 57.0723Z" fill="#142E52"/>
</g>
<g opacity="0.6">
<path d="M181.959 120.001C181.959 120.001 181.959 118.424 182.194 117.902C182.428 117.379 183.308 115.252 183.308 115.252H186.731C186.731 115.252 187.367 117.196 187.406 117.828C187.445 118.461 187.406 120.001 187.406 120.001H181.949H181.959Z" fill="white"/>
<path d="M203.73 120.001C203.73 120.001 203.73 118.424 203.495 117.902C203.26 117.379 202.38 115.252 202.38 115.252H198.958C198.958 115.252 198.322 117.196 198.283 117.828C198.244 118.461 198.283 120.001 198.283 120.001H203.739H203.73Z" fill="white"/>
<path d="M189.998 31.7015C189.998 31.7015 189.881 35.2038 189.402 36.7716L185.617 39.2471L199.865 41.2458L196.471 36.845C196.471 36.845 195.445 32.1507 195.983 30.4087C196.52 28.6759 190.008 31.7015 190.008 31.7015H189.998Z" fill="white"/>
<path d="M189.979 32.1875C189.979 32.1875 191.103 34.7272 193.225 34.6721C195.347 34.6171 195.826 32.3709 195.826 32.3709L189.969 32.1875H189.979Z" fill="white"/>
<path d="M188.708 30.1239C188.708 30.1239 188.023 26.9149 187.544 25.9431C187.065 24.9712 186.664 20.6346 191.964 20.4145C191.964 20.4145 193.998 20.6346 195.113 20.002C195.113 20.002 195.113 20.6346 194.829 20.8638C194.829 20.8638 196.658 20.4512 198.095 21.9457C199.532 23.4401 197.137 28.6753 197.254 29.9039L188.698 30.1239H188.708Z" fill="white"/>
<path d="M192.98 33.6905C191.445 33.663 188.609 31.7468 188.609 29.3722V25.659C188.609 24.788 189.255 24.082 190.047 24.082H195.914C196.706 24.082 197.351 24.788 197.351 25.659V29.1613C197.351 31.6552 194.75 33.7272 192.98 33.6905Z" fill="white"/>
<path d="M188.61 27.6384C188.61 27.6384 188.61 25.4105 190.497 25.0621C192.384 24.7228 196.599 26.1531 197.195 24.5211C197.792 22.8983 189.05 22.9258 188.61 23.9619C188.17 24.9979 188.61 27.6292 188.61 27.6292V27.6384Z" fill="white"/>
<path d="M182.39 65.5137C182.39 65.5137 182.987 82.677 182.097 92.478C181.197 102.27 182.097 115.903 182.097 115.903C182.097 115.903 184.962 117.389 188.072 115.903C188.072 115.903 191.485 96.9797 191.455 92.478C191.436 87.6829 195.161 66.2655 195.161 66.2655L182.381 65.5137H182.39Z" fill="white"/>
<path d="M203.601 115.911C203.601 115.911 200.736 117.397 197.627 115.911C197.627 115.911 194.214 96.9877 194.243 92.486C194.243 90.4598 193.588 85.4721 192.825 80.3837C191.779 73.4248 190.527 66.2735 190.527 66.2735L203.807 65.4941C203.807 65.4941 202.711 82.6941 203.611 92.486C204.511 102.278 203.611 115.911 203.611 115.911H203.601Z" fill="white"/>
<path d="M203.65 68.3737C203.65 68.3737 197.988 69.4006 192.825 69.4006C187.662 69.4006 188.121 69.1713 186.176 68.9238C184.024 68.6579 182.479 68.3737 182.479 68.3737C182.479 68.3737 181.335 68.4654 182.01 63.166C182.528 59.1319 182.362 55.4829 182.245 51.733C182.235 51.3204 182.245 50.8253 182.264 50.2752C182.489 45.9019 183.897 38.0262 184.973 37.6045C184.973 37.6045 186.567 37.0452 189.393 36.7793C189.393 36.8343 191.036 39.0806 192.981 39.3281C194.194 38.8789 195.143 38.4938 196.463 36.8526C198.135 37.036 199.963 37.3477 201.919 37.8428C201.919 37.8428 202.124 38.6772 202.887 53.1449C203.19 58.8752 205.283 68.4012 203.65 68.3829V68.3737Z" fill="white"/>
<path d="M194.242 92.4792C194.242 90.453 193.587 85.4653 192.824 80.3769C193.616 77.3329 195.552 74.4082 195.552 74.4082C198.007 80.8536 194.242 92.4792 194.242 92.4792Z" fill="white"/>
<path d="M177.013 54.8237C176.876 54.9245 177.346 56.0247 178.04 57.4458C179.467 60.3706 181.834 64.6981 181.834 64.6981C181.492 65.9175 181.11 66.6693 181.11 66.6693C177.121 63.7354 174.549 61.2324 172.906 59.3162C170.608 56.6298 170.139 55.0804 170.139 55.0804C179.018 38.1371 185.266 37.5137 185.266 37.5137L184.533 48.7175C184.533 48.7175 177.424 54.5119 177.013 54.8328V54.8237Z" fill="white"/>
<path d="M205.233 72.8039C203.912 75.2885 198.916 75.1969 198.916 75.1969C197.996 68.5956 197.801 37.0195 197.801 37.0195C199.492 37.2121 201.732 37.7805 201.732 37.7805C203.355 40.7236 203.932 46.2246 204.069 50.1029C204.147 52.2758 204.088 53.9353 204 54.357C203.873 54.9805 204.03 57.9327 204.274 61.2975C204.656 66.551 205.233 72.8131 205.233 72.8131V72.8039Z" fill="white"/>
<path d="M188.084 36.9277C188.084 36.9277 187.752 68.5955 186.833 75.1968C186.833 75.1968 181.846 75.2884 180.516 72.8038C180.516 72.8038 182.569 53.3117 182.246 51.7256C182.022 50.6162 182.608 41.5395 184.76 37.6337C184.76 37.6337 186.647 37.0836 188.084 36.9277Z" fill="white"/>
<path d="M181.363 64.918C181.363 64.918 183.515 63.0477 184.395 64.0929C185.275 65.1381 185.431 66.7792 184.757 66.6692C184.082 66.5592 182.683 65.9632 182.488 66.2566C182.292 66.5592 181.393 67.1276 181.129 66.6692C180.855 66.2108 181.373 64.9089 181.373 64.9089L181.363 64.918Z" fill="white"/>
<path d="M181.844 64.7067C181.502 65.9261 181.12 66.6779 181.12 66.6779C177.131 63.744 174.559 61.241 172.916 59.3248C174.158 59.2423 175.957 58.8206 178.04 57.4453C179.468 60.37 181.834 64.6975 181.834 64.6975L181.844 64.7067Z" fill="white"/>
<path d="M216.137 55.0794C216.137 55.0794 215.668 56.6289 213.36 59.3244C211.717 61.2406 209.145 63.7436 205.156 66.6775C205.156 66.6775 204.774 65.9257 204.432 64.7063C204.432 64.7063 206.798 60.3788 208.226 57.454C208.92 56.0238 209.39 54.9327 209.253 54.8319C208.93 54.5843 204.588 51.0453 202.652 49.4683C202.095 49.0099 201.733 48.7165 201.733 48.7165L201.293 37.6777C201.293 37.6777 207.248 38.1362 216.127 55.0886L216.137 55.0794Z" fill="white"/>
<path d="M204.911 64.918C204.911 64.918 202.76 63.0477 201.88 64.0929C201 65.1381 200.843 66.7792 201.518 66.6692C202.193 66.5592 203.591 65.9632 203.787 66.2566C203.982 66.5592 204.882 67.1276 205.146 66.6692C205.42 66.2108 204.901 64.9089 204.901 64.9089L204.911 64.918Z" fill="white"/>
<path d="M204.434 64.7067C204.776 65.9261 205.157 66.6779 205.157 66.6779C209.147 63.744 211.719 61.241 213.361 59.3248C212.12 59.2423 210.32 58.8206 208.237 57.4453C206.81 60.37 204.443 64.6975 204.443 64.6975L204.434 64.7067Z" fill="white"/>
<path opacity="0.2" d="M204.089 50.6244C206.201 52.3389 209.007 54.631 209.262 54.8327C209.262 54.8327 206.993 52.073 205.79 50.0926C204.597 48.1122 202.661 49.4691 202.661 49.4691C202.661 49.4691 201.448 53.8242 204.274 61.2964C204.255 57.6382 204.265 55.5753 204.255 54.4201C204.255 54.0259 204.157 52.5497 204.079 50.6335L204.089 50.6244Z" fill="white"/>
</g>
<g opacity="0.6">
<path d="M258.543 94.7432C257.813 96.6255 254.044 100.492 250.159 104.14C245.514 108.503 240.722 112.559 240.722 112.559C240.722 112.559 238.531 113.23 239.481 110.006C239.481 110.006 244.769 100.288 247.047 97.4134C247.69 96.5963 248.362 95.8521 249.005 95.1956C250.582 93.5614 251.882 92.54 251.882 92.54C251.882 92.54 251.59 92.0585 251.108 91.2414C248.742 87.1996 241.964 74.8264 244.053 69.3255C246.58 62.7012 252.846 59.7246 252.846 59.7246C252.846 59.7246 254.833 68.0999 256.513 76.7086C258.061 84.6316 259.332 92.7588 258.558 94.7286L258.543 94.7432Z" fill="white"/>
<path opacity="0.4" d="M256.499 76.7243C255.345 82.0208 253.344 89.5352 251.094 91.257C248.728 87.2153 241.95 74.842 244.039 69.3412C246.566 62.7168 252.832 59.7402 252.832 59.7402C252.832 59.7402 254.819 68.1155 256.499 76.7243Z" fill="white"/>
<path opacity="0.4" d="M250.159 104.142C245.514 108.504 240.722 112.561 240.722 112.561C240.722 112.561 238.531 113.232 239.481 110.007C239.481 110.007 244.769 100.29 247.047 97.4151C247.69 96.598 248.362 95.8539 249.005 95.1973C248.932 97.6778 249.005 101.88 250.159 104.142Z" fill="white"/>
<path d="M255.594 72.2306C255.594 72.2306 250.102 58.4566 250.394 58.0626C250.569 57.8146 250.92 50.3002 251.168 44.6534C251.314 41.2245 251.417 38.4668 251.417 38.4668C251.417 38.4668 253.856 39.3277 254.44 45.2517C254.557 46.3898 254.616 47.4695 254.659 48.4763C254.82 52.6785 254.513 55.6259 255.141 57.0267C255.916 58.763 255.638 66.6714 255.886 67.4593C256.12 68.2618 257.362 70.2462 255.623 72.2306H255.594Z" fill="white"/>
<path d="M251.255 63.0528L250.817 61.4331C247.735 62.7609 238.664 60.8203 238.664 60.8203C238.664 60.8203 235.962 64.0158 237.349 70.5088C238.021 73.6751 240.432 87.2156 241.41 91.1698C241.761 92.5997 242.038 93.6211 242.155 94.0296C242.184 94.1609 242.155 94.2777 242.111 94.3944C241.688 95.4304 241.381 96.4809 241.147 97.5607C238.898 108.066 245.047 119.666 245.047 119.666L246.099 119.053C246.099 119.053 246.508 105.06 247.604 98.7426C247.794 97.6774 247.998 96.8165 248.217 96.2913C248.874 94.7592 249.342 92.3662 249.663 89.5356C250.277 84.1952 250.379 77.352 250.35 72.0846C250.452 72.0846 251.255 63.0382 251.255 63.0382V63.0528Z" fill="white"/>
<path d="M237.334 64.7597C236.078 62.8629 240.387 55.115 240.227 54.3855C239.92 52.941 239.219 51.3505 238.517 49.9206C237.816 48.4907 237.144 47.2213 236.896 46.4188C237.115 46.1123 237.334 45.8205 237.539 45.5433C237.846 45.1201 238.108 44.7262 238.284 44.3614C238.474 43.9674 238.561 43.6027 238.459 43.2379C238.386 42.9607 238.298 42.698 238.182 42.4354C238.123 42.3041 238.065 42.1873 238.006 42.0706C237.364 40.7866 236.414 39.7506 236.414 39.7506C237.933 38.7876 240.314 38.2915 240.343 38.3645C240.519 38.3061 240.679 38.2623 240.811 38.2331C240.898 38.204 240.986 38.1894 241.074 38.1748C241.38 38.1018 241.673 38.0435 241.936 37.9997C242.476 37.4598 243.133 35.4317 242.929 32.4551L243.192 32.4843L247.603 33.0825C247.603 33.0825 247.603 34.4541 247.662 35.7527C247.72 36.7594 247.837 37.7225 248.056 37.9267C248.392 37.9559 248.611 37.9705 248.611 37.9705C248.859 37.9851 249.093 38.0143 249.298 38.0435C249.298 38.0435 249.312 38.0435 249.341 38.0435C249.736 38.0872 250.043 38.131 250.305 38.1748C250.32 38.1748 250.349 38.1748 250.364 38.1748C251.123 38.3207 251.372 38.4374 251.372 38.4374C251.328 39.8382 253.577 42.2749 253.417 45.412C253.417 45.5287 252.263 53.7727 252.277 53.8894C252.365 56.2386 253.519 62.8337 253.519 62.8337C254.571 64.8765 237.977 66.6858 237.29 64.7306L237.334 64.7597Z" fill="white"/>
<path d="M241.41 21.8617C241.322 21.6283 240.372 19.2061 236.531 20.2713C236.531 20.2713 238.459 19.9065 239.043 20.6215C239.043 20.6215 237.451 20.0086 236.531 20.6652C235.596 21.3218 235.567 23.3208 235.742 23.9191C235.917 24.5173 237.1 26.2536 237.816 26.2099C238.079 26.1953 238.371 26.0931 238.605 25.9618C238.517 26.2828 238.444 26.6476 238.386 27.027C237.845 30.6018 240.372 33.1406 241.541 32.4111C242.301 31.9442 242.973 33.2574 242.973 33.2574L248.918 24.2984C248.918 24.2984 244.083 19.1624 241.41 21.8763V21.8617Z" fill="white"/>
<path d="M247.618 33.067C247.618 33.067 247.604 34.4385 247.677 35.7372C245.237 35.8247 243.806 33.6798 243.207 32.4688L247.618 33.067Z" fill="white"/>
<path d="M248.509 34.2502C248.509 34.2502 242.739 34.7025 242.52 31.1131C242.301 27.5237 241.395 25.1599 245.076 24.7222C248.742 24.2844 249.546 25.6122 249.911 26.7941C250.276 27.976 249.999 34.0459 248.509 34.2648V34.2502Z" fill="white"/>
<path d="M249.619 24.7922C248.655 23.7708 247.997 24.048 247.647 24.3982C244.389 22.8516 242.505 25.5509 242.505 25.5509C242.271 28.1481 240.504 29.7385 240.504 29.7385C240.504 29.7385 241.599 30.3222 243.98 29.5489C244.711 29.3154 245.339 28.7464 245.865 28.0752C244.988 29.7823 243.717 31.0517 243.717 31.0517C246.537 29.5343 247.457 25.4342 247.545 25.011C247.91 25.3029 248.655 25.9449 248.903 26.6161C249.254 27.5061 249.487 29.3884 250.042 29.2862C250.042 29.2862 251.05 26.3534 249.619 24.8068V24.7922Z" fill="white"/>
<path d="M251.957 120.002H243.002C243.002 120.002 242.666 118.572 243.251 117.609C243.777 116.748 243.455 116.164 243.221 115.435C243.63 115.595 244.113 115.858 244.682 115.829C245.135 115.8 245.822 115.479 246.245 115.23C246.625 115.668 248.056 117.667 248.568 118.032C249.152 118.455 251.767 118.309 251.942 119.987L251.957 120.002Z" fill="white"/>
<path d="M238.65 119.796L235.275 111.509C235.275 111.509 236.473 110.662 237.598 110.838C238.591 110.998 238.971 110.633 239.482 110.006C239.482 110.444 239.541 110.983 239.789 111.509C239.979 111.917 240.344 112.267 240.724 112.559C240.461 113.085 239.351 115.317 239.205 115.93C239.029 116.63 240.154 118.979 238.65 119.796Z" fill="white"/>
<path d="M252.321 53.9181C252.321 53.8451 252.672 51.2625 252.993 48.9571C253.68 48.8841 254.527 48.7236 255.257 48.3735C255.213 47.3667 254.556 38.7871 250.934 38.3056C250.758 38.2618 250.583 38.2181 250.408 38.1889C250.393 38.1889 250.379 38.1889 250.349 38.1889C249.911 38.1013 249.517 38.0576 249.385 38.043C249.356 38.043 249.341 38.043 249.341 38.043C249.341 38.043 250.422 41.0925 250.393 41.4573C250.379 41.8221 246.917 41.9388 244.638 41.968C242.388 41.9972 241.118 38.2327 241.088 38.1743C241.001 38.1889 240.913 38.2181 240.825 38.2327C240.694 38.2618 237.685 38.7288 236.443 39.7647C236.443 39.7647 237.407 40.8007 238.036 42.0847C238.094 42.2014 238.152 42.3327 238.211 42.4495C238.328 42.7121 238.415 42.9748 238.488 43.252C238.576 43.6022 238.488 43.9815 238.313 44.3755C238.138 44.7403 237.875 45.1342 237.568 45.5574C237.364 45.8346 237.144 46.1264 236.925 46.4328C237.013 46.7101 237.145 47.0311 237.32 47.4104C237.641 48.1254 238.094 49.0009 238.547 49.9347C239.248 51.3646 239.949 52.9697 240.256 54.3996C240.402 55.1291 236.107 62.877 237.364 64.7738C237.568 65.3429 239.16 65.6055 241.264 65.6055C246.303 65.6347 254.322 64.3069 253.577 62.8624C253.577 62.8624 252.424 56.2526 252.336 53.9181H252.321Z" fill="white"/>
<path d="M241.233 65.6067C239.115 65.6067 237.523 65.3441 237.333 64.7751C236.077 62.8782 240.386 55.1303 240.226 54.4008C239.919 52.9563 239.218 51.3658 238.517 49.9359C238.064 49.0021 237.611 48.1266 237.29 47.4117C237.465 46.7113 237.567 46.3027 237.567 46.3027C237.567 46.3027 242.154 51.6285 243.191 54.1381C244.009 56.1079 242.095 62.8198 241.219 65.6213L241.233 65.6067Z" fill="white"/>
<path d="M239.058 62.0021L238.152 63.5633C232.324 61.2579 228.614 56.0635 228.614 56.0635C228.409 53.1161 229.797 49.731 231.448 46.7981C231.725 46.3166 232.003 45.8497 232.28 45.3828C233.449 46.375 235.085 47.6882 236.633 48.6366C236.385 49.0306 236.107 49.5121 235.786 50.0228C234.5 52.1531 232.821 54.867 232.616 55.0859C232.251 55.4507 239.043 61.9729 239.043 61.9729L239.058 62.0021Z" fill="white"/>
<path d="M236.049 50.6787C233.186 50.489 231.068 46.7683 231.068 46.7683C233.303 42.8141 236.429 39.75 236.429 39.75C244.375 42.7849 237.335 49.8179 236.049 50.6787Z" fill="white"/>
<path d="M239.058 62.002C239.058 62.002 239.554 61.9291 239.861 61.6518C240.182 61.3746 241.19 60.5867 241.263 60.8347C241.322 61.0828 240.518 61.4622 240.942 61.5205C241.365 61.5789 242.023 61.3017 242.68 61.4038C243.337 61.5059 244.345 63.0234 244.039 63.1985C243.732 63.3736 242.592 62.7754 242.286 62.9942C241.994 63.1985 239.846 64.3658 238.152 63.5925C236.443 62.8045 239.058 62.0166 239.058 62.0166V62.002Z" fill="white"/>
</g>
<path d="M49.2734 223.461L47.5995 230.443L45.1032 230.428L45.0005 223.461H49.2734Z" fill="#FFB18F"/>
<path d="M31.8379 223.766L27.0803 230.442L25.2302 228.086L28.0935 222.85L31.8379 223.766Z" fill="#FFB18F"/>
<path d="M45.5393 136.335C46.4397 136.029 47.4245 136.175 48.0998 136.364C47.9591 136.146 47.6356 136 47.6356 136C48.0717 136.029 48.9299 136.655 48.9299 136.655C55.2469 135.534 54.4309 144.677 53.9103 146.73C53.3898 148.783 55.3454 149.904 58.0888 152.175C63.2943 156.528 62.9989 160.808 62.9989 160.808C62.9426 160.823 62.9004 160.852 62.8441 160.866C62.6472 160.298 62.2392 159.221 61.7749 158.974C61.7749 159.017 62.1125 160.415 62.1829 161.172C60.1992 162.162 56.4005 164.491 53.7415 166.151C53.8259 165.743 53.9244 165.146 53.84 164.797L53.2209 166.471C51.8 167.359 50.8152 168 50.8152 168C51.2935 166.355 45.5252 155.916 42.1346 152.451C41.4593 150.806 41.6281 148.171 41.6422 147.967C41.4171 150.035 41.5296 151.243 41.6985 151.942C38.9972 148.098 43.1476 137.136 45.5393 136.32V136.335Z" fill="#142E52"/>
<path d="M42.6951 153.148C42.6804 153.148 44.7068 154.195 46.2339 153.788C47.6729 153.395 48.6127 151.563 48.5833 151.548C47.9813 151.432 47.8051 150.603 47.8198 147.039L47.5408 147.097L42.9154 147.999C42.9154 147.999 43.0182 149.439 43.0182 150.792C43.0182 151.926 42.9447 153.017 42.6951 153.134V153.148Z" fill="#FFB18F"/>
<path d="M50.543 139.001C50.543 139.001 49.043 135 44.543 137.639C44.543 137.639 46.5605 137.691 50.543 139.001Z" fill="white"/>
<path d="M42.9166 148C42.9166 148 43.0194 149.44 43.0194 150.793C45.6038 150.72 46.9694 148.379 47.5273 147.084L42.902 147.986L42.9166 148Z" fill="#FF9280"/>
<path d="M48.4952 147.257C48.4952 147.257 50.2426 145.439 50.9327 143.722C51.4173 142.5 51.7257 137.657 46.8066 137.38C46.8066 137.38 45.397 137.235 43.9139 137.846C42.7392 138.326 40.9331 139.533 41.7701 143.969L41.9169 145.439L48.4952 147.228V147.257Z" fill="#142E52"/>
<path d="M25.6248 227.692C25.6248 227.692 26.8719 227.779 27.8742 227.772C28.0948 227.765 28.3155 227.759 28.4909 227.743C28.9733 227.697 29.834 227.44 30.4051 227.24L30.4489 227.236C30.7052 227.139 30.8911 227.077 30.9615 227.041L30.9907 227.039C30.9907 227.039 36.4503 219.729 38.8514 208.617C38.9012 208.364 38.9643 208.095 39.0274 207.826C40.3867 202.234 43.6347 195.089 45.0997 188.741C45.3282 187.726 45.5344 186.786 45.7154 185.892C45.7771 185.609 45.8242 185.327 45.8859 185.043C46.9016 179.717 47.0172 176.258 47.0684 172.586L35.067 176.847C35.067 176.847 32.0034 199.519 25.6088 227.679L25.6248 227.692Z" fill="#FFA375"/>
<path d="M42.1077 148.728C42.1077 148.728 48.084 150.022 48.8476 146.328C49.6112 142.618 50.8886 140.306 47.1002 139.317C43.3118 138.328 42.2839 139.593 41.726 140.771C41.168 141.949 40.5806 148.306 42.1077 148.728Z" fill="#FFB18F"/>
<path d="M44.3841 138.677C44.3841 138.677 45.1476 143.346 47.5411 144.495C49.9345 145.645 51.168 145.194 51.168 145.194C51.168 145.194 49.5381 143.288 49.6849 140.554C49.6849 140.554 46.058 136.859 44.3987 138.692L44.3841 138.677Z" fill="#142E52"/>
<path d="M44.7216 139.112C44.7216 139.112 43.2973 139.84 42.8128 140.727C42.3282 141.614 41.7996 143.52 41.2416 143.345C41.2416 143.345 40.6102 140.145 42.3429 138.749C44.1783 137.265 44.7363 139.112 44.7363 139.112H44.7216Z" fill="#142E52"/>
<path d="M47.6884 230.051C47.6884 230.051 47.4828 231.433 48.0114 232.916C48.0114 232.916 48.4226 234.764 46.5871 234.807C44.7516 234.836 44.2964 234.676 44.502 233.542C44.7076 232.407 45.104 230.444 45.104 230.444L47.6884 230.065V230.051Z" fill="#FFB18F"/>
<path d="M48.0105 232.917C48.0105 232.917 48.3482 234.662 48.1426 235.593C48.1426 235.593 47.5846 236 46.2484 236C44.9122 236 44.3248 235.593 44.3248 235.593C44.3248 235.593 44.2808 233.673 44.6185 232.873C44.6185 232.873 45.9254 234.808 48.0105 232.917Z" fill="#243342"/>
<path d="M20.7957 233.717C20.7957 233.717 24.1877 229.993 25.2302 228.088L27.7559 229.368L22.1173 234.619L20.7957 234.444V233.717Z" fill="#FFB18F"/>
<path d="M18.6379 235.898C18.6379 235.898 22.2795 235.898 22.9109 235.825C23.5423 235.753 24.0416 234.865 24.717 233.527C24.996 232.974 25.6127 232.669 26.2588 232.509V235.622H27.2279L28.1383 232.32C28.7404 231.229 28.1824 230.24 27.7566 229.367C27.272 229.367 25.9358 229.702 23.4395 232.494C22.6172 233.411 21.7068 233.745 20.7964 233.716C20.7964 233.716 20.7671 233.716 20.7524 233.731C18.6673 234.662 18.6379 235.898 18.6379 235.898Z" fill="#243342"/>
<path d="M27.8754 227.771C28.096 227.765 28.3167 227.758 28.4921 227.742C28.9745 227.696 29.8352 227.439 30.4063 227.239L30.4501 227.235L30.9627 227.041L30.9919 227.038C30.9919 227.038 36.4515 219.728 38.8526 208.616C38.9024 208.363 38.9655 208.094 39.0286 207.825C40.3879 202.233 43.6359 195.088 45.1009 188.74C45.3294 187.725 45.5356 186.785 45.7166 185.892C45.7783 185.608 45.8254 185.326 45.8871 185.043L43.5542 183.612C43.5542 183.612 38.0092 194.699 36.9239 204.752C36.0147 213.078 29.8095 224.359 27.874 227.756L27.8754 227.771Z" fill="#FF8040"/>
<path d="M43.8126 205.716C43.7685 210.531 44.0181 221.6 44.6495 226.196C44.6495 226.196 45.2516 226.72 46.7346 226.734C48.2617 226.734 48.9372 226.182 48.9372 226.182C50.523 218.211 51.6537 211.622 52.476 205.934C53.1514 201.265 53.7535 197.28 54.2087 193.832C54.6198 190.778 54.9135 188.174 55.0603 185.92C55.075 185.614 55.0897 185.309 55.1044 185.018C55.1191 184.625 55.1338 184.261 55.1484 183.898C55.1484 183.534 55.1484 183.171 55.1484 182.836H55.0897L52.0208 182.531L42.3148 181.6C42.4763 190.036 43.7979 202.938 43.7685 205.745L43.8126 205.716Z" fill="#FFA375"/>
<path d="M46.7473 226.734C48.0395 226.806 48.9499 226.181 48.9499 226.181C50.5357 218.21 51.6664 211.621 52.4886 205.934C53.1641 201.264 53.7661 197.279 54.2213 193.832C54.6325 190.777 54.9262 188.174 55.073 185.919C55.0877 184.813 55.1024 183.752 55.117 182.821C55.117 181.89 55.1464 181.09 55.1758 180.537L52.0481 182.515L48.759 184.595C48.759 184.595 53.4284 188.799 52.2831 196.741C51.1377 204.683 48.3331 225.599 46.7473 226.719V226.734Z" fill="#FF8040"/>
<path d="M44.208 151.389C44.208 151.389 39.2302 150.603 37.5562 152.247C35.5005 154.269 31.6533 165.847 31.8149 167.171C31.8736 167.68 33.9 167.447 34.5901 166.72C38.0408 163.127 43.0039 154.065 44.2227 151.374L44.208 151.389Z" fill="#0F438A"/>
<path d="M34.5312 183.739C38.2462 184.699 55.6171 186.59 55.764 182.284C55.808 181.237 55.764 179.972 55.6759 178.59C55.4116 174.328 54.7067 169.077 54.369 166.182C54.2075 164.859 54.7361 158.91 54.3396 155.681C54.2809 155.201 54.2075 154.779 54.1047 154.444C53.3558 152.001 49.9786 151.346 48.2606 151.288L43.0478 151.113C43.0478 151.113 37.6589 157.077 36.91 158.91C36.1611 160.742 35.9115 167.012 35.3388 170.052C34.7515 173.092 32.7398 183.288 34.5606 183.753L34.5312 183.739Z" fill="#0F438A"/>
<path opacity="0.7" d="M44.7804 169.178C44.7804 169.178 47.6878 178.007 55.6758 178.589C55.4115 174.327 54.7067 169.076 54.3689 166.182C54.2074 164.858 54.736 158.909 54.3396 155.68C54.2368 155.694 54.134 155.752 54.0312 155.782C45.2356 157.469 43.9875 167.345 44.7804 169.192V169.178Z" fill="#142E52"/>
<path d="M32.0488 167.403C32.0488 167.403 37.2909 169.105 43.6783 166.37C43.6783 166.37 45.411 166.21 46.2773 166.428C46.2773 166.428 46.0865 164.726 45.2495 164.261C44.4125 163.795 40.7709 164.799 39.6843 164.654C37.3056 164.334 33.1794 164.072 32.0488 167.403Z" fill="#FF9280"/>
<path opacity="0.7" d="M36.7179 163.433C36.7179 163.433 36.2333 159.215 37.8926 156.67C37.8926 156.67 37.3052 156.466 36.8794 157.135C36.4536 157.79 33.5168 164.059 34.9118 164.524C36.3067 164.99 36.7179 163.433 36.7179 163.433Z" fill="#142E52"/>
<path d="M44.3683 164.131C44.4417 164.131 46.8499 164.436 47.261 164.742C47.6869 165.033 47.3051 166.08 46.5122 166.182C45.7192 166.284 44.3683 164.131 44.3683 164.131Z" fill="#FF9280"/>
<path d="M50.9336 165.731C50.9336 165.731 44.1056 165.484 37.8944 164.291C37.8944 164.291 36.7637 164.291 36.8959 165.28C37.028 166.255 47.6444 171.753 49.9791 170.691L50.9336 165.731Z" fill="#FFB18F"/>
<path d="M37.8926 164.291C37.8926 164.291 37.1731 163.418 36.7179 163.418C36.2627 163.418 35.088 163.985 34.9118 164.509C34.7356 165.033 36.3067 164.654 36.8794 165.28C37.4667 165.905 37.8779 164.291 37.8779 164.291H37.8926Z" fill="#FFB18F"/>
<path d="M48.2464 151.271C48.2464 151.271 53.9877 151.271 54.8247 153.322C56.3518 157.046 51.3006 169.424 49.9644 170.69C49.3917 171.228 46.7339 170.384 46.7339 166.821C46.7339 163.257 46.8661 154.166 48.2317 151.271H48.2464Z" fill="#0F438A"/>
<path d="M89.4018 152.328C89.4018 152.328 85.5352 152.141 85.4257 149.964C85.3163 147.786 82.1245 146.204 83.0456 144.462C84.1764 142.32 83.1459 140.267 84.5776 138.827C86.1553 137.245 88.1433 138.107 89.2012 137.183C90.2499 136.259 92.1741 135.405 94.0709 136.552C95.9678 137.689 97.4087 137.076 98.658 138.178C100.035 139.396 99.5152 140.925 100.646 141.751C101.686 142.516 101.266 144.587 100.382 146.275C99.7523 147.493 101.202 148.631 98.7036 150.035C97.664 150.613 97.892 152.079 94.7275 152.337C93.3049 152.452 90.2134 151.804 89.3836 152.337L89.4018 152.328Z" fill="#142E52"/>
<path d="M82.0247 235.999C82.0247 235.999 82.0247 234.47 82.2436 233.963C82.4625 233.457 83.2832 231.395 83.2832 231.395H86.475C86.475 231.395 87.0678 233.279 87.1043 233.892C87.1407 234.505 87.1043 235.999 87.1043 235.999H82.0156H82.0247Z" fill="#080000"/>
<path d="M102.326 235.999C102.326 235.999 102.326 234.47 102.107 233.963C101.888 233.457 101.068 231.395 101.068 231.395H97.8759C97.8759 231.395 97.2832 233.279 97.2467 233.892C97.2102 234.505 97.2467 235.999 97.2467 235.999H102.335H102.326Z" fill="#080000"/>
<path d="M89.5113 150.407C89.5113 150.407 89.4018 153.803 88.955 155.322L85.4258 157.722L98.7128 159.66L95.5483 155.393C95.5483 155.393 94.5908 150.843 95.0924 149.154C95.5939 147.474 89.5204 150.407 89.5204 150.407H89.5113Z" fill="#80492A"/>
<path d="M89.4935 150.87C89.4935 150.87 90.5422 153.332 92.5211 153.279C94.5001 153.226 94.9469 151.039 94.9469 151.039L89.4844 150.861L89.4935 150.87Z" fill="#66331A"/>
<path d="M92.3029 152.328C90.8712 152.302 88.2266 150.444 88.2266 148.142V144.542C88.2266 143.698 88.8284 143.014 89.5671 143.014H95.0388C95.7774 143.014 96.3793 143.698 96.3793 144.542V147.938C96.3793 150.355 93.9536 152.364 92.3029 152.328Z" fill="#80492A"/>
<path d="M82.4258 183.188C82.4258 183.188 82.982 199.826 82.1522 209.327C81.3132 218.82 82.1522 232.036 82.1522 232.036C82.1522 232.036 84.8242 233.476 87.7241 232.036C87.7241 232.036 90.9068 213.691 90.8795 209.327C90.8612 204.679 94.3357 183.916 94.3357 183.916L82.4166 183.188H82.4258Z" fill="#0041D9"/>
<path d="M102.206 232.035C102.206 232.035 99.5343 233.475 96.6344 232.035C96.6344 232.035 93.4517 213.69 93.479 209.326C93.479 207.362 92.868 202.527 92.1567 197.594C91.181 190.848 90.0137 183.916 90.0137 183.916L102.398 183.16C102.398 183.16 101.376 199.834 102.215 209.326C103.054 218.819 102.215 232.035 102.215 232.035H102.206Z" fill="#0041D9"/>
<path d="M100.064 156.194C98.4586 155.803 96.9447 155.546 95.5495 155.386C94.3183 156.985 93.4338 157.35 92.3029 157.785C90.4882 157.536 88.9561 155.359 88.9561 155.314C86.9772 155.51 85.6458 155.866 85.1077 156.025C84.9983 156.034 79.2075 156.781 71 173.064C71 173.064 71.4377 174.566 73.5899 177.179C75.122 179.037 77.5204 181.463 81.2411 184.307C81.2411 184.307 81.5968 183.578 81.9159 182.396C81.9159 182.396 79.709 178.201 78.3776 175.366C77.7301 173.979 77.2924 172.922 77.4201 172.824C77.6572 172.628 80.3383 170.371 82.3081 168.691C82.2898 169.109 82.2898 169.491 82.299 169.82C82.4084 173.455 82.5543 176.992 82.0801 180.903C81.4508 186.049 82.5178 185.951 82.5178 185.951C82.5178 185.951 83.9587 186.227 85.965 186.485C87.7797 186.725 90.0687 186.947 92.1662 186.947C96.9812 186.947 102.261 185.951 102.261 185.951C103.784 185.969 101.833 176.735 101.55 171.18C101.486 169.891 101.422 168.709 101.368 167.633C103.182 169.171 107.204 172.575 107.496 172.815C107.624 172.913 107.186 173.979 106.538 175.357C105.207 178.192 103 182.387 103 182.387C103.319 183.569 103.675 184.298 103.675 184.298C107.396 181.454 109.794 179.028 111.326 177.17C113.478 174.557 113.916 173.055 113.916 173.055C105.636 156.621 100.082 156.177 100.082 156.177L100.064 156.194Z" fill="#FFA375"/>
<path d="M85.9565 186.494C83.9503 186.236 82.5094 185.961 82.5094 185.961C82.5094 185.961 81.4424 186.05 82.0717 180.913C82.555 177.002 82.4 173.464 82.2905 169.829C82.2814 169.429 82.2905 168.949 82.3088 168.416C82.6188 168.896 86.0477 174.291 86.9688 178.308C87.6436 181.233 86.6314 184.681 85.9474 186.503L85.9565 186.494Z" fill="#FF8040"/>
<path d="M93.4786 209.327C93.4786 207.363 92.8676 202.528 92.1562 197.595C92.8949 194.644 94.7006 191.809 94.7006 191.809C96.9895 198.057 93.4786 209.327 93.4786 209.327Z" fill="#0024A9"/>
<path d="M81.4691 182.61C81.4691 182.61 83.4754 180.796 84.2961 181.81C85.1169 182.823 85.2628 184.414 84.6335 184.307C84.0043 184.201 82.7002 183.623 82.5178 183.907C82.3355 184.201 81.4965 184.752 81.2502 184.307C80.9949 183.863 81.4782 182.601 81.4782 182.601L81.4691 182.61Z" fill="#80492A"/>
<path d="M81.9159 182.395C81.5967 183.577 81.241 184.306 81.241 184.306C77.5203 181.462 75.1219 179.035 73.5898 177.178C74.748 177.098 76.426 176.689 78.3684 175.355C79.6999 178.191 81.9067 182.386 81.9067 182.386L81.9159 182.395Z" fill="#80492A"/>
<path d="M103.43 182.61C103.43 182.61 101.423 180.796 100.603 181.81C99.7818 182.823 99.6358 184.414 100.265 184.307C100.894 184.201 102.198 183.623 102.381 183.907C102.563 184.192 103.402 184.752 103.648 184.307C103.904 183.863 103.42 182.601 103.42 182.601L103.43 182.61Z" fill="#80492A"/>
<path d="M102.982 182.395C103.302 183.577 103.657 184.306 103.657 184.306C107.378 181.462 109.776 179.035 111.308 177.178C110.15 177.098 108.472 176.689 106.53 175.355C105.198 178.191 102.992 182.386 102.992 182.386L102.982 182.395Z" fill="#80492A"/>
<path d="M107.488 172.825C107.187 172.585 103.138 169.154 101.332 167.625C101.332 167.625 103.138 166.31 104.25 168.23C105.363 170.149 107.488 172.825 107.488 172.825Z" fill="#FF8040"/>
<path opacity="0.2" d="M113.898 173.072C113.898 173.072 113.46 174.574 111.308 177.187C108.818 177.152 113.898 173.072 113.898 173.072Z" fill="#142E52"/>
<path d="M88.2258 145.999C88.2258 145.999 89.2198 143.039 92.4846 143.501C95.7493 143.964 96.032 144.639 96.3786 145.43C96.7251 146.221 97.3908 142.55 97.3908 142.55L93.5424 141.439C93.5424 141.439 89.2654 142.275 88.5541 142.719C87.1953 143.564 87.1953 144.177 87.1953 144.177L88.2258 146.008V145.999Z" fill="#142E52"/>
<path d="M131.459 236.001C131.459 236.001 131.459 234.424 131.694 233.902C131.928 233.379 132.808 231.252 132.808 231.252H136.231C136.231 231.252 136.867 233.196 136.906 233.828C136.945 234.461 136.906 236.001 136.906 236.001H131.449H131.459Z" fill="#080000"/>
<path d="M153.23 236.001C153.23 236.001 153.23 234.424 152.995 233.902C152.76 233.379 151.88 231.252 151.88 231.252H148.458C148.458 231.252 147.822 233.196 147.783 233.828C147.744 234.461 147.783 236.001 147.783 236.001H153.239H153.23Z" fill="#080000"/>
<path d="M139.498 147.701C139.498 147.701 139.381 151.204 138.902 152.772L135.117 155.247L149.365 157.246L145.971 152.845C145.971 152.845 144.945 148.151 145.483 146.409C146.02 144.676 139.508 147.701 139.508 147.701H139.498Z" fill="#FFB18F"/>
<path d="M139.479 148.188C139.479 148.188 140.603 150.727 142.725 150.672C144.847 150.617 145.326 148.371 145.326 148.371L139.469 148.188H139.479Z" fill="#FF9280"/>
<path d="M138.208 146.124C138.208 146.124 137.523 142.915 137.044 141.943C136.565 140.971 136.164 136.635 141.464 136.415C141.464 136.415 143.498 136.635 144.613 136.002C144.613 136.002 144.613 136.635 144.329 136.864C144.329 136.864 146.158 136.451 147.595 137.946C149.032 139.44 146.637 144.675 146.754 145.904L138.198 146.124H138.208Z" fill="#142E52"/>
<path d="M142.48 149.691C140.945 149.663 138.109 147.747 138.109 145.372V141.659C138.109 140.788 138.755 140.082 139.547 140.082H145.414C146.206 140.082 146.851 140.788 146.851 141.659V145.161C146.851 147.655 144.25 149.727 142.48 149.691Z" fill="#FFB18F"/>
<path d="M138.11 143.638C138.11 143.638 138.11 141.41 139.997 141.062C141.884 140.723 146.099 142.153 146.695 140.521C147.292 138.898 138.55 138.926 138.11 139.962C137.67 140.998 138.11 143.629 138.11 143.629V143.638Z" fill="#142E52"/>
<path d="M131.89 181.514C131.89 181.514 132.487 198.677 131.597 208.478C130.697 218.27 131.597 231.903 131.597 231.903C131.597 231.903 134.462 233.389 137.572 231.903C137.572 231.903 140.985 212.98 140.955 208.478C140.936 203.683 144.661 182.265 144.661 182.265L131.881 181.514H131.89Z" fill="#FFA375"/>
<path d="M153.101 231.911C153.101 231.911 150.236 233.397 147.127 231.911C147.127 231.911 143.714 212.988 143.743 208.486C143.743 206.46 143.088 201.472 142.325 196.384C141.279 189.425 140.027 182.273 140.027 182.273L153.307 181.494C153.307 181.494 152.211 198.694 153.111 208.486C154.011 218.278 153.111 231.911 153.111 231.911H153.101Z" fill="#FFA375"/>
<path d="M153.15 184.374C153.15 184.374 147.488 185.401 142.325 185.401C137.162 185.401 137.621 185.171 135.676 184.924C133.524 184.658 131.979 184.374 131.979 184.374C131.979 184.374 130.835 184.465 131.51 179.166C132.028 175.132 131.862 171.483 131.745 167.733C131.735 167.32 131.745 166.825 131.764 166.275C131.989 161.902 133.397 154.026 134.473 153.604C134.473 153.604 136.067 153.045 138.893 152.779C138.893 152.834 140.536 155.081 142.481 155.328C143.694 154.879 144.643 154.494 145.963 152.853C147.635 153.036 149.463 153.348 151.419 153.843C151.419 153.843 151.624 154.677 152.387 169.145C152.69 174.875 154.783 184.401 153.15 184.383V184.374Z" fill="#0F438A"/>
<path d="M143.742 208.479C143.742 206.453 143.087 201.465 142.324 196.377C143.116 193.333 145.052 190.408 145.052 190.408C147.507 196.854 143.742 208.479 143.742 208.479Z" fill="#FF8040"/>
<path d="M126.513 170.824C126.376 170.925 126.846 172.025 127.54 173.446C128.967 176.371 131.334 180.698 131.334 180.698C130.992 181.917 130.61 182.669 130.61 182.669C126.621 179.735 124.049 177.232 122.406 175.316C120.108 172.63 119.639 171.08 119.639 171.08C128.518 154.137 134.766 153.514 134.766 153.514L134.033 164.717C134.033 164.717 126.924 170.512 126.513 170.833V170.824Z" fill="#3B4AFF"/>
<path d="M154.733 188.804C153.412 191.289 148.416 191.197 148.416 191.197C147.496 184.596 147.301 153.02 147.301 153.02C148.992 153.212 151.232 153.781 151.232 153.781C152.855 156.724 153.432 162.225 153.569 166.103C153.647 168.276 153.588 169.935 153.5 170.357C153.373 170.98 153.53 173.933 153.774 177.298C154.156 182.551 154.733 188.813 154.733 188.813V188.804Z" fill="#3B4AFF"/>
<path d="M137.584 152.928C137.584 152.928 137.252 184.595 136.333 191.197C136.333 191.197 131.346 191.288 130.016 188.804C130.016 188.804 132.069 169.312 131.746 167.726C131.522 166.616 132.108 157.539 134.26 153.634C134.26 153.634 136.147 153.084 137.584 152.928Z" fill="#3B4AFF"/>
<path d="M130.863 180.918C130.863 180.918 133.015 179.048 133.895 180.093C134.775 181.138 134.931 182.779 134.257 182.669C133.582 182.559 132.183 181.963 131.988 182.257C131.792 182.559 130.893 183.128 130.629 182.669C130.355 182.211 130.873 180.909 130.873 180.909L130.863 180.918Z" fill="#FFB18F"/>
<path d="M131.344 180.707C131.002 181.926 130.62 182.678 130.62 182.678C126.631 179.744 124.059 177.241 122.416 175.325C123.658 175.242 125.457 174.821 127.54 173.445C128.968 176.37 131.334 180.698 131.334 180.698L131.344 180.707Z" fill="#FFB18F"/>
<path d="M165.637 171.079C165.637 171.079 165.168 172.629 162.86 175.324C161.217 177.241 158.645 179.744 154.656 182.677C154.656 182.677 154.274 181.926 153.932 180.706C153.932 180.706 156.298 176.379 157.726 173.454C158.42 172.024 158.89 170.933 158.753 170.832C158.43 170.584 154.088 167.045 152.152 165.468C151.595 165.01 151.233 164.717 151.233 164.717L150.793 153.678C150.793 153.678 156.748 154.136 165.627 171.089L165.637 171.079Z" fill="#3B4AFF"/>
<path d="M154.411 180.918C154.411 180.918 152.26 179.048 151.38 180.093C150.5 181.138 150.343 182.779 151.018 182.669C151.693 182.559 153.091 181.963 153.287 182.257C153.482 182.559 154.382 183.128 154.646 182.669C154.92 182.211 154.401 180.909 154.401 180.909L154.411 180.918Z" fill="#FFB18F"/>
<path d="M153.934 180.707C154.276 181.926 154.657 182.678 154.657 182.678C158.647 179.744 161.219 177.241 162.861 175.325C161.62 175.242 159.82 174.821 157.737 173.445C156.31 176.37 153.943 180.698 153.943 180.698L153.934 180.707Z" fill="#FFB18F"/>
<path opacity="0.2" d="M153.589 166.624C155.701 168.339 158.507 170.631 158.762 170.833C158.762 170.833 156.493 168.073 155.29 166.093C154.097 164.112 152.161 165.469 152.161 165.469C152.161 165.469 150.948 169.824 153.774 177.296C153.755 173.638 153.765 171.575 153.755 170.42C153.755 170.026 153.657 168.55 153.579 166.634L153.589 166.624Z" fill="#142E52"/>
<path d="M208.041 210.743C207.311 212.625 203.542 216.492 199.657 220.14C195.012 224.503 190.22 228.559 190.22 228.559C190.22 228.559 188.029 229.23 188.979 226.006C188.979 226.006 194.267 216.288 196.545 213.413C197.188 212.596 197.86 211.852 198.503 211.196C200.08 209.561 201.38 208.54 201.38 208.54C201.38 208.54 201.088 208.058 200.606 207.241C198.24 203.2 191.462 190.826 193.551 185.326C196.078 178.701 202.344 175.725 202.344 175.725C202.344 175.725 204.331 184.1 206.011 192.709C207.559 200.632 208.83 208.759 208.056 210.729L208.041 210.743Z" fill="#B6BFC8"/>
<path d="M205.997 192.724C204.843 198.021 202.842 205.535 200.592 207.257C198.226 203.215 191.448 190.842 193.537 185.341C196.064 178.717 202.33 175.74 202.33 175.74C202.33 175.74 204.317 184.116 205.997 192.724Z" fill="#8B99A7"/>
<path d="M199.657 220.142C195.012 224.504 190.22 228.561 190.22 228.561C190.22 228.561 188.029 229.232 188.979 226.007C188.979 226.007 194.267 216.29 196.545 213.415C197.188 212.598 197.86 211.854 198.503 211.197C198.43 213.678 198.503 217.88 199.657 220.142Z" fill="#8B99A7"/>
<path d="M205.09 188.231C205.09 188.231 199.598 174.457 199.89 174.063C200.065 173.815 200.416 166.3 200.664 160.653C200.81 157.225 200.913 154.467 200.913 154.467C200.913 154.467 203.352 155.328 203.936 161.252C204.053 162.39 204.112 163.469 204.155 164.476C204.316 168.679 204.009 171.626 204.637 173.027C205.412 174.763 205.134 182.671 205.382 183.459C205.616 184.262 206.858 186.246 205.119 188.231H205.09Z" fill="#B06949"/>
<path d="M200.751 179.053L200.313 177.433C197.231 178.761 188.16 176.82 188.16 176.82C188.16 176.82 185.458 180.016 186.846 186.509C187.517 189.675 189.928 203.216 190.906 207.17C191.257 208.6 191.534 209.621 191.651 210.03C191.68 210.161 191.651 210.278 191.607 210.394C191.184 211.43 190.877 212.481 190.643 213.561C188.394 224.066 194.543 235.666 194.543 235.666L195.595 235.053C195.595 235.053 196.004 221.06 197.1 214.743C197.29 213.677 197.494 212.817 197.713 212.291C198.371 210.759 198.838 208.366 199.159 205.536C199.773 200.195 199.875 193.352 199.846 188.085C199.948 188.085 200.751 179.038 200.751 179.038V179.053Z" fill="#B6BFC8"/>
<path d="M186.832 180.76C185.576 178.863 189.885 171.115 189.725 170.385C189.418 168.941 188.717 167.351 188.016 165.921C187.314 164.491 186.642 163.221 186.394 162.419C186.613 162.112 186.832 161.821 187.037 161.543C187.344 161.12 187.607 160.726 187.782 160.361C187.972 159.967 188.059 159.603 187.957 159.238C187.884 158.961 187.796 158.698 187.68 158.435C187.621 158.304 187.563 158.187 187.504 158.071C186.862 156.787 185.912 155.751 185.912 155.751C187.431 154.788 189.812 154.292 189.841 154.364C190.017 154.306 190.177 154.262 190.309 154.233C190.397 154.204 190.484 154.189 190.572 154.175C190.879 154.102 191.171 154.043 191.434 154C191.974 153.46 192.631 151.432 192.427 148.455L192.69 148.484L197.101 149.082C197.101 149.082 197.101 150.454 197.16 151.753C197.218 152.759 197.335 153.722 197.554 153.927C197.89 153.956 198.109 153.971 198.109 153.971C198.357 153.985 198.591 154.014 198.796 154.043C198.796 154.043 198.81 154.043 198.839 154.043C199.234 154.087 199.541 154.131 199.803 154.175C199.818 154.175 199.847 154.175 199.862 154.175C200.621 154.321 200.87 154.437 200.87 154.437C200.826 155.838 203.075 158.275 202.915 161.412C202.915 161.529 201.761 169.773 201.775 169.889C201.863 172.239 203.017 178.834 203.017 178.834C204.069 180.876 187.475 182.686 186.789 180.731L186.832 180.76Z" fill="#B06949"/>
<path d="M190.908 137.862C190.82 137.628 189.871 135.206 186.029 136.271C186.029 136.271 187.957 135.907 188.541 136.621C188.541 136.621 186.949 136.009 186.029 136.665C185.094 137.322 185.065 139.321 185.24 139.919C185.415 140.517 186.599 142.254 187.314 142.21C187.577 142.195 187.869 142.093 188.103 141.962C188.015 142.283 187.942 142.648 187.884 143.027C187.343 146.602 189.871 149.141 191.039 148.411C191.799 147.944 192.471 149.257 192.471 149.257L198.416 140.298C198.416 140.298 193.581 135.162 190.908 137.876V137.862Z" fill="#142E52"/>
<path d="M197.114 149.067C197.114 149.067 197.1 150.439 197.173 151.737C194.734 151.825 193.302 149.68 192.703 148.469L197.114 149.067Z" fill="#80492A"/>
<path d="M198.007 150.25C198.007 150.25 192.237 150.702 192.018 147.113C191.799 143.524 190.893 141.16 194.574 140.722C198.24 140.284 199.044 141.612 199.409 142.794C199.774 143.976 199.497 150.046 198.007 150.265V150.25Z" fill="#B06949"/>
<path d="M199.117 140.792C198.153 139.771 197.495 140.048 197.145 140.398C193.887 138.852 192.003 141.551 192.003 141.551C191.769 144.148 190.002 145.739 190.002 145.739C190.002 145.739 191.097 146.322 193.478 145.549C194.209 145.315 194.837 144.746 195.363 144.075C194.486 145.782 193.216 147.052 193.216 147.052C196.035 145.534 196.955 141.434 197.043 141.011C197.408 141.303 198.153 141.945 198.401 142.616C198.752 143.506 198.985 145.388 199.54 145.286C199.54 145.286 200.548 142.353 199.117 140.807V140.792Z" fill="#142E52"/>
<path d="M201.455 236.002H192.5C192.5 236.002 192.164 234.572 192.749 233.609C193.275 232.748 192.953 232.164 192.72 231.435C193.129 231.595 193.611 231.858 194.18 231.829C194.633 231.8 195.32 231.479 195.743 231.23C196.123 231.668 197.554 233.667 198.066 234.032C198.65 234.455 201.265 234.309 201.44 235.987L201.455 236.002Z" fill="#3B4AFF"/>
<path d="M188.148 235.796L184.773 227.509C184.773 227.509 185.971 226.662 187.096 226.838C188.089 226.998 188.469 226.633 188.98 226.006C188.98 226.444 189.039 226.983 189.287 227.509C189.477 227.917 189.842 228.267 190.222 228.559C189.959 229.085 188.849 231.317 188.703 231.93C188.527 232.63 189.652 234.979 188.148 235.796Z" fill="#3B4AFF"/>
<path d="M201.819 169.918C201.819 169.845 202.17 167.262 202.491 164.957C203.178 164.884 204.025 164.724 204.755 164.373C204.712 163.367 204.054 154.787 200.432 154.306C200.256 154.262 200.081 154.218 199.906 154.189C199.891 154.189 199.877 154.189 199.847 154.189C199.409 154.101 199.015 154.058 198.883 154.043C198.854 154.043 198.839 154.043 198.839 154.043C198.839 154.043 199.92 157.093 199.891 157.457C199.877 157.822 196.415 157.939 194.136 157.968C191.886 157.997 190.616 154.233 190.586 154.174C190.499 154.189 190.411 154.218 190.324 154.233C190.192 154.262 187.183 154.729 185.941 155.765C185.941 155.765 186.905 156.801 187.534 158.085C187.592 158.201 187.65 158.333 187.709 158.449C187.826 158.712 187.913 158.975 187.986 159.252C188.074 159.602 187.986 159.982 187.811 160.376C187.636 160.74 187.373 161.134 187.066 161.557C186.862 161.835 186.643 162.126 186.423 162.433C186.511 162.71 186.643 163.031 186.818 163.41C187.139 164.125 187.592 165.001 188.045 165.935C188.746 167.365 189.447 168.97 189.754 170.4C189.9 171.129 185.605 178.877 186.862 180.774C187.066 181.343 188.658 181.606 190.762 181.606C195.801 181.635 203.821 180.307 203.076 178.862C203.076 178.862 201.922 172.253 201.834 169.918H201.819Z" fill="#FFA375"/>
<path d="M190.732 181.607C188.614 181.607 187.021 181.344 186.831 180.775C185.575 178.878 189.884 171.13 189.724 170.401C189.417 168.956 188.716 167.366 188.015 165.936C187.562 165.002 187.109 164.127 186.788 163.412C186.963 162.711 187.065 162.303 187.065 162.303C187.065 162.303 191.652 167.628 192.689 170.138C193.507 172.108 191.593 178.82 190.717 181.621L190.732 181.607Z" fill="#FF8040"/>
<path d="M188.556 178.002L187.65 179.563C181.822 177.258 178.112 172.063 178.112 172.063C177.907 169.116 179.295 165.731 180.946 162.798C181.223 162.317 181.501 161.85 181.778 161.383C182.947 162.375 184.583 163.688 186.131 164.637C185.883 165.031 185.605 165.512 185.284 166.023C183.999 168.153 182.319 170.867 182.114 171.086C181.749 171.451 188.541 177.973 188.541 177.973L188.556 178.002Z" fill="#B06949"/>
<path d="M185.547 166.679C182.684 166.489 180.566 162.768 180.566 162.768C182.801 158.814 185.927 155.75 185.927 155.75C193.873 158.785 186.833 165.818 185.547 166.679Z" fill="#FFA375"/>
<path d="M188.556 178.002C188.556 178.002 189.052 177.929 189.359 177.652C189.68 177.375 190.688 176.587 190.761 176.835C190.82 177.083 190.016 177.462 190.44 177.521C190.863 177.579 191.521 177.302 192.178 177.404C192.835 177.506 193.843 179.023 193.537 179.199C193.23 179.374 192.09 178.775 191.784 178.994C191.492 179.199 189.344 180.366 187.65 179.592C185.941 178.805 188.556 178.017 188.556 178.017V178.002Z" fill="#B06949"/>
<g clip-path="url(#clip2_5568_22031)">
<path d="M232.482 236.001C232.482 236.001 232.482 234.427 232.702 233.907C232.922 233.387 233.745 231.252 233.745 231.252H236.971C236.971 231.252 237.575 233.195 237.603 233.825C237.644 234.454 237.603 236.001 237.603 236.001H232.469H232.482Z" fill="#0A1729"/>
<path d="M252.949 236.001C252.949 236.001 252.949 234.427 252.73 233.907C252.51 233.387 251.686 231.252 251.686 231.252H248.46C248.46 231.252 247.856 233.195 247.829 233.825C247.788 234.454 247.829 236.001 247.829 236.001H252.963H252.949Z" fill="#0A1729"/>
<path d="M240.046 147.702C240.046 147.702 239.936 151.205 239.483 152.779L235.928 155.256L249.326 157.254L246.127 152.848C246.127 152.848 245.166 148.154 245.674 146.416C246.182 144.677 240.046 147.702 240.046 147.702Z" fill="#FF9280"/>
<path d="M240.018 148.18C240.018 148.18 241.075 150.725 243.079 150.67C245.069 150.616 245.522 148.358 245.522 148.358L240.018 148.18Z" fill="#B06949"/>
<path d="M238.824 146.127C238.824 146.127 238.179 142.925 237.726 141.953C237.273 140.982 236.902 136.643 241.885 136.424C241.885 136.424 243.794 136.643 244.851 136.014C244.851 136.014 244.851 136.643 244.59 136.876C244.59 136.876 246.319 136.465 247.665 137.957C249.01 139.449 246.759 144.69 246.882 145.922L238.824 146.141V146.127Z" fill="#142E52"/>
<path d="M245.606 140.078H240.087C239.346 140.078 238.742 140.79 238.742 141.652V145.361C238.742 147.742 241.405 149.658 242.847 149.685C244.508 149.713 246.951 147.646 246.951 145.155V141.652C246.951 140.79 246.347 140.078 245.606 140.078Z" fill="#FF9280"/>
<path d="M238.742 143.636C238.742 143.636 238.742 141.406 240.526 141.063C242.297 140.721 246.264 142.145 246.827 140.53C247.39 138.901 239.167 138.928 238.755 139.969C238.343 141.009 238.755 143.636 238.755 143.636H238.742Z" fill="#142E52"/>
<path d="M232.895 181.518C232.895 181.518 233.458 198.693 232.62 208.478C231.783 218.277 232.62 231.908 232.62 231.908C232.62 231.908 235.311 233.386 238.235 231.908C238.235 231.908 241.447 212.981 241.42 208.478C241.392 203.674 244.906 182.257 244.906 182.257L232.881 181.504L232.895 181.518Z" fill="#142E52"/>
<path d="M252.841 231.921C252.841 231.921 250.15 233.399 247.226 231.921C247.226 231.921 244.014 212.994 244.041 208.492C244.041 206.466 243.424 201.471 242.71 196.38C241.722 189.414 240.555 182.27 240.555 182.27L253.047 181.49C253.047 181.49 252.017 198.693 252.855 208.492C253.692 218.291 252.855 231.921 252.855 231.921H252.841Z" fill="#142E52"/>
<path d="M236.449 184.925C234.418 184.651 232.976 184.377 232.976 184.377C232.976 184.377 231.892 184.473 232.537 179.163C233.017 175.126 232.866 171.486 232.757 167.722C232.757 167.312 232.757 166.805 232.784 166.258C233.1 166.75 236.559 172.32 237.479 176.467C238.152 179.492 237.136 183.036 236.449 184.925Z" fill="#0041D9"/>
<path d="M250.672 153.669C249.052 153.272 247.528 152.998 246.114 152.834C244.865 154.476 243.973 154.86 242.847 155.311C241.021 155.065 239.47 152.807 239.47 152.766C237.479 152.971 236.134 153.34 235.585 153.505C235.475 153.505 229.627 154.285 221.35 171.077C221.35 171.077 221.789 172.623 223.972 175.319C225.509 177.235 227.939 179.74 231.686 182.668C231.686 182.668 232.043 181.916 232.359 180.698C232.359 180.698 230.135 176.373 228.79 173.444C228.131 172.021 227.692 170.926 227.815 170.817C228.062 170.612 230.753 168.285 232.743 166.561C232.73 166.999 232.73 167.382 232.743 167.724C232.853 171.474 233.004 175.128 232.524 179.165C231.892 184.475 232.963 184.379 232.963 184.379C232.963 184.379 234.418 184.667 236.436 184.927C238.276 185.173 240.568 185.406 242.696 185.406C247.555 185.406 252.882 184.379 252.882 184.379C254.419 184.393 252.456 174.868 252.168 169.133C252.099 167.806 252.044 166.588 251.976 165.479C253.802 167.067 257.865 170.584 258.167 170.83C258.29 170.94 257.851 172.035 257.192 173.458C255.847 176.387 253.623 180.711 253.623 180.711C253.953 181.929 254.296 182.682 254.296 182.682C258.043 179.74 260.459 177.249 262.011 175.333C264.18 172.637 264.633 171.091 264.633 171.091C256.286 154.134 250.672 153.683 250.672 153.683V153.669Z" fill="#3B4AFF"/>
<path d="M244.027 208.493C244.027 206.467 243.409 201.472 242.695 196.381C243.437 193.343 245.262 190.414 245.262 190.414C247.569 196.86 244.027 208.493 244.027 208.493Z" fill="#0A1729"/>
<path d="M231.919 180.916C231.919 180.916 233.937 179.041 234.774 180.095C235.598 181.135 235.749 182.791 235.117 182.668C234.486 182.558 233.168 181.956 232.976 182.257C232.784 182.558 231.946 183.133 231.699 182.668C231.438 182.216 231.932 180.902 231.932 180.902L231.919 180.916Z" fill="#FF9280"/>
<path d="M232.372 180.71C232.042 181.928 231.699 182.681 231.699 182.681C227.952 179.739 225.536 177.248 223.984 175.332C225.151 175.25 226.853 174.826 228.803 173.457C230.148 176.386 232.372 180.71 232.372 180.71Z" fill="#FF9280"/>
<path d="M254.075 180.916C254.075 180.916 252.057 179.041 251.219 180.095C250.396 181.135 250.245 182.791 250.876 182.668C251.508 182.558 252.825 181.956 253.018 182.257C253.21 182.558 254.047 183.133 254.294 182.668C254.555 182.216 254.061 180.902 254.061 180.902L254.075 180.916Z" fill="#FF9280"/>
<path d="M253.623 180.71C253.953 181.928 254.296 182.681 254.296 182.681C258.043 179.739 260.459 177.248 262.011 175.332C260.844 175.25 259.142 174.826 257.192 173.457C255.847 176.386 253.623 180.71 253.623 180.71Z" fill="#FF9280"/>
<path d="M258.166 170.831C257.864 170.584 253.787 167.04 251.961 165.466C251.961 165.466 253.773 164.111 254.899 166.082C256.024 168.066 258.166 170.817 258.166 170.817V170.831Z" fill="#0024A9"/>
<path d="M264.632 171.09C264.632 171.09 264.193 172.636 262.011 175.332C259.498 175.291 264.632 171.09 264.632 171.09Z" fill="#0024A9"/>
<path d="M239.661 151.916C239.661 151.916 239.071 152.162 238.893 152.833C238.893 152.833 241.281 155.283 242.846 155.324L239.661 151.916Z" fill="#0024A9"/>
<path d="M242.846 155.324L245.921 151.793C245.921 151.793 246.552 152.204 246.552 152.901C246.552 152.901 244.164 155.42 242.846 155.324Z" fill="#0024A9"/>
<path d="M242.297 155.064C242.297 155.064 239.95 175.305 240.76 177.769C241.185 179.041 241.748 180.136 242.187 180.903C242.503 181.45 243.313 181.45 243.629 180.903C244.247 179.822 245.07 178.261 245.07 177.468C245.07 176.181 243.286 155.051 243.286 155.051H242.284L242.297 155.064Z" fill="#FFB380"/>
<path d="M241.679 154.065C241.679 154.065 243.107 153.928 243.971 154.011C244.136 154.024 244.232 154.216 244.15 154.366C243.903 154.804 243.409 155.557 242.901 155.557C242.393 155.557 241.048 154.12 241.679 154.065Z" fill="#FFB380"/>
<path d="M244.754 147.468V149.015C244.109 149.466 243.408 149.726 242.804 149.726C242.283 149.726 241.61 149.466 240.951 149.028V147.482C240.951 146.62 241.665 145.922 242.516 145.922H243.175C244.04 145.922 244.74 146.62 244.74 147.482L244.754 147.468Z" fill="#142E52"/>
<path d="M246.553 146.852C245.811 148.535 244.082 149.74 242.805 149.726C241.583 149.699 239.497 148.33 238.879 146.482C238.879 146.469 238.879 146.428 238.879 146.428C238.879 146.428 240.183 147.536 241.062 146.989H244.699C244.699 146.989 245.647 147.536 246.566 146.866L246.553 146.852Z" fill="#142E52"/>
<path d="M243.259 147.276H242.476C242.298 147.276 242.064 146.989 242.064 146.797C242.064 146.797 242.298 146.619 242.476 146.619H243.259C243.437 146.619 243.698 146.77 243.739 146.879C243.739 146.879 243.629 147.276 243.259 147.276Z" fill="#FFB18F"/>
</g>
<defs>
<clipPath id="clip0_5568_22031">
<rect width="48" height="100" fill="white" transform="translate(18.1367 20)"/>
</clipPath>
<clipPath id="clip1_5568_22031">
<rect width="48" height="80" fill="white" transform="translate(119.137 40)"/>
</clipPath>
<clipPath id="clip2_5568_22031">
<rect width="48" height="100" fill="white" transform="translate(219.727 136)"/>
</clipPath>
</defs>
</svg>
