<svg width="161" height="128" viewBox="0 0 161 128" fill="none" xmlns="http://www.w3.org/2000/svg">
<g id="&#195;&#141;cones">
<g id="Ilustra&#195;&#167;&#195;&#163;o UF">
<g id="Estado=AC">
<g id="UF">
<path id="ac" fill-rule="evenodd" clip-rule="evenodd" d="M32 28.119V46.0872L47.7657 61.7404V72.3228H56.0345V83.5667H80.1792L92.4169 71.3307V99.9916H142.911L154.598 88.417L160 82.4644V77.2834L142.581 59.8664H121.854L101.347 39.1424H59.3419L48.2067 28.0088L32 28.119Z" fill="url(#paint0_linear_828_5446)" stroke="white" stroke-width="1.21084"/>
</g>
<g id="Bandeira do Estado/Acre - AC" clip-path="url(#clip0_828_5446)">
<g id="Group">
<g id="Group_2">
<path id="Vector" d="M56 44H0V84H56V44Z" fill="#00994B"/>
<path id="Vector_2" d="M0 84V44H56L0 84Z" fill="#F2E60E"/>
</g>
<path id="Vector_3" d="M8.38589 46.8867L9.66612 50.6768H13.8115L10.419 53.1273L11.6343 56.8617L8.39731 54.5681L5.15247 56.8617L6.36348 53.1273L2.97021 50.6768H7.10351L8.38589 46.8867Z" fill="#CB2026"/>
</g>
<g id="Contorno">
<g id="Vector_4">
<mask id="path-6-inside-1_828_5446" fill="white">
<path d="M0.000488281 44H56.0005V83.9957H0.000488281V44Z"/>
</mask>
<path d="M0.000488281 44H56.0005V83.9957H0.000488281V44Z" stroke="#8B99A7" stroke-width="0.2" stroke-miterlimit="2.6131" mask="url(#path-6-inside-1_828_5446)"/>
</g>
</g>
</g>
</g>
<rect x="-758.5" y="-299.5" width="1181" height="727" rx="4.5" stroke="#9747FF" stroke-dasharray="10 5"/>
</g>
</g>
<defs>
<linearGradient id="paint0_linear_828_5446" x1="32" y1="99.9916" x2="93.5088" y2="-9.38356" gradientUnits="userSpaceOnUse">
<stop stop-color="#9285F9"/>
<stop offset="1" stop-color="#3B4AFF"/>
</linearGradient>
<clipPath id="clip0_828_5446">
<rect width="56" height="40" fill="white" transform="translate(0 44)"/>
</clipPath>
</defs>
</svg>
