<svg width="161" height="128" viewBox="0 0 161 128" fill="none" xmlns="http://www.w3.org/2000/svg">
<g id="&#195;&#141;cones">
<g id="Ilustra&#195;&#167;&#195;&#163;o UF">
<g id="Estado=AM">
<g id="UF">
<path id="am" fill-rule="evenodd" clip-rule="evenodd" d="M74.4238 21.9462H62.768V28.2018H65.682V31.3724H58.4399V38.8705L63.1108 43.5407V62.9072L57.7543 68.263H41.6418L37.0566 72.8047V81.2026L32 86.2156V91.4H38.2993L42.6274 95.7275H58.9113L66.9247 103.74H74.9809L81.7516 110.509L84.837 107.467H95.55L106.477 96.5415H114.534L121.133 103.14H145.473L149.33 99.2837L149.415 68.0488L160 57.5086V49.882L155.8 45.6402H146.03V32.9577L135.788 32.615V38.442L131.932 42.341H123.961V30.9011L112.948 19.8896H105.749L95.6786 29.9585H85.4797V24.1314L78.8805 17.4902L74.4238 21.9462Z" fill="url(#paint0_linear_828_5446)" stroke="white" stroke-width="1.21084"/>
</g>
<g id="Bandeira do Estado/Amazonas - AM">
<g id="Group">
<path id="Vector" d="M56 44H0V84H56V44Z" fill="white"/>
<path id="Vector_2" d="M56 56H0V70H56V56Z" fill="#D12026"/>
<path id="Vector_3" d="M0 44V56H23V44H0ZM15.164 46.1529L15.3483 45.6177L15.5411 46.1529L16.1518 46.1582L15.6663 46.4904L15.8535 47.0442L15.3455 46.71L14.8439 47.0455L15.0388 46.4904L14.5301 46.1582L15.164 46.1529ZM3.07586 54.252L2.56791 53.9178L2.06629 54.2533L2.26116 53.6982L1.75251 53.366L2.3871 53.3608L2.57142 52.8255L2.76419 53.3608L3.37486 53.366L2.88942 53.6982L3.07586 54.252ZM2.88872 51.2958L3.07586 51.8496L2.56791 51.5155L2.06629 51.8509L2.26116 51.2958L1.75251 50.9637L2.3871 50.9584L2.57142 50.4231L2.76419 50.9584L3.37486 50.9637L2.88872 51.2958ZM2.88872 48.8934L3.07586 49.4472L2.56791 49.1131L2.06629 49.4485L2.26116 48.8934L1.75251 48.5613L2.3871 48.5553L2.57142 48.0201L2.76419 48.5553L3.37486 48.5606L2.88872 48.8934ZM2.88872 46.4904L3.07586 47.0442L2.56791 46.71L2.06629 47.0455L2.26116 46.4904L1.75251 46.1582L2.3871 46.1529L2.57142 45.6177L2.76419 46.1529L3.37486 46.1582L2.88872 46.4904ZM4.92757 46.1529L5.11189 45.6177L5.30466 46.1529L5.91533 46.1582L5.42989 46.4904L5.61703 47.0442L5.10908 46.71L4.60746 47.0455L4.80234 46.4904L4.29368 46.1582L4.92757 46.1529ZM5.61774 54.252L5.10978 53.9178L4.60816 54.2533L4.80304 53.6982L4.29438 53.366L4.92897 53.3608L5.1133 52.8255L5.30607 53.3608L5.91674 53.366L5.4313 53.6982L5.61774 54.252ZM7.47788 46.1529L7.66221 45.6177L7.85498 46.1529L8.46565 46.1582L7.98021 46.4904L8.16735 47.0442L7.6594 46.71L7.15778 47.0455L7.35266 46.4904L6.844 46.1582L7.47788 46.1529ZM8.16805 54.252L7.6601 53.9178L7.15848 54.2533L7.35336 53.6982L6.8447 53.366L7.47929 53.3608L7.66362 52.8255L7.85639 53.3608L8.46706 53.366L7.98162 53.6982L8.16805 54.252ZM7.98091 51.2958L8.16805 51.8496L7.6601 51.5155L7.15848 51.8509L7.35336 51.2958L6.8447 50.9637L7.47929 50.9584L7.66362 50.4231L7.85639 50.9584L8.46706 50.9637L7.98091 51.2958ZM7.98091 48.8934L8.16805 49.4472L7.6601 49.1131L7.15848 49.4485L7.35336 48.8934L6.8447 48.5613L7.47929 48.556L7.66362 48.0207L7.85639 48.556L8.46706 48.5613L7.98091 48.8934ZM10.0303 46.1529L10.2146 45.6177L10.4074 46.1529L11.0181 46.1582L10.5326 46.4904L10.7198 47.0442L10.2118 46.71L9.7102 47.0455L9.90508 46.4904L9.39643 46.1582L10.0303 46.1529ZM10.7198 54.252L10.2118 53.9178L9.7102 54.2533L9.90508 53.6982L9.39643 53.366L10.031 53.3608L10.2153 52.8255L10.4081 53.3608L11.0188 53.366L10.5333 53.6982L10.7198 54.252ZM10.5172 51.268L10.8999 50.1803L9.90297 49.5292L11.1461 49.5187L11.507 48.4693L11.8855 49.5187L13.0815 49.5292L12.1297 50.1803L12.4962 51.2654L11.5014 50.6104L10.5172 51.268ZM13.3025 54.252L12.7945 53.9178L12.2929 54.2533L12.4878 53.6982L11.9791 53.366L12.6137 53.3608L12.798 52.8255L12.9908 53.3608L13.6015 53.366L13.116 53.6982L13.3025 54.252ZM13.1153 46.4904L13.3025 47.0442L12.7945 46.71L12.2929 47.0455L12.4878 46.4904L11.9791 46.1582L12.6137 46.1529L12.798 45.6177L12.9908 46.1529L13.6015 46.1582L13.1153 46.4904ZM15.8528 54.252L15.3448 53.9178L14.8432 54.2533L15.0381 53.6982L14.5294 53.366L15.164 53.3608L15.3483 52.8255L15.5411 53.3608L16.1518 53.366L15.6663 53.6982L15.8528 54.252ZM15.667 51.2958L15.8542 51.8496L15.3462 51.5155L14.8446 51.8509L15.0395 51.2958L14.5308 50.9637L15.1654 50.9584L15.3497 50.4231L15.5425 50.9584L16.1532 50.9637L15.667 51.2958ZM15.667 48.8934L15.8542 49.4472L15.3462 49.1131L14.8446 49.4485L15.0395 48.8934L14.5308 48.5613L15.1654 48.556L15.3497 48.0207L15.5425 48.556L16.1532 48.5613L15.667 48.8934ZM18.4052 54.252L17.8973 53.9178L17.3956 54.2533L17.5905 53.6982L17.0819 53.366L17.7164 53.3608L17.9008 52.8255L18.0935 53.3608L18.7042 53.366L18.2188 53.6982L18.4052 54.252ZM18.2181 46.4904L18.4052 47.0442L17.8973 46.71L17.3956 47.0455L17.5905 46.4904L17.0819 46.1582L17.7164 46.1529L17.9008 45.6177L18.0935 46.1529L18.7042 46.1582L18.2181 46.4904ZM20.9633 54.252L20.4553 53.9178L19.9537 54.2533L20.1486 53.6982L19.6399 53.366L20.2745 53.3608L20.4588 52.8255L20.6516 53.3608L21.2623 53.366L20.7768 53.6982L20.9633 54.252ZM20.7761 51.2958L20.9633 51.8496L20.4553 51.5155L19.9537 51.8509L20.1486 51.2958L19.6399 50.9637L20.2745 50.9584L20.4588 50.4231L20.6516 50.9584L21.2623 50.9637L20.7761 51.2958ZM20.7761 48.8934L20.9633 49.4472L20.4553 49.1131L19.9537 49.4485L20.1486 48.8934L19.6399 48.5613L20.2745 48.556L20.4588 48.0207L20.6516 48.556L21.2623 48.5613L20.7761 48.8934ZM20.7761 46.4904L20.9633 47.0442L20.4553 46.71L19.9537 47.0455L20.1486 46.4904L19.6399 46.1582L20.2745 46.1529L20.4588 45.6177L20.6516 46.1529L21.2623 46.1582L20.7761 46.4904Z" fill="#272F70"/>
</g>
<g id="Contorno">
<g id="Vector_4">
<mask id="path-6-inside-1_828_5446" fill="white">
<path d="M0.000488281 44H56.0005V83.9957H0.000488281V44Z"/>
</mask>
<path d="M0.000488281 44H56.0005V83.9957H0.000488281V44Z" stroke="#8B99A7" stroke-width="0.2" stroke-miterlimit="2.6131" mask="url(#path-6-inside-1_828_5446)"/>
</g>
</g>
</g>
</g>
<rect x="-15.5" y="-15.5" width="1181" height="727" rx="4.5" stroke="#9747FF" stroke-dasharray="10 5"/>
</g>
</g>
<defs>
<linearGradient id="paint0_linear_828_5446" x1="32" y1="110.509" x2="120.473" y2="-11.2346" gradientUnits="userSpaceOnUse">
<stop stop-color="#9285F9"/>
<stop offset="1" stop-color="#3B4AFF"/>
</linearGradient>
</defs>
</svg>
