<svg width="143" height="131" viewBox="0 0 143 131" fill="none" xmlns="http://www.w3.org/2000/svg">
<g id="&#195;&#141;cones">
<g id="Ilustra&#195;&#167;&#195;&#163;o UF">
<g id="Estado=AP">
<g id="UF">
<path id="ap" fill-rule="evenodd" clip-rule="evenodd" d="M130.252 58.7488L110.955 39.4542V24.1951L104.27 17.5113L88.883 2V40.0847L74.3785 54.5872H32V67.8286H49.7838L71.7298 89.7714V108.309L93.2974 130L141.73 81.5744V58.7488H130.252Z" fill="url(#paint0_linear_828_5446)" stroke="white" stroke-width="1.21084"/>
</g>
<g id="Bandeira do Estado/Amap&#195;&#161; - AP" clip-path="url(#clip0_828_5446)">
<g id="Group">
<path id="Vector" d="M55.9864 71.7141V60.2574H13.9463L0 46V86L13.9606 71.7046L55.9864 71.7141Z" fill="#00994B"/>
<g id="Group_2">
<path id="Vector_2" d="M14.7655 73.6104L2.64404 85.9999L3.95008 85.9992L15.1162 74.5475L55.9862 74.5505V73.6104H14.7655Z" fill="black"/>
<path id="Vector_3" d="M15.1165 74.5479L55.9865 74.5508V86.0002H3.94971L15.1165 74.5479Z" fill="#F2E60E"/>
<g id="Group_3">
<path id="Vector_4" d="M2.64361 85.9998H1.35547L14.4008 72.6694H56V73.6103H14.7658L2.64361 85.9998Z" fill="white"/>
<path id="Vector_5" d="M3.94959 46H2.64355L14.7657 58.3903H55.9864V57.4283L15.1057 57.4334L3.94959 46Z" fill="black"/>
<path id="Vector_6" d="M2.64361 46H1.35547L14.4008 59.3304H55.9865V58.3903H14.7658L2.64361 46Z" fill="white"/>
<path id="Vector_7" d="M1.35542 46H0L13.9463 60.2574H55.9864V59.3304H14.4008L1.35542 46Z" fill="black"/>
<path id="Vector_8" d="M14.4008 72.6695H55.9864V71.7141L13.9606 71.7046L0 86H1.35542L14.4008 72.6695Z" fill="black"/>
<path id="Vector_9" d="M15.1058 57.4334L55.9865 57.4283V46H3.94971L15.1058 57.4334Z" fill="#273578"/>
</g>
</g>
<g id="Group_4">
<path id="Vector_10" d="M12.4058 64.8225L11.7899 65.1486L9.86957 63.2826L10.1957 62.5761L9 61L7.82246 62.5761L8.13043 63.2645L6.24638 65.1486L5.5942 64.8225L4 66.0022L5.57609 67.2138L6.28261 66.8333L8.11232 68.7355L7.82246 69.4239L9 71L10.1775 69.4058L9.86957 68.7718L11.7717 66.8696L12.442 67.1957L14 66.0022L12.4058 64.8225ZM9.0058 67.8536L7.17609 66L9 64.1703L10.8355 66L9.0058 67.8536Z" fill="black"/>
<path id="Vector_11" d="M12.3696 65.1487L11.6935 65.4748L9.51963 63.3008L9.88195 62.6124L9.00006 61.4653L8.15441 62.6124L8.46818 63.3008L6.29426 65.4871L5.62977 65.1371L4.48267 66.0023L5.64209 66.8878L6.34281 66.4892L8.4805 68.6871L8.1305 69.3878L9.02397 70.5472L9.88122 69.3755L9.5189 68.6994L11.7051 66.5016L12.4059 66.8762L13.5653 66.003L12.3696 65.1487ZM5.60586 66.332L5.14716 66.0023L5.60586 65.6197L6.25803 66.0023L5.60586 66.332ZM8.98774 62.1414L9.33774 62.6001L8.99354 63.2523L8.64934 62.6001L8.98774 62.1414ZM8.99354 69.8465L8.64934 69.3878L8.99354 68.7117L9.33774 69.4001L8.99354 69.8465ZM9.02397 68.2284L6.76528 66.0284L9.02397 63.7479L11.2218 66.0023L9.02397 68.2284ZM11.729 66.0023L12.3935 65.6197L12.8646 66.0023L12.4175 66.332L11.729 66.0023Z" fill="white"/>
</g>
</g>
<g id="Contorno">
<g id="Vector_12">
<mask id="path-14-inside-1_828_5446" fill="white">
<path d="M0.000488281 46H56.0005V85.9957H0.000488281V46Z"/>
</mask>
<path d="M0.000488281 46H56.0005V85.9957H0.000488281V46Z" stroke="#8B99A7" stroke-width="0.2" stroke-miterlimit="2.6131" mask="url(#path-14-inside-1_828_5446)"/>
</g>
</g>
</g>
</g>
<rect x="-597.5" y="-297.5" width="1181" height="727" rx="4.5" stroke="#9747FF" stroke-dasharray="10 5"/>
</g>
</g>
<defs>
<linearGradient id="paint0_linear_828_5446" x1="32" y1="130" x2="158.497" y2="21.5586" gradientUnits="userSpaceOnUse">
<stop stop-color="#9285F9"/>
<stop offset="1" stop-color="#3B4AFF"/>
</linearGradient>
<clipPath id="clip0_828_5446">
<rect width="56" height="40" fill="white" transform="translate(0 46)"/>
</clipPath>
</defs>
</svg>
