<svg width="160" height="130" viewBox="0 0 160 130" fill="none" xmlns="http://www.w3.org/2000/svg">
<g id="&#195;&#141;cones">
<g id="Ilustra&#195;&#167;&#195;&#163;o UF">
<g id="Estado=BA">
<g id="UF">
<path id="ba" fill-rule="evenodd" clip-rule="evenodd" d="M32 38.3924L42.5998 27.7942V22.3458H51.7066V30.481H59.9924L64.9936 25.4805H72.8315V11.2997L76.7878 7.34401H80.9679V12.6431H92.4635L100.525 4.65714H105.751V1H110.752V11.2997H122.023V5.8513L124.263 3.61225H140.386L149.419 12.6431V20.9277H152.33V26.3761H146.806V28.9137L148.821 31.0035V40.0344H157.854L145.537 52.2746V60.4846H134.191V71.456L138.222 75.4863V106.759L132.698 112.282V120.492L124.263 129L116.724 121.462V110.938L125.382 102.28L115.455 92.354H102.839V85.1889H85.6707L82.9834 82.7259H72.0104V76.5312H63.7993L52.0052 88.3983H44.242V74.0682L39.8379 69.6647L40.0618 38.3924H32Z" fill="url(#paint0_linear_828_5446)" stroke="white" stroke-width="1.21084"/>
</g>
<g id="Bandeira do Estado/Bahia - AM" clip-path="url(#clip0_828_5446)">
<g id="Group">
<path id="Vector" d="M56 45H0V85H56V45Z" fill="white"/>
<path id="Vector_2" d="M56 75H0V85H56V75Z" fill="#C72026"/>
<path id="Vector_3" d="M56 55H20V65H56V55Z" fill="#C72026"/>
<path id="Vector_4" d="M20 45H0V65H20V45Z" fill="#34469D"/>
<path id="Vector_5" d="M18 61H2L10 49L18 61Z" fill="white"/>
</g>
<g id="Contorno">
<g id="Vector_6">
<mask id="path-8-inside-1_828_5446" fill="white">
<path d="M0.000488281 45H56.0005V84.9957H0.000488281V45Z"/>
</mask>
<path d="M0.000488281 45H56.0005V84.9957H0.000488281V45Z" stroke="#8B99A7" stroke-width="0.2" stroke-miterlimit="2.6131" mask="url(#path-8-inside-1_828_5446)"/>
</g>
</g>
</g>
</g>
<rect x="-591.5" y="-14.5" width="1181" height="727" rx="4.5" stroke="#9747FF" stroke-dasharray="10 5"/>
</g>
</g>
<defs>
<linearGradient id="paint0_linear_828_5446" x1="32" y1="129" x2="159.982" y2="3.1644" gradientUnits="userSpaceOnUse">
<stop stop-color="#9285F9"/>
<stop offset="1" stop-color="#3B4AFF"/>
</linearGradient>
<clipPath id="clip0_828_5446">
<rect width="56" height="40" fill="white" transform="translate(0 45)"/>
</clipPath>
</defs>
</svg>
