<svg width="143" height="130" viewBox="0 0 143 130" fill="none" xmlns="http://www.w3.org/2000/svg">
<g id="&#195;&#141;cones">
<g id="Ilustra&#195;&#167;&#195;&#163;o UF">
<g id="Estado=CE">
<g id="UF">
<path id="ce" fill-rule="evenodd" clip-rule="evenodd" d="M32 5.4043V24.2602L44.8018 37.0602V84.4065L60.3567 100.097L51.134 109.318L50.9963 115.925H78.94L92.1549 129L106.333 114.824L94.9079 103.538L103.167 95.2796V87.5721L122.163 68.5785V53.714H140.609L101.791 13.9376H82.932L69.9925 1H38.3321L32 5.4043Z" fill="url(#paint0_linear_828_5446)" stroke="white" stroke-width="1.21084"/>
</g>
<g id="Bandeira do Estado/Cear&#195;&#161; - CE" clip-path="url(#clip0_828_5446)">
<g id="Group">
<path id="rect46" d="M56 45H0V85H56V45Z" fill="#009B3A"/>
<path id="path48" d="M5 64.84L28.24 79.68L51.48 64.84L28.24 50L5 64.84Z" fill="#FEDF00"/>
<path id="circle50" d="M27.8 74.64C33.2124 74.64 37.6 70.2524 37.6 64.84C37.6 59.4276 33.2124 55.04 27.8 55.04C22.3876 55.04 18 59.4276 18 64.84C18 70.2524 22.3876 74.64 27.8 74.64Z" fill="white"/>
<g id="Group_2">
<path id="_74873744" fill-rule="evenodd" clip-rule="evenodd" d="M31.6148 59.5299C29.3398 59.1723 27.0329 59.2124 24.7577 59.5456L24.5715 59.5729L25.3612 57.6987L25.4191 57.6892C26.3308 57.5408 27.252 57.4392 28.1765 57.4361C29.1028 57.4329 30.0266 57.5335 30.9392 57.6865L30.9961 57.696L31.8054 59.5598L31.6148 59.5299H31.6148Z" fill="#5B4431"/>
<path id="_74866616" fill-rule="evenodd" clip-rule="evenodd" d="M30.9204 59.2645L30.8373 58.9356L30.8499 58.937C31.0523 58.9585 31.2544 58.983 31.456 59.0109L31.461 59.0115L31.6099 59.3544C31.3803 59.3207 31.1505 59.2907 30.9204 59.2645ZM31.4043 58.9147C30.921 58.8498 30.435 58.8033 29.9483 58.772L29.9413 58.7715L29.8885 58.4558L29.8997 58.4566C30.3609 58.4895 30.8211 58.5375 31.2788 58.6027L31.2838 58.6034L31.4199 58.9168L31.4043 58.9147ZM31.2269 58.5063C31.0578 58.4829 30.8883 58.4617 30.7186 58.4427L30.7125 58.442L30.631 58.1194L30.6438 58.1209C30.7946 58.1389 30.9451 58.1587 31.0954 58.1803L31.1003 58.181L31.2425 58.5085L31.2269 58.5063ZM31.0434 58.0838C30.6342 58.0263 30.2231 57.9823 29.8111 57.951L29.8042 57.9505L29.7489 57.6192L29.7605 57.6204C30.1494 57.6624 30.5369 57.7176 30.9228 57.7823L30.9275 57.7831L31.059 58.086L31.0434 58.0838ZM29.6576 57.6097L29.7134 57.9439L29.7023 57.9431C29.219 57.9089 28.7344 57.8919 28.2499 57.8913L28.2411 57.8913L28.2408 57.5332H28.2497C28.7177 57.5344 29.1854 57.5619 29.6509 57.609L29.6576 57.6097ZM28.1524 57.5334L28.1527 57.8914L28.1438 57.8915C27.6861 57.8931 27.2283 57.9092 26.7715 57.9395C26.7396 57.9416 26.7077 57.9438 26.6758 57.9461L26.6646 57.9469L26.7204 57.6129L26.7271 57.6122C27.1978 57.5648 27.6704 57.5362 28.1435 57.5334L28.1524 57.5334ZM26.6292 57.6224L26.5739 57.9535L26.567 57.9541C26.1492 57.9858 25.7324 58.0297 25.3174 58.0866L25.302 58.0887L25.4296 57.7858L25.4344 57.785C25.8274 57.7211 26.2217 57.6659 26.6176 57.6236L26.6292 57.6224ZM25.2671 58.1827C25.4218 58.161 25.5768 58.1411 25.732 58.123L25.7447 58.1215L25.6612 58.4517L25.6551 58.4524C25.4819 58.4716 25.309 58.4929 25.1363 58.5163L25.121 58.5184L25.2621 58.1834L25.2671 58.1827ZM25.0862 58.6122C25.5481 58.5481 26.0122 58.4997 26.4774 58.4654L26.4886 58.4645L26.4359 58.7802L26.4289 58.7806C25.9395 58.8133 25.4509 58.8602 24.9646 58.9239L24.9493 58.9259L25.0812 58.6129L25.0862 58.6122ZM24.9145 59.0196C25.1173 58.9924 25.3205 58.9681 25.5239 58.9467L25.5365 58.9454L25.4515 59.2837C25.2216 59.3095 24.9918 59.3384 24.7622 59.3699L24.9095 59.0203L24.9145 59.0196ZM25.5453 59.2734L25.6301 58.9358L25.6363 58.9351C26.1814 58.8804 26.7286 58.8452 27.2762 58.8262L27.2862 58.8258L27.2562 59.1425C26.6854 59.1672 26.1148 59.2114 25.5453 59.2734ZM27.3454 59.1388L27.3753 58.8229L27.3831 58.8227C27.5015 58.819 27.62 58.8161 27.7385 58.8139C28.1565 58.8062 28.5747 58.8069 28.9926 58.8177L29.0004 58.8179L29.03 59.1297C28.4686 59.113 27.9068 59.1165 27.3454 59.1388ZM29.119 59.1325L29.0895 58.8203L29.0995 58.8207C29.6464 58.837 30.1931 58.8705 30.7375 58.9253L30.7437 58.926L30.8266 59.2541C30.2584 59.1917 29.6889 59.1516 29.119 59.1325ZM30.5371 58.1084L30.6188 58.4318L30.6062 58.4305C30.0909 58.3759 29.5733 58.3415 29.0554 58.3245L29.0475 58.3242L29.02 57.9945L29.03 57.9949C29.5314 58.014 30.0323 58.0512 30.531 58.1077L30.5371 58.1084ZM28.931 57.9913L28.9585 58.3215L28.9487 58.3212C28.4599 58.3074 27.9707 58.309 27.482 58.3245L27.4172 58.3265L27.445 57.9935L27.4529 57.9932C27.9427 57.9758 28.4332 57.9749 28.9231 57.9911L28.931 57.9913ZM27.356 57.9969L27.3282 58.3298L27.3204 58.3301C26.8018 58.3498 26.2837 58.3858 25.7676 58.4403L25.755 58.4415L25.8386 58.1108L25.8447 58.1102C26.1549 58.0757 26.4659 58.0482 26.7773 58.0275C26.9667 58.015 27.1563 58.0049 27.346 57.9972L27.356 57.9969ZM26.5863 58.4576C26.8854 58.437 27.185 58.4221 27.4847 58.4127C27.7043 58.4057 27.9239 58.4016 28.1436 58.4004L28.1524 58.4003L28.1527 58.7208L28.1439 58.7208C28.0082 58.7215 27.8725 58.7231 27.7369 58.7257C27.3368 58.7331 26.9369 58.7487 26.5376 58.7736L26.5265 58.7743L26.5793 58.4581L26.5863 58.4576ZM28.2497 58.4C28.7637 58.3995 29.278 58.4151 29.7909 58.4491L29.7979 58.4496L29.8507 58.7659L29.8396 58.7653C29.3104 58.7337 28.7801 58.7198 28.25 58.7205H28.2411L28.2409 58.4001L28.2497 58.4Z" fill="url(#paint1_linear_828_5446)"/>
<path id="_74865688" fill-rule="evenodd" clip-rule="evenodd" d="M28.1831 58.2119C28.3582 58.2119 28.455 58.3412 28.5015 58.4827L28.723 59.1575C28.5109 59.1554 27.913 59.149 27.7009 59.1526L27.8653 58.4827C27.9008 58.338 28.0082 58.2119 28.1831 58.2119Z" fill="#5B4431"/>
<path id="_74863040" fill-rule="evenodd" clip-rule="evenodd" d="M27.571 59.0729C27.5845 58.9446 27.5947 58.817 27.6168 58.6896C27.6728 58.3664 27.8097 58.0435 28.1906 58.0435C28.3201 58.0435 28.4394 58.0805 28.5364 58.1681C28.7661 58.3757 28.7801 58.7823 28.8101 59.0702L28.8203 59.169L28.7209 59.1676C28.6836 59.1671 28.6463 59.1666 28.609 59.1663L28.5296 59.1655L28.5219 59.0866C28.5107 58.9719 28.505 58.8576 28.4872 58.7435C28.4601 58.5694 28.4054 58.3369 28.1875 58.3369C28.1374 58.3369 28.0917 58.3488 28.0518 58.3798C27.8904 58.5058 27.8841 58.8991 27.8671 59.0879L27.86 59.167L27.7805 59.1682C27.7406 59.1689 27.7007 59.1696 27.6608 59.1704L27.5605 59.1725L27.571 59.0729Z" fill="#5B4431"/>
<path id="_74861304" fill-rule="evenodd" clip-rule="evenodd" d="M27.7788 59.0796C27.8045 58.7943 27.8051 58.2483 28.1872 58.2483C28.5805 58.2483 28.5812 58.786 28.6096 59.0777C28.647 59.078 28.6844 59.0785 28.7219 59.079C28.684 58.7153 28.6719 58.1313 28.1903 58.1313C27.7196 58.1313 27.6963 58.7245 27.6587 59.0818C27.6987 59.0809 27.7388 59.0802 27.7788 59.0796Z" fill="#DCC89C"/>
<path id="_74858176" fill-rule="evenodd" clip-rule="evenodd" d="M28.0971 73.0613C27.8703 72.6228 27.3226 72.2487 26.9113 71.9951C26.2941 71.6144 25.6323 71.2899 24.993 70.9467C24.3783 70.6167 23.744 70.2597 23.198 69.8245C22.7291 69.4507 22.2838 68.981 22.1048 68.3968C22.0495 68.2164 22.0215 68.0306 22.0215 67.842C22.0215 66.9643 22.327 66.1758 22.6547 65.377C22.8989 64.7817 23.2479 64.0213 23.1751 63.367C23.1009 62.7002 22.6345 62.2422 22.0956 61.8948L22 61.8332L23.8011 59.5185L23.8405 59.5117C26.727 59.0206 29.6582 58.9568 32.5407 59.5121L32.5788 59.5195L34.379 61.8332L34.2834 61.8948C33.7444 62.2422 33.2781 62.7002 33.2039 63.367C33.1311 64.0213 33.4801 64.7817 33.7243 65.377C34.052 66.1759 34.3575 66.9643 34.3575 67.842C34.3575 68.0306 34.3295 68.2164 34.2742 68.3968C34.0952 68.981 33.6499 69.4507 33.181 69.8245C32.635 70.2597 32.0007 70.6167 31.386 70.9467C30.7466 71.2899 30.0848 71.6144 29.4677 71.9951C29.0564 72.2487 28.5087 72.6228 28.282 73.0613L28.1895 73.24L28.0971 73.0613H28.0971Z" fill="#3F4446"/>
<path id="_54285800" fill-rule="evenodd" clip-rule="evenodd" d="M28.1895 73.0141C27.3232 71.3391 22.1255 70.3547 22.1255 67.8421C22.1255 65.3296 24.751 63.4832 22.1521 61.8082L23.8581 59.6139C26.9173 59.0933 29.8015 59.0899 32.5209 59.6139L34.2268 61.8082C31.628 63.4832 34.2535 65.3296 34.2535 67.8421C34.2535 70.3547 29.0558 71.3391 28.1895 73.0141H28.1895Z" fill="url(#paint2_radial_828_5446)"/>
<path id="_74852008" fill-rule="evenodd" clip-rule="evenodd" d="M28.1166 72.2505C27.8398 71.9817 27.5126 71.7577 27.1849 71.5555C26.5557 71.1675 25.8905 70.841 25.2395 70.4916C24.3755 70.0278 22.9044 69.2338 22.6017 68.246C22.5615 68.1148 22.541 67.9793 22.541 67.8421C22.541 67.044 22.8372 66.2999 23.1356 65.5725C23.4228 64.8724 23.7685 64.0832 23.6825 63.3101C23.6124 62.6802 23.2743 62.1885 22.7976 61.7877L22.721 61.7233L24.0854 59.9952L24.1253 59.9887C26.8196 59.5491 29.5598 59.4921 32.2513 59.9843L32.2899 59.9914L33.6574 61.7233L33.5808 61.7877C33.1041 62.1885 32.766 62.6802 32.6959 63.3101C32.6099 64.0832 32.9556 64.8724 33.2428 65.5725C33.5412 66.2999 33.8374 67.044 33.8374 67.8421C33.8374 69.066 32.0763 69.9884 31.1389 70.4916C30.488 70.841 29.8227 71.1675 29.1936 71.5555C28.8658 71.7577 28.5386 71.9817 28.2618 72.2505L28.1892 72.321L28.1166 72.2505H28.1166Z" fill="#3F4446"/>
<path id="_54498744" fill-rule="evenodd" clip-rule="evenodd" d="M28.1895 72.1764C28.4762 71.8979 28.8211 71.6636 29.1391 71.4675C29.7676 71.0798 30.439 70.7498 31.0899 70.4004C31.9691 69.9284 33.7337 69.0115 33.7337 67.842C33.7337 67.0595 33.4393 66.3244 33.1469 65.6115C32.8515 64.8917 32.5045 64.093 32.5929 63.2986C32.6672 62.6303 33.0282 62.1172 33.514 61.7086L32.2328 60.0859C29.5512 59.5955 26.8276 59.6526 24.1424 60.0907L22.865 61.7086C23.3508 62.1172 23.7118 62.6303 23.7861 63.2986C23.8745 64.093 23.5275 64.8917 23.2321 65.6115C22.9397 66.3244 22.6453 67.0595 22.6453 67.842C22.6453 67.9693 22.6641 68.094 22.7014 68.2158C22.9932 69.1679 24.4663 69.9587 25.2892 70.4004C25.9401 70.7498 26.6114 71.0798 27.2399 71.4675C27.5579 71.6636 27.9028 71.8979 28.1895 72.1764H28.1895Z" fill="#00923E"/>
<path id="_54530024" fill-rule="evenodd" clip-rule="evenodd" d="M26.1768 56.8608V56.8026C26.1768 56.748 26.1768 56.6934 26.1768 56.6387V56.5428L26.2725 56.5333C26.5275 56.5082 26.7831 56.4872 27.0389 56.4706L27.1518 56.4633L27.4905 56.7839L27.7025 56.7778C27.7025 56.7568 27.7025 56.7358 27.7025 56.7148C27.7025 56.6593 27.7025 56.6038 27.7025 56.5483V56.4436L27.8074 56.4424C28.0623 56.4396 28.3173 56.4392 28.5722 56.4412L28.6775 56.4421V56.5471C28.6775 56.6025 28.6775 56.6579 28.6775 56.7133C28.6775 56.7341 28.6775 56.7548 28.6775 56.7755L28.8927 56.7808L29.2281 56.4633V56.4599L29.3409 56.467C29.5967 56.4831 29.8523 56.5038 30.1074 56.5288L30.2032 56.5382V56.6342C30.2032 56.6886 30.2032 56.7429 30.2032 56.7973V56.8603L30.7538 56.6101L30.8775 56.6308C31.1337 56.6737 31.3894 56.7206 31.6442 56.7714L31.7295 56.7885V56.8753C31.7295 56.928 31.7295 56.9806 31.7295 57.0333C31.7295 57.0859 31.7295 57.1385 31.7295 57.1911V57.2172L31.7174 57.2403L31.5366 57.6285L31.3206 57.8165L31.2844 57.8438L31.2396 57.8367C30.3273 57.6907 29.4099 57.6022 28.4858 57.5869C27.3726 57.5686 26.2706 57.6577 25.1713 57.8302L25.127 57.8372L25.0912 57.8103L24.8372 57.6216L24.6626 57.2391L24.6511 57.2165V57.1911C24.6511 57.1385 24.6511 57.0859 24.6511 57.0333C24.6511 56.9806 24.6511 56.928 24.6511 56.8753V56.7881L24.7369 56.7714C24.9915 56.7216 25.2469 56.6756 25.5029 56.6339L25.6261 56.6138L26.1768 56.8608Z" fill="#5B4431"/>
<path id="_74850912" fill-rule="evenodd" clip-rule="evenodd" d="M25.5201 57.0609C25.7742 57.0253 26.0283 56.9938 26.283 56.9663C26.283 56.9117 26.283 56.8571 26.283 56.8026C26.283 56.7481 26.283 56.6935 26.283 56.6388C26.537 56.6138 26.7911 56.5929 27.0458 56.5764C27.0458 56.6316 27.0458 56.6868 27.0458 56.742C27.0458 56.7972 27.0458 56.8523 27.0458 56.9075C27.2999 56.8956 27.5539 56.8869 27.8087 56.8812C27.8087 56.8257 27.8087 56.7704 27.8087 56.7149C27.8087 56.6594 27.8087 56.604 27.8087 56.5484C28.0627 56.5455 28.3168 56.5451 28.5715 56.5472C28.5715 56.6027 28.5715 56.6581 28.5715 56.7134C28.5715 56.7687 28.5715 56.8241 28.5715 56.8794C28.8256 56.8839 29.0796 56.8916 29.3343 56.9028C29.3343 56.8478 29.3343 56.7928 29.3343 56.7379C29.3343 56.6829 29.3343 56.6278 29.3343 56.5728C29.5884 56.5888 29.8425 56.6093 30.0972 56.6343C30.0972 56.6888 30.0972 56.743 30.0972 56.7973C30.0972 56.8517 30.0972 56.906 30.0972 56.9603C30.3513 56.9881 30.6053 57.0201 30.86 57.0567C30.86 57.0031 30.86 56.9496 30.86 56.896C30.86 56.8426 30.86 56.7891 30.86 56.7353C31.114 56.7778 31.3688 56.8245 31.6235 56.8753C31.6235 56.928 31.6235 56.9807 31.6235 57.0333C31.6235 57.0859 31.6235 57.1385 31.6235 57.1912C31.58 57.2742 31.5364 57.3571 31.4936 57.4403L31.4892 57.4396C30.3616 57.2611 29.2316 57.1572 28.0893 57.1605C27.0126 57.1637 25.9469 57.2624 24.8842 57.4324L24.8822 57.4345C24.8403 57.3535 24.7987 57.2724 24.7573 57.1912C24.7573 57.1385 24.7573 57.0859 24.7573 57.0333C24.7573 56.9807 24.7573 56.928 24.7573 56.8753C25.0114 56.8257 25.2654 56.7799 25.5201 56.7384C25.5201 56.7922 25.5201 56.846 25.5201 56.8997C25.5201 56.9535 25.5201 57.0071 25.5201 57.0609Z" fill="url(#paint3_linear_828_5446)"/>
<path id="_74849776" fill-rule="evenodd" clip-rule="evenodd" d="M24.3777 62.2671L24.2727 62.6084L23.9309 62.6077L24.2078 62.818L24.1015 63.159L24.3777 62.9475L24.6538 63.159L24.5475 62.818L24.8244 62.6077L24.4827 62.6084L24.3777 62.2671Z" fill="white"/>
<path id="_74848672" fill-rule="evenodd" clip-rule="evenodd" d="M24.0898 64.5869L23.9848 64.9283L23.6431 64.9276L23.92 65.1379L23.8137 65.4788L24.0898 65.2674L24.366 65.4788L24.2597 65.1379L24.5366 64.9276L24.1948 64.9283L24.0898 64.5869Z" fill="white"/>
<path id="_74847568" fill-rule="evenodd" clip-rule="evenodd" d="M23.7175 66.666L23.6125 67.0074L23.2708 67.0066L23.5476 67.2169L23.4414 67.5578L23.7175 67.3465L23.9936 67.5578L23.8874 67.2169L24.1643 67.0066L23.8225 67.0074L23.7175 66.666Z" fill="white"/>
<path id="_74846464" fill-rule="evenodd" clip-rule="evenodd" d="M28.167 70.2832L28.062 70.6246L27.7202 70.6238L27.9971 70.8341L27.8909 71.1751L28.167 70.9637L28.4432 71.1751L28.3368 70.8341L28.6139 70.6238L28.272 70.6246L28.167 70.2832Z" fill="white"/>
<path id="_74845224" fill-rule="evenodd" clip-rule="evenodd" d="M30.228 69.4395L30.1234 69.7809L29.7815 69.7802L30.0583 69.9904L29.9521 70.3314L30.228 70.12L30.5043 70.3314L30.3981 69.9904L30.6749 69.7802L30.333 69.7809L30.228 69.4395Z" fill="white"/>
<path id="_74844432" fill-rule="evenodd" clip-rule="evenodd" d="M26.0859 69.4395L26.1909 69.7809L26.5327 69.7802L26.2558 69.9904L26.362 70.3314L26.0859 70.12L25.8098 70.3314L25.916 69.9904L25.6392 69.7802L25.9809 69.7809L26.0859 69.4395Z" fill="white"/>
<path id="_74843344" fill-rule="evenodd" clip-rule="evenodd" d="M24.447 68.3315L24.552 68.6729L24.8938 68.6722L24.6169 68.8825L24.7231 69.2234L24.447 69.012L24.1709 69.2234L24.2771 68.8825L24.0002 68.6722L24.342 68.6729L24.447 68.3315Z" fill="white"/>
<path id="_74842336" fill-rule="evenodd" clip-rule="evenodd" d="M32.4439 69.6204L23.5344 60.7278L23.6276 60.6211L32.5557 69.5324L32.4439 69.6204Z" fill="#3F4446"/>
<path id="_74841536" fill-rule="evenodd" clip-rule="evenodd" d="M28.189 60.8506C28.9066 60.8506 29.5735 61.0599 30.1416 61.5C32.7825 63.5459 32.1241 69.6761 28.189 69.6761C27.4556 69.6761 26.775 69.4601 26.1992 69.0039C23.5916 66.9383 24.2892 60.8506 28.189 60.8506V60.8506Z" fill="#3F4446"/>
<path id="_74840568" fill-rule="evenodd" clip-rule="evenodd" d="M28.1889 61.0366C32.644 61.0366 32.6733 69.4901 28.1889 69.4901C23.7046 69.4901 23.7339 61.0366 28.1889 61.0366Z" fill="#3F4446"/>
<path id="_53316456" fill-rule="evenodd" clip-rule="evenodd" d="M31.5376 65.4257H24.8379C24.7828 63.2595 25.903 61.0361 28.1877 61.0361C30.4724 61.0361 31.5927 63.2595 31.5375 65.4257H31.5376Z" fill="url(#paint4_radial_828_5446)"/>
<g id="g127">
<path id="_53817216" fill-rule="evenodd" clip-rule="evenodd" d="M24.8367 65.2002H26.7217V65.2811H24.8354V65.2631H24.8361C24.8361 65.2421 24.8365 65.2212 24.8367 65.2002Z" fill="#B49700"/>
<path id="_53755240" fill-rule="evenodd" clip-rule="evenodd" d="M24.8529 64.8306L26.7309 65.2025L26.7151 65.2819L24.8474 64.912C24.849 64.8848 24.8509 64.8577 24.8529 64.8306Z" fill="#B49700"/>
<path id="_54509048" fill-rule="evenodd" clip-rule="evenodd" d="M24.8939 64.4453L26.739 65.2061L26.7081 65.2809L24.8828 64.5283C24.8863 64.5006 24.89 64.4729 24.8939 64.4453Z" fill="#B49700"/>
<path id="_54280856" fill-rule="evenodd" clip-rule="evenodd" d="M24.9684 64.0293L26.7465 65.2114L26.7015 65.2788L24.9504 64.1146C24.9562 64.0861 24.9622 64.0577 24.9684 64.0293Z" fill="#B49700"/>
<path id="_54279968" fill-rule="evenodd" clip-rule="evenodd" d="M25.0917 63.5664L26.7532 65.2184L26.6959 65.2757L25.0649 63.654C25.0736 63.6247 25.0826 63.5955 25.0917 63.5664Z" fill="#B49700"/>
<path id="_54279080" fill-rule="evenodd" clip-rule="evenodd" d="M25.2894 63.0444L26.7577 65.2264L26.6904 65.2716L25.251 63.1325C25.2635 63.103 25.2763 63.0736 25.2894 63.0444Z" fill="#B49700"/>
<path id="_54278192" fill-rule="evenodd" clip-rule="evenodd" d="M25.6031 62.4673L26.7609 65.2347L26.6861 65.2658L25.55 62.5506C25.5674 62.5226 25.5851 62.4948 25.6031 62.4673Z" fill="#B49700"/>
<path id="_54277304" fill-rule="evenodd" clip-rule="evenodd" d="M26.0806 61.8818L26.7625 65.2442L26.683 65.2603L26.012 61.9513C26.0345 61.9278 26.0574 61.9046 26.0806 61.8818Z" fill="#B49700"/>
<path id="_54276416" fill-rule="evenodd" clip-rule="evenodd" d="M26.7474 61.3877L26.7623 65.2534L26.6813 65.2537L26.6665 61.4331C26.6932 61.4176 26.7201 61.4024 26.7474 61.3877Z" fill="#B49700"/>
<path id="_54275528" fill-rule="evenodd" clip-rule="evenodd" d="M27.5721 61.0942L26.7602 65.2625L26.6807 65.2471L27.486 61.1121C27.5145 61.1058 27.5432 61.0998 27.5721 61.0942Z" fill="#B49700"/>
<path id="_54274640" fill-rule="evenodd" clip-rule="evenodd" d="M28.4845 61.0493L26.7565 65.2707L26.6814 65.2401L28.3995 61.043C28.428 61.0448 28.4564 61.0468 28.4845 61.0493Z" fill="#B49700"/>
<path id="_54273752" fill-rule="evenodd" clip-rule="evenodd" d="M29.399 61.2767L26.7508 65.2783L26.6831 65.2337L29.3227 61.2451C29.3484 61.2553 29.3738 61.2658 29.399 61.2767Z" fill="#B49700"/>
<path id="_54272864" fill-rule="evenodd" clip-rule="evenodd" d="M30.2011 61.7938L26.7442 65.2844L26.6865 65.2275L30.1402 61.7402C30.1607 61.7578 30.1811 61.7757 30.2011 61.7938Z" fill="#B49700"/>
<path id="_54271976" fill-rule="evenodd" clip-rule="evenodd" d="M30.8138 62.5331L26.7362 65.2896L26.6907 65.2226L30.7701 62.4648C30.7849 62.4874 30.7994 62.5102 30.8138 62.5331Z" fill="#B49700"/>
<path id="_54271304" fill-rule="evenodd" clip-rule="evenodd" d="M31.2269 63.397L26.7276 65.2927L26.696 65.2181L31.1991 63.3208C31.2086 63.3461 31.2179 63.3715 31.2269 63.397Z" fill="#B49700"/>
<path id="_54270632" fill-rule="evenodd" clip-rule="evenodd" d="M31.4621 64.3171L26.7186 65.2945L26.7021 65.2152L31.4483 64.2373C31.4531 64.2638 31.4577 64.2905 31.4621 64.3171Z" fill="#B49700"/>
<path id="_54269560" fill-rule="evenodd" clip-rule="evenodd" d="M31.5402 65.2567L26.7096 65.2939L26.709 65.2129L31.5394 65.1758C31.54 65.2028 31.54 65.2297 31.5403 65.2567H31.5402Z" fill="#B49700"/>
<path id="_54268888" fill-rule="evenodd" clip-rule="evenodd" d="M26.722 64.0244C27.4052 64.0244 27.9593 64.5757 27.9593 65.2556H25.4846C25.4846 64.5757 26.0387 64.0244 26.722 64.0244Z" fill="#B49700"/>
<path id="_54268216" fill-rule="evenodd" clip-rule="evenodd" d="M26.7216 64.1304C27.3488 64.1304 27.8574 64.622 27.8574 65.2282H25.5857C25.5857 64.622 26.0943 64.1304 26.7216 64.1304Z" fill="#F8C100"/>
</g>
<path id="_54265400" fill-rule="evenodd" clip-rule="evenodd" d="M28.3578 66.5318C28.2498 66.2846 28.9168 65.8161 29.0207 65.6145C29.2221 65.2235 27.9126 65.3068 27.9484 65.2796L24.8589 65.2627C24.8688 65.2632 24.859 65.2706 24.8354 65.2833C24.8357 65.4443 24.843 65.6053 24.8563 65.7653C25.6321 65.7907 26.6319 65.744 26.6565 65.893C26.6631 65.9335 26.824 65.8498 26.7854 65.8932C26.4303 66.2915 26.8703 66.9791 27.3195 67.3318C28.7157 68.4278 28.2053 69.0437 27.0745 69.2913C27.4081 69.4189 27.7788 69.4898 28.1874 69.4898C29.4768 69.4898 30.3922 68.7901 30.9374 67.7942C30.1012 67.4588 28.6863 67.2835 28.3578 66.5318Z" fill="url(#paint5_linear_828_5446)"/>
<path id="_54264712" fill-rule="evenodd" clip-rule="evenodd" d="M24.8367 65.1759C25.9037 65.1761 26.9706 65.1743 28.0376 65.1743H28.614L28.0641 65.3468C27.776 65.4371 27.4088 65.5966 27.3225 65.918C27.2574 66.1608 27.3611 66.4511 27.4578 66.6723C27.5992 66.996 27.7829 67.3063 27.941 67.623C28.2299 68.2016 28.4795 68.8647 28.186 69.4896C25.914 69.4887 24.8019 67.3174 24.8367 65.1759Z" fill="#3F4446"/>
<path id="_54263624" fill-rule="evenodd" clip-rule="evenodd" d="M28.0379 65.2627C25.806 65.9625 28.9058 67.8717 28.0894 69.4868C25.9135 69.4254 24.8321 67.3446 24.8355 65.263C25.7786 65.263 27.0364 65.2627 28.0379 65.2627Z" fill="url(#paint6_linear_828_5446)"/>
<path id="_53255832" fill-rule="evenodd" clip-rule="evenodd" d="M29.8821 64.2359C30.3559 64.1854 30.2888 63.2248 31.1321 63.2158C31.141 63.2157 31.1497 63.216 31.1584 63.2164C31.4209 63.871 31.5476 64.6116 31.5384 65.349H28.1516H28.0288L28.0678 65.2328C28.1376 65.0243 28.2974 64.7892 28.4344 64.6184C28.5441 64.4815 28.6726 64.3432 28.8122 64.2363C28.9179 64.1555 29.0671 64.065 29.2061 64.0874C29.302 64.1029 29.3985 64.1288 29.4923 64.1538C29.5752 64.1759 29.803 64.2443 29.8821 64.2359Z" fill="#3F4446"/>
<path id="_53255792" fill-rule="evenodd" clip-rule="evenodd" d="M29.8917 64.3232C29.7621 64.337 29.4165 64.2104 29.1923 64.1742C28.8855 64.1247 28.2827 64.8697 28.1519 65.2604H31.5399C31.5384 64.5868 31.4229 63.9137 31.1948 63.3087C31.1745 63.3053 31.154 63.3035 31.1333 63.3037C30.3414 63.3121 30.4386 64.265 29.8917 64.3232Z" fill="#00923E"/>
<path id="_53255568" fill-rule="evenodd" clip-rule="evenodd" d="M26.1173 67.7121C25.7504 66.9648 25.7516 66.234 26.5349 65.7927L26.8091 65.6382L26.6555 65.9126C26.598 66.0153 26.5652 66.1262 26.5772 66.2446C26.6136 66.6044 27.0858 66.9722 27.349 67.1803L27.4973 67.2975L27.3121 67.3359C26.9477 67.4114 26.5541 67.5267 26.2481 67.7451L26.1632 67.8056L26.1173 67.7121Z" fill="#3F4446"/>
<path id="_53254464" fill-rule="evenodd" clip-rule="evenodd" d="M26.1968 67.6729C25.7732 66.8102 25.9582 66.2186 26.5785 65.8691C26.2961 66.3738 26.6991 66.7785 27.2942 67.2491C26.8739 67.3362 26.4925 67.462 26.1968 67.6729Z" fill="white"/>
<path id="_53253392" fill-rule="evenodd" clip-rule="evenodd" d="M27.1508 67.6919H26.9579C26.9588 67.6883 26.9593 67.6846 26.9593 67.6808V67.5748C26.9593 67.5503 26.9391 67.5303 26.9145 67.5303H26.8081C26.7834 67.5303 26.7633 67.5503 26.7633 67.5748V67.6808C26.7633 67.6846 26.7638 67.6883 26.7647 67.6919H25.995V67.625H25.8447V67.6919H25.676C25.6321 67.7264 25.6321 67.7691 25.676 67.8201C26.1499 67.8993 26.6415 67.8992 27.1508 67.8201C27.1946 67.7773 27.1946 67.7346 27.1508 67.6919Z" fill="#3F4446"/>
<path id="_53251864" fill-rule="evenodd" clip-rule="evenodd" d="M30.6337 68.2671C29.9022 67.8887 28.8896 67.8079 28.324 67.2102C27.7497 66.6033 27.6435 65.9252 28.0931 65.216L28.1195 65.1743L31.5393 65.2149C31.5502 66.332 31.2489 67.4531 30.6337 68.2671Z" fill="#3F4446"/>
<path id="_53250808" fill-rule="evenodd" clip-rule="evenodd" d="M28.1674 65.2627C27.8605 65.7468 27.6941 66.416 28.3879 67.1491C28.938 67.7305 29.946 67.8075 30.6865 68.1949C31.2503 67.4094 31.534 66.3578 31.5392 65.3027L28.1674 65.2627Z" fill="url(#paint7_linear_828_5446)"/>
<path id="_53249440" fill-rule="evenodd" clip-rule="evenodd" d="M31.5396 65.2785L29.7541 65.2785H29.4468L29.7071 65.1155C29.9403 64.9695 30.1141 64.7961 30.2995 64.5968C30.4199 64.4674 30.5741 64.2879 30.7556 64.2532C30.7934 64.2459 30.8318 64.2447 30.87 64.2493C30.9702 64.2612 31.0708 64.2811 31.1697 64.3006C31.2553 64.3175 31.3411 64.3352 31.4273 64.3495C31.4396 64.3516 31.4535 64.3539 31.468 64.3562C31.5156 64.6594 31.5399 64.9689 31.5396 65.2785Z" fill="#3F4446"/>
<path id="_53248296" fill-rule="evenodd" clip-rule="evenodd" d="M31.4819 64.4471C31.3093 64.4245 31.0452 64.3592 30.8596 64.337C30.5337 64.2981 30.3548 64.8143 29.7542 65.1904L31.5386 65.1903C31.5351 64.9411 31.5165 64.6923 31.4819 64.4471Z" fill="#00923E"/>
<path id="_53247640" fill-rule="evenodd" clip-rule="evenodd" d="M26.481 62.9771H26.93V63.2145H26.481V62.9771Z" fill="#F8C300"/>
<path id="_53246648" fill-rule="evenodd" clip-rule="evenodd" d="M26.7027 62.4922C26.7895 62.4922 26.86 62.5623 26.86 62.6487C26.86 62.7351 26.7895 62.8052 26.7027 62.8052C26.6158 62.8052 26.5454 62.7351 26.5454 62.6487C26.5454 62.5623 26.6158 62.4922 26.7027 62.4922Z" fill="#3F4446"/>
<path id="_53245416" fill-rule="evenodd" clip-rule="evenodd" d="M26.7027 62.5796C26.7411 62.5796 26.7723 62.6106 26.7723 62.6488C26.7723 62.6871 26.7411 62.7181 26.7027 62.7181C26.6643 62.7181 26.6331 62.6871 26.6331 62.6488C26.6331 62.6106 26.6643 62.5796 26.7027 62.5796Z" fill="url(#paint8_linear_828_5446)"/>
<path id="_54509480" fill-rule="evenodd" clip-rule="evenodd" d="M26.4141 64.4297L26.4822 63.3032H26.9347L27.004 64.4297H26.4141Z" fill="#3F4446"/>
<path id="_54509440" fill-rule="evenodd" clip-rule="evenodd" d="M26.5073 64.3427L26.565 63.3906H26.8523L26.9109 64.3427H26.5073Z" fill="url(#paint9_linear_828_5446)"/>
<path id="_54509216" fill-rule="evenodd" clip-rule="evenodd" d="M26.3713 63.127H27.0396V63.4648H26.3713V63.127Z" fill="#3F4446"/>
<path id="_54509024" fill-rule="evenodd" clip-rule="evenodd" d="M26.459 63.2144H26.9519V63.3777H26.459V63.2144Z" fill="url(#paint10_linear_828_5446)"/>
<path id="_54508336" fill-rule="evenodd" clip-rule="evenodd" d="M26.4165 63.645H27.2736V65.254H26.1438V63.645H26.4165Z" fill="#3F4446"/>
<path id="_54507336" fill-rule="evenodd" clip-rule="evenodd" d="M26.2314 63.7319H26.3678V63.8676H26.5041V63.7319H26.6405V63.8676H26.7768V63.7319H26.9132V63.8676H27.0495V63.7319H27.1859V63.8676V65.1663H26.2314V63.8676V63.7319Z" fill="url(#paint11_linear_828_5446)"/>
<path id="_54506448" fill-rule="evenodd" clip-rule="evenodd" d="M26.7037 64.7192C26.7777 64.7192 26.8319 64.7925 26.8319 64.8732C26.8319 64.9628 26.8319 65.0991 26.8319 65.1886H26.5754V64.8732C26.5754 64.7925 26.6296 64.7192 26.7037 64.7192Z" fill="#3F4446"/>
<path id="_54505792" fill-rule="evenodd" clip-rule="evenodd" d="M26.827 64.457H26.5901V64.2251H26.827V64.457Z" fill="#3F4446"/>
<path id="_54505120" fill-rule="evenodd" clip-rule="evenodd" d="M26.1855 64.0283H27.2318V64.1194H26.1855V64.0283Z" fill="#3F4446"/>
<path id="_54504032" fill-rule="evenodd" clip-rule="evenodd" d="M26.1855 64.5371H27.2318V64.6282H26.1855V64.5371Z" fill="#3F4446"/>
<path id="_54503360" fill-rule="evenodd" clip-rule="evenodd" d="M26.7509 62.9507V63.1928H26.6597V62.9507H26.7509Z" fill="#3F4446"/>
<path id="_53194392" fill-rule="evenodd" clip-rule="evenodd" d="M26.7052 62.6499C26.8546 62.6499 27.0223 62.7452 27.0223 62.9093V63.0197H26.3882V62.9093C26.3882 62.7452 26.5559 62.6499 26.7052 62.6499Z" fill="#3F4446"/>
<path id="_53194352" fill-rule="evenodd" clip-rule="evenodd" d="M26.7049 62.7368H26.705C26.8311 62.7368 26.9343 62.8143 26.9343 62.909V62.9321H26.4756V62.909C26.4756 62.8143 26.5788 62.7368 26.7049 62.7368Z" fill="url(#paint12_linear_828_5446)"/>
<path id="_53194296" fill-rule="evenodd" clip-rule="evenodd" d="M26.5446 62.9482V63.1925H26.4534V62.9482H26.5446Z" fill="#3F4446"/>
<path id="_53921888" fill-rule="evenodd" clip-rule="evenodd" d="M26.9575 62.9507V63.1928H26.8662V62.9507H26.9575Z" fill="#3F4446"/>
<g id="g178">
<path id="_52924384" fill-rule="evenodd" clip-rule="evenodd" d="M28.3569 62.3655C28.6573 62.3597 28.9541 62.3876 29.2381 62.4913C29.4816 62.5802 29.6945 62.7174 29.8823 62.8954L30.0197 63.0258L29.3726 63.0991L29.3421 63.0649C29.0621 62.7508 28.707 62.696 28.3246 62.5846C28.2583 62.5653 28.1305 62.5473 28.1441 62.4486C28.1577 62.3496 28.2875 62.3668 28.3569 62.3655Z" fill="#3F4446"/>
<path id="_53921864" fill-rule="evenodd" clip-rule="evenodd" d="M28.3586 62.4538C28.6497 62.4482 28.9345 62.4746 29.2076 62.5743C29.4201 62.6518 29.6255 62.7738 29.8213 62.9595L29.4081 63.0064C29.1088 62.6706 28.7347 62.6122 28.3494 62.5C28.1878 62.4529 28.1942 62.457 28.3586 62.4538Z" fill="white"/>
<path id="_54532464" fill-rule="evenodd" clip-rule="evenodd" d="M30.3296 62.6484C30.3852 62.6807 30.4271 62.7473 30.4313 62.8094C30.4789 62.8781 30.4806 62.9923 30.4041 63.0419C30.2791 63.123 30.1484 63.1314 30.0209 63.1718C30.0847 63.3741 30.191 63.5712 30.1842 63.7883C30.183 63.8302 30.1791 63.8722 30.1732 63.9138C30.1311 64.2155 29.983 64.4816 29.9308 64.7743C29.9205 64.8322 29.9314 64.9486 29.8348 64.9519C29.7365 64.9553 29.7407 64.8399 29.7305 64.7822C29.694 64.5767 29.6788 64.3621 29.6558 64.1543C29.6344 63.961 29.5937 63.5858 29.4854 63.4145C29.4134 63.3703 29.3361 63.335 29.2564 63.307L29.2543 63.3064L29.2525 63.3056C29.2002 63.2844 29.1289 63.2752 29.0706 63.2699C29.0141 63.284 28.9467 63.2916 28.8909 63.307L28.7566 63.344L28.7802 63.207C28.7912 63.1427 28.8147 63.079 28.8412 63.0191C28.8933 62.9012 28.9859 62.8205 29.1187 62.8305L29.5246 62.7461L29.5368 62.747C29.6081 62.7519 29.6848 62.7328 29.7518 62.7096C29.8264 62.6839 29.8979 62.65 29.9692 62.6161C30.0234 62.5902 30.0935 62.5541 30.1521 62.5428C30.224 62.5288 30.301 62.5821 30.3296 62.6484H30.3296Z" fill="#3F4446"/>
<path id="_54532440" fill-rule="evenodd" clip-rule="evenodd" d="M29.5306 62.8351C29.7715 62.8518 30.0542 62.6517 30.169 62.6295C30.2077 62.622 30.2776 62.6873 30.2435 62.7203C30.2214 62.7416 30.0908 62.7902 30.0537 62.8099C30.0292 62.8227 30.2378 62.7131 30.2653 62.7173C30.3236 62.7261 30.3597 62.8223 30.3338 62.8425C30.3338 62.8425 30.148 62.8931 30.092 62.9187C30.0405 62.9422 30.2468 62.8467 30.3338 62.8425C30.365 62.8411 30.4002 62.9393 30.356 62.968C30.2252 63.0528 30.0519 63.0566 29.9138 63.118C29.9662 63.3283 30.1026 63.5682 30.0958 63.7856C30.0852 64.1246 29.9003 64.4417 29.8438 64.759C29.8217 64.8831 29.8429 64.9107 29.8175 64.7669C29.7441 64.3531 29.7399 63.6221 29.5484 63.3499C29.47 63.2998 29.3824 63.2578 29.2857 63.2238C29.2346 63.2032 29.1604 63.1889 29.063 63.1807C29.0103 63.1952 28.9111 63.2163 28.8584 63.2308C28.8754 63.1323 28.9382 62.8964 29.1235 62.9197L29.5306 62.8351Z" fill="white"/>
<path id="_53227088" fill-rule="evenodd" clip-rule="evenodd" d="M29.1053 63.0801C29.1278 63.0818 29.1472 63.0641 29.1489 63.0406C29.1504 63.0169 29.1338 62.9965 29.1113 62.9948C29.0889 62.993 29.0694 63.0107 29.0678 63.0342C29.066 63.0579 29.0829 63.0784 29.1053 63.0801Z" fill="#3F4446"/>
<path id="_53915576" fill-rule="evenodd" clip-rule="evenodd" d="M29.8585 63.6655L30.0383 64.2822L29.9833 64.3408L29.7905 63.6853L29.8585 63.6655Z" fill="#3F4446"/>
<path id="_53915552" fill-rule="evenodd" clip-rule="evenodd" d="M29.9389 63.5332L30.1252 63.9239L30.0897 64.0073L29.875 63.5636L29.9389 63.5332Z" fill="#3F4446"/>
<path id="_53755392" fill-rule="evenodd" clip-rule="evenodd" d="M30.3316 62.7161L30.037 62.8569L30.0068 62.7931L30.2603 62.6733L30.3316 62.7161Z" fill="#3F4446"/>
<path id="_53646872" fill-rule="evenodd" clip-rule="evenodd" d="M30.3956 62.8889L30.0777 62.9643L30.0618 62.8955L30.3637 62.8223L30.3956 62.8889Z" fill="#3F4446"/>
</g>
<g id="g189">
<path id="_53332248" fill-rule="evenodd" clip-rule="evenodd" d="M29.4102 66.9675C29.4449 66.8289 29.4801 66.7156 29.5463 66.6L29.3828 66.7633L29.3327 66.7134L29.4632 66.5831C29.3676 66.6398 29.2854 66.7137 29.2124 66.8053L29.2084 66.8241L29.209 66.8473L29.2395 67.1577L29.3929 66.9961L29.4044 66.9837L29.41 66.9685L29.4103 66.9675H29.4102ZM29.8369 66.7472C29.8406 66.8846 29.8448 67.0219 29.8492 67.1593L29.9132 67.0109L29.9131 67.0021L29.9101 66.9972C29.8861 66.9071 29.8662 66.8254 29.8369 66.7472ZM29.8546 67.3253C29.8675 67.7168 29.8813 68.1083 29.8892 68.4999L29.8907 68.5719H29.4855L29.5279 67.3094L29.4721 67.18L29.4748 67.3828L29.404 67.3837L29.4017 67.1908L29.3329 67.3729L29.2667 67.348L29.3396 67.1549L29.2031 67.2987L29.1518 67.2501L29.1751 67.2255L29.1546 67.0172L29.1008 67.2199L29.0324 67.2018L29.0849 67.0043L28.9692 67.1704L28.9112 67.1302L29.04 66.9452L28.862 67.0594L28.8238 67L28.9908 66.8928L28.9344 66.9045L28.9141 66.9406L28.8728 66.9174L28.7972 66.9331L28.7828 66.864L28.8031 66.8598L28.7606 66.8192L28.9322 66.64L28.7221 66.7626L28.6865 66.7016L28.9168 66.5672L28.6593 66.6251L28.6438 66.5562L28.8561 66.5085L28.6387 66.501L28.641 66.4304L28.8835 66.4388L28.6507 66.3628L28.6727 66.2957L28.9037 66.3711L28.7819 66.2888L28.7633 66.2917L28.7607 66.2743L28.6988 66.2325L28.7385 66.174L28.7985 66.2147L28.953 66.1902L28.7286 66.1656L28.7364 66.0954L28.9907 66.1233L28.7611 66.0237L28.7893 65.9589L29.0206 66.0593L28.83 65.8947L28.8762 65.8413L29.0658 66.005L28.9306 65.7879L28.9821 65.7559L28.9957 65.7226L29.0683 65.7522L29.0606 65.7232L29.0904 65.7154L29.0324 65.6724L29.0745 65.6157L29.2953 65.779L29.1319 65.5662L29.188 65.5232L29.3663 65.7553L29.2683 65.4836L29.3348 65.4597L29.4174 65.6885L29.396 65.4466L29.4664 65.4404L29.49 65.7071L29.5425 65.442L29.6119 65.4557L29.5599 65.7185L29.6378 65.5675L29.6122 65.5179L29.6751 65.4855L29.6778 65.4904L29.6855 65.4755L29.7483 65.5078L29.7175 65.5675L29.8007 65.7286L29.7486 65.4657L29.818 65.452L29.8705 65.7172L29.8941 65.4505L29.9646 65.4567L29.9432 65.6986L30.0257 65.4698L30.0923 65.4937L29.9942 65.7654L30.1726 65.5333L30.2287 65.5762L30.0653 65.789L30.2861 65.6258L30.3282 65.6825L30.282 65.7167L30.3069 65.7232L30.2971 65.7603L30.3648 65.7326L30.374 65.7551L30.377 65.7506L30.4371 65.7879L30.3018 66.005L30.4914 65.8413L30.5377 65.8947L30.347 66.0593L30.5784 65.9589L30.6066 66.0237L30.3769 66.1233L30.6313 66.0954L30.6391 66.1656L30.4147 66.1902L30.5872 66.2175L30.6515 66.174L30.6912 66.2325L30.6043 66.2912L30.6043 66.2917L30.6037 66.2916L30.4862 66.3711L30.7171 66.2957L30.7391 66.3628L30.5063 66.4388L30.7488 66.4304L30.7512 66.501L30.5338 66.5085L30.7461 66.5562L30.7306 66.6251L30.473 66.5672L30.7034 66.7016L30.6677 66.7626L30.4577 66.6401L30.6293 66.8192L30.5868 66.8598L30.6071 66.864L30.5926 66.9331L30.517 66.9174L30.4757 66.9406L30.4554 66.9045L30.399 66.8928L30.5661 67L30.5278 67.0594L30.3499 66.9452L30.4787 67.1302L30.4206 67.1704L30.3049 67.0043L30.3574 67.2018L30.2891 67.2199L30.2352 67.0172L30.2147 67.2255L30.2381 67.2501L30.1867 67.2987L30.0502 67.1549L30.1231 67.348L30.0569 67.3729L29.9882 67.1908L29.9858 67.3837L29.9151 67.3828L29.9177 67.18L29.8551 67.3253H29.8546ZM29.5335 67.1438L29.5462 66.7636C29.5203 66.8292 29.5008 66.8973 29.4816 66.9734C29.4798 66.9811 29.4779 66.9885 29.4753 66.996L29.4761 67.0109L29.5335 67.1438H29.5335ZM30.1294 66.229C30.0691 66.2532 29.9973 66.2864 29.93 66.3272L30.1552 66.2887L30.1672 66.3583L29.9755 66.3911C30.0668 66.394 30.1573 66.4082 30.2434 66.4371L30.2525 66.4398L30.2625 66.4367L30.5011 66.2754L30.1743 66.2237L30.1482 66.2202L30.1294 66.229ZM29.8089 66.3243C29.9017 66.2529 30.0161 66.1977 30.1101 66.1607L30.1205 66.1552L30.1222 66.144L30.1922 65.8792L29.924 65.9887L29.9084 65.9951L29.8977 66.0096C29.8481 66.0858 29.8105 66.1648 29.7823 66.2472L29.9773 66.0231L30.0307 66.0694L29.8089 66.3243ZM30.1777 66.8023C30.0995 66.701 30.0078 66.6236 29.8995 66.5664L30.0477 66.7199L29.9968 66.7689L29.8642 66.6316C29.9149 66.7339 29.9408 66.8385 29.973 66.9589L29.9799 66.9845L29.9966 66.9961L30.15 67.1577L30.1805 66.8473L30.1834 66.823L30.1778 66.8023H30.1777ZM29.7286 66.1877C29.7564 66.1144 29.7916 66.0436 29.8359 65.975L29.8393 65.9667L29.8385 65.9565L29.6775 65.6446L29.5216 65.9465L29.5246 65.9647C29.5833 66.0535 29.6265 66.1461 29.658 66.2431L29.6582 65.9308L29.7289 65.9309L29.7288 66.1877H29.7286ZM30.2169 66.5027C30.1427 66.4783 30.0646 66.4656 29.9858 66.4622L30.1553 66.5176L30.1333 66.5847L29.9929 66.5388C30.0937 66.6021 30.1803 66.6841 30.2546 66.7872L30.257 66.7907L30.2573 66.7912L30.4088 66.8228L30.2409 66.5253L30.2321 66.5103L30.2167 66.5027H30.2169ZM30.2148 65.7937L30.2239 65.7594L30.1314 65.8278L30.2148 65.7937ZM30.2742 65.8457L30.2425 65.9657L30.332 65.8222L30.2742 65.8457ZM29.4626 65.9994L29.4528 65.9865L29.436 65.9787L29.1727 65.8712L29.2448 66.144L29.2569 66.1606C29.362 66.2021 29.4925 66.2661 29.5899 66.3501L29.5923 66.3505L29.3375 66.0882L29.3883 66.0391L29.5814 66.2379C29.5523 66.1552 29.5136 66.0759 29.4625 65.9994H29.4626ZM29.2302 66.2255L29.2124 66.2199L29.1927 66.2237L28.884 66.2726L29.1268 66.4367L29.1369 66.4388L29.1462 66.4375C29.2312 66.4101 29.3208 66.3951 29.4109 66.3911L29.219 66.3583L29.231 66.2887L29.4295 66.3227L29.2302 66.2255ZM29.3985 66.54L29.2545 66.5885L29.2319 66.5216L29.4092 66.4619C29.3286 66.4658 29.2487 66.4792 29.1726 66.5032L29.1592 66.5114L29.1483 66.5253L28.9804 66.8228L29.1323 66.7911L29.138 66.7838L29.1454 66.7761L29.1455 66.776L29.1455 66.7761C29.2195 66.6803 29.3026 66.6017 29.3985 66.54ZM28.9628 66.7101L28.8235 66.8555L28.8884 66.8419L28.9628 66.7101ZM29.0907 65.8377L29.0291 65.8125L29.1245 65.9657L29.0907 65.8377ZM29.1501 65.7856L29.2286 65.8177L29.1416 65.7533L29.1501 65.7856ZM30.501 66.8419L30.5659 66.8555L30.4266 66.7101L30.501 66.8419Z" fill="#3F4446"/>
<path id="_52970160" fill-rule="evenodd" clip-rule="evenodd" d="M29.6278 66.4496L29.5588 68.501H29.8187C29.8046 67.806 29.7735 67.1446 29.7594 66.4496C29.7087 66.3804 29.6663 66.3958 29.6278 66.4496Z" fill="#3F4446"/>
<path id="_53332544" fill-rule="evenodd" clip-rule="evenodd" d="M29.6277 66.4498L29.6244 66.5486L29.7639 66.6535L29.7612 66.541L29.6321 66.4438L29.6277 66.4498H29.6277ZM29.5627 68.3844L29.5591 68.4922L29.5711 68.5012H29.7181L29.5627 68.3844ZM29.57 68.1684L29.5664 68.2762L29.8179 68.4654L29.8152 68.353L29.5698 68.1684H29.57ZM29.5772 67.9525L29.5736 68.0603L29.8126 68.24L29.8095 68.1271L29.5772 67.9525ZM29.5845 67.7365L29.5809 67.8443L29.8062 68.0138L29.8028 67.9007L29.5845 67.7365ZM29.5917 67.5205L29.5881 67.6283L29.7992 67.7871L29.7955 67.6738L29.5917 67.5205ZM29.599 67.3046L29.5954 67.4124L29.7918 67.5601L29.788 67.4468L29.599 67.3046ZM29.6062 67.0886L29.6026 67.1964L29.7842 67.333L29.7805 67.2197L29.6062 67.0886ZM29.6135 66.8727L29.6099 66.9805L29.7768 67.1061L29.7733 66.9929L29.6135 66.8727ZM29.6208 66.6567L29.6171 66.7645L29.77 66.8794L29.7668 66.7666L29.6208 66.6567Z" fill="#957F66"/>
</g>
<path id="_74839776" fill-rule="evenodd" clip-rule="evenodd" d="M25.1546 57.7259C25.0579 57.6535 24.9973 57.6095 24.9006 57.5372C27.1885 57.1711 29.1643 57.1794 31.4723 57.5444L31.2563 57.7324C29.1748 57.3995 27.2851 57.3914 25.1546 57.7259H25.1546Z" fill="url(#paint13_linear_828_5446)"/>
<path id="_74838072" fill-rule="evenodd" clip-rule="evenodd" d="M30.4026 56.8889L30.7534 56.7339V56.7352C30.7534 56.7887 30.7534 56.8423 30.7534 56.8958C30.7534 56.9088 30.7534 56.9217 30.7534 56.9347C30.6366 56.9185 30.5196 56.9032 30.4026 56.8889ZM25.6257 56.7339V56.7383C25.6257 56.7921 25.6257 56.8458 25.6257 56.8996C25.6257 56.9128 25.6257 56.926 25.6257 56.9392C25.7458 56.923 25.866 56.9076 25.9863 56.8932L25.6257 56.7339ZM27.3529 56.7885L27.1514 56.5947V56.7418C27.1514 56.7601 27.1514 56.7783 27.1514 56.7965C27.2186 56.7936 27.2857 56.7909 27.3529 56.7885ZM29.03 56.7849L29.2277 56.5947V56.7377C29.2277 56.7559 29.2277 56.774 29.2277 56.7922C29.1618 56.7895 29.0959 56.7871 29.03 56.7849Z" fill="#DCC89C"/>
<path id="_74836912" fill-rule="evenodd" clip-rule="evenodd" d="M26.6413 58.9771C26.5423 58.9867 26.4429 58.9886 26.3439 58.9968L26.0789 59.0187L26.1028 58.7543C26.1218 58.5446 26.1563 58.3366 26.1753 58.1269L26.1803 58.0715L26.2108 58.0249C26.3081 57.8764 26.4848 57.7727 26.6654 57.8211C26.7765 57.8508 26.8601 57.9313 26.9052 58.0355L26.9294 58.0912L26.922 58.1515C26.8959 58.362 26.868 58.5723 26.8416 58.7827L26.8193 58.9599L26.6413 58.9771Z" fill="#5B4431"/>
<path id="_74835752" fill-rule="evenodd" clip-rule="evenodd" d="M26.6308 58.8659C26.5325 58.8754 26.4334 58.8773 26.3349 58.8854L26.2024 58.8964L26.2143 58.7642C26.2334 58.5543 26.2678 58.3466 26.2868 58.1368L26.2894 58.1091L26.3046 58.0857C26.3752 57.9781 26.5034 57.893 26.6366 57.9287C26.7147 57.9496 26.7713 58.0068 26.8029 58.0797L26.815 58.1075L26.8112 58.1376C26.7852 58.3481 26.7574 58.5583 26.7309 58.7687L26.7198 58.8573L26.6308 58.8659Z" fill="#DCC89C"/>
<path id="_74833920" fill-rule="evenodd" clip-rule="evenodd" d="M26.6198 58.755C26.6487 58.5247 26.6716 58.3543 26.7001 58.124C26.6417 57.9892 26.4889 58.008 26.3979 58.1469C26.3768 58.3805 26.3466 58.5407 26.3254 58.7743C26.4444 58.7645 26.528 58.7638 26.6198 58.755Z" fill="#5B4431"/>
<path id="_74832632" fill-rule="evenodd" clip-rule="evenodd" d="M29.6795 58.9771C29.7784 58.9867 29.8779 58.9886 29.9769 58.9968L30.2419 59.0187L30.218 58.7543C30.199 58.5446 30.1644 58.3366 30.1455 58.1269L30.1405 58.0715L30.1099 58.0249C30.0126 57.8764 29.8359 57.7727 29.6554 57.8211C29.5442 57.8508 29.4606 57.9313 29.4155 58.0355L29.3914 58.0912L29.3988 58.1515C29.4249 58.362 29.4527 58.5723 29.4792 58.7827L29.5014 58.9599L29.6795 58.9771Z" fill="#5B4431"/>
<path id="_74817480" fill-rule="evenodd" clip-rule="evenodd" d="M29.6899 58.8659C29.7882 58.8754 29.8873 58.8773 29.9858 58.8854L30.1183 58.8964L30.1063 58.7642C30.0873 58.5543 30.0528 58.3466 30.0338 58.1368L30.0315 58.1091L30.0162 58.0857C29.9457 57.9781 29.8175 57.893 29.6842 57.9287C29.6062 57.9496 29.5495 58.0068 29.518 58.0797L29.5059 58.1075L29.5096 58.1376C29.5356 58.3481 29.5635 58.5583 29.5899 58.7687L29.6011 58.8573L29.6901 58.8659H29.6899Z" fill="#DCC89C"/>
<path id="_74821432" fill-rule="evenodd" clip-rule="evenodd" d="M29.7009 58.755C29.672 58.5247 29.6491 58.3543 29.6206 58.124C29.679 57.9892 29.8318 58.008 29.9227 58.1469C29.9439 58.3805 29.9741 58.5407 29.9952 58.7743C29.8763 58.7645 29.7927 58.7638 29.7009 58.755Z" fill="#5B4431"/>
</g>
</g>
<g id="Contorno">
<g id="Vector">
<mask id="path-97-inside-1_828_5446" fill="white">
<path d="M0.000488281 45H56.0005V84.9957H0.000488281V45Z"/>
</mask>
<path d="M0.000488281 45H56.0005V84.9957H0.000488281V45Z" stroke="#8B99A7" stroke-width="0.2" stroke-miterlimit="2.6131" mask="url(#path-97-inside-1_828_5446)"/>
</g>
</g>
</g>
</g>
<rect x="-437.5" y="-298.5" width="1181" height="727" rx="4.5" stroke="#9747FF" stroke-dasharray="10 5"/>
</g>
</g>
<defs>
<linearGradient id="paint0_linear_828_5446" x1="32" y1="129" x2="158.292" y2="21.8401" gradientUnits="userSpaceOnUse">
<stop stop-color="#9285F9"/>
<stop offset="1" stop-color="#3B4AFF"/>
</linearGradient>
<linearGradient id="paint1_linear_828_5446" x1="24.7622" y1="58.4516" x2="31.6098" y2="58.4516" gradientUnits="userSpaceOnUse">
<stop stop-color="#C0A062"/>
<stop offset="0.501961" stop-color="#CEB27C"/>
<stop offset="1" stop-color="#CEB27C"/>
</linearGradient>
<radialGradient id="paint2_radial_828_5446" cx="0" cy="0" r="1" gradientUnits="userSpaceOnUse" gradientTransform="translate(28.1895 66.052) scale(11.9981 11.9755)">
<stop stop-color="white"/>
<stop offset="1" stop-color="#E8E8E7"/>
</radialGradient>
<linearGradient id="paint3_linear_828_5446" x1="24.7573" y1="56.9927" x2="31.6235" y2="56.9927" gradientUnits="userSpaceOnUse">
<stop stop-color="#C0A062"/>
<stop offset="0.501961" stop-color="#DCC89C"/>
<stop offset="1" stop-color="#DCC89C"/>
</linearGradient>
<radialGradient id="paint4_radial_828_5446" cx="0" cy="0" r="1" gradientUnits="userSpaceOnUse" gradientTransform="translate(26.9618 64.6795) scale(5.53148 5.5211)">
<stop stop-color="#FFFCC8"/>
<stop offset="0.4" stop-color="#7FCFD6"/>
<stop offset="1" stop-color="#00A3E4"/>
</radialGradient>
<linearGradient id="paint5_linear_828_5446" x1="30.9375" y1="67.3566" x2="24.8354" y2="67.3566" gradientUnits="userSpaceOnUse">
<stop stop-color="#F5C491"/>
<stop offset="1" stop-color="#F5C491"/>
</linearGradient>
<linearGradient id="paint6_linear_828_5446" x1="24.8321" y1="67.3747" x2="28.9056" y2="67.3747" gradientUnits="userSpaceOnUse">
<stop stop-color="#42929D"/>
<stop offset="1" stop-color="#42929D"/>
</linearGradient>
<linearGradient id="paint7_linear_828_5446" x1="31.5392" y1="66.7288" x2="27.6941" y2="66.7288" gradientUnits="userSpaceOnUse">
<stop stop-color="#BB825B"/>
<stop offset="1" stop-color="#BB825B"/>
</linearGradient>
<linearGradient id="paint8_linear_828_5446" x1="26.6331" y1="62.6488" x2="26.7723" y2="62.6488" gradientUnits="userSpaceOnUse">
<stop stop-color="#C2C1C1"/>
<stop offset="1" stop-color="#C2C1C1"/>
</linearGradient>
<linearGradient id="paint9_linear_828_5446" x1="26.5073" y1="63.8667" x2="26.9109" y2="63.8667" gradientUnits="userSpaceOnUse">
<stop stop-color="#C2C1C1"/>
<stop offset="1" stop-color="#C2C1C1"/>
</linearGradient>
<linearGradient id="paint10_linear_828_5446" x1="26.459" y1="63.296" x2="26.9519" y2="63.296" gradientUnits="userSpaceOnUse">
<stop stop-color="#C2C1C1"/>
<stop offset="1" stop-color="#C2C1C1"/>
</linearGradient>
<linearGradient id="paint11_linear_828_5446" x1="26.2314" y1="64.4491" x2="27.1859" y2="64.4491" gradientUnits="userSpaceOnUse">
<stop stop-color="#C2C1C1"/>
<stop offset="1" stop-color="#C2C1C1"/>
</linearGradient>
<linearGradient id="paint12_linear_828_5446" x1="26.4756" y1="62.8345" x2="26.9343" y2="62.8345" gradientUnits="userSpaceOnUse">
<stop stop-color="#C2C1C1"/>
<stop offset="1" stop-color="#C2C1C1"/>
</linearGradient>
<linearGradient id="paint13_linear_828_5446" x1="24.9006" y1="57.4518" x2="31.4723" y2="57.4518" gradientUnits="userSpaceOnUse">
<stop stop-color="#968247"/>
<stop offset="0.501961" stop-color="#A69464"/>
<stop offset="1" stop-color="#A69464"/>
</linearGradient>
<clipPath id="clip0_828_5446">
<rect width="56" height="40" fill="white" transform="translate(0 45)"/>
</clipPath>
</defs>
</svg>
