<svg width="120" height="130" viewBox="0 0 120 130" fill="none" xmlns="http://www.w3.org/2000/svg">
<g id="&#195;&#141;cones">
<g id="Ilustra&#195;&#167;&#195;&#163;o UF">
<g id="Estado=ES">
<g id="UF">
<path id="es" fill-rule="evenodd" clip-rule="evenodd" d="M59.3768 1H85.7683L118.659 33.8861V66.5754L91.4798 93.7507V109.111L71.5878 129H45.5902L32.0005 115.412L71.1938 76.2246V39.9907L59.3768 28.3723V1Z" fill="url(#paint0_linear_828_5446)" stroke="white" stroke-width="1.21084"/>
</g>
<g id="Bandeira do Estado/Esp&#195;&#173;rito Santo - ES" clip-path="url(#clip0_828_5446)">
<g id="Group">
<path id="rect6 1" d="M56 45H0V85H56V45Z" fill="white"/>
<path id="rect8 1" d="M56 45H0V58H56V45Z" fill="#00A3CE"/>
<path id="rect10 1" d="M56 72H0V85H56V72Z" fill="#F05B8D"/>
<path id="path12 1" d="M8.82447 68.3849L7.90778 66.5478L7.18646 66.845L7 66.4676L8.93442 65.6742L9.12087 66.0479L8.39955 66.345L9.31625 68.1821L8.82447 68.3849ZM10.3563 67.7654L9.37196 65.5041L10.4328 65.1267C10.6957 65.0294 10.8993 64.9826 11.0352 64.9781C11.1749 64.9737 11.3027 65.0123 11.4215 65.0881C11.5404 65.1691 11.6251 65.2745 11.6845 65.406C11.7566 65.5754 11.7655 65.7366 11.7016 65.8852C11.6422 66.0337 11.5062 66.1652 11.3027 66.2715C11.4342 66.2886 11.553 66.3227 11.6503 66.3651C11.7521 66.4074 11.9007 66.4966 12.0998 66.628L12.596 66.9586L11.9935 67.1748L11.4163 66.8145C11.2083 66.683 11.0724 66.6065 11.0048 66.5768C10.9372 66.5471 10.8733 66.5344 10.8139 66.5389C10.7544 66.5389 10.6653 66.5604 10.5509 66.6028L10.4491 66.6407L10.8607 67.5826L10.3563 67.7654ZM10.2924 66.2804L10.6616 66.1444C10.9037 66.0597 11.0516 65.9959 11.1028 65.958C11.1541 65.9156 11.1875 65.8688 11.2001 65.8094C11.2172 65.7544 11.2083 65.6905 11.1786 65.6229C11.1444 65.5464 11.0984 65.4915 11.03 65.4617C10.9661 65.432 10.8904 65.4239 10.8049 65.4402C10.7581 65.4484 10.6356 65.4915 10.4313 65.5635L10.0413 65.7076L10.2924 66.2804ZM15.1626 66.1786L14.6025 66.348L14.1909 65.8941L13.1769 66.1994L13.1598 66.7848L12.6123 66.9504L12.7564 64.3452L13.2995 64.184L15.1626 66.1786ZM13.8819 65.5546L13.22 64.8036L13.1903 65.7626L13.8819 65.5546ZM14.7473 63.7643L15.7784 63.5095C15.9864 63.4582 16.1387 63.4285 16.2449 63.4204C16.3467 63.4077 16.4485 63.4204 16.5421 63.4501C16.6357 63.4798 16.7204 63.5266 16.8006 63.5986C16.8771 63.6662 16.9321 63.7517 16.9618 63.849C16.9915 63.9589 16.9915 64.0696 16.9536 64.1758C16.9157 64.2858 16.8474 64.3749 16.7501 64.447C16.9195 64.4514 17.0643 64.4938 17.1787 64.5703C17.2931 64.6513 17.3696 64.7568 17.4075 64.8927C17.4417 64.9989 17.4454 65.1133 17.4201 65.2277C17.3949 65.3377 17.3436 65.4402 17.2671 65.5249C17.1906 65.6059 17.0844 65.6735 16.9529 65.7203C16.8682 65.75 16.6602 65.8049 16.3289 65.8896L15.4464 66.1058L14.7473 63.7643ZM15.3877 64.0236L15.5489 64.5666L15.8884 64.4819C16.0919 64.4306 16.2189 64.3972 16.2657 64.3801C16.3504 64.3504 16.4143 64.3036 16.4522 64.2486C16.4864 64.1892 16.4945 64.1216 16.4737 64.0451C16.4522 63.973 16.4098 63.9181 16.3549 63.8839C16.2954 63.8497 16.2234 63.8371 16.1342 63.8497C16.0793 63.8579 15.9307 63.8921 15.6848 63.9515L15.3877 64.0236ZM15.6633 64.9566L15.8542 65.5843L16.3333 65.4655C16.5242 65.4187 16.6386 65.3845 16.6899 65.3637C16.762 65.3295 16.8169 65.2827 16.8467 65.224C16.8845 65.1601 16.889 65.0881 16.8637 65.0034C16.8422 64.9358 16.8043 64.8801 16.7538 64.8377C16.7025 64.7999 16.6349 64.7783 16.5584 64.7739C16.4774 64.7694 16.3207 64.7954 16.0874 64.8548L15.6633 64.9566ZM20.4191 65.0287L19.8463 65.1386L19.4898 64.6424L18.446 64.8415L18.3524 65.4224L17.7931 65.5293L18.264 62.9583L18.8242 62.8521L20.4191 65.0287ZM19.2268 64.2739L18.6622 63.459L18.5136 64.4091L19.2268 64.2739ZM20.7289 64.9908L20.3255 62.6062L20.8603 62.5341L21.1954 64.5109L22.5236 64.3281L22.5912 64.7315L20.7289 64.9908ZM22.9775 64.6855L22.7227 62.2674L23.2613 62.2206L23.3586 63.1752L24.4149 63.0816L24.3132 62.1315L24.8517 62.0847L25.1065 64.5027L24.568 64.5495L24.458 63.4932L23.4017 63.5823L23.5116 64.6387L22.9775 64.6855ZM28.0765 64.3965L27.4911 64.4136L27.2363 63.8705L26.1674 63.9002L25.9683 64.4604L25.3955 64.4774L26.3456 62.0171L26.9184 62L28.0765 64.3965ZM27.0462 63.4679L26.6472 62.5772L26.3167 63.4894L27.0462 63.4679ZM30.4485 64.4559L30.6439 62.0334L32.6206 62.1694L32.5909 62.5765L31.1483 62.4791L31.1059 63.0177L32.4468 63.1069L32.4126 63.514L31.0717 63.4248L31.0168 64.0867L32.5099 64.184L32.4757 64.5956L30.4485 64.4559ZM36.8505 64.2821L37.3385 64.5153C37.207 64.7657 37.0377 64.9351 36.8252 65.0331C36.6172 65.1304 36.3713 65.1564 36.0913 65.1096C35.7391 65.0502 35.4762 64.8935 35.2934 64.6431C35.1107 64.3883 35.0557 64.0704 35.1322 63.6967C35.2132 63.2978 35.387 63.0096 35.6582 62.8268C35.9256 62.6403 36.248 62.5809 36.6172 62.6403C36.9352 62.6953 37.1818 62.8231 37.3467 63.0304C37.4485 63.1492 37.5079 63.3104 37.5294 63.514L36.982 63.5392C36.9738 63.4122 36.927 63.3015 36.8423 63.2168C36.7613 63.1277 36.6469 63.0727 36.5073 63.0474C36.3119 63.0177 36.1381 63.0556 35.994 63.1618C35.8454 63.2681 35.7436 63.4627 35.6886 63.7472C35.6292 64.0525 35.6463 64.2776 35.7399 64.4262C35.8335 64.5748 35.9776 64.6639 36.1685 64.6936C36.3082 64.7189 36.4397 64.6981 36.5585 64.6297C36.6722 64.5666 36.774 64.4522 36.8505 64.2821ZM37.8556 64.1461C37.9195 63.904 38.0123 63.713 38.1401 63.5652C38.2292 63.459 38.3392 63.3698 38.4669 63.2978C38.594 63.2257 38.7255 63.1789 38.8614 63.1581C39.0397 63.1329 39.2351 63.1455 39.4468 63.1923C39.8286 63.277 40.1042 63.4508 40.278 63.7182C40.4474 63.9857 40.4816 64.3125 40.3798 64.6944C40.278 65.0762 40.0827 65.3518 39.7944 65.513C39.5099 65.6787 39.1749 65.7165 38.7931 65.6319C38.4068 65.5472 38.1312 65.3733 37.9573 65.1059C37.788 64.8422 37.7538 64.5198 37.8556 64.1461ZM38.3986 64.2479C38.3265 64.5153 38.3436 64.736 38.4409 64.9053C38.5383 65.071 38.6913 65.1765 38.9037 65.2233C39.1117 65.2701 39.3027 65.2404 39.472 65.1341C39.6414 65.0279 39.7647 64.837 39.8412 64.5614C39.9133 64.294 39.9007 64.0778 39.8071 63.9121C39.7135 63.7509 39.5567 63.6447 39.3405 63.5979C39.1244 63.5511 38.9335 63.5764 38.7633 63.6826C38.594 63.7903 38.4751 63.9768 38.3986 64.2479ZM40.469 65.9832L41.2623 63.6625L41.7712 63.8022L42.289 65.6437L42.7978 64.0956L43.3067 64.2316L42.5007 66.5523L41.9829 66.4082L41.4651 64.6052L40.9474 66.1155L40.469 65.9832ZM43.0526 66.7216L43.9857 64.4433L45.6824 65.016L45.5553 65.4023L44.3252 64.9952L44.1127 65.5383L45.1735 65.8859L45.0041 66.2722L43.9433 65.9245L43.5615 66.8918L43.0526 66.7216ZM45.1735 67.4467L46.192 65.1936L46.6585 65.3763L45.6824 67.6294L45.1735 67.4467ZM48.3559 68.6939L47.8047 68.4733L47.8471 67.8835L46.871 67.489L46.4468 67.9132L45.8956 67.7007L47.9318 65.8681L48.483 66.0761L48.3559 68.6939ZM47.8887 67.4467L47.931 66.4876L47.2097 67.1748L47.8887 67.4467Z" fill="#00A3CE"/>
</g>
<g id="Contorno">
<g id="Vector">
<mask id="path-7-inside-1_828_5446" fill="white">
<path d="M0.000488281 45H56.0005V84.9957H0.000488281V45Z"/>
</mask>
<path d="M0.000488281 45H56.0005V84.9957H0.000488281V45Z" stroke="#8B99A7" stroke-width="0.2" stroke-miterlimit="2.6131" mask="url(#path-7-inside-1_828_5446)"/>
</g>
</g>
</g>
</g>
<rect x="-648.5" y="-439.5" width="1181" height="727" rx="4.5" stroke="#9747FF" stroke-dasharray="10 5"/>
</g>
</g>
<defs>
<linearGradient id="paint0_linear_828_5446" x1="32.0005" y1="129" x2="150.845" y2="48.5401" gradientUnits="userSpaceOnUse">
<stop stop-color="#9285F9"/>
<stop offset="1" stop-color="#3B4AFF"/>
</linearGradient>
<clipPath id="clip0_828_5446">
<rect width="56.0005" height="40" fill="white" transform="translate(0 45)"/>
</clipPath>
</defs>
</svg>
