<svg width="161" height="128" viewBox="0 0 161 128" fill="none" xmlns="http://www.w3.org/2000/svg">
<g id="&#195;&#141;cones">
<g id="Ilustra&#195;&#167;&#195;&#163;o UF">
<g id="Estado=GO">
<g id="UF">
<path id="go" fill-rule="evenodd" clip-rule="evenodd" d="M69.5603 124.038L63.1356 117.515H50.9781L38.0298 104.668V100.22H32.0005V79.6643L54.3387 57.2305V44.7782H68.3743L76.8746 36.279V5.34601H86.2646V14.3393H102.079L109.394 7.02606H116.312V14.4381H144.087L154.465 3.9624L154.169 24.7162L160 30.547V45.2723H154.268L147.349 38.3544H141.122V64.0496L132.028 73.1417V102.197L124.615 109.609H96.0499L90.9101 114.748H78.8515L69.5603 124.038Z" fill="url(#paint0_linear_828_5446)" stroke="white" stroke-width="1.21084"/>
</g>
<g id="Bandeira do Estado/Goi&#195;&#161;s - GO" clip-path="url(#clip0_828_5446)">
<g id="Group">
<path id="Vector" d="M56 44H0V84H56V44Z" fill="#F2E60E"/>
<g id="Group_2">
<path id="Vector_2" d="M56 74H0V79H56V74Z" fill="#00994B"/>
<path id="Vector_3" d="M56 64H0V69H56V64Z" fill="#00994B"/>
<path id="Vector_4" d="M56 44H0V49H56V44Z" fill="#00994B"/>
<path id="Vector_5" d="M56 54H0V59H56V54Z" fill="#00994B"/>
</g>
<g id="Group_3">
<path id="Vector_6" d="M3.96924 51.793L4.72984 53.9867H6.98872L5.13879 55.3861L5.88076 57.6006L3.96924 56.2183L2.08636 57.6006L2.80828 55.389L0.93042 53.9867H3.22225L3.96924 51.793Z" fill="white"/>
<path id="Vector_7" d="M15.908 51.793L16.6678 53.9867H18.9274L17.0775 55.3861L17.8195 57.6006L15.908 56.2183L14.0251 57.6006L14.747 55.389L12.8691 53.9867H15.161L15.908 51.793Z" fill="white"/>
<path id="Vector_8" d="M3.96584 44.8101L4.72643 47.0038H6.98532L5.1361 48.4032L5.87736 50.6177L3.96584 49.2354L2.08296 50.6177L2.80488 48.4061L0.927734 47.0038H3.21956L3.96584 44.8101Z" fill="white"/>
<path id="Vector_9" d="M15.905 44.8101L16.6656 47.0038H18.9245L17.0746 48.4032L17.8166 50.6177L15.905 49.2354L14.0222 50.6177L14.7441 48.4061L12.8662 47.0038H15.158L15.905 44.8101Z" fill="white"/>
<path id="Vector_10" d="M9.93254 49.1064L10.5019 50.7494H12.1943L10.8084 51.7979L11.3642 53.4566L9.93254 52.421L8.52164 53.4566L9.06237 51.8001L7.65576 50.7494H9.3732L9.93254 49.1064Z" fill="white"/>
<path id="Vector_11" d="M0 44V59H19.8508V44H0ZM3.2193 47.0037L3.96629 44.81L4.72689 47.0037H6.98577L5.13584 48.4032L5.8771 50.6176L3.96557 49.2354L2.0827 50.6176L2.80462 48.406L0.927473 47.0037H3.2193ZM5.88068 57.6006L3.96916 56.2183L2.08628 57.6006L2.8082 55.3889L0.930338 53.9866H3.22216L3.96916 51.7929L4.72976 53.9866H6.98864L5.13942 55.3861L5.88068 57.6006ZM11.3646 53.4566L9.93292 52.421L8.52201 53.4566L9.06274 51.8001L7.65613 50.7494H9.37285L9.9322 49.1065L10.5016 50.7494H12.1939L10.8081 51.7979L11.3646 53.4566ZM15.1576 47.0037L15.9046 44.81L16.6652 47.0037H18.924L17.0741 48.4032L17.8154 50.6176L15.9038 49.2354L14.021 50.6176L14.7429 48.406L12.865 47.0037H15.1576ZM17.8197 57.6006L15.9081 56.2183L14.0253 57.6006L14.7472 55.3889L12.8693 53.9866H15.1611L15.9081 51.7929L16.6687 53.9866H18.9276L17.0784 55.3861L17.8197 57.6006Z" fill="#273578"/>
</g>
</g>
<g id="Contorno">
<g id="Vector_12">
<mask id="path-14-inside-1_828_5446" fill="white">
<path d="M0.000488281 44H56.0005V83.9957H0.000488281V44Z"/>
</mask>
<path d="M0.000488281 44H56.0005V83.9957H0.000488281V44Z" stroke="#8B99A7" stroke-width="0.2" stroke-miterlimit="2.6131" mask="url(#path-14-inside-1_828_5446)"/>
</g>
</g>
</g>
</g>
<rect x="-15.5" y="-157.5" width="1181" height="727" rx="4.5" stroke="#9747FF" stroke-dasharray="10 5"/>
</g>
</g>
<defs>
<linearGradient id="paint0_linear_828_5446" x1="32.0005" y1="124.038" x2="151.831" y2="-3.70114" gradientUnits="userSpaceOnUse">
<stop stop-color="#9285F9"/>
<stop offset="1" stop-color="#3B4AFF"/>
</linearGradient>
<clipPath id="clip0_828_5446">
<rect width="56.0005" height="40" fill="white" transform="translate(0 44)"/>
</clipPath>
</defs>
</svg>
