<svg width="161" height="128" viewBox="0 0 161 128" fill="none" xmlns="http://www.w3.org/2000/svg">
<g id="&#195;&#141;cones">
<g id="Ilustra&#195;&#167;&#195;&#163;o UF">
<g id="Estado=MG">
<g id="UF">
<path id="mg" fill-rule="evenodd" clip-rule="evenodd" d="M32.0005 74.7076L38.0105 68.6984H45.8107L49.1354 65.3742H67.6129L72.4081 60.5797V41.7852L78.2902 35.9039V19.2829H82.3182L86.7937 23.7578H90.502V26.5067H97.1514L107.253 16.3423H114.286V21.6482H123.685L125.986 23.7578H140.692V29.8948H151.497L160 38.3971L152.584 45.8126V54.8263H144.016V63.7121L147.853 67.4838V79.2464L130.078 97.0181V103.411H106.422L98.1743 111.657H82.51V98.3605L73.3671 89.219V81.5477H58.2782L52.2043 87.6208H45.8746V80.0135H32.1284L32.0005 74.7076Z" fill="url(#paint0_linear_828_5446)" stroke="white" stroke-width="1.21084"/>
</g>
<g id="Bandeira do Estado/Minas Gerais - MG">
<g id="Group">
<path id="Vector" fill-rule="evenodd" clip-rule="evenodd" d="M0 44.0039H56V84.0039H0V44.0039Z" fill="white"/>
<path id="Vector_2" fill-rule="evenodd" clip-rule="evenodd" d="M27.8917 53.5054L39.3986 73.1705H16.3975L27.8917 53.5054Z" fill="#E30613"/>
<path id="Vector_3" fill-rule="evenodd" clip-rule="evenodd" d="M15.5054 68.2568C15.4516 68.2256 15.42 68.2037 15.4073 68.1819C15.3852 68.1725 15.3852 68.1382 15.4073 68.0976C15.4073 68.0757 15.4168 68.0539 15.4295 68.032C15.439 68.0227 15.439 68.0008 15.4516 67.9883C15.4516 67.979 15.4516 67.9665 15.4516 67.9571C15.4516 67.9477 15.4421 67.9353 15.4295 67.9259C15.3978 67.9165 15.3757 67.9259 15.3536 67.9477C15.3536 67.9696 15.3314 68.0008 15.3093 68.0539C15.2871 68.1195 15.2555 68.1819 15.2017 68.2787C15.1479 68.363 15.1036 68.4285 15.072 68.4597C15.0403 68.5035 15.0182 68.5347 15.0055 68.544C14.996 68.5753 14.996 68.5971 15.0277 68.6096C15.0498 68.619 15.0593 68.619 15.072 68.619C15.0815 68.619 15.0815 68.6096 15.0941 68.5971C15.1036 68.5877 15.1163 68.5753 15.1258 68.5534C15.1352 68.544 15.1479 68.5222 15.1574 68.5097C15.189 68.4878 15.2112 68.4785 15.2333 68.4785C15.2555 68.4878 15.2998 68.5003 15.3409 68.5315L16.771 69.3464C16.8026 69.3682 16.8247 69.3776 16.8469 69.3901C16.869 69.4119 16.8785 69.4213 16.8912 69.4338C16.9007 69.4432 16.9133 69.465 16.9133 69.4869C16.9133 69.4962 16.9133 69.5181 16.9038 69.5524C16.8943 69.5743 16.8943 69.5836 16.8817 69.5961C16.8722 69.618 16.8722 69.6274 16.8595 69.6398C16.8595 69.6492 16.8595 69.6617 16.8595 69.6711C16.8595 69.6804 16.869 69.6929 16.8817 69.7023C16.9133 69.7241 16.9481 69.7116 16.9671 69.6711C16.9766 69.6492 16.9987 69.618 17.0209 69.5649C17.043 69.5118 17.0747 69.4463 17.119 69.362C17.2265 69.1809 17.3246 69.0311 17.4006 68.9124C17.486 68.7938 17.5429 68.7095 17.5841 68.6439C17.6062 68.6002 17.6062 68.569 17.5619 68.5472C17.5619 68.5472 17.5524 68.5472 17.5524 68.5378C17.5429 68.5284 17.5303 68.5284 17.5208 68.5159L17.2392 68.313C17.2297 68.3036 17.2171 68.2912 17.2076 68.2912C17.1981 68.2818 17.1981 68.2818 17.1854 68.2818C17.1854 68.2818 17.1759 68.2818 17.1633 68.2818L17.1538 68.2912C17.1443 68.313 17.1443 68.3442 17.1759 68.3879C17.1981 68.4316 17.2297 68.4941 17.2613 68.569C17.293 68.6439 17.3151 68.7189 17.3056 68.7844C17.3056 68.8594 17.2835 68.9249 17.2519 68.9874C17.1759 69.1154 17.0684 69.1466 16.926 69.0716L15.5054 68.2568ZM16.6033 66.3836C16.559 66.3524 16.5178 66.3306 16.5052 66.3087C16.4957 66.2869 16.4957 66.2556 16.5052 66.2119C16.5147 66.1901 16.5147 66.1807 16.5273 66.1589C16.5368 66.137 16.5368 66.1276 16.5495 66.1152C16.5495 66.0933 16.559 66.0839 16.5495 66.0839C16.5495 66.0746 16.54 66.0621 16.5273 66.0527C16.4957 66.0434 16.4736 66.0434 16.4609 66.0746C16.4514 66.0964 16.4293 66.1276 16.4071 66.1807C16.3976 66.2338 16.3533 66.3087 16.309 66.3961C16.2552 66.4804 16.211 66.546 16.1667 66.5897C16.135 66.6428 16.1129 66.674 16.1002 66.6865C16.0781 66.7177 16.0907 66.7395 16.1097 66.7614C16.1319 66.7708 16.1413 66.7708 16.154 66.7614C16.1635 66.7614 16.1762 66.752 16.1856 66.7395C16.1951 66.7302 16.1951 66.7177 16.2078 66.6958C16.2173 66.674 16.2394 66.6646 16.2521 66.6428C16.2837 66.6209 16.3059 66.6115 16.328 66.6115C16.3502 66.6115 16.3945 66.6334 16.4356 66.6553L17.8656 67.4701C17.8973 67.4919 17.9194 67.5138 17.9416 67.5232C17.9637 67.5325 17.9859 67.545 17.9954 67.5669C18.0049 67.5762 18.0049 67.5981 18.0049 67.6106C18.0049 67.6324 18.0049 67.6543 17.9954 67.6855C17.9954 67.6949 17.9859 67.7167 17.9732 67.7292C17.9637 67.7386 17.9637 67.7604 17.9511 67.7729C17.9511 67.7823 17.9511 67.7948 17.9511 67.8041C17.9511 67.8135 17.9606 67.826 17.9732 67.8354C18.0049 67.8572 18.0397 67.8354 18.0586 67.7916C18.0681 67.7823 18.0903 67.7386 18.1124 67.6949C18.1346 67.6418 18.1662 67.5762 18.22 67.4919C18.2643 67.417 18.3054 67.3515 18.3402 67.3109C18.3719 67.2578 18.394 67.2359 18.4067 67.2141C18.4288 67.1704 18.4288 67.1392 18.3972 67.1173C18.3877 67.1173 18.375 67.1079 18.3655 67.1173C18.356 67.1173 18.3434 67.1173 18.3339 67.1392C18.3244 67.1485 18.3117 67.161 18.3023 67.1704C18.2928 67.1922 18.2801 67.2016 18.258 67.2235C18.2485 67.2328 18.2263 67.2453 18.2137 67.2547C18.1915 67.264 18.182 67.264 18.1599 67.264C18.1504 67.2547 18.1282 67.2547 18.1061 67.2422C18.0839 67.2328 18.0618 67.211 18.0302 67.1985L16.6033 66.3836ZM17.9795 65.2379L17.4575 64.9382C17.4037 64.907 17.3594 64.8726 17.3594 64.8414C17.3499 64.8102 17.3594 64.7446 17.4037 64.6697C17.4797 64.5511 17.5651 64.4761 17.6758 64.4449C17.7834 64.4231 17.8941 64.4449 18.0238 64.5198C18.1441 64.5854 18.22 64.6791 18.2421 64.7883C18.2643 64.8945 18.2326 65.0225 18.1567 65.1536L18.1346 65.1973C18.1251 65.2192 18.1029 65.2285 18.1029 65.2504C18.0934 65.2597 18.0808 65.2597 18.0713 65.2722C18.0618 65.2722 18.0491 65.2722 18.0397 65.2629C18.0112 65.2597 18.0017 65.2473 17.9795 65.2379ZM18.413 64.7571C18.4351 64.6291 18.4225 64.523 18.3908 64.4355C18.3592 64.3513 18.2833 64.2763 18.1725 64.2201C18.0112 64.1234 17.8467 64.114 17.6948 64.1983C17.5429 64.2826 17.3911 64.4543 17.2487 64.7134C17.0209 65.0974 16.9355 65.3128 16.9987 65.344C17.0304 65.3659 17.0525 65.3534 17.0652 65.3347C17.0747 65.3128 17.0873 65.3035 17.0873 65.2816C17.0968 65.2597 17.1095 65.2379 17.119 65.216C17.1506 65.163 17.2044 65.1505 17.2803 65.2067L18.7104 66.0215C18.7325 66.0309 18.742 66.0309 18.7547 66.0434C18.7642 66.0527 18.7642 66.0527 18.7768 66.0527C18.8211 66.0839 18.8433 66.1058 18.8528 66.137C18.8749 66.1682 18.8623 66.2026 18.8433 66.2556C18.8116 66.2994 18.8116 66.3306 18.8433 66.3524C18.8749 66.3743 18.9097 66.3618 18.9287 66.3212C18.9382 66.2994 18.9508 66.2681 18.973 66.2369C18.9825 66.1932 19.0046 66.1401 19.0394 66.0871C19.0837 66.0121 19.147 65.9278 19.2134 65.8529C19.2799 65.7686 19.3558 65.6718 19.4191 65.5532C19.4634 65.4689 19.495 65.3815 19.5045 65.2972C19.5267 65.2129 19.514 65.1255 19.495 65.0506C19.4729 64.9756 19.4412 64.9007 19.3875 64.8258C19.3337 64.7602 19.2672 64.7072 19.1818 64.6541C19.0394 64.5792 18.9002 64.5479 18.7705 64.5573C18.6313 64.5729 18.5206 64.6385 18.413 64.7571ZM18.1978 65.3035L18.3054 65.1099C18.3908 64.9819 18.4889 64.8945 18.6091 64.8757C18.7294 64.8539 18.8591 64.8757 18.9888 64.9507C19.1407 65.035 19.2387 65.1442 19.283 65.2597C19.3147 65.3784 19.3052 65.4939 19.2293 65.6125C19.1755 65.7093 19.1217 65.7624 19.0679 65.7717C19.0015 65.7936 18.9382 65.7717 18.8496 65.728L18.22 65.3628C18.1852 65.3565 18.1757 65.3347 18.1978 65.3035ZM19.0299 61.9193L19.0204 61.9099C18.9888 61.888 18.954 61.8787 18.9445 61.8787C18.9224 61.8787 18.9002 61.9005 18.8781 61.9442C18.8559 61.9661 18.8243 62.0285 18.7705 62.1253C18.7167 62.2315 18.6408 62.3719 18.5332 62.553C18.4573 62.6935 18.3813 62.7996 18.3371 62.8746C18.2928 62.9495 18.2611 62.9932 18.2516 63.0026C18.2295 63.0338 18.2421 63.0681 18.2611 63.0775C18.2833 63.0869 18.2928 63.0994 18.3054 63.0869C18.3149 63.0869 18.3276 63.0775 18.3371 63.065C18.3465 63.0556 18.3465 63.0432 18.3592 63.0213C18.3687 63.0119 18.3813 62.9901 18.4035 62.9776C18.4256 62.9557 18.4573 62.9464 18.4794 62.9557C18.5016 62.9557 18.5332 62.9776 18.5775 62.9995L20.0076 63.8143C20.0613 63.8455 20.1056 63.8798 20.1373 63.9111C20.1594 63.9329 20.1594 63.9766 20.1468 64.0172C20.1246 64.0609 20.1151 64.0921 20.093 64.1234C20.0835 64.1452 20.093 64.1671 20.1151 64.1764C20.1468 64.1983 20.1816 64.1858 20.2006 64.1327C20.21 64.1234 20.2227 64.089 20.2449 64.0484C20.2765 63.9954 20.3113 63.9204 20.3651 63.8236C20.4853 63.6301 20.5834 63.4709 20.6688 63.3429C20.7542 63.2149 20.8112 63.1181 20.8523 63.065C20.8618 63.0338 20.8745 63.0213 20.8745 63.0119C20.8839 62.9901 20.8839 62.9807 20.8745 62.9682C20.8745 62.9589 20.865 62.9464 20.8523 62.937C20.8428 62.937 20.8207 62.9152 20.7985 62.9058L20.5169 62.7029C20.4948 62.6935 20.4853 62.681 20.4726 62.6716C20.4632 62.6623 20.4632 62.6623 20.4632 62.6623C20.4632 62.6623 20.4537 62.6623 20.441 62.6623C20.4284 62.6623 20.4189 62.6716 20.4189 62.6716C20.3967 62.7029 20.4094 62.7372 20.441 62.7778C20.4726 62.8215 20.5075 62.8746 20.5486 62.9495C20.5707 62.9932 20.5802 63.0338 20.5929 63.0681C20.6024 63.1118 20.6024 63.1524 20.6024 63.1868C20.5929 63.2305 20.5802 63.2617 20.5581 63.3054C20.5486 63.3491 20.5264 63.3897 20.4916 63.4334C20.4695 63.4865 20.4378 63.5177 20.4157 63.5395C20.3936 63.5708 20.3714 63.5833 20.3493 63.5926C20.3271 63.602 20.305 63.602 20.2733 63.5926C20.2417 63.5833 20.2069 63.5708 20.1658 63.5395L19.514 63.1743C19.4919 63.1649 19.4824 63.1524 19.4824 63.1431C19.4824 63.1337 19.4824 63.1118 19.4919 63.09L19.5773 62.9495C19.6089 62.8839 19.6437 62.8434 19.6849 62.7996C19.7165 62.7684 19.7608 62.7466 19.8272 62.7559C19.8715 62.7559 19.9032 62.7559 19.9348 62.7653C19.9664 62.7653 19.9886 62.7747 20.0107 62.7872C20.0329 62.7872 20.055 62.7872 20.0772 62.7872C20.0867 62.7872 20.0993 62.7872 20.1088 62.7778C20.1183 62.7466 20.1088 62.7247 20.0772 62.7029C20.055 62.6935 20.0234 62.681 19.9791 62.6592C19.9348 62.6373 19.8715 62.6061 19.8051 62.5624C19.7386 62.5312 19.6849 62.4875 19.6311 62.4562C19.5868 62.425 19.5456 62.3907 19.5013 62.3719C19.4697 62.3501 19.4476 62.3626 19.4349 62.3813C19.4223 62.4 19.4254 62.4125 19.4349 62.425C19.4444 62.4344 19.4571 62.4562 19.4792 62.4687C19.4887 62.4781 19.5108 62.4999 19.5235 62.5218C19.5456 62.5436 19.5551 62.5655 19.5678 62.5967C19.5678 62.6186 19.5678 62.6623 19.5456 62.7154C19.5362 62.7684 19.5013 62.834 19.4697 62.8871L19.3938 63.0275C19.3716 63.0588 19.3621 63.0713 19.3495 63.0713C19.3368 63.0713 19.3178 63.0713 19.2957 63.0494L18.7737 62.7591C18.742 62.7372 18.7072 62.7154 18.6882 62.706C18.6661 62.6841 18.6566 62.6623 18.6439 62.6404C18.6345 62.6311 18.6345 62.6092 18.6439 62.5749C18.6534 62.553 18.6661 62.5218 18.6882 62.4781C18.7863 62.3064 18.8939 62.2096 19.0236 62.169C19.0679 62.1596 19.109 62.1472 19.1438 62.1472C19.1755 62.1565 19.2103 62.1565 19.2419 62.1565C19.2641 62.1659 19.2957 62.1659 19.3084 62.1659C19.3305 62.1659 19.34 62.1659 19.3526 62.144C19.3653 62.1222 19.3432 62.1003 19.2989 62.0691L19.0299 61.9193ZM20.5391 61.0201L19.9411 60.6892C19.919 60.6674 19.8968 60.658 19.8747 60.6455C19.8652 60.6236 19.8525 60.6143 19.843 60.5924C19.8336 60.5831 19.8336 60.5612 19.843 60.5269C19.843 60.505 19.8525 60.4738 19.8747 60.4426C19.9411 60.3458 20.0171 60.2927 20.1246 60.2834C20.2322 60.274 20.3524 60.3052 20.4821 60.3801C20.7416 60.53 20.8175 60.7111 20.6878 60.9265C20.6561 60.9795 20.634 61.0108 20.6119 61.0326C20.5929 61.042 20.5707 61.042 20.5391 61.0201ZM20.8871 60.6767C20.9314 60.5581 20.9187 60.4519 20.865 60.3333C20.8207 60.2272 20.7226 60.1397 20.6055 60.0648C20.4632 59.9899 20.3113 59.9587 20.1816 59.9993C20.0392 60.0305 19.9221 60.1273 19.8241 60.299C19.7798 60.3645 19.7481 60.4395 19.7165 60.5144C19.6722 60.5893 19.6311 60.6736 19.5868 60.7485C19.5551 60.8016 19.533 60.8453 19.5108 60.8765C19.4792 60.9077 19.4665 60.9296 19.4571 60.9421C19.4476 60.9733 19.4349 60.9952 19.4254 61.0076C19.4254 61.0295 19.4349 61.0389 19.4571 61.0514C19.4665 61.0607 19.4792 61.0607 19.4887 61.0607C19.4982 61.0607 19.5108 61.0514 19.5203 61.0389C19.5298 61.0295 19.5425 61.0076 19.552 60.9952C19.5615 60.9733 19.5741 60.9515 19.5963 60.9421C19.6184 60.9109 19.65 60.8984 19.6722 60.9109C19.6943 60.9109 19.726 60.9202 19.7798 60.9546L21.2003 61.7694C21.232 61.7913 21.2668 61.8006 21.2858 61.8225C21.3079 61.8318 21.3174 61.8443 21.33 61.8537C21.3395 61.8755 21.3395 61.8849 21.3395 61.9068C21.3395 61.9286 21.3395 61.9505 21.33 61.9723C21.33 61.9942 21.3206 62.0035 21.3206 62.0254C21.3111 62.0348 21.2984 62.0473 21.2984 62.0691C21.2889 62.0785 21.2889 62.091 21.2889 62.1003C21.2984 62.1097 21.2984 62.1222 21.3206 62.1222C21.3522 62.144 21.387 62.1315 21.406 62.091C21.4155 62.0691 21.4281 62.0379 21.4503 61.9848C21.4724 61.9317 21.5167 61.8662 21.5578 61.7913C21.6021 61.707 21.6433 61.6508 21.6781 61.6102C21.7097 61.5665 21.7319 61.5353 21.7445 61.5259C21.7667 61.4822 21.7667 61.451 21.735 61.4416C21.7034 61.4197 21.6686 61.4322 21.6369 61.4728C21.6274 61.504 21.6053 61.5259 21.5832 61.5384C21.561 61.5602 21.5389 61.5602 21.5167 61.5602C21.4946 61.5602 21.4724 61.5509 21.4503 61.5384C21.4186 61.529 21.3965 61.5165 21.3649 61.4947L20.7479 61.1513C20.7258 61.1294 20.7163 61.1075 20.7384 61.0763L20.7479 61.0545C20.7795 61.0014 20.8143 60.9702 20.846 60.9577C20.8776 60.9452 20.9219 60.9483 20.9884 60.9577L21.8679 61.0857C21.9122 61.0857 21.9438 61.0951 21.966 61.0951C21.9881 61.0951 22.0103 61.0732 22.0198 61.042C22.0293 61.0201 22.0514 60.9983 22.0514 60.9764C22.0609 60.9546 22.0736 60.9234 22.0957 60.9015C22.1178 60.8703 22.1273 60.8359 22.1495 60.8047C22.1716 60.7735 22.1938 60.7516 22.2159 60.7204C22.2254 60.6986 22.2254 60.6892 22.2254 60.6767C22.2349 60.6674 22.2254 60.6549 22.2159 60.6549C22.1843 60.633 22.1716 60.6455 22.1495 60.6642C22.1273 60.6861 22.0957 60.7079 22.0641 60.7392C22.0419 60.7485 22.0103 60.761 21.9438 60.7485C21.89 60.7485 21.8015 60.7392 21.7065 60.7267L21.1655 60.6517C21.1212 60.6517 21.0675 60.6424 21.0232 60.6424C20.9725 60.6455 20.9282 60.6549 20.8871 60.6767ZM21.3649 57.5954L21.3206 57.5735C21.3206 57.5735 21.2984 57.5641 21.2889 57.5641C21.2668 57.5641 21.2573 57.5641 21.2446 57.5735C21.2446 57.5829 21.2446 57.5954 21.2541 57.6047C21.2541 57.6141 21.2636 57.6266 21.2763 57.6484C21.2858 57.6578 21.2984 57.6703 21.2984 57.6921C21.3079 57.714 21.3206 57.7234 21.3206 57.7452C21.3206 57.7671 21.2984 57.8108 21.2763 57.8514C21.2541 57.8826 21.232 57.9169 21.2098 57.9575C21.1877 57.9887 21.156 58.0324 21.1244 58.0855L20.9061 58.4695C20.8745 58.5132 20.8523 58.5538 20.8302 58.5881C20.808 58.6318 20.7985 58.6631 20.7764 58.6849C20.7321 58.7692 20.7004 58.8129 20.6688 58.8129C20.6593 58.8223 20.6467 58.8348 20.6372 58.8348C20.6277 58.8254 20.6055 58.8254 20.5929 58.8254C20.5707 58.8254 20.5612 58.816 20.5486 58.816C20.5391 58.816 20.5264 58.8254 20.5169 58.8254C20.5075 58.8473 20.5169 58.8691 20.5391 58.891C20.5707 58.9128 20.6055 58.944 20.6467 58.9877L20.9187 59.2437C20.9282 59.2531 20.9409 59.2656 20.9409 59.2656C20.9504 59.275 20.963 59.2875 20.963 59.2875C20.9852 59.2968 20.9947 59.2968 21.0073 59.2968C21.0073 59.2968 21.0168 59.2875 21.0168 59.275H21.0263C21.0358 59.2531 21.0358 59.2219 21.0042 59.1782C20.982 59.1345 20.9504 59.0814 20.9187 59.0065C20.8871 58.9409 20.8745 58.8785 20.8745 58.8254C20.8745 58.7723 20.8839 58.7068 20.9282 58.6443L20.9725 58.56C20.982 58.5507 20.9947 58.5507 21.0168 58.5507C21.0263 58.5507 21.0485 58.5507 21.0611 58.56L22.5798 59.4279C22.6462 59.4592 22.6873 59.4935 22.7095 59.5122C22.719 59.5341 22.7316 59.5653 22.719 59.609C22.7095 59.6309 22.7095 59.6527 22.6968 59.6621C22.6873 59.6839 22.6747 59.6933 22.6747 59.7058C22.6652 59.7276 22.6652 59.737 22.6652 59.7495C22.6652 59.7589 22.6747 59.7714 22.6968 59.7807C22.7285 59.8026 22.7506 59.7807 22.7823 59.737C22.7917 59.7058 22.8139 59.6621 22.836 59.609C22.8582 59.5559 22.8898 59.5029 22.9215 59.4373C22.9658 59.3717 22.9974 59.3187 23.0417 59.2781C23.0733 59.2344 23.0955 59.1938 23.1176 59.1595C23.1398 59.1157 23.1398 59.0845 23.1176 59.0752C23.0955 59.0658 23.086 59.0533 23.0733 59.0658C23.0638 59.0658 23.0512 59.0752 23.0417 59.0876C23.0322 59.097 23.0195 59.1095 23.01 59.1314C23.0006 59.1407 22.9879 59.1532 22.9784 59.1751C22.9563 59.1844 22.9341 59.2063 22.9246 59.2063C22.9151 59.2156 22.893 59.2156 22.8803 59.2156C22.8582 59.2063 22.836 59.2063 22.8139 59.1938C22.7917 59.1844 22.7696 59.1626 22.738 59.1501L21.2098 58.2728C21.2003 58.2728 21.1877 58.2635 21.1877 58.251C21.1782 58.2291 21.1782 58.2197 21.1877 58.2073L21.2098 58.1542C21.2636 58.0699 21.3174 57.995 21.3617 57.9606C21.4155 57.9169 21.4819 57.9075 21.5578 57.9075C21.6021 57.9169 21.6338 57.9294 21.6559 57.9388C21.6876 57.9481 21.7097 57.9481 21.7319 57.9606C21.754 57.9606 21.7761 57.97 21.7856 57.9606C21.7951 57.9606 21.8173 57.9606 21.8173 57.9388C21.8268 57.9294 21.8268 57.9075 21.8173 57.8951C21.8173 57.8857 21.7951 57.8732 21.7635 57.8514L21.3649 57.5954ZM22.2317 56.4184C22.178 56.409 22.1337 56.3965 22.102 56.3872C22.0704 56.3778 22.0482 56.3872 22.0356 56.409C22.0261 56.4309 22.0261 56.4402 22.0356 56.4527C22.0451 56.4621 22.0577 56.4839 22.0799 56.5058L23.4024 57.9075C23.4467 57.9606 23.4878 58.0043 23.5226 58.0356C23.5447 58.0793 23.5669 58.1105 23.5669 58.1542C23.5764 58.176 23.5669 58.1979 23.5669 58.2197C23.5574 58.2416 23.5447 58.251 23.5447 58.2728C23.5352 58.2822 23.5352 58.304 23.5226 58.3165C23.5226 58.3259 23.5321 58.3384 23.5542 58.3477C23.5764 58.3696 23.5985 58.3571 23.6207 58.3165C23.6428 58.2947 23.6523 58.2635 23.665 58.2322C23.6871 58.1885 23.6966 58.1573 23.7314 58.1042C23.763 58.0387 23.8073 57.9856 23.839 57.945C23.8706 57.9013 23.8928 57.8701 23.9054 57.8482C23.9276 57.817 23.9276 57.7952 23.8959 57.7733C23.8738 57.7639 23.8516 57.7639 23.8295 57.7827C23.82 57.792 23.7852 57.8264 23.7536 57.8576C23.7441 57.8888 23.7219 57.9013 23.6998 57.9107C23.6903 57.9107 23.6555 57.9107 23.6238 57.8888C23.5922 57.867 23.5163 57.8139 23.4182 57.7077L23.1809 57.483C23.1714 57.4736 23.1714 57.4611 23.1714 57.4517C23.1714 57.4424 23.1714 57.4299 23.1714 57.4299L23.3992 57.0459C23.4087 57.024 23.4308 57.0147 23.453 57.0147L23.9181 57.1208C23.994 57.1427 24.0478 57.1645 24.0699 57.1739C24.1016 57.1957 24.1142 57.2176 24.1237 57.2395C24.1237 57.2613 24.1016 57.2925 24.0794 57.3456C24.0478 57.3893 24.0573 57.4205 24.0889 57.4299C24.1111 57.4517 24.1332 57.4393 24.1554 57.3987C24.1649 57.3893 24.187 57.3456 24.2091 57.2925C24.2408 57.2395 24.2756 57.1645 24.3294 57.0771C24.361 57.0116 24.3958 56.971 24.4275 56.9273C24.4591 56.8835 24.4812 56.8523 24.4939 56.8305C24.5255 56.7868 24.5255 56.7555 24.4939 56.7462C24.4717 56.7368 24.4496 56.7368 24.4401 56.7556C24.418 56.7774 24.3958 56.7993 24.3547 56.8211C24.3104 56.843 24.2566 56.8523 24.2028 56.843C24.149 56.843 24.0731 56.8211 23.9845 56.8117L22.2317 56.4184ZM22.5671 56.8149L23.2062 56.9554C23.2284 56.9647 23.2378 56.9647 23.2378 56.9647C23.2473 56.9741 23.2473 56.9741 23.2473 56.9866C23.2473 56.9959 23.2473 57.0084 23.2473 57.0084L23.0638 57.3175C23.0638 57.3269 23.0543 57.3394 23.0417 57.3269C23.0322 57.3269 23.0322 57.3269 23.0322 57.3269C23.0227 57.3175 23.0227 57.3175 23.01 57.305L22.545 56.8461C22.5228 56.8367 22.5228 56.8242 22.5228 56.8149C22.5355 56.8149 22.545 56.8149 22.5671 56.8149ZM23.4467 55.2414C23.5321 55.2945 23.6207 55.3257 23.6966 55.3382C23.763 55.3476 23.839 55.3475 23.9023 55.3288C23.9687 55.3195 24.032 55.2976 24.0984 55.2539C24.1649 55.2227 24.2408 55.179 24.3041 55.1353C24.4464 55.0603 24.5635 55.0166 24.6742 54.9948C24.7818 54.9854 24.8925 55.0041 24.9874 55.0603C25.0412 55.0916 25.0855 55.1259 25.1172 55.1665C25.1488 55.2102 25.1836 55.2508 25.1931 55.307C25.2026 55.36 25.2152 55.4037 25.2026 55.4568C25.2026 55.5099 25.1931 55.5536 25.1583 55.6067C25.114 55.6816 25.0381 55.7347 24.94 55.7784C24.8419 55.8096 24.7343 55.8096 24.6046 55.7784C24.573 55.7784 24.5382 55.769 24.5192 55.7565C24.4876 55.7472 24.4654 55.7347 24.4433 55.7253C24.4211 55.7159 24.399 55.7159 24.3895 55.7159C24.3673 55.7159 24.3578 55.7159 24.3452 55.7378C24.3357 55.769 24.3547 55.8034 24.4211 55.8346C24.4211 55.8346 24.4306 55.8439 24.4433 55.8439C24.4654 55.8533 24.4749 55.8658 24.4971 55.8752C24.5287 55.897 24.5635 55.9064 24.5951 55.9282C24.6268 55.9501 24.6616 55.9719 24.6932 55.9938C24.7786 56.0469 24.8767 56.0469 24.9748 55.9844C25.0602 55.9314 25.1488 55.8346 25.2247 55.6941C25.2785 55.6098 25.3102 55.5224 25.3228 55.4256C25.3323 55.3413 25.3228 55.2445 25.3007 55.1571C25.269 55.0822 25.2247 54.9979 25.171 54.923C25.1172 54.8574 25.0412 54.795 24.9432 54.7419C24.8577 54.6888 24.7691 54.6576 24.6932 54.6451C24.6173 54.6233 24.5319 54.6233 24.4559 54.6357C24.38 54.6576 24.3041 54.6795 24.2186 54.72C24.1427 54.7513 24.0573 54.8043 23.9592 54.8605C23.8516 54.9355 23.7536 54.9792 23.6776 54.9885C23.6017 55.0104 23.5163 54.9885 23.4403 54.9448C23.3423 54.8917 23.279 54.8168 23.2442 54.7294C23.222 54.6451 23.2347 54.5577 23.2885 54.4609C23.3328 54.3954 23.3865 54.3548 23.4498 54.3329C23.5163 54.3236 23.6017 54.3236 23.6998 54.3329C23.7757 54.3423 23.82 54.3548 23.8516 54.3641C23.8833 54.3641 23.9054 54.3641 23.9181 54.3423C23.9402 54.3111 23.9276 54.2892 23.8864 54.2674C23.6808 54.1487 23.5606 54.0863 23.5289 54.0956C23.4973 54.0956 23.453 54.1269 23.3992 54.1799C23.3328 54.233 23.279 54.2986 23.2252 54.3829C23.1809 54.4672 23.1493 54.5546 23.1271 54.6389C23.1176 54.7138 23.1271 54.7887 23.1366 54.8636C23.1587 54.9386 23.203 55.0135 23.2442 55.0791C23.2948 55.1446 23.3581 55.1977 23.4467 55.2414Z" fill="black"/>
<path id="Vector_4" fill-rule="evenodd" clip-rule="evenodd" d="M23.3708 73.6512V73.62C23.3708 73.6106 23.3708 73.5981 23.3613 73.5888C23.3613 73.5669 23.3518 73.5669 23.3297 73.5669C23.3202 73.5669 23.3075 73.5669 23.3075 73.5763C23.298 73.5856 23.2854 73.5981 23.2759 73.6075C23.2759 73.6168 23.2664 73.6387 23.2537 73.6512C23.2443 73.673 23.2221 73.6824 23.2 73.6824C23.1778 73.6918 23.1462 73.7043 23.0797 73.7043C23.0354 73.7043 22.9943 73.7043 22.9374 73.7043C22.8836 73.6949 22.8298 73.6949 22.7633 73.6949H22.2635C22.2097 73.6949 22.1559 73.6949 22.1021 73.6949C22.0578 73.7043 22.0167 73.7043 21.9724 73.7043C21.8743 73.7043 21.811 73.6949 21.7889 73.673C21.7794 73.673 21.7667 73.6637 21.7572 73.6512C21.7572 73.6418 21.7478 73.6293 21.7478 73.62C21.7383 73.6106 21.7256 73.5887 21.7256 73.5763C21.7161 73.5669 21.7035 73.5669 21.694 73.5669C21.6718 73.5669 21.6497 73.5763 21.6497 73.6106C21.6402 73.6418 21.6275 73.6762 21.618 73.7292L21.52 74.0508C21.5105 74.0602 21.5105 74.0727 21.5105 74.082C21.501 74.0914 21.501 74.1039 21.501 74.1039C21.501 74.1257 21.5105 74.1351 21.5105 74.1351C21.52 74.1445 21.5326 74.1445 21.5421 74.1445C21.5737 74.1445 21.6085 74.1226 21.6275 74.0914C21.6592 74.0602 21.694 74.0071 21.7351 73.9415C21.7889 73.8885 21.8427 73.8572 21.8965 73.8354C21.9502 73.8042 22.0167 73.7917 22.1021 73.7917H22.2097C22.2318 73.7917 22.2413 73.801 22.254 73.8135C22.2666 73.826 22.2635 73.8354 22.2635 73.8572V75.3776C22.2635 75.4526 22.2635 75.4963 22.254 75.5181C22.2445 75.54 22.2097 75.5618 22.1559 75.5712C22.1337 75.5806 22.1116 75.5806 22.0894 75.5806C22.0673 75.5806 22.0452 75.5806 22.0357 75.5806C22.0135 75.5806 22.004 75.5899 21.9914 75.5899C21.9819 75.5993 21.9819 75.6118 21.9819 75.6211C21.9819 75.6524 22.004 75.6742 22.0673 75.6742C22.0989 75.6742 22.1527 75.6742 22.2192 75.6648C22.2856 75.6555 22.3615 75.6555 22.447 75.6555C22.5324 75.6555 22.6083 75.6555 22.6653 75.6648C22.7317 75.6742 22.7855 75.6742 22.8266 75.6742C22.8804 75.6742 22.912 75.6648 22.912 75.6305C22.912 75.6087 22.9026 75.5993 22.8899 75.5993C22.8899 75.5899 22.8678 75.5899 22.8583 75.5899C22.8361 75.5806 22.8266 75.5806 22.8045 75.5806C22.7823 75.5806 22.7602 75.5806 22.7285 75.5712C22.7064 75.5618 22.6843 75.5618 22.6748 75.5493C22.6526 75.54 22.6431 75.5275 22.6431 75.5181C22.6336 75.5088 22.6336 75.4869 22.6336 75.465C22.6241 75.4432 22.6241 75.4213 22.6241 75.3808V73.851C22.6241 73.8416 22.6336 73.8291 22.6463 73.8198C22.6558 73.8104 22.6684 73.7979 22.6779 73.7979H22.7444C22.8741 73.7979 22.9627 73.8073 23.0259 73.8291C23.0924 73.8385 23.1462 73.8822 23.1778 73.9478C23.1873 73.979 23.2 74.0133 23.2094 74.0321C23.2189 74.0633 23.2189 74.0851 23.2316 74.107C23.2316 74.1164 23.2411 74.1382 23.2537 74.1507C23.2632 74.1601 23.2759 74.1601 23.298 74.1601C23.3202 74.1601 23.3297 74.1601 23.3423 74.1382C23.3423 74.1288 23.3518 74.107 23.3518 74.0727L23.3708 73.6512Z" fill="black"/>
<path id="Vector_5" fill-rule="evenodd" clip-rule="evenodd" d="M24.7691 73.7885C24.7469 73.7448 24.7374 73.7042 24.7248 73.6824C24.7248 73.6512 24.7026 73.6387 24.671 73.6387C24.6488 73.6387 24.6393 73.648 24.6267 73.6605C24.6267 73.6699 24.6172 73.6917 24.6045 73.7136L23.9654 75.3308C23.9433 75.3963 23.9212 75.4369 23.899 75.4806C23.8895 75.5118 23.8547 75.5462 23.8136 75.5649C23.7914 75.5743 23.7693 75.5868 23.7471 75.5868C23.725 75.5868 23.7028 75.5961 23.6807 75.5961C23.6712 75.5961 23.6491 75.5961 23.6364 75.6055C23.6269 75.6055 23.6143 75.6149 23.6143 75.6367C23.6143 75.6586 23.6364 75.6804 23.6902 75.6804C23.7123 75.6804 23.7566 75.6711 23.7978 75.6711C23.8421 75.6617 23.8958 75.6617 23.9496 75.6617C24.035 75.6617 24.111 75.6617 24.1679 75.6711C24.2344 75.6804 24.2755 75.6804 24.2976 75.6804C24.3514 75.6804 24.3736 75.6711 24.3736 75.6367C24.3736 75.6149 24.3514 75.6055 24.3293 75.593C24.2976 75.5836 24.2628 75.5836 24.2091 75.5712C24.1648 75.5712 24.1426 75.5618 24.1236 75.5493C24.1141 75.5399 24.1015 75.5181 24.1015 75.4837C24.1015 75.4525 24.1236 75.3651 24.1679 75.2371L24.266 74.9593C24.266 74.9593 24.266 74.9499 24.2755 74.9374C24.285 74.9374 24.2976 74.9374 24.3071 74.9374H24.807C24.8387 74.9374 24.8608 74.9374 24.8608 74.9593L25.0222 75.3651C25.0443 75.4307 25.0538 75.4713 25.0538 75.5056C25.0538 75.5368 25.0443 75.5493 25.0222 75.5587C25 75.568 24.9557 75.5805 24.8924 75.5805C24.8387 75.5805 24.807 75.5899 24.807 75.6336C24.807 75.6555 24.8387 75.6648 24.883 75.6648C24.9051 75.6648 24.9589 75.6648 25.0253 75.6554C25.0918 75.6554 25.1867 75.6554 25.2974 75.6554C25.3734 75.6554 25.4493 75.6554 25.5031 75.6554C25.5569 75.6648 25.6011 75.6648 25.6328 75.6648C25.6866 75.6648 25.7182 75.6554 25.7182 75.6211C25.7182 75.5993 25.6961 75.5899 25.6739 75.5899C25.6423 75.5899 25.6075 75.5805 25.5663 75.5587C25.5126 75.5275 25.4809 75.4931 25.4461 75.4525C25.424 75.4088 25.4018 75.3464 25.3702 75.2715L24.7691 73.7885ZM24.5729 74.2194L24.7912 74.7657C24.7912 74.7875 24.8007 74.7969 24.8007 74.7969C24.8007 74.8063 24.7912 74.8063 24.7786 74.8188C24.7786 74.8188 24.7691 74.8281 24.7564 74.8281H24.3546C24.3325 74.8281 24.3325 74.8188 24.3325 74.8063V74.7969C24.3325 74.7875 24.3325 74.7875 24.3325 74.7751L24.516 74.2194C24.5254 74.1975 24.5381 74.1975 24.5476 74.1975C24.5508 74.1975 24.5634 74.2069 24.5729 74.2194Z" fill="black"/>
<path id="Vector_6" fill-rule="evenodd" clip-rule="evenodd" d="M26.3638 73.7043C26.3321 73.7043 26.31 73.7137 26.31 73.748C26.31 73.7574 26.3195 73.7699 26.3321 73.7792C26.3321 73.7792 26.3543 73.7886 26.3638 73.7886C26.3859 73.7886 26.3954 73.7886 26.4175 73.7886C26.4397 73.7886 26.4618 73.7886 26.4935 73.798C26.5251 73.8073 26.5473 73.8198 26.5599 73.8417C26.5694 73.8635 26.5821 73.8947 26.5821 73.9384C26.5821 73.9603 26.5821 73.9697 26.5821 73.9821C26.5726 73.9915 26.5726 74.004 26.5726 74.004L26.5061 75.0842C26.5061 75.1685 26.4966 75.2559 26.4966 75.3183C26.4871 75.3839 26.4745 75.437 26.465 75.4682C26.4555 75.5119 26.4429 75.5431 26.4207 75.5525C26.3986 75.5743 26.3669 75.5837 26.3353 75.5837C26.3258 75.5837 26.3131 75.5837 26.3036 75.5837C26.2942 75.5837 26.2815 75.5837 26.2594 75.5837C26.2277 75.5837 26.2056 75.5931 26.2056 75.6274C26.2056 75.6586 26.2372 75.6805 26.3036 75.6805C26.3353 75.6805 26.3701 75.6711 26.4112 75.6711C26.4555 75.6711 26.4966 75.6618 26.5536 75.6618C26.62 75.6618 26.6738 75.6711 26.7149 75.6711C26.7592 75.6711 26.8004 75.6805 26.8352 75.6805C26.9016 75.6805 26.9333 75.6586 26.9333 75.6274C26.9333 75.5962 26.9111 75.5837 26.8573 75.5837C26.8478 75.5837 26.8352 75.5837 26.8257 75.5837C26.8257 75.5837 26.8162 75.5837 26.8035 75.5837C26.7276 75.5837 26.6738 75.5619 26.6517 75.5181C26.6295 75.4651 26.62 75.3995 26.62 75.2934C26.62 75.2715 26.62 75.2497 26.6295 75.2184C26.6295 75.1872 26.6295 75.1529 26.6295 75.1217L26.696 74.157C26.7055 74.1258 26.7055 74.1039 26.7276 74.1039C26.7276 74.1039 26.7371 74.1133 26.7497 74.1476L27.3572 75.5712C27.3572 75.5931 27.3794 75.6024 27.411 75.6024C27.4426 75.6024 27.4648 75.5931 27.4774 75.5587L28.0754 74.1351C28.0849 74.1133 28.0849 74.1039 28.0975 74.1039C28.107 74.1039 28.1197 74.1133 28.1197 74.1476L28.1513 75.3027V75.3777C28.1513 75.4089 28.1418 75.4432 28.1418 75.4744C28.1418 75.4963 28.1323 75.5181 28.1197 75.5275C28.0975 75.5494 28.0754 75.5587 28.0533 75.5587C28.0216 75.5681 27.9868 75.5681 27.933 75.5681C27.8887 75.5681 27.8666 75.59 27.8666 75.6212C27.8666 75.6524 27.8982 75.6649 27.952 75.6649C27.9836 75.6649 28.0374 75.6649 28.1039 75.6555C28.1703 75.6555 28.2462 75.6461 28.3317 75.6461C28.4171 75.6461 28.4835 75.6555 28.55 75.6555C28.6038 75.6649 28.6575 75.6649 28.7018 75.6649C28.7335 75.6649 28.7461 75.6649 28.7683 75.6555C28.7778 75.6461 28.7904 75.6337 28.7904 75.6243C28.7904 75.6024 28.7809 75.5931 28.7683 75.5806C28.7588 75.5806 28.7461 75.5712 28.7366 75.5712C28.7145 75.5712 28.6923 75.5712 28.6702 75.5712C28.6481 75.5712 28.6164 75.5712 28.5943 75.5619C28.55 75.54 28.5278 75.5306 28.5183 75.4963C28.5183 75.4744 28.5088 75.4307 28.5088 75.3777L28.4645 73.9978V73.9228C28.4645 73.8791 28.4645 73.8573 28.474 73.8385C28.474 73.8292 28.4962 73.8167 28.5278 73.8073C28.55 73.798 28.5721 73.7855 28.5943 73.7855C28.6164 73.7855 28.6386 73.7855 28.6607 73.7855C28.6829 73.7855 28.6923 73.7761 28.705 73.7761C28.7145 73.7667 28.7271 73.7542 28.7271 73.7449C28.7271 73.7137 28.705 73.7012 28.6734 73.7012H28.1513C28.1292 73.7012 28.1197 73.7012 28.107 73.7105C28.0975 73.7199 28.0849 73.7324 28.0849 73.7542L27.5534 74.9968C27.5439 75.0186 27.5312 75.0405 27.5217 75.0405C27.5122 75.0405 27.4996 75.0186 27.4996 74.9968L26.9586 73.7324C26.9586 73.7105 26.9491 73.7105 26.9364 73.7012C26.9269 73.7012 26.9143 73.7012 26.9048 73.7012H26.3638V73.7043Z" fill="black"/>
<path id="Vector_7" fill-rule="evenodd" clip-rule="evenodd" d="M31.0901 73.801V73.7916C31.0901 73.7604 31.0806 73.7385 31.068 73.7167C31.0585 73.7073 31.0237 73.6948 30.9699 73.6948C30.9477 73.6948 30.8623 73.6948 30.7326 73.7042C30.6029 73.7042 30.4194 73.7042 30.1916 73.7042C30.0081 73.7042 29.8562 73.7042 29.7581 73.7042C29.6601 73.6948 29.6063 73.6948 29.5841 73.6948C29.5398 73.6948 29.5177 73.7167 29.5177 73.7385C29.5177 73.7604 29.5177 73.7698 29.5272 73.7698C29.5367 73.7791 29.5493 73.7791 29.5715 73.7916C29.581 73.7916 29.6031 73.7916 29.6253 73.7916C29.6474 73.7916 29.6696 73.7916 29.6917 73.801C29.7233 73.8103 29.7455 73.8228 29.7581 73.8447C29.7708 73.8665 29.7676 73.8978 29.7676 73.9415V75.3744C29.7676 75.44 29.7676 75.4806 29.7581 75.5149C29.7487 75.5461 29.7044 75.568 29.6506 75.5805C29.5968 75.5805 29.5525 75.5899 29.5209 75.5899C29.4892 75.5899 29.4766 75.5992 29.4766 75.6211C29.4766 75.6523 29.5082 75.6741 29.562 75.6741C29.5841 75.6741 29.6158 75.6741 29.6822 75.6648C29.7487 75.6648 29.8341 75.6648 29.9543 75.6648C30.2137 75.6648 30.432 75.6648 30.6061 75.6741C30.7801 75.6835 30.9003 75.6835 30.9857 75.6835C31.0174 75.6835 31.0395 75.6835 31.0522 75.6835C31.0616 75.6741 31.0838 75.6741 31.0838 75.6617C31.0933 75.6523 31.0933 75.6398 31.1059 75.6304C31.1059 75.6211 31.1059 75.5992 31.1059 75.5774L31.1597 75.2683C31.1597 75.2589 31.1597 75.2371 31.1597 75.2246C31.1597 75.2152 31.1597 75.2152 31.1597 75.2152C31.1597 75.2152 31.1597 75.2059 31.1502 75.1934C31.1407 75.1934 31.1281 75.184 31.1281 75.184C31.0964 75.184 31.0616 75.2058 31.0427 75.2496C31.0205 75.2933 30.9762 75.3463 30.9351 75.4088C30.9035 75.44 30.8687 75.4743 30.837 75.4931C30.8054 75.5149 30.7706 75.5368 30.7294 75.5461C30.6852 75.5555 30.644 75.568 30.5871 75.5774C30.5428 75.5774 30.489 75.5774 30.4257 75.5774C30.3719 75.5774 30.3181 75.5774 30.2833 75.5774C30.239 75.568 30.2169 75.5555 30.1979 75.5461C30.1758 75.5368 30.1536 75.5149 30.1441 75.4806C30.1441 75.4587 30.1346 75.4275 30.1346 75.3744V74.7313C30.1346 74.7095 30.1441 74.6876 30.1568 74.6876C30.1663 74.6782 30.1789 74.6782 30.2106 74.6782H30.3846C30.47 74.6782 30.5459 74.6782 30.6029 74.6876C30.6567 74.697 30.701 74.7313 30.7326 74.7719C30.7421 74.8031 30.7642 74.8375 30.7769 74.8687C30.7864 74.8905 30.799 74.9124 30.799 74.9342C30.8085 74.9561 30.8212 74.9655 30.8307 74.9779C30.8307 74.9873 30.8528 74.9998 30.8623 74.9998C30.894 74.9998 30.9161 74.9779 30.9161 74.9467C30.9161 74.9249 30.9066 74.903 30.9066 74.8499C30.9066 74.8062 30.8971 74.7532 30.8971 74.6782C30.8971 74.6127 30.9066 74.5596 30.9066 74.5065C30.9161 74.4535 30.9161 74.4004 30.9161 74.366C30.9161 74.3348 30.9066 74.3223 30.8718 74.3223C30.8497 74.3223 30.8402 74.3223 30.8275 74.3317C30.818 74.3536 30.818 74.3629 30.8054 74.3848C30.8054 74.4066 30.7959 74.416 30.7832 74.4503C30.7737 74.4722 30.7516 74.494 30.7294 74.5159C30.7073 74.5253 30.663 74.5378 30.6092 74.5471C30.5428 74.5565 30.4668 74.569 30.3909 74.569H30.2074C30.1758 74.569 30.1536 74.5596 30.141 74.5596C30.141 74.5502 30.1315 74.5284 30.1315 74.5065V73.9914C30.1315 73.9477 30.141 73.9165 30.141 73.8946C30.141 73.8728 30.1505 73.8509 30.1726 73.8291C30.1821 73.8197 30.2042 73.8072 30.239 73.8072C30.2612 73.7978 30.3055 73.7978 30.3593 73.7978C30.5776 73.7978 30.7389 73.8291 30.8465 73.9165C30.8908 73.9383 30.9129 73.9696 30.9319 73.9914C30.9541 74.0226 30.9636 74.0445 30.9762 74.0663C30.9857 74.0976 30.9984 74.11 31.0079 74.1319C31.0174 74.1413 31.03 74.1538 31.0522 74.1538C31.0743 74.1538 31.0964 74.1225 31.0964 74.0695V73.801H31.0901Z" fill="black"/>
<path id="Vector_8" fill-rule="evenodd" clip-rule="evenodd" d="M31.9793 73.6947C31.9476 73.6947 31.9255 73.7166 31.9255 73.7384C31.9255 73.7696 31.9476 73.7821 31.9793 73.7821C32.0235 73.7821 32.0647 73.7915 32.109 73.804C32.1533 73.8134 32.1754 73.8258 32.1754 73.8477C32.1849 73.8696 32.1849 73.9008 32.1849 73.9445V75.2495C32.1849 75.315 32.1849 75.3681 32.1849 75.4087C32.1849 75.4524 32.1754 75.4836 32.1628 75.5055C32.1533 75.5367 32.1311 75.5585 32.109 75.571C32.0868 75.5804 32.0552 75.5804 32.0109 75.5804H31.9793C31.9255 75.5804 31.9033 75.6022 31.9033 75.6335C31.9033 75.6647 31.935 75.6772 32.0014 75.6772C32.033 75.6772 32.0773 75.6772 32.1216 75.6772C32.1533 75.6678 32.207 75.6678 32.2513 75.6678C32.3178 75.6678 32.3589 75.6678 32.4127 75.6772C32.457 75.6772 32.4981 75.6772 32.5329 75.6772C32.5994 75.6772 32.6405 75.6678 32.6405 75.6335C32.6405 75.6022 32.6184 75.5804 32.5741 75.5804C32.5646 75.5804 32.5519 75.5804 32.5424 75.5804C32.5329 75.5804 32.5203 75.5897 32.5108 75.5897C32.4665 75.5897 32.4348 75.5804 32.4127 75.5679C32.3906 75.5585 32.3684 75.546 32.3589 75.5242C32.3494 75.493 32.3368 75.4586 32.3368 75.4274C32.3368 75.3837 32.3273 75.3431 32.3273 75.2776V74.0569C32.3273 74.035 32.3368 74.0256 32.3494 74.0256C32.3494 74.0256 32.3494 74.0256 32.3589 74.0256L33.6814 75.7053C33.7036 75.7365 33.7257 75.7583 33.7573 75.7583C33.7668 75.7583 33.7795 75.749 33.8016 75.7365C33.8111 75.7146 33.8111 75.7053 33.8111 75.6834V74.1099C33.8111 74.0038 33.8206 73.9164 33.8333 73.8633C33.8554 73.8102 33.8997 73.7884 33.963 73.7884H34.0073C34.0389 73.7884 34.0516 73.779 34.0611 73.779C34.0706 73.7696 34.0706 73.7572 34.0706 73.7478C34.0706 73.7166 34.0484 73.6947 33.9851 73.6947C33.9535 73.6947 33.9187 73.6947 33.8871 73.7041C33.8428 73.7041 33.789 73.7041 33.7352 73.7041C33.6814 73.7041 33.6276 73.7041 33.5833 73.7041C33.539 73.6947 33.4979 73.6947 33.4631 73.6947C33.3872 73.6947 33.3555 73.7166 33.3555 73.7478C33.3555 73.7572 33.365 73.7696 33.3777 73.779C33.3872 73.779 33.4093 73.7884 33.4315 73.7884C33.4852 73.7884 33.5295 73.7884 33.5612 73.7977C33.5928 73.7977 33.615 73.8071 33.6276 73.829C33.6371 73.8383 33.6498 73.8727 33.6593 73.9039C33.6593 73.9351 33.6593 73.9788 33.6593 74.0444C33.6593 74.0537 33.6593 74.0662 33.6593 74.0975C33.6593 74.1193 33.6687 74.1505 33.6687 74.2036V75.059C33.6687 75.0809 33.6593 75.0902 33.6466 75.0902C33.6466 75.0902 33.6466 75.0902 33.6371 75.0902L32.5646 73.7197C32.5551 73.7103 32.5424 73.6978 32.5329 73.6978C32.5329 73.6885 32.5108 73.6885 32.5013 73.6885H31.9793V73.6947Z" fill="black"/>
<path id="Vector_9" fill-rule="evenodd" clip-rule="evenodd" d="M32.1314 54.5012C32.1757 54.5761 32.1979 54.6604 32.1852 54.7572C32.1852 54.854 32.1536 54.9507 32.0998 55.0475C32.046 55.1443 31.9574 55.2504 31.8625 55.3472C31.7549 55.444 31.6252 55.5408 31.4734 55.6251C31.3215 55.7094 31.1918 55.7749 31.0621 55.8062C30.9323 55.8374 30.8121 55.8592 30.7045 55.8499C30.597 55.8499 30.5084 55.828 30.4325 55.7843C30.347 55.7406 30.2901 55.6782 30.249 55.6032C30.2047 55.5283 30.1825 55.444 30.1825 55.3472C30.1825 55.2504 30.2142 55.1537 30.2679 55.0569C30.3217 54.9601 30.4103 54.8633 30.5179 54.7572C30.6255 54.6604 30.7552 54.5636 30.907 54.4793C31.0494 54.395 31.1886 54.3388 31.3183 54.2983C31.448 54.267 31.5683 54.2452 31.6664 54.2545C31.7739 54.2545 31.8625 54.2764 31.9479 54.3201C32.0239 54.3607 32.0903 54.4263 32.1314 54.5012ZM30.3755 55.9029C30.4419 55.9685 30.5369 56.0216 30.6349 56.0528C30.733 56.0965 30.8406 56.1059 30.9608 56.1183C31.0684 56.1183 31.1886 56.109 31.3183 56.0746C31.4386 56.0434 31.5683 55.9903 31.6885 55.9248C31.8309 55.8405 31.9606 55.7312 32.0587 55.6157C32.1567 55.4971 32.2327 55.3816 32.277 55.2411C32.3213 55.1131 32.3434 54.9851 32.3434 54.8446C32.3339 54.7166 32.2896 54.5886 32.2232 54.47C32.1567 54.3513 32.0618 54.2545 31.9511 54.1796C31.8309 54.1047 31.7012 54.0516 31.5714 54.0298C31.4291 53.9985 31.2772 53.9985 31.1253 54.0298C30.9735 54.0516 30.8216 54.1047 30.6792 54.189C30.5495 54.2639 30.4419 54.3388 30.3534 54.4356C30.2679 54.5324 30.192 54.6292 30.1351 54.7353C30.0813 54.8415 30.037 54.9507 30.0275 55.0787C30.018 55.1974 30.018 55.3129 30.0496 55.4315L30.0591 55.4846C30.0686 55.5064 30.0686 55.5158 30.0591 55.5283C30.0591 55.5283 30.0496 55.5377 30.037 55.5502L29.9705 55.6032C29.9041 55.6563 29.863 55.7094 29.8282 55.7843C29.7965 55.8592 29.7744 55.9342 29.7617 56.0184C29.7617 56.0934 29.7712 56.1902 29.7934 56.2744C29.8155 56.3712 29.8471 56.4555 29.9009 56.5429C29.9547 56.6491 30.0212 56.724 30.0844 56.7677C30.1382 56.8114 30.1825 56.8208 30.2141 56.8114C30.2363 56.8021 30.2363 56.7802 30.2236 56.7677C30.2236 56.7583 30.2141 56.7459 30.192 56.7365C30.1699 56.7146 30.1382 56.6928 30.1161 56.6522C30.0939 56.5991 30.0718 56.5554 30.0623 56.493C30.0623 56.4274 30.0623 56.3743 30.0623 56.2994C30.0718 56.2339 30.0844 56.1714 30.1066 56.1059C30.1382 56.0403 30.1604 55.9779 30.2047 55.9248L30.2363 55.8592C30.2458 55.8592 30.2458 55.8499 30.2458 55.8499C30.2553 55.8405 30.2553 55.8405 30.2553 55.8405C30.2648 55.8311 30.2774 55.8405 30.2996 55.8499L30.3755 55.9029ZM33.1312 56.6959C33.1755 56.6647 33.2166 56.6522 33.2388 56.6428C33.2609 56.6428 33.2831 56.6522 33.3147 56.6741C33.3242 56.6959 33.3464 56.7053 33.3464 56.7271C33.3558 56.7365 33.3685 56.7583 33.378 56.7708C33.3875 56.7802 33.4001 56.7927 33.4096 56.8021C33.4191 56.8021 33.4318 56.8021 33.4539 56.7927C33.4761 56.7708 33.4856 56.749 33.4634 56.7178C33.4539 56.7084 33.4318 56.6741 33.397 56.6335C33.3527 56.5898 33.3116 56.5148 33.2673 56.4305C33.2135 56.3463 33.1692 56.2713 33.1597 56.2151C33.1375 56.1621 33.1154 56.1308 33.1059 56.109C33.0964 56.0778 33.0743 56.0778 33.0395 56.0871C33.0173 56.0965 33.0173 56.109 33.0078 56.1183C33.0078 56.1277 33.0173 56.1402 33.0173 56.1496C33.0268 56.1714 33.0268 56.1808 33.0395 56.2026C33.049 56.212 33.0616 56.2339 33.0616 56.2682C33.0711 56.2994 33.0711 56.3338 33.0616 56.3431C33.0521 56.365 33.0173 56.3868 32.9635 56.4181L31.8688 57.0393C31.7708 57.0924 31.6853 57.1455 31.6189 57.1985C31.543 57.2516 31.4987 57.3172 31.4575 57.3921C31.4132 57.4889 31.3911 57.5857 31.4132 57.7012C31.4227 57.8073 31.4797 57.926 31.5556 58.054C31.6221 58.1726 31.698 58.2694 31.7929 58.3224C31.8783 58.388 31.9764 58.4192 32.0745 58.4192C32.1726 58.4192 32.258 58.3974 32.3466 58.3537C32.432 58.3224 32.5301 58.2694 32.6408 58.2038L33.4096 57.7636C33.4856 57.7199 33.552 57.6887 33.6058 57.6575C33.6596 57.6356 33.7039 57.6138 33.7482 57.6044C33.7798 57.595 33.8146 57.595 33.8462 57.6044C33.8684 57.6138 33.8905 57.6356 33.9127 57.67C33.9222 57.7012 33.9443 57.723 33.957 57.7355C33.9665 57.7449 33.9886 57.7449 34.0013 57.7355C34.0329 57.7137 34.0329 57.6824 34.0108 57.6387C34.0013 57.6294 33.9886 57.6075 33.957 57.5638C33.9348 57.5326 33.9127 57.4889 33.881 57.4358C33.8494 57.3827 33.8273 57.339 33.8051 57.3078C33.7956 57.2641 33.7735 57.2423 33.7608 57.2235C33.7387 57.1923 33.7165 57.1798 33.6849 57.2017C33.6754 57.2017 33.6627 57.2235 33.6627 57.2329C33.6722 57.2423 33.6722 57.2641 33.6849 57.286C33.6944 57.2953 33.6944 57.3172 33.707 57.339C33.7165 57.3609 33.7165 57.3827 33.7165 57.4046C33.707 57.4358 33.6722 57.4795 33.6184 57.5232C33.552 57.5669 33.4666 57.62 33.3464 57.6824L32.587 58.1102C32.4795 58.1757 32.3909 58.2288 32.3054 58.26C32.2295 58.3037 32.1536 58.3131 32.0682 58.3131C31.9163 58.2912 31.7961 58.2069 31.698 58.0446C31.6442 57.9603 31.6221 57.8854 31.6126 57.8198C31.6126 57.7543 31.6221 57.6918 31.6569 57.6387C31.6885 57.5732 31.7328 57.5201 31.7992 57.467C31.8657 57.4233 31.9511 57.3702 32.0492 57.3172L33.1312 56.6959ZM35.9597 62.0782C35.8616 62.1312 35.7983 62.1843 35.754 62.2499C35.7097 62.3029 35.6686 62.3685 35.656 62.4309C35.6338 62.4965 35.6243 62.5714 35.6243 62.6339C35.6148 62.7088 35.6148 62.7931 35.6148 62.868C35.6243 63.0272 35.6053 63.1583 35.561 63.252C35.5167 63.3582 35.4535 63.4331 35.3554 63.4862C35.3016 63.5174 35.2478 63.5392 35.194 63.5392C35.1403 63.5486 35.0865 63.5486 35.0327 63.5392C34.9789 63.5299 34.9346 63.508 34.8903 63.4737C34.846 63.4518 34.8144 63.4081 34.7922 63.3675C34.7384 63.2926 34.7258 63.1958 34.7479 63.099C34.7574 62.9929 34.8144 62.8961 34.8998 62.8087C34.9314 62.7775 34.9536 62.7556 34.9757 62.7338C34.9979 62.7244 35.02 62.7025 35.0422 62.6901C35.0643 62.6682 35.0738 62.6588 35.0865 62.6463C35.0865 62.637 35.0865 62.6151 35.0865 62.6026C35.0643 62.5714 35.02 62.5808 34.9568 62.612C34.9568 62.612 34.9473 62.6214 34.9346 62.6214C34.9251 62.6307 34.903 62.6432 34.8808 62.6651C34.8492 62.6744 34.8144 62.6963 34.7827 62.7088C34.7511 62.7306 34.7163 62.7525 34.6752 62.7619C34.5897 62.8149 34.5454 62.9023 34.5549 63.0085C34.5549 63.1146 34.5992 63.2426 34.6752 63.3738C34.729 63.4581 34.7954 63.533 34.8713 63.5892C34.9378 63.6423 35.0232 63.6735 35.1086 63.6953C35.194 63.7172 35.2826 63.7265 35.3807 63.7047C35.4788 63.6953 35.5642 63.661 35.6623 63.6079C35.7477 63.5548 35.8142 63.5018 35.8679 63.4487C35.9217 63.3831 35.966 63.3207 35.9882 63.2458C36.0198 63.1708 36.0325 63.0865 36.0419 62.9991C36.0419 62.9148 36.0514 62.8181 36.0419 62.7088C36.0419 62.5808 36.0419 62.4746 36.0736 62.3997C36.0957 62.3248 36.1495 62.2592 36.2349 62.2186C36.333 62.1531 36.4311 62.1437 36.5165 62.1656C36.6019 62.1749 36.6684 62.2405 36.7222 62.3248C36.7665 62.3997 36.776 62.4653 36.7538 62.5277C36.7317 62.5933 36.6874 62.6682 36.6241 62.7431C36.5925 62.7962 36.5577 62.8399 36.5387 62.8618C36.507 62.8836 36.507 62.9055 36.5165 62.9367C36.526 62.9585 36.5608 62.9585 36.6019 62.9367C36.8076 62.8181 36.9152 62.7431 36.9278 62.7119C36.9373 62.6901 36.9373 62.637 36.9183 62.5621C36.9088 62.4778 36.874 62.4028 36.8203 62.3061C36.776 62.2311 36.7127 62.1562 36.6462 62.1031C36.5798 62.0594 36.5165 62.0188 36.4406 61.997C36.3647 61.9751 36.2887 61.9751 36.2033 61.9876C36.1242 62.0032 36.0356 62.0376 35.9597 62.0782ZM38.0858 64.8536L38.0953 64.8442C38.1269 64.8348 38.1491 64.813 38.1617 64.7911C38.1712 64.7818 38.1617 64.7474 38.1396 64.7068C38.1301 64.685 38.0858 64.6319 38.032 64.5351C37.9656 64.4383 37.8801 64.301 37.7726 64.1168C37.6966 63.9669 37.6302 63.8608 37.5891 63.7859C37.5574 63.7109 37.5226 63.6579 37.5226 63.6454C37.5005 63.6142 37.4783 63.6017 37.4467 63.6235C37.4245 63.6329 37.4245 63.6329 37.4245 63.6454C37.4151 63.6547 37.4245 63.6672 37.4245 63.6891C37.434 63.6984 37.434 63.7109 37.4467 63.7328C37.4562 63.7422 37.4688 63.764 37.4688 63.7859C37.4688 63.8171 37.4688 63.8514 37.4593 63.8608C37.4372 63.8826 37.4056 63.9045 37.3613 63.9263L35.9312 64.7412C35.8774 64.7724 35.8236 64.7943 35.7888 64.8067C35.7572 64.8161 35.7129 64.8067 35.6813 64.763C35.6591 64.7193 35.637 64.6975 35.6148 64.6663C35.6053 64.6444 35.5832 64.6444 35.561 64.6569C35.5294 64.6787 35.5167 64.71 35.5516 64.7537C35.5516 64.763 35.5737 64.7974 35.6053 64.838C35.637 64.8817 35.6813 64.9566 35.7351 65.0409C35.8553 65.2438 35.9534 65.4155 36.0166 65.5435C36.0831 65.684 36.1369 65.7777 36.1685 65.8432C36.1906 65.8651 36.2001 65.8869 36.2001 65.8963C36.2096 65.8963 36.2223 65.9057 36.2318 65.9057C36.2413 65.9057 36.2634 65.9057 36.2761 65.9057C36.2856 65.8963 36.3077 65.8838 36.3425 65.8744L36.6557 65.734C36.6779 65.7246 36.6874 65.7246 36.7 65.7121C36.7095 65.7121 36.7222 65.7121 36.7222 65.7121C36.7222 65.7027 36.7317 65.7027 36.7317 65.6903C36.7317 65.6809 36.7317 65.6684 36.7317 65.659C36.7095 65.6372 36.6779 65.6278 36.6241 65.6372C36.5798 65.6372 36.5039 65.6372 36.4279 65.6372C36.3742 65.6372 36.3299 65.6278 36.2982 65.6153C36.2539 65.606 36.2223 65.5841 36.1906 65.5623C36.159 65.5404 36.1369 65.5092 36.1052 65.478C36.0831 65.4467 36.0514 65.403 36.0293 65.35C35.9977 65.3063 35.985 65.2657 35.9629 65.2313C35.9534 65.2095 35.9534 65.1783 35.9534 65.1564C35.9629 65.1252 35.9755 65.1033 35.9977 65.0815C36.0198 65.0596 36.0514 65.0378 36.0957 65.0159L36.7348 64.6506C36.757 64.6413 36.7791 64.6288 36.7886 64.6288C36.7981 64.6382 36.8108 64.6506 36.8329 64.6725L36.9088 64.813C36.9405 64.8785 36.9753 64.9316 36.9848 64.9722C36.9943 65.0253 36.9848 65.069 36.9531 65.1221C36.931 65.1533 36.9088 65.1876 36.8867 65.2064C36.8645 65.2282 36.8551 65.2501 36.8329 65.2719C36.8234 65.2813 36.8013 65.3031 36.8013 65.3156C36.7918 65.325 36.7918 65.3375 36.8013 65.3593C36.8108 65.3812 36.8456 65.3812 36.8772 65.3593C36.8867 65.35 36.9215 65.3375 36.9626 65.3063C37.0069 65.275 37.0607 65.2407 37.1366 65.2001C37.2031 65.1689 37.2569 65.1345 37.3106 65.1158C37.3644 65.0846 37.4182 65.0627 37.453 65.0409C37.4847 65.0315 37.4973 65.0097 37.4752 64.9753C37.4657 64.966 37.453 64.9535 37.4435 64.9535C37.4214 64.9535 37.4119 64.9628 37.3897 64.9753C37.3676 64.9753 37.3455 64.9847 37.3138 64.9847C37.2917 64.9847 37.26 64.9847 37.2284 64.9753C37.2062 64.9753 37.1746 64.9535 37.1303 64.9098C37.0987 64.8661 37.0544 64.813 37.0227 64.7505L36.9373 64.6101C36.9278 64.5882 36.9152 64.5663 36.9278 64.557C36.9278 64.5476 36.95 64.5351 36.9721 64.5258L37.4815 64.2261C37.5258 64.2042 37.5574 64.1948 37.5796 64.1823C37.6112 64.173 37.6334 64.173 37.6555 64.173C37.6777 64.173 37.6871 64.1823 37.7093 64.2042C37.7314 64.2261 37.7536 64.2573 37.7757 64.2885C37.8738 64.4602 37.9055 64.6101 37.8833 64.7381C37.8738 64.7818 37.8517 64.813 37.839 64.8442C37.8169 64.8754 37.7947 64.8973 37.7726 64.9191C37.7631 64.941 37.7409 64.9628 37.7283 64.9722C37.7188 64.9941 37.7188 65.0034 37.7283 65.0159C37.7378 65.0378 37.7726 65.0378 37.8264 65.0065L38.0858 64.8536ZM38.0858 66.5332L38.6711 66.2023C38.7027 66.1804 38.7249 66.171 38.747 66.171C38.7692 66.1617 38.7913 66.1617 38.8135 66.1617C38.823 66.1617 38.8451 66.171 38.8673 66.1929C38.8768 66.2023 38.8989 66.2366 38.921 66.2678C38.9875 66.3646 38.9875 66.4614 38.9432 66.5582C38.8989 66.6549 38.8135 66.7392 38.6838 66.8142C38.4117 66.964 38.2187 66.9328 38.0984 66.7174C38.0668 66.6643 38.0447 66.6331 38.0447 66.5987C38.032 66.5769 38.0542 66.555 38.0858 66.5332ZM38.2155 67.014C38.2914 67.0983 38.399 67.1544 38.5192 67.1638C38.6395 67.1638 38.7565 67.142 38.8894 67.067C39.0318 66.9827 39.1267 66.8735 39.1615 66.7361C39.2058 66.6081 39.171 66.4583 39.0761 66.2865C39.0318 66.221 38.9907 66.1461 38.9464 66.0836C38.8926 66.0087 38.8483 65.9338 38.804 65.8588C38.7723 65.8058 38.7502 65.7621 38.7281 65.7183C38.7186 65.6871 38.6964 65.6653 38.6964 65.6434C38.6743 65.6216 38.6648 65.5997 38.6521 65.5903C38.6426 65.581 38.6205 65.581 38.5983 65.5903C38.5888 65.5997 38.5762 65.6122 38.5762 65.6216C38.5762 65.6309 38.5762 65.6434 38.5857 65.6528C38.5857 65.6622 38.5952 65.684 38.6078 65.6965C38.6173 65.7183 38.6173 65.7402 38.63 65.7621C38.6395 65.8058 38.63 65.8276 38.6205 65.8463C38.611 65.8682 38.5762 65.8901 38.5224 65.9119L37.1018 66.7267C37.0702 66.7486 37.0354 66.7704 37.0164 66.7798C36.9943 66.7892 36.9721 66.7892 36.9626 66.7892C36.9405 66.7985 36.931 66.7892 36.9088 66.7798C36.8993 66.7798 36.8772 66.758 36.8551 66.7361C36.8456 66.7267 36.8329 66.7143 36.8234 66.7049C36.8139 66.683 36.8013 66.6737 36.8013 66.6612C36.7918 66.6518 36.7791 66.6518 36.7696 66.6393C36.7601 66.6393 36.7475 66.6393 36.738 66.6487C36.7064 66.6705 36.6937 66.7018 36.7158 66.7455C36.7253 66.7548 36.7601 66.7892 36.7918 66.8298C36.8234 66.8828 36.8677 66.9359 36.912 67.0233C36.9563 67.0983 36.9879 67.1638 37.0101 67.2169C37.0322 67.2606 37.0417 67.3012 37.0544 67.3137C37.086 67.3574 37.1082 67.3667 37.1398 67.3449C37.1714 67.3355 37.1714 67.3012 37.1493 67.2481C37.1271 67.2169 37.1177 67.195 37.1177 67.1638C37.1177 67.142 37.1177 67.1201 37.1271 67.1107C37.1493 67.0889 37.1588 67.067 37.1809 67.0577C37.2031 67.0358 37.2347 67.0264 37.2664 67.0046L37.8738 66.6612C37.9055 66.6393 37.9276 66.6393 37.9497 66.6705L37.9592 66.7018C37.9909 66.7455 38.0035 66.7861 37.9909 66.8204C37.9814 66.8516 37.9592 66.8953 37.9244 66.9484L37.3708 67.6321C37.3486 67.6633 37.3265 67.6977 37.317 67.707C37.3075 67.7289 37.3075 67.7507 37.3265 67.782C37.336 67.8038 37.3486 67.8257 37.3708 67.8475C37.3803 67.8694 37.4024 67.8912 37.4151 67.9131C37.4372 67.9568 37.4593 67.988 37.4688 68.0192C37.4783 68.0504 37.5005 68.0848 37.5131 68.1035C37.5226 68.1254 37.5353 68.1347 37.5448 68.1472C37.5543 68.1566 37.5669 68.1472 37.5764 68.1472C37.5986 68.1254 37.6081 68.116 37.5986 68.0817C37.5891 68.0504 37.5764 68.0161 37.5764 67.9755C37.5669 67.9443 37.5859 67.91 37.6207 67.8694C37.6523 67.8163 37.6966 67.7507 37.7631 67.6758L38.089 67.2481C38.1206 67.2044 38.1554 67.1732 38.1744 67.1295C38.1965 67.1014 38.206 67.0577 38.2155 67.014ZM40.1803 68.3939C40.2119 68.3626 40.2467 68.3283 40.2657 68.3096C40.2878 68.2877 40.2973 68.2659 40.2878 68.244C40.2783 68.2222 40.2562 68.2128 40.2435 68.2222C40.2214 68.2222 40.1992 68.2222 40.1771 68.2315L38.2788 68.6592C38.2123 68.6686 38.1586 68.6811 38.1174 68.6904C38.0636 68.6998 38.0194 68.6904 37.9877 68.6811C37.9656 68.6717 37.9434 68.6499 37.9339 68.6374C37.9244 68.6155 37.9118 68.6062 37.9023 68.5937C37.8928 68.5718 37.8801 68.5624 37.8706 68.5624C37.8612 68.5531 37.8485 68.5531 37.8264 68.5624C37.8042 68.5718 37.7947 68.6062 37.8169 68.6374C37.839 68.6592 37.8485 68.6904 37.8833 68.7217C37.9055 68.7529 37.9276 68.7872 37.9592 68.8278C37.9909 68.9027 38.0257 68.9558 38.0447 68.9995C38.0668 69.0526 38.0763 69.0838 38.089 69.1057C38.1111 69.1494 38.1332 69.1587 38.1649 69.1369C38.187 69.1275 38.1965 69.1057 38.187 69.0838C38.187 69.062 38.1775 69.0183 38.1554 68.9777C38.1459 68.9464 38.1459 68.9246 38.1459 68.9027C38.1459 68.8934 38.1681 68.8715 38.1997 68.8497C38.2313 68.8278 38.3199 68.7966 38.4591 68.7654L38.785 68.6811C38.7945 68.6811 38.8071 68.6811 38.8166 68.6811C38.8166 68.6904 38.8261 68.6904 38.8261 68.7029L39.0539 69.0776C39.0634 69.1088 39.0634 69.1306 39.0539 69.1431L38.7281 69.4865C38.6743 69.5521 38.63 69.5833 38.5983 69.5927C38.5762 69.6145 38.5445 69.6145 38.5319 69.6021C38.5097 69.5927 38.4781 69.5583 38.456 69.5178C38.4243 69.4741 38.4022 69.4647 38.3705 69.4741C38.3389 69.4959 38.3389 69.5178 38.361 69.549C38.3705 69.5708 38.3927 69.6021 38.437 69.6551C38.4686 69.7082 38.5129 69.7738 38.5667 69.8581C38.5983 69.9236 38.6205 69.9767 38.6426 70.0173C38.6648 70.061 38.6743 70.1016 38.6964 70.1234C38.7186 70.1671 38.7502 70.1765 38.7723 70.1671C38.7945 70.1578 38.7945 70.1359 38.7945 70.1141C38.785 70.0922 38.7723 70.0485 38.785 70.0173C38.785 69.9517 38.8071 69.9111 38.8388 69.8674C38.8704 69.8237 38.9147 69.7706 38.9685 69.7082L40.1803 68.3939ZM39.6582 68.4906L39.2121 68.9621C39.2026 68.9839 39.19 68.9839 39.19 68.9933C39.1805 68.9933 39.1678 68.9933 39.1678 68.9933C39.1583 68.9839 39.1457 68.9839 39.1457 68.9714L38.9622 68.6717C38.9622 68.6499 38.9622 68.6405 38.9717 68.6405C38.9717 68.6405 38.9717 68.6311 38.9812 68.6311C38.9812 68.6311 38.9906 68.6311 39.0033 68.6218L39.6424 68.4501C39.6519 68.4501 39.6645 68.4501 39.674 68.4594C39.6804 68.4594 39.6804 68.4813 39.6582 68.4906Z" fill="black"/>
<path id="Vector_10" fill-rule="evenodd" clip-rule="evenodd" d="M34.9407 59.3185C34.985 59.2872 35.0166 59.2748 35.0483 59.2529C35.0799 59.2435 35.0799 59.2217 35.0704 59.1998C35.0609 59.1905 35.0483 59.178 35.0261 59.178C35.004 59.178 34.9818 59.1686 34.9502 59.1686L32.7703 59.1155C32.6944 59.1155 32.6279 59.1062 32.5741 59.1062C32.5203 59.1062 32.4761 59.0843 32.4318 59.0625C32.4096 59.0531 32.3875 59.0406 32.378 59.0188C32.3685 58.9969 32.3558 58.9875 32.3463 58.975C32.3368 58.9532 32.3242 58.9438 32.3147 58.9313C32.2926 58.922 32.2831 58.922 32.2609 58.9313C32.2293 58.9313 32.2293 58.9532 32.2514 58.9969C32.2609 59.0188 32.2831 59.05 32.3052 59.0812C32.3368 59.1124 32.359 59.1468 32.3811 59.1873C32.4254 59.2623 32.4571 59.3153 32.4666 59.359C32.4887 59.4121 32.5109 59.4433 32.5203 59.4652C32.5425 59.4964 32.5646 59.5089 32.5963 59.5089C32.6184 59.4995 32.6279 59.487 32.6279 59.4652C32.6279 59.4433 32.6184 59.4121 32.5963 59.3684C32.5868 59.3372 32.5868 59.3153 32.5963 59.2935C32.5963 59.2841 32.6184 59.2716 32.6501 59.2623C32.6944 59.2529 32.8019 59.2529 32.9633 59.2404H33.3335C33.3429 59.2404 33.3556 59.2498 33.3651 59.2498C33.3746 59.2591 33.3746 59.2591 33.3872 59.2716L33.6055 59.6463C33.6277 59.6775 33.6277 59.6993 33.6055 59.6993L33.2037 59.9335C33.1373 59.9647 33.0835 59.9866 33.0614 59.999C33.0171 59.999 32.9949 59.999 32.9759 59.9897C32.9538 59.9803 32.9222 59.946 32.9 59.8929C32.8684 59.8492 32.8462 59.8273 32.8019 59.8398C32.7703 59.8492 32.7703 59.871 32.7924 59.9054C32.8019 59.9272 32.8241 59.9585 32.8589 60.0115C32.9032 60.0646 32.9443 60.1302 32.9886 60.2145C33.0329 60.28 33.055 60.3331 33.074 60.3737C33.0835 60.4174 33.1057 60.4486 33.1183 60.4798C33.15 60.5235 33.1721 60.5454 33.2164 60.5329C33.2385 60.5235 33.2385 60.511 33.2259 60.4892C33.2164 60.458 33.2164 60.4361 33.2259 60.3924C33.2354 60.3487 33.2575 60.3081 33.3018 60.2738C33.3335 60.2519 33.3999 60.2082 33.4632 60.1676L34.9407 59.3185ZM34.3459 59.2872L33.8049 59.5963C33.7954 59.5963 33.7827 59.6057 33.7732 59.6057C33.7732 59.6057 33.7637 59.6057 33.7511 59.6057C33.7416 59.5963 33.7416 59.5963 33.7289 59.5838L33.5549 59.2748C33.5454 59.2654 33.5454 59.2529 33.5549 59.2529C33.5644 59.2529 33.5644 59.2529 33.5644 59.2529C33.5739 59.2435 33.5866 59.2435 33.5961 59.2435H34.3332C34.3554 59.2435 34.3649 59.2435 34.3649 59.2529C34.3775 59.2654 34.368 59.2654 34.3459 59.2872Z" fill="black"/>
<path id="Vector_11" fill-rule="evenodd" clip-rule="evenodd" d="M35.2762 60.0896H35.2857C35.3173 60.0678 35.3395 60.0459 35.3521 60.0365C35.3616 60.0147 35.3521 59.9928 35.33 59.9522C35.3205 59.9304 35.2857 59.868 35.2224 59.7712C35.156 59.6744 35.0705 59.537 34.963 59.3528C34.887 59.2123 34.9408 59.2998 34.8965 59.2248C34.8522 59.1499 34.887 59.2342 34.8744 59.2155C34.8522 59.1842 34.8301 59.1718 34.7985 59.1936C34.789 59.203 34.7763 59.2155 34.7763 59.2155C34.7763 59.2248 34.7763 59.2373 34.7858 59.2592C34.7858 59.2685 34.7953 59.281 34.8079 59.3029C34.8174 59.3122 34.8174 59.3341 34.8174 59.356C34.8269 59.3872 34.7731 59.281 34.7637 59.3029C34.7415 59.3122 34.7194 59.3341 34.6656 59.3684L33.2988 60.1489C33.2324 60.1801 33.1912 60.202 33.1564 60.2145C33.1248 60.2145 33.09 60.2051 33.0583 60.1614C33.0267 60.1302 33.0046 60.0959 32.9919 60.0771C32.9698 60.0459 32.9476 60.0459 32.9255 60.0553C32.8938 60.0771 32.8938 60.1083 32.916 60.1521C32.9255 60.1614 32.9476 60.1958 32.9824 60.2363C33.0141 60.2801 33.0583 60.355 33.1121 60.4393C33.2324 60.6422 33.2102 60.611 33.2735 60.7483C33.3399 60.8763 33.3937 60.9825 33.4254 61.0481C33.4475 61.0699 33.457 61.0793 33.457 61.0918C33.4665 61.1011 33.4791 61.1136 33.4886 61.1136C33.4981 61.1136 33.5108 61.1136 33.5329 61.1042C33.5424 61.1042 33.5646 61.0949 33.5867 61.0824L33.8999 60.9544C33.9094 60.945 33.9316 60.9325 33.9442 60.9325C33.9537 60.9232 33.9537 60.9232 33.9537 60.9232C33.9632 60.9232 33.9632 60.9138 33.9632 60.9013C33.9632 60.8888 33.9632 60.892 33.9632 60.8795C33.9537 60.8576 33.9189 60.8482 33.8651 60.8482C33.8113 60.8576 33.7449 60.8576 33.669 60.8482C33.6152 60.8482 33.5709 60.8389 33.5392 60.8264C33.495 60.817 33.4633 60.7952 33.4412 60.7733C33.4095 60.7515 33.3747 60.7202 33.3557 60.689C33.3241 60.6453 33.302 60.6047 33.2703 60.561C33.2482 60.5173 33.226 60.4767 33.2165 60.4424C33.207 60.4112 33.207 60.3893 33.207 60.3675C33.207 60.3362 33.2165 60.3144 33.2387 60.2925C33.2608 60.2707 33.2925 60.2488 33.3368 60.227L33.9537 59.8742C33.9759 59.8648 33.998 59.8648 34.0075 59.8648C34.017 59.8648 34.0296 59.8742 34.0391 59.9085L34.1151 60.0365C34.1594 60.1021 34.1815 60.1645 34.2005 60.2082C34.21 60.252 34.2005 60.305 34.1689 60.3581C34.1467 60.3893 34.1246 60.4112 34.1024 60.433C34.0929 60.4642 34.0708 60.4767 34.0486 60.4986C34.0391 60.508 34.0265 60.5298 34.017 60.5423C34.017 60.5517 34.017 60.5642 34.017 60.586C34.0391 60.6079 34.0613 60.6079 34.0929 60.586C34.1151 60.5766 34.1372 60.5642 34.1783 60.5329C34.2226 60.5111 34.2764 60.4674 34.3397 60.4361C34.4061 60.4049 34.4599 60.3706 34.5137 60.3519C34.5675 60.3206 34.6118 60.2988 34.6561 60.2769C34.6782 60.2676 34.6877 60.2457 34.6656 60.2239C34.6656 60.202 34.6434 60.1926 34.6339 60.202C34.6244 60.202 34.6023 60.202 34.5802 60.2114C34.558 60.2114 34.5359 60.2207 34.5137 60.2207C34.4821 60.2207 34.4599 60.2207 34.4283 60.2114C34.4061 60.2114 34.3745 60.1895 34.3302 60.1458C34.2986 60.1021 34.2543 60.049 34.2226 59.9866L34.1372 59.8461C34.1277 59.8149 34.1151 59.8024 34.1277 59.793C34.1277 59.7837 34.1499 59.7712 34.172 59.7618L34.6719 59.4715C34.7035 59.4621 34.7383 59.4402 34.7573 59.4278C34.7795 59.4184 34.8016 59.4184 34.8238 59.4184C34.8459 59.4278 34.8681 59.4402 34.8902 59.4496C34.8997 59.4715 34.9218 59.5027 34.9566 59.5464C35.0547 59.7056 35.0864 59.8555 35.0547 59.9866C35.0547 60.0303 35.0326 60.0615 35.0231 60.0927C35.0009 60.124 34.9788 60.1458 34.9693 60.1677C34.9472 60.1895 34.9377 60.1989 34.925 60.2207C34.9155 60.2301 34.9155 60.252 34.925 60.2644C34.9345 60.2863 34.9693 60.2863 35.0231 60.2551L35.2762 60.0896Z" fill="black"/>
</g>
<g id="Contorno">
<g id="Vector_12">
<mask id="path-14-inside-1_828_5446" fill="white">
<path d="M0.000488281 44H56.0005V84H0.000488281V44Z"/>
</mask>
<path d="M0.000488281 44H56.0005V84H0.000488281V44Z" stroke="#8B99A7" stroke-width="0.2" stroke-miterlimit="2.6131" mask="url(#path-14-inside-1_828_5446)"/>
</g>
</g>
</g>
</g>
<rect x="-768.5" y="-15.5" width="1181" height="727" rx="4.5" stroke="#9747FF" stroke-dasharray="10 5"/>
</g>
</g>
<defs>
<linearGradient id="paint0_linear_828_5446" x1="32.0005" y1="111.657" x2="123.317" y2="-10.9737" gradientUnits="userSpaceOnUse">
<stop stop-color="#9285F9"/>
<stop offset="1" stop-color="#3B4AFF"/>
</linearGradient>
</defs>
</svg>
