<svg width="161" height="128" viewBox="0 0 161 128" fill="none" xmlns="http://www.w3.org/2000/svg">
<g id="&#195;&#141;cones">
<g id="Ilustra&#195;&#167;&#195;&#163;o UF">
<g id="Estado=MS">
<g id="UF">
<path id="ms" fill-rule="evenodd" clip-rule="evenodd" d="M153.459 36.5322H141.082L127.899 23.4523V18.9246H110.289V4.13428H104.553L98.5157 10.0705H82.3145L76.3774 4.13428H59.1698L53.1321 10.2718L37.5346 10.0705V18.9246L42.0629 23.4523L37.3333 28.1811V39.0475L32 39.2487V69.4331H36.7295V77.2811L33.6101 80.2995V94.3855H52.9308L56.7547 90.5622H62.9937V94.4861H72.4528L78.7925 100.825L80.1006 123.866L100.83 123.564L110.994 113.402V104.346L118.642 96.6997H127.497L139.572 84.7265V74.7657L154.063 60.2772H160V43.1727L153.459 36.5322Z" fill="url(#paint0_linear_828_5446)" stroke="white" stroke-width="1.21084"/>
</g>
<g id="Bandeira do Estado/Mato Grosso do Sul - MS">
<g id="Group">
<path id="Vector" d="M56 44.0005H0V84.0005H56V44.0005Z" fill="white"/>
<path id="Vector_2" d="M39.1799 44.0005H56V84.0005H0L39.1799 44.0005Z" fill="#6F91CB"/>
<path id="Vector_3" d="M0 72.016V58.3636V44.0005H27.972L0 72.016Z" fill="#039340"/>
<path id="Vector_4" d="M42 73.8849H46.0605L47.3263 70.0005L48.5901 73.8849H52.6216L49.3711 76.2674L50.6203 80.1518L47.3118 77.7528L44.0303 80.1518L45.2671 76.2529L42 73.8849Z" fill="#F3E600"/>
</g>
<g id="Contorno">
<g id="Vector_5">
<mask id="path-7-inside-1_828_5446" fill="white">
<path d="M0.000488281 43.9985H56.0005V83.9942H0.000488281V43.9985Z"/>
</mask>
<path d="M0.000488281 43.9985H56.0005V83.9942H0.000488281V43.9985Z" stroke="#8B99A7" stroke-width="0.2" stroke-miterlimit="2.6131" mask="url(#path-7-inside-1_828_5446)"/>
</g>
</g>
</g>
</g>
<rect x="-979.5" y="-15.5" width="1181" height="727" rx="4.5" stroke="#9747FF" stroke-dasharray="10 5"/>
</g>
</g>
<defs>
<linearGradient id="paint0_linear_828_5446" x1="32" y1="123.866" x2="151.465" y2="-3.84954" gradientUnits="userSpaceOnUse">
<stop stop-color="#9285F9"/>
<stop offset="1" stop-color="#3B4AFF"/>
</linearGradient>
</defs>
</svg>
