<svg width="161" height="128" viewBox="0 0 161 128" fill="none" xmlns="http://www.w3.org/2000/svg">
<g id="&#195;&#141;cones">
<g id="Ilustra&#195;&#167;&#195;&#163;o UF">
<g id="Estado=MT">
<g id="UF">
<path id="mt" fill-rule="evenodd" clip-rule="evenodd" d="M32.0005 17.2901V44.4456H50.7782V60.8819L39.2776 72.3807V82.7752L47.2695 90.701V104.279H70.2705L70.3355 114.088L76.1183 119.87H86.1893L90.0878 115.972H101.198L105.097 119.87H115.493L119.326 116.037H123.095V125.587H130.502V112.075L145.186 97.3274V89.1418H154.413L160 83.5548V30.608H96.0655L68.3213 2.41309V11.6382L62.4736 17.485L32.0005 17.2901Z" fill="url(#paint0_linear_828_5446)" stroke="white" stroke-width="1.21084"/>
</g>
<g id="Bandeira do Estado/Mato Grosso - MT" clip-path="url(#clip0_828_5446)">
<g id="Group">
<path id="Vector" d="M56 44.0005H0V84.0005H56V44.0005Z" fill="#2B286C"/>
<path id="Vector_2" d="M28.1567 49.0005L5 63.8801L28.1567 78.74L51.3496 63.8801L28.1567 49.0005Z" fill="#FEFEFF"/>
<path id="Vector_3" d="M28.1674 73.7504C33.5914 73.7504 37.9884 69.3536 37.9884 63.9299C37.9884 58.5062 33.5914 54.1094 28.1674 54.1094C22.7434 54.1094 18.3464 58.5062 18.3464 63.9299C18.3464 69.3536 22.7434 73.7504 28.1674 73.7504Z" fill="#019247"/>
<path id="Vector_4" d="M24.6366 65.0161L22.4037 71.883L28.1566 67.6691L33.9692 71.8542L31.7574 65.0161L37.4945 60.8507H30.3986L28.1672 54.1104L25.9448 60.8507H18.8384L24.6366 65.0161Z" fill="#F6C215"/>
</g>
<g id="Contorno">
<g id="Vector_5">
<mask id="path-7-inside-1_828_5446" fill="white">
<path d="M0.000488281 43.9995H56.0005V83.9952H0.000488281V43.9995Z"/>
</mask>
<path d="M0.000488281 43.9995H56.0005V83.9952H0.000488281V43.9995Z" stroke="#8B99A7" stroke-width="0.2" stroke-miterlimit="2.6131" mask="url(#path-7-inside-1_828_5446)"/>
</g>
</g>
</g>
</g>
<rect x="-407.5" y="-15.5" width="1181" height="727" rx="4.5" stroke="#9747FF" stroke-dasharray="10 5"/>
</g>
</g>
<defs>
<linearGradient id="paint0_linear_828_5446" x1="32.0005" y1="125.587" x2="155.084" y2="-2.3182" gradientUnits="userSpaceOnUse">
<stop stop-color="#9285F9"/>
<stop offset="1" stop-color="#3B4AFF"/>
</linearGradient>
<clipPath id="clip0_828_5446">
<rect width="56.0005" height="40.001" fill="white" transform="translate(0 43.9995)"/>
</clipPath>
</defs>
</svg>
