<svg width="163" height="130" viewBox="0 0 163 130" fill="none" xmlns="http://www.w3.org/2000/svg">
<g id="&#195;&#141;cones">
<g id="Ilustra&#195;&#167;&#195;&#163;o UF">
<g id="Estado=PA">
<g id="UF">
<path id="pa" fill-rule="evenodd" clip-rule="evenodd" d="M75.5166 0.998047V10.584H83.6113L93.6005 20.5718V29.0097L107.149 42.5563L111.512 38.1938H116.392V50.7646H128.907L145.671 34.0036H162.09V46.2874L154.397 53.9791L154.569 68.3293L151.067 73.3806H145.498L134.82 84.0571V89.051H140.102L130.055 99.0962V116.431L117.483 129.002H60.9921L36.421 104.147L36.5932 70.4531L50.7158 56.3325V46.1152L45.0898 40.4899H32.0005V16.5537L41.4156 7.13994H61.2217V1.05545H75.3444L75.5166 0.998047ZM135.796 28.7801V37.8494L126.381 47.2632H118.631V29.0671L135.796 28.7801Z" fill="url(#paint0_linear_828_5446)" stroke="white" stroke-width="1.21084"/>
</g>
<g id="Bandeira do Estado/Par&#195;&#161; - PA">
<g id="Group">
<path id="Vector" d="M0 85.002H45L0 53.002V85.002Z" fill="#ED2024"/>
<path id="Vector_2" d="M11 45.002L56 78.002V45.002H11Z" fill="#ED2024"/>
<path id="Vector_3" d="M0 45.002H11L56 78.002V85.002H45L0 53.002V45.002Z" fill="white"/>
<path id="Vector_4" d="M28.7046 61.002L29.8256 64.4081L33.4286 64.4139L30.5179 66.5597L31.6505 69.9709L28.7046 67.8632L25.7674 69.9709L26.8855 66.5597L24 64.4168L27.5908 64.4081L28.7046 61.002Z" fill="#3372B9"/>
</g>
<g id="Contorno">
<g id="Vector_5">
<mask id="path-7-inside-1_828_5446" fill="white">
<path d="M0.000488281 45.0117H56.0005V85.0117H0.000488281V45.0117Z"/>
</mask>
<path d="M0.000488281 45.0117H56.0005V85.0117H0.000488281V45.0117Z" stroke="#8B99A7" stroke-width="0.2" stroke-miterlimit="2.6131" mask="url(#path-7-inside-1_828_5446)"/>
</g>
</g>
</g>
</g>
<rect x="-226.5" y="-14.5" width="1181" height="727" rx="4.5" stroke="#9747FF" stroke-dasharray="10 5"/>
</g>
</g>
<defs>
<linearGradient id="paint0_linear_828_5446" x1="32.0005" y1="129.002" x2="159.988" y2="-1.07001" gradientUnits="userSpaceOnUse">
<stop stop-color="#9285F9"/>
<stop offset="1" stop-color="#3B4AFF"/>
</linearGradient>
</defs>
</svg>
