<svg width="161" height="128" viewBox="0 0 161 128" fill="none" xmlns="http://www.w3.org/2000/svg">
<g id="&#195;&#141;cones">
<g id="Ilustra&#195;&#167;&#195;&#163;o UF">
<g id="Estado=PB">
<g id="UF">
<path id="pb" fill-rule="evenodd" clip-rule="evenodd" d="M74.8994 29.3892L61.646 42.4663H52.0548L42.4635 33.0508V42.815L32.0002 53.2768L46.4743 67.5744L35.6623 78.3849H55.368L70.1909 63.5641H88.1529V89.5441L97.3954 98.6109L120.414 75.4207H142.562V68.0975H160V41.0714L154.245 37.4098H106.638V50.3126H85.0138V29.3892H74.8994Z" fill="url(#paint0_linear_828_5446)" stroke="white" stroke-width="1.21084"/>
</g>
<g id="Bandeira do Estado/Para&#195;&#173;ba - PB" clip-path="url(#clip0_828_5446)">
<g id="Group">
<path id="Vector" fill-rule="evenodd" clip-rule="evenodd" d="M0 84H56V44H0V84Z" fill="#010101"/>
<path id="Vector_2" fill-rule="evenodd" clip-rule="evenodd" d="M18.667 84H56.0003V44H18.667V84Z" fill="#ED1C24"/>
<path id="Vector_3" fill-rule="evenodd" clip-rule="evenodd" d="M30.3335 65.5932V62.0557H31.0613L32.517 64.4168V62.0557H33.1327V65.5932H32.4606L31.0049 63.2878V65.5932H30.3335ZM33.9176 65.5932V62.0557H36.5497V62.6533H34.6455V63.4376H36.3818V64.0351H34.6455V64.9963H36.6054V65.5939L33.9176 65.5932ZM38.8453 64.2866V63.6987H40.4131V65.1077C40.2453 65.2477 40.021 65.3787 39.741 65.4901C39.461 65.5925 39.181 65.6489 38.9011 65.6489C38.5089 65.6489 38.1732 65.5744 37.8932 65.4156C37.669 65.2665 37.4454 65.0423 37.2775 64.7532C37.1654 64.4642 37.1097 64.1466 37.1097 63.8109C37.1097 63.4466 37.1654 63.12 37.3339 62.8309C37.5018 62.5419 37.7261 62.3267 38.0061 62.1686C38.2303 62.0564 38.5103 62.0007 38.846 62.0007C39.2939 62.0007 39.6303 62.085 39.8539 62.2716C40.1338 62.4583 40.3017 62.7104 40.3581 63.0371L39.6303 63.168C39.5746 63.0002 39.5181 62.8602 39.3503 62.7571C39.2382 62.6547 39.0703 62.608 38.846 62.608C38.5103 62.608 38.286 62.7014 38.1182 62.8971C37.8939 63.1025 37.8382 63.3916 37.8382 63.7837C37.8382 64.2037 37.8939 64.5213 38.1182 64.7261C38.286 64.9406 38.5103 65.0437 38.846 65.0437C39.0139 65.0437 39.126 65.0158 39.2939 64.9594C39.4617 64.8939 39.5739 64.8194 39.686 64.7449V64.2873L38.8453 64.2866ZM40.9174 63.8478C40.9174 63.4835 40.9731 63.1854 41.0853 62.9424C41.141 62.7557 41.2531 62.5969 41.421 62.4478C41.5331 62.3078 41.701 62.2055 41.8688 62.14C42.0931 62.0467 42.3167 62 42.5966 62C43.1566 62 43.5488 62.1588 43.8845 62.4757C44.1645 62.8024 44.3323 63.2502 44.3323 63.829C44.3323 64.398 44.1645 64.8466 43.8845 65.1635C43.5488 65.4901 43.1566 65.6489 42.6524 65.6489C42.0924 65.6489 41.7003 65.4901 41.3646 65.1635C41.0853 64.8466 40.9174 64.4078 40.9174 63.8478ZM41.6452 63.8199C41.6452 64.2211 41.7574 64.5199 41.9252 64.7344C42.0931 64.9399 42.3174 65.0423 42.5973 65.0423C42.9331 65.0423 43.1573 64.9399 43.3252 64.7344C43.493 64.529 43.6052 64.2211 43.6052 63.8102C43.6052 63.3993 43.493 63.1012 43.3252 62.9047C43.1573 62.6993 42.9331 62.6059 42.5973 62.6059C42.3174 62.6059 42.0931 62.6993 41.9252 62.9138C41.7574 63.1109 41.6452 63.4188 41.6452 63.8199Z" fill="white"/>
<g id="Vector_4">
<mask id="path-6-inside-1_828_5446" fill="white">
<path d="M0 44H56V83.9957H0V44Z"/>
</mask>
<path d="M0 44H56V83.9957H0V44Z" stroke="#E0E6EB" stroke-width="0.2" stroke-miterlimit="2.6131" mask="url(#path-6-inside-1_828_5446)"/>
</g>
</g>
<g id="Contorno">
<g id="Vector_5">
<mask id="path-7-inside-2_828_5446" fill="white">
<path d="M0 44H56V83.9957H0V44Z"/>
</mask>
<path d="M0 44H56V83.9957H0V44Z" stroke="#8B99A7" stroke-width="0.2" stroke-miterlimit="2.6131" mask="url(#path-7-inside-2_828_5446)"/>
</g>
</g>
</g>
</g>
<rect x="-786.5" y="-440.5" width="1181" height="727" rx="4.5" stroke="#9747FF" stroke-dasharray="10 5"/>
</g>
</g>
<defs>
<linearGradient id="paint0_linear_828_5446" x1="32.0002" y1="98.6109" x2="89.9282" y2="-8.50544" gradientUnits="userSpaceOnUse">
<stop stop-color="#9285F9"/>
<stop offset="1" stop-color="#3B4AFF"/>
</linearGradient>
<clipPath id="clip0_828_5446">
<rect width="56.0002" height="40" fill="white" transform="translate(0 44)"/>
</clipPath>
</defs>
</svg>
