<svg width="161" height="128" viewBox="0 0 161 128" fill="none" xmlns="http://www.w3.org/2000/svg">
<g id="&#195;&#141;cones">
<g id="Ilustra&#195;&#167;&#195;&#163;o UF">
<g id="Estado=PE">
<g id="UF">
<path id="pe" fill-rule="evenodd" clip-rule="evenodd" d="M150.97 45.2092V49.9493H136.635L121.736 64.9595L115.753 59.0908V42.2749H104.127L94.5329 51.8679H81.778L77.1502 56.4951L66.3141 45.7735H43.4006L43.5135 58.8651L32.0002 70.151H39.5629V85.7255H56.6069V77.4868L59.9932 74.101H84.3741L92.3883 82.114L100.064 74.3268H109.432V81.6626H131.669L140.924 72.4082H153.792L160 66.2009V45.3221L150.97 45.2092Z" fill="url(#paint0_linear_828_5446)" stroke="white" stroke-width="1.21084"/>
</g>
<g id="Bandeira do Estado/Pernambuco - PE" clip-path="url(#clip0_828_5446)">
<g id="Group">
<path id="Vector" fill-rule="evenodd" clip-rule="evenodd" d="M0 44.002H55.9987V84.0008H0V44.002Z" fill="#312783"/>
<path id="Vector_2" fill-rule="evenodd" clip-rule="evenodd" d="M0.00146484 68.0747H56.0002V84.0018H0.00146484V68.0747Z" fill="white"/>
<path id="Vector_3" fill-rule="evenodd" clip-rule="evenodd" d="M27.1659 70.4917H28.8341V73.5107H31.6145V75.196H28.8341V81.5848H27.1659V75.196H24.3862V73.5107H27.1659V70.4917Z" fill="#E30613"/>
<path id="Vector_4" fill-rule="evenodd" clip-rule="evenodd" d="M27.9999 45.2329L28.484 46.5002L29.8267 46.5741L28.7833 47.4308L29.1291 48.7431L27.9999 48.0054L26.8714 48.7431L27.2172 47.4308L26.1738 46.5741L27.5165 46.5002L27.9999 45.2329Z" fill="#FFED00"/>
<path id="Vector_5" fill-rule="evenodd" clip-rule="evenodd" d="M28.0003 50.2241C41.1039 50.2241 52.1055 57.895 54.7555 68.0743H52.9988C50.3482 58.8465 40.1347 51.9383 28.0003 51.9383C15.8659 51.9383 5.6531 58.8472 3.00179 68.075H1.24512C3.89509 57.895 14.8968 50.2241 28.0003 50.2241Z" fill="#E30613"/>
<path id="Vector_6" fill-rule="evenodd" clip-rule="evenodd" d="M27.9995 51.9385C40.1339 51.9385 50.3474 58.8467 52.998 68.0746H51.226C48.5761 59.8002 39.1575 53.6526 27.9995 53.6526C16.8415 53.6526 7.42359 59.8002 4.77295 68.0746H3.00098C5.65228 58.8467 15.8651 51.9385 27.9995 51.9385Z" fill="#FFED00"/>
<path id="Vector_7" fill-rule="evenodd" clip-rule="evenodd" d="M28 53.6528C39.158 53.6528 48.5766 59.8005 51.2265 68.0748H49.4366C46.7893 60.756 38.1729 55.367 28 55.367C17.8271 55.367 9.21069 60.7553 6.56337 68.0748H4.77344C7.42408 59.8005 16.842 53.6528 28 53.6528Z" fill="#009640"/>
<path id="Vector_8" fill-rule="evenodd" clip-rule="evenodd" d="M27.9998 56.834L28.1774 58.5878L29.8609 57.2083L29.3608 58.8969L31.4394 58.2733L30.3372 59.64L32.4936 59.8671L30.9578 60.7037L32.8635 61.7472L31.1281 61.9267L32.4936 63.6273L30.8221 63.122L31.4394 65.2212L30.0864 64.1085L29.8609 66.2862L29.0328 64.7354L27.9998 66.6605L27.8222 64.9074L26.1387 66.2862L26.6389 64.5976L24.561 65.2212L25.6625 63.8545L23.5067 63.6273L25.0426 62.7908L23.1362 61.7472L24.8723 61.5678L23.5067 59.8671L25.1783 60.3724L24.561 58.2733L25.9139 59.386L26.1387 57.2083L26.9669 58.7591L27.9998 56.834Z" fill="#FFED00"/>
</g>
<g id="Contorno">
<g id="Vector_9">
<mask id="path-11-inside-1_828_5446" fill="white">
<path d="M0 44H56V84H0V44Z"/>
</mask>
<path d="M0 44H56V84H0V44Z" stroke="#8B99A7" stroke-width="0.2" stroke-miterlimit="2.6131" mask="url(#path-11-inside-1_828_5446)"/>
</g>
</g>
</g>
</g>
<rect x="-15.5" y="-440.5" width="1181" height="727" rx="4.5" stroke="#9747FF" stroke-dasharray="10 5"/>
</g>
</g>
<defs>
<linearGradient id="paint0_linear_828_5446" x1="32.0002" y1="85.7255" x2="58.4515" y2="7.8034" gradientUnits="userSpaceOnUse">
<stop stop-color="#9285F9"/>
<stop offset="1" stop-color="#3B4AFF"/>
</linearGradient>
<clipPath id="clip0_828_5446">
<rect width="56.0002" height="40" fill="white" transform="translate(0 44)"/>
</clipPath>
</defs>
</svg>
