<svg width="125" height="130" viewBox="0 0 125 130" fill="none" xmlns="http://www.w3.org/2000/svg">
<g id="&#195;&#141;cones">
<g id="Ilustra&#195;&#167;&#195;&#163;o UF">
<g id="Estado=PI">
<g id="UF">
<path id="pi" fill-rule="evenodd" clip-rule="evenodd" d="M105.244 1H98.2726L81.8855 17.3847V35.1273L76.2723 40.7398V49.43H83.4246V56.4908L76.7249 63.1895H57.8028L46.8479 74.2334H38.8808V90.7086L32 97.4979V119.133H43.0454V129H53.095L59.1609 122.935H68.6672V105.736L73.4656 100.938H78.5357V107.365H92.4783L102.256 97.6789H108.594V93.2433L117.738 84.1004L117.828 69.3451L123.894 63.2801L113.664 52.9604V21.8204L105.244 13.4017V1Z" fill="url(#paint0_linear_828_5446)" stroke="white" stroke-width="1.21084"/>
</g>
<g id="Bandeira do Estado/Piau&#195;&#173; - PI" clip-path="url(#clip0_828_5446)">
<g id="Group">
<g id="Group_2">
<path id="Vector" fill-rule="evenodd" clip-rule="evenodd" d="M0 85.002H56V45.002H0V85.002Z" fill="#FED500"/>
</g>
<g id="Group_3">
<path id="Vector_2" fill-rule="evenodd" clip-rule="evenodd" d="M0 48.3607H56V45.002H0V48.3607Z" fill="#56A145"/>
</g>
<g id="Group_4">
<path id="Vector_3" fill-rule="evenodd" clip-rule="evenodd" d="M0 54.4677H56V51.1089H0V54.4677Z" fill="#56A145"/>
</g>
<g id="Group_5">
<path id="Vector_4" fill-rule="evenodd" clip-rule="evenodd" d="M0 60.5746H56V57.2158H0V60.5746Z" fill="#56A145"/>
</g>
<g id="Group_6">
<path id="Vector_5" fill-rule="evenodd" clip-rule="evenodd" d="M0 66.6815H56V63.3228H0V66.6815Z" fill="#56A145"/>
</g>
<g id="Group_7">
<path id="Vector_6" fill-rule="evenodd" clip-rule="evenodd" d="M0 72.788H56V69.4292H0V72.788Z" fill="#56A145"/>
</g>
<g id="Group_8">
<path id="Vector_7" fill-rule="evenodd" clip-rule="evenodd" d="M0 78.8949H56V75.5361H0V78.8949Z" fill="#56A145"/>
</g>
<g id="Group_9">
<path id="Vector_8" fill-rule="evenodd" clip-rule="evenodd" d="M0 85.0018H56V81.6431H0V85.0018Z" fill="#56A145"/>
</g>
<g id="Group_10">
<g id="Group_11">
<path id="Vector_9" fill-rule="evenodd" clip-rule="evenodd" d="M0 60.572H24V45.002H0V60.572Z" fill="#2B3189"/>
</g>
<g id="Group_12">
<path id="Vector_10" d="M2.2046 59.6367H2.03581V58.5918C1.99497 58.6292 1.94179 58.6674 1.87628 58.7049C1.81 58.7423 1.75142 58.7708 1.69824 58.7895V58.6307C1.79227 58.5873 1.87474 58.5356 1.94564 58.4742C2.01655 58.4127 2.06587 58.3536 2.09593 58.2959H2.2046V59.6367Z" fill="white"/>
<path id="Vector_11" d="M2.63794 59.2844L2.80673 59.2627C2.82599 59.3556 2.85913 59.4222 2.90538 59.4634C2.95162 59.5046 3.00865 59.5248 3.0757 59.5248C3.15509 59.5248 3.22214 59.4979 3.27686 59.4447C3.33158 59.3915 3.35856 59.3248 3.35856 59.2462C3.35856 59.1705 3.33312 59.1091 3.28303 59.0597C3.23216 59.011 3.16819 58.9863 3.08958 58.9863C3.05798 58.9863 3.0179 58.9923 2.97089 59.0043L2.98938 58.8604C3.00094 58.8619 3.00942 58.8619 3.01636 58.8619C3.08804 58.8619 3.15278 58.844 3.21058 58.8073C3.26838 58.7706 3.2969 58.7144 3.2969 58.6387C3.2969 58.5788 3.27609 58.5286 3.23447 58.4889C3.19285 58.4492 3.1389 58.4297 3.07262 58.4297C3.00711 58.4297 2.95239 58.45 2.90846 58.4897C2.86453 58.5301 2.83678 58.59 2.82445 58.6702L2.65567 58.641C2.67648 58.5309 2.72349 58.4462 2.79594 58.3856C2.86915 58.3249 2.9601 58.2949 3.06877 58.2949C3.14353 58.2949 3.21289 58.3107 3.27609 58.3421C3.33929 58.3736 3.38784 58.4163 3.42098 58.4702C3.45412 58.5241 3.47108 58.5818 3.47108 58.6425C3.47108 58.7002 3.45489 58.7526 3.4233 58.7998C3.3917 58.847 3.34391 58.8852 3.28148 58.9129C3.36241 58.9309 3.42561 58.9691 3.47108 59.026C3.51578 59.0837 3.5389 59.1556 3.5389 59.2417C3.5389 59.3586 3.49497 59.4574 3.40788 59.5383C3.32079 59.6192 3.20981 59.6597 3.0757 59.6597C2.95547 59.6597 2.85528 59.6245 2.77513 59.5548C2.69497 59.4859 2.6495 59.3953 2.63794 59.2844Z" fill="white"/>
<path id="Vector_12" d="M4.30615 59.6373V58.3018H4.77937C4.8865 58.3018 4.96819 58.3077 5.02369 58.3212C5.1023 58.3392 5.16935 58.3707 5.22561 58.4171C5.29806 58.4763 5.35201 58.5527 5.38823 58.6456C5.42446 58.7385 5.44218 58.8441 5.44218 58.9632C5.44218 59.0643 5.42985 59.1542 5.40596 59.2328C5.3813 59.3115 5.35047 59.3759 5.31193 59.4276C5.27417 59.4793 5.23178 59.519 5.18708 59.5489C5.14161 59.5781 5.08688 59.6006 5.02292 59.6156C4.95895 59.6306 4.88496 59.6381 4.80249 59.6381H4.30615V59.6373ZM4.48804 59.4793H4.78168C4.87263 59.4793 4.94353 59.471 4.99517 59.4545C5.04681 59.4381 5.08765 59.4148 5.11848 59.3856C5.16164 59.3437 5.19555 59.2875 5.21945 59.2163C5.24334 59.1459 5.25567 59.0598 5.25567 58.9587C5.25567 58.8186 5.23178 58.7115 5.18476 58.6366C5.13775 58.5617 5.07995 58.5115 5.0129 58.486C4.96434 58.468 4.88573 58.4583 4.77783 58.4583H4.48881V59.4793H4.48804Z" fill="white"/>
<path id="Vector_13" d="M5.69678 59.6373V58.3018H6.69023V58.4591H5.87867V58.868H6.63859V59.0246H5.87867V59.4793H6.7226V59.6366H5.69678V59.6373Z" fill="white"/>
<path id="Vector_14" d="M7.50195 59.6373V58.3018H7.77556L8.1008 59.2478C8.13086 59.3362 8.15244 59.4021 8.16632 59.4456C8.18173 59.3969 8.20639 59.3257 8.23953 59.2313L8.56863 58.3018H8.81295V59.6373H8.638V58.519L8.23876 59.6373H8.0746L7.67691 58.5003V59.6373H7.50195Z" fill="white"/>
<path id="Vector_15" d="M8.95508 59.6373L9.48302 58.3018H9.67878L10.2414 59.6373H10.0341L9.87377 59.2328H9.29882L9.14776 59.6373H8.95508ZM9.352 59.089H9.81828L9.67492 58.719C9.63099 58.6066 9.59862 58.5145 9.57781 58.4418C9.56009 58.5272 9.53543 58.6126 9.50383 58.6973L9.352 59.089Z" fill="white"/>
<path id="Vector_16" d="M10.3894 59.6373V58.3018H10.999C11.1216 58.3018 11.2148 58.3137 11.2788 58.3377C11.3428 58.3617 11.3936 58.4044 11.4314 58.465C11.4692 58.5257 11.4884 58.5931 11.4884 58.6665C11.4884 58.7617 11.4568 58.8411 11.3936 58.9062C11.3304 58.9714 11.2333 59.0126 11.1015 59.0298C11.1493 59.0523 11.1863 59.0748 11.211 59.0965C11.2642 59.1437 11.3143 59.2029 11.362 59.274L11.601 59.6373H11.3721L11.1902 59.3594C11.137 59.2793 11.0931 59.2178 11.0592 59.1751C11.0245 59.1325 10.9936 59.1032 10.9667 59.086C10.9397 59.0688 10.9119 59.0575 10.8834 59.0508C10.8626 59.0463 10.8287 59.0448 10.7825 59.0448H10.5713V59.6381H10.3894V59.6373ZM10.5713 58.8913H10.962C11.0453 58.8913 11.11 58.883 11.157 58.8665C11.204 58.8501 11.2395 58.8231 11.2642 58.7864C11.2888 58.7497 11.3004 58.71 11.3004 58.6665C11.3004 58.6036 11.2765 58.5512 11.2295 58.5107C11.1825 58.4703 11.1077 58.4501 11.006 58.4501H10.5713V58.8913Z" fill="white"/>
<path id="Vector_17" d="M12.7544 59.1693L12.9363 59.2143C12.8986 59.3598 12.83 59.4708 12.7305 59.5466C12.6311 59.6231 12.5101 59.6613 12.3675 59.6613C12.2196 59.6613 12.0993 59.6321 12.0061 59.5736C11.9136 59.5151 11.8427 59.4296 11.7941 59.3186C11.7456 59.2076 11.7217 59.0876 11.7217 58.9601C11.7217 58.8206 11.7487 58.6991 11.8034 58.5956C11.8581 58.4921 11.9359 58.4133 12.0369 58.3593C12.1379 58.3053 12.2488 58.2783 12.3698 58.2783C12.507 58.2783 12.6226 58.3121 12.7167 58.3803C12.8107 58.4486 12.8754 58.5446 12.9124 58.6676L12.7336 58.7088C12.702 58.6113 12.6558 58.5408 12.5949 58.4966C12.534 58.4523 12.4577 58.4298 12.366 58.4298C12.2604 58.4298 12.1718 58.4546 12.1009 58.5041C12.03 58.5536 11.9799 58.6196 11.9514 58.7028C11.9228 58.7861 11.9082 58.8716 11.9082 58.9593C11.9082 59.0733 11.9251 59.1723 11.9591 59.2571C11.993 59.3418 12.0461 59.4056 12.1178 59.4476C12.1895 59.4896 12.2673 59.5106 12.3514 59.5106C12.4531 59.5106 12.5394 59.4821 12.6103 59.4251C12.6812 59.3681 12.7298 59.2818 12.7544 59.1693ZM12.2072 59.7783L12.2558 59.6171H12.3814L12.3506 59.7146C12.4038 59.7206 12.4438 59.7363 12.4708 59.7626C12.4978 59.7888 12.5109 59.8173 12.5109 59.8488C12.5109 59.8946 12.4885 59.9351 12.4431 59.9696C12.3976 60.0041 12.3305 60.0221 12.2396 60.0221C12.188 60.0221 12.1433 60.0183 12.1047 60.0108L12.1147 59.9043C12.1548 59.9066 12.1841 59.9081 12.2026 59.9081C12.2612 59.9081 12.3028 59.8998 12.3267 59.8841C12.3444 59.8721 12.3537 59.8571 12.3537 59.8391C12.3537 59.8278 12.3498 59.8181 12.3429 59.8098C12.3359 59.8016 12.3221 59.7941 12.3028 59.7881C12.2835 59.7821 12.2519 59.7791 12.2072 59.7783Z" fill="white"/>
<path id="Vector_18" d="M13.105 58.9854C13.105 58.7637 13.1659 58.5899 13.2884 58.4649C13.411 58.3398 13.5689 58.2769 13.7624 58.2769C13.8896 58.2769 14.0036 58.3061 14.1054 58.3652C14.2071 58.4244 14.2849 58.5061 14.3381 58.6117C14.3913 58.7173 14.4183 58.8364 14.4183 58.9705C14.4183 59.106 14.3905 59.2274 14.3343 59.3337C14.278 59.4408 14.1986 59.5217 14.0953 59.5764C13.9921 59.6311 13.8811 59.6588 13.7616 59.6588C13.6321 59.6588 13.5165 59.6281 13.4148 59.5674C13.3131 59.5068 13.236 59.4236 13.1836 59.3188C13.1312 59.2139 13.105 59.103 13.105 58.9854ZM13.2923 58.9884C13.2923 59.1495 13.337 59.2761 13.4256 59.3689C13.515 59.4618 13.626 59.5075 13.7609 59.5075C13.898 59.5075 14.0106 59.4611 14.0992 59.3674C14.1878 59.2738 14.2318 59.1412 14.2318 58.969C14.2318 58.8603 14.2125 58.7652 14.1747 58.6843C14.137 58.6034 14.0815 58.5405 14.009 58.4956C13.9366 58.4506 13.8549 58.4289 13.7639 58.4289C13.6352 58.4289 13.5242 58.4716 13.4318 58.5577C13.3393 58.6439 13.2923 58.7877 13.2923 58.9884Z" fill="white"/>
<path id="Vector_19" d="M15.1868 59.6373V58.3018H15.66C15.7671 58.3018 15.8488 58.3077 15.9043 58.3212C15.9829 58.3392 16.05 58.3707 16.1062 58.4171C16.1787 58.4763 16.2326 58.5527 16.2688 58.6456C16.3051 58.7385 16.3228 58.8441 16.3228 58.9632C16.3228 59.0643 16.3105 59.1542 16.2866 59.2328C16.2619 59.3115 16.2311 59.3759 16.1925 59.4276C16.1548 59.4793 16.1124 59.519 16.0677 59.5489C16.0222 59.5781 15.9675 59.6006 15.9035 59.6156C15.8396 59.6306 15.7656 59.6381 15.6831 59.6381H15.1868V59.6373ZM15.3687 59.4793H15.6623C15.7532 59.4793 15.8241 59.471 15.8758 59.4545C15.9274 59.4381 15.9683 59.4148 15.9991 59.3856C16.0423 59.3437 16.0762 59.2875 16.1001 59.2163C16.124 59.1459 16.1363 59.0598 16.1363 58.9587C16.1363 58.8186 16.1124 58.7115 16.0654 58.6366C16.0184 58.5617 15.9606 58.5115 15.8935 58.486C15.845 58.468 15.7663 58.4583 15.6584 58.4583H15.3694V59.4793H15.3687Z" fill="white"/>
<path id="Vector_20" d="M16.5774 59.6373V58.3018H17.5708V58.4591H16.7593V58.868H17.5192V59.0246H16.7593V59.4793H17.6032V59.6366H16.5774V59.6373Z" fill="white"/>
<path id="Vector_21" d="M18.9541 59.6367H18.7853V58.5918C18.7445 58.6292 18.6913 58.6674 18.6258 58.7049C18.5595 58.7423 18.5009 58.7708 18.4478 58.7895V58.6307C18.5418 58.5873 18.6243 58.5356 18.6952 58.4742C18.7661 58.4127 18.8154 58.3536 18.8455 58.2959H18.9541V59.6367Z" fill="white"/>
<path id="Vector_22" d="M19.6464 58.9124C19.5762 58.8876 19.5246 58.8517 19.4907 58.806C19.4568 58.7596 19.4398 58.7049 19.4398 58.6405C19.4398 58.5431 19.476 58.4614 19.5477 58.3955C19.6194 58.3296 19.715 58.2959 19.8344 58.2959C19.9546 58.2959 20.051 58.3296 20.1242 58.3978C20.1974 58.4659 20.2336 58.5476 20.2336 58.6449C20.2336 58.7071 20.2167 58.761 20.1835 58.8067C20.1504 58.8524 20.0995 58.8876 20.0309 58.9131C20.115 58.9401 20.1797 58.9828 20.2236 59.0427C20.2676 59.1026 20.2899 59.173 20.2899 59.2562C20.2899 59.37 20.2483 59.4666 20.1651 59.5438C20.0818 59.6209 19.9724 59.6606 19.8367 59.6606C19.7011 59.6606 19.5916 59.6217 19.5084 59.5438C19.4252 59.4659 19.3835 59.3685 19.3835 59.2517C19.3835 59.1648 19.4059 59.0921 19.4514 59.0337C19.4984 58.9738 19.5624 58.9333 19.6464 58.9124ZM19.5585 59.2509C19.5585 59.2974 19.5701 59.3431 19.5924 59.3865C19.6155 59.4299 19.6494 59.4644 19.6941 59.4884C19.7388 59.5123 19.7874 59.5243 19.8398 59.5243C19.9207 59.5243 19.987 59.4988 20.0394 59.4487C20.0918 59.3985 20.118 59.3341 20.118 59.2562C20.118 59.1775 20.0911 59.1116 20.0371 59.0599C19.9832 59.0082 19.9153 58.9828 19.8344 58.9828C19.755 58.9828 19.6895 59.0082 19.6371 59.0592C19.5847 59.1108 19.5585 59.1745 19.5585 59.2509ZM19.6124 58.6345C19.6124 58.6974 19.6333 58.7491 19.6749 58.7895C19.7165 58.83 19.7712 58.8494 19.8383 58.8494C19.903 58.8494 19.9562 58.8292 19.9978 58.7895C20.0394 58.7498 20.0602 58.7011 20.0602 58.6435C20.0602 58.5835 20.0387 58.5326 19.9963 58.4921C19.9531 58.4509 19.8999 58.4307 19.8367 58.4307C19.772 58.4307 19.7188 58.4509 19.6764 58.4906C19.634 58.5303 19.6124 58.5783 19.6124 58.6345Z" fill="white"/>
<path id="Vector_23" d="M21.3415 59.4789V59.6362H20.4328C20.4313 59.5965 20.4382 59.559 20.4529 59.5223C20.476 59.4624 20.513 59.4032 20.5638 59.3448C20.6147 59.2864 20.6887 59.219 20.7843 59.1426C20.9338 59.0235 21.0347 58.9291 21.0872 58.8594C21.1396 58.7898 21.1658 58.7239 21.1658 58.6624C21.1658 58.5973 21.1419 58.5426 21.0941 58.4976C21.0463 58.4527 20.9839 58.431 20.9068 58.431C20.8259 58.431 20.7604 58.455 20.7118 58.5021C20.6633 58.5493 20.6386 58.6152 20.6378 58.6991L20.4644 58.6819C20.476 58.5561 20.5207 58.4602 20.5985 58.3943C20.6764 58.3284 20.7804 58.2954 20.9107 58.2954C21.0425 58.2954 21.1473 58.3306 21.2236 58.4018C21.2999 58.4729 21.3392 58.5606 21.3392 58.6662C21.3392 58.7194 21.3276 58.7725 21.3053 58.8235C21.2829 58.8744 21.2451 58.9298 21.1935 58.9868C21.1419 59.0437 21.0548 59.1223 20.933 59.222C20.8321 59.3044 20.7665 59.3605 20.738 59.3898C20.7095 59.419 20.6856 59.4489 20.6671 59.4789H21.3415Z" fill="white"/>
<path id="Vector_24" d="M21.5232 59.2844L21.692 59.2627C21.7112 59.3556 21.7444 59.4222 21.7906 59.4634C21.8369 59.5046 21.8939 59.5248 21.961 59.5248C22.0403 59.5248 22.1074 59.4979 22.1621 59.4447C22.2168 59.3915 22.2438 59.3248 22.2438 59.2462C22.2438 59.1705 22.2184 59.1091 22.1683 59.0597C22.1174 59.011 22.0534 58.9863 21.9748 58.9863C21.9432 58.9863 21.9032 58.9923 21.8561 59.0043L21.8746 58.8604C21.8862 58.8619 21.8947 58.8619 21.9016 58.8619C21.9733 58.8619 22.038 58.844 22.0958 58.8073C22.1536 58.7706 22.1822 58.7144 22.1822 58.6387C22.1822 58.5788 22.1613 58.5286 22.1197 58.4889C22.0781 58.4492 22.0242 58.4297 21.9579 58.4297C21.8924 58.4297 21.8376 58.45 21.7937 58.4897C21.7498 58.5301 21.722 58.59 21.7097 58.6702L21.5409 58.641C21.5617 58.5309 21.6087 58.4462 21.6812 58.3856C21.7544 58.3249 21.8454 58.2949 21.954 58.2949C22.0288 58.2949 22.0981 58.3107 22.1613 58.3421C22.2245 58.3736 22.2731 58.4163 22.3062 58.4702C22.3394 58.5241 22.3563 58.5818 22.3563 58.6425C22.3563 58.7002 22.3401 58.7526 22.3085 58.7998C22.2769 58.847 22.2292 58.8852 22.1667 58.9129C22.2477 58.9309 22.3109 58.9691 22.3563 59.026C22.401 59.0837 22.4242 59.1556 22.4242 59.2417C22.4242 59.3586 22.3802 59.4574 22.2931 59.5383C22.206 59.6192 22.0951 59.6597 21.961 59.6597C21.8407 59.6597 21.7405 59.6245 21.6604 59.5548C21.5802 59.4859 21.5348 59.3953 21.5232 59.2844Z" fill="white"/>
</g>
<path id="Union" fill-rule="evenodd" clip-rule="evenodd" d="M8.23904 57.0464L8.23877 57.0467L9.67546 52.744L5.91309 50.0839H10.5625L11.9995 45.7798L11.9999 45.7822L12.0003 45.7798L13.4373 50.0839H18.087L18.0869 50.084L18.0873 50.0839L14.3251 52.7435L15.7618 57.0463L15.7621 57.0469L12.0004 54.3873L8.23877 57.0469L8.23904 57.0464Z" fill="white"/>
</g>
</g>
<g id="Contorno">
<g id="Vector_25">
<mask id="path-28-inside-1_828_5446" fill="white">
<path d="M0 45H56V84.9957H0V45Z"/>
</mask>
<path d="M0 45H56V84.9957H0V45Z" stroke="#8B99A7" stroke-width="0.2" stroke-miterlimit="2.6131" mask="url(#path-28-inside-1_828_5446)"/>
</g>
</g>
</g>
</g>
<rect x="-478.5" y="-156.5" width="1181" height="727" rx="4.5" stroke="#9747FF" stroke-dasharray="10 5"/>
</g>
</g>
<defs>
<linearGradient id="paint0_linear_828_5446" x1="32" y1="129" x2="153.279" y2="41.9306" gradientUnits="userSpaceOnUse">
<stop stop-color="#9285F9"/>
<stop offset="1" stop-color="#3B4AFF"/>
</linearGradient>
<clipPath id="clip0_828_5446">
<rect width="56" height="40" fill="white" transform="translate(0 45)"/>
</clipPath>
</defs>
</svg>
