<svg width="162" height="128" viewBox="0 0 162 128" fill="none" xmlns="http://www.w3.org/2000/svg">
<g id="&#195;&#141;cones">
<g id="Ilustra&#195;&#167;&#195;&#163;o UF">
<g id="Estado=PR">
<g id="UF">
<path id="pr" fill-rule="evenodd" clip-rule="evenodd" d="M41.4855 50.4279L52.4975 39.4175V29.6063L60.7837 21.3213H92.8382L104.177 32.7677H130.344V50.3188L136.995 56.9687V66.6708H150.296V76.9181H160L147.026 89.8907H134.814V96.3224H100.143V106.679H77.029V100.029H51.8433V83.2408H32L41.4855 73.7567V50.4279Z" fill="url(#paint0_linear_828_5446)" stroke="white" stroke-width="1.21084"/>
</g>
<g id="Bandeira do Estado/Paran&#195;&#161; - PR" clip-path="url(#clip0_828_5446)">
<g id="Group">
<path id="rect2635 1" d="M56 44H0V84H56V44Z" fill="white"/>
<path id="path43 1" d="M19.6091 44H56V64.3874L19.6091 44ZM37.4793 84H0V63.0032L37.4793 84Z" fill="#058D45"/>
<path id="Vector" d="M37.2956 64.5308C36.4053 68.3123 32.9987 71.1425 28.9519 71.1425C24.2309 71.1425 20.3809 67.2924 20.3809 62.5715C20.3809 62.1149 20.4176 61.6659 20.4869 61.2281C22.9956 60.9447 26.1764 61.1089 29.4791 61.792C32.5234 62.4225 35.2525 63.414 37.2956 64.5308Z" fill="#2B4CA0"/>
<path id="path35 1" d="M33.1837 61.276L33.3659 61.0841L33.6056 61.1651L33.3195 61.321L33.1837 61.276ZM30.6417 61.7679L30.9604 60.6351L31.1828 60.6975L31.4336 61.5843L31.6463 60.8284L31.859 60.888L31.5403 62.0208L31.311 61.9563L31.0622 61.0896L30.8544 61.8282L30.6417 61.7679ZM33.4809 62.6901L33.2356 62.6069L33.2246 62.3208L32.7791 62.1697L32.601 62.3921L32.3627 62.3111L33.1747 61.3446L33.4123 61.4249L33.4809 62.6901ZM33.2162 62.1088L33.2031 61.6432L32.9121 62.0055L33.2162 62.1088ZM29.8851 61.5309L29.6295 61.4928L29.5678 61.2129L29.1029 61.143L28.9671 61.3931L28.7177 61.3557L29.3461 60.2603L29.5948 60.2977L29.8851 61.5309ZM29.5214 61.0058L29.4258 60.5499L29.2041 60.958L29.5214 61.0058ZM27.0092 61.1256L27.1263 59.9548L27.6237 60.0046C27.7491 60.0171 27.8385 60.0372 27.8932 60.0635C27.948 60.0899 27.9895 60.1321 28.0179 60.1889C28.0464 60.2464 28.0574 60.3095 28.0505 60.3788C28.0415 60.4668 28.0089 60.5367 27.9514 60.5887C27.8939 60.6407 27.8129 60.6691 27.7089 60.6732C27.7574 60.7079 27.7962 60.7453 27.826 60.7841C27.8558 60.8229 27.8939 60.8908 27.941 60.9878L28.0609 61.2303L27.7782 61.2019L27.6327 60.9303C27.5808 60.8326 27.5454 60.7716 27.5253 60.7453C27.5053 60.7196 27.4831 60.7009 27.4588 60.6892C27.4346 60.6781 27.3958 60.6698 27.3411 60.6642L27.2932 60.6594L27.2441 61.1485L27.0092 61.1256ZM27.3133 60.4737L27.4879 60.491C27.6016 60.5021 27.6729 60.5049 27.702 60.4979C27.7311 60.491 27.7547 60.4765 27.7734 60.455C27.7914 60.4328 27.8025 60.4044 27.8059 60.3698C27.8101 60.3303 27.8025 60.2977 27.7838 60.2714C27.7651 60.2451 27.7367 60.227 27.6992 60.2166C27.6805 60.2125 27.623 60.2049 27.5267 60.1959L27.3424 60.1772L27.3133 60.4737ZM26.13 61.0342L25.8716 61.0176L25.7863 60.7439L25.3173 60.7134L25.203 60.9739L24.9515 60.9573L25.485 59.8134L25.7358 59.8294L26.13 61.0342ZM25.724 60.5416L25.5903 60.0954L25.4032 60.5208L25.724 60.5416ZM23.3164 60.9206L23.3316 59.7441L23.7127 59.749C23.8568 59.7511 23.951 59.758 23.9947 59.7705C24.0619 59.7892 24.118 59.828 24.1624 59.8876C24.2074 59.9471 24.2289 60.024 24.2275 60.1176C24.2268 60.1896 24.2129 60.2506 24.1859 60.2991C24.1589 60.3483 24.1256 60.3864 24.0848 60.4141C24.0439 60.4418 24.003 60.4598 23.9607 60.4681C23.9039 60.4785 23.8215 60.4834 23.7141 60.482L23.5596 60.4799L23.554 60.9233L23.3164 60.9206ZM23.5665 59.9464L23.5624 60.2797L23.6926 60.2811C23.7861 60.2825 23.8492 60.2769 23.8811 60.2651C23.9129 60.2534 23.9379 60.2347 23.9559 60.2083C23.9739 60.182 23.9836 60.1522 23.9836 60.1169C23.9843 60.0746 23.9718 60.0386 23.9469 60.0102C23.9226 59.9825 23.8908 59.9645 23.852 59.9568C23.8236 59.9506 23.7667 59.9478 23.6808 59.9464H23.5665Z" fill="#058D45"/>
<path id="Vector_2" d="M19.9801 70.3223C19.96 70.3577 19.96 70.3577 19.9669 70.4519C19.9898 70.4588 20.0119 70.4665 20.0424 70.481C20.1304 70.6812 20.2239 70.8641 20.2759 71.0845C20.3736 71.1039 20.4242 71.1953 20.5177 71.1634C20.5073 71.0096 20.4415 70.9106 20.4165 70.7665C20.402 70.7678 20.3867 70.7685 20.3722 70.7692C20.2981 70.6542 20.2316 70.5461 20.165 70.4394C20.1387 70.3722 20.1186 70.305 20.0999 70.2461C20.0944 70.1692 20.0971 70.0916 20.0992 70.0147C20.0764 70.0078 20.0611 70.0002 20.0466 70.0009C19.978 69.7563 20.0209 69.5131 19.908 69.2713C20.0396 68.8078 19.4798 68.5175 19.4043 69.2602C19.4348 69.2755 19.4729 69.29 19.511 69.3053C19.6309 69.6579 19.5907 69.721 19.308 69.7986C19.2942 69.8166 19.281 69.8346 19.2748 69.8526C19.0295 69.7307 18.9886 69.4501 19.1847 69.2914C19.2803 68.9596 19.2664 68.857 19.4875 68.6284C19.484 68.5771 19.4812 68.5342 19.4784 68.4919C19.0531 68.3298 18.9678 68.9277 19.0143 69.2852C18.9921 69.2866 18.9775 69.2873 18.9623 69.2886C18.8847 69.5595 18.6581 69.385 18.5126 69.3171C18.4718 69.148 18.4718 69.148 18.4808 69.0621C18.7974 68.9305 18.8376 68.8681 18.9983 68.5057C19.0759 68.4496 19.1542 68.4101 19.1999 68.3124C19.0842 68.1309 18.6387 68.1081 18.4503 68.1711C18.4413 68.1545 18.4406 68.1372 18.4392 68.1205C18.2625 68.1316 18.0928 68.1427 17.9237 68.1531C17.9251 68.1704 17.9258 68.187 17.9279 68.2134C17.6972 68.1933 17.5032 68.0603 17.2953 67.9446C17.206 67.9418 17.1256 67.9466 17.0445 67.9522C16.9919 67.7235 16.7348 67.5344 16.5845 67.3806C16.5485 67.1769 16.2845 66.6704 16.4141 66.4986C16.3496 66.4169 16.3496 66.4169 16.2651 66.3704C16.2242 66.0982 16.3351 65.9797 16.4951 65.8321C16.4674 65.7483 16.4466 65.6638 16.4265 65.5875C16.439 65.5522 16.4584 65.5169 16.4792 65.4899C16.6115 65.4815 16.7037 65.5273 16.8374 65.5356C16.8353 65.51 16.8346 65.4926 16.8332 65.476C17.0563 65.4961 17.2011 65.7705 17.3826 65.6132C17.3556 65.4344 17.3369 65.264 17.3182 65.0936C17.3743 65.0471 17.4304 65.0007 17.4859 64.9543C17.4568 64.6301 17.4318 64.3744 17.2378 64.1291C16.7778 64.1153 16.9981 64.7451 16.9517 65.0395C16.6566 65.273 16.6129 65.2758 16.3344 64.9931C16.3725 64.9044 16.412 64.8254 16.4508 64.7458C16.7452 64.7271 16.7633 64.5545 16.8242 64.2497C16.8388 64.249 16.854 64.2483 16.8686 64.2469C16.8665 64.2213 16.8658 64.204 16.8644 64.1873C16.879 64.1866 16.8935 64.1853 16.9157 64.1839C16.9372 64.0626 17.039 64.0391 17.1235 63.9733C17.1208 63.9303 17.118 63.8873 17.1152 63.8534C16.7189 63.6809 16.4674 64.1264 16.1425 64.2414C16.06 64.2206 15.9769 64.2005 15.9021 64.188C15.839 63.9088 15.7774 63.8783 15.997 63.7356C16.1813 63.7238 16.333 63.7827 16.5027 63.7723C16.6787 63.6324 16.9004 63.6352 17.1083 63.6393C17.3632 63.4689 16.6441 63.2312 16.606 63.216C16.4813 63.1211 16.4813 63.1211 16.1134 62.9299C15.8383 62.9132 15.6526 62.7871 15.5723 62.4837C15.5494 62.4767 15.5342 62.4691 15.5196 62.4698C15.5175 62.4442 15.5169 62.4276 15.5155 62.4102C15.3527 62.3008 15.3707 62.2391 15.3714 62.0333C15.2806 61.8934 15.2266 61.8622 15.1926 61.6932C15.2072 61.6835 15.221 61.6744 15.2425 61.6641C15.2321 61.6218 15.2217 61.5795 15.212 61.5373C14.9376 61.4174 15.027 60.7765 15 60.4862C15.0374 60.3809 15.1981 60.3532 15.2834 60.3047C15.3651 60.1966 15.3651 60.1966 15.4226 60.0643C15.6069 60.0525 15.7981 60.1433 15.9984 60.1481C16.0129 60.25 16.0912 60.7516 16.263 60.5604C16.2609 60.3117 16.2374 60.1842 16.4459 60.0941C16.4307 59.8717 16.3074 59.7941 16.2131 59.6112C16.1078 59.5835 16.1078 59.5835 15.9616 59.6098C15.8515 59.2994 15.9083 59.2613 16.1688 59.1761C16.2381 59.2149 16.3081 59.2613 16.385 59.3084C16.4473 59.4678 16.4141 59.6244 16.5201 59.7719C16.5554 59.7525 16.5984 59.7324 16.642 59.713C16.6475 59.6867 16.6538 59.6694 16.66 59.6521C16.6746 59.6507 16.6891 59.65 16.7044 59.6493C16.6766 59.4622 16.6711 59.0507 16.5658 58.9114C16.5984 58.626 16.5984 58.626 16.6489 58.5027C16.7813 58.486 16.879 58.5138 16.9808 58.5934C16.9877 58.696 16.9953 58.8068 17.003 58.9184C16.7709 59.0964 16.8083 59.2052 16.845 59.5294C16.8305 59.5301 16.8152 59.5315 16.8007 59.5322C16.802 59.6611 16.802 59.6611 16.8291 59.7366C16.881 59.7421 17.0355 59.7643 17.0882 59.7782C17.2967 59.5766 17.3577 59.2717 17.6418 59.2107C17.6321 59.1768 17.5205 59.1262 17.5108 59.1013C17.4374 59.1061 17.4831 59.0798 17.4097 59.093C17.4097 58.9814 17.2905 59.0126 17.3147 58.9426C17.5413 58.9024 17.8351 58.978 17.7471 59.3098C17.5926 59.4311 17.4187 59.3736 17.2843 59.5793C17.2559 59.7013 17.2274 59.8315 17.2067 59.9618C17.2898 60.1024 17.4062 60.3955 17.5829 60.3844C17.5912 60.401 17.6078 60.4253 17.6244 60.4502C17.639 60.4495 17.6542 60.4481 17.6764 60.4468C17.7187 60.6331 17.7685 60.8188 17.8184 61.0128C17.9785 61.08 17.9785 61.08 18.0194 61.1375C18.2625 61.019 17.9639 60.8666 17.8759 60.7689C17.8642 60.5978 17.86 60.4267 17.8558 60.2555C17.966 60.1371 18.0367 59.9777 18.2161 60.0013C18.7427 60.3456 18.7087 60.2874 18.7323 60.9553C18.7766 61.1673 18.8334 61.3606 18.6498 61.4839C18.62 61.7008 18.7267 61.6336 18.7018 61.8151C18.6872 61.8158 18.672 61.8172 18.6574 61.8179C18.539 62.2543 18.2293 62.7033 17.8981 62.9472C17.824 63.0546 17.824 63.0546 17.781 63.0747C17.7824 63.092 17.7831 63.1086 17.7845 63.1259C17.72 63.1557 17.6625 63.1855 17.6057 63.2146C17.4817 63.6774 17.7776 63.5645 18.036 63.4529C18.1593 63.0934 18.3062 63.0754 18.6263 63.2098C18.654 63.2936 18.6893 63.3774 18.7253 63.4696C18.5473 63.9012 17.9743 63.5257 17.6868 63.7585C17.5746 63.9629 17.6231 64.2345 17.7401 64.4333C18.0484 64.6114 18.3311 64.8594 18.5958 64.5081C18.627 64.4201 18.6581 64.3321 18.6893 64.2532C18.8958 64.24 19.4909 64.6141 19.6295 64.8116C19.6794 65.2204 19.8595 65.6977 20.1082 65.9825C20.1443 66.0746 20.1637 66.1508 20.156 66.2541C19.9378 66.748 19.6662 67.2205 19.653 67.788C19.705 67.7845 19.7639 67.781 19.8228 67.7769C19.82 67.7429 19.8186 67.7173 19.8165 67.6917C19.8311 67.6903 19.8463 67.6896 19.8685 67.6882C19.8831 67.4644 19.9586 67.2704 20.1304 67.1824C20.1318 67.1998 20.1325 67.2164 20.1346 67.242C20.2309 67.2448 20.2309 67.2448 20.4138 67.3272C20.5212 67.6037 20.3493 67.5801 20.3182 67.7713C19.8838 67.7991 19.9122 67.7887 19.7154 68.273C19.7466 68.7344 20.2579 68.3069 20.4034 68.7101C20.4318 68.6914 20.4671 68.672 20.5031 68.6519C20.5752 68.4074 20.9188 68.5653 21.0401 68.1718C21.0914 68.16 21.4863 68.3152 21.7329 68.3512C21.9345 68.4843 21.8992 68.8383 22.193 68.9145C22.2027 68.9485 22.2124 68.9817 22.2227 69.024C22.2373 69.0233 22.2525 69.0219 22.2747 69.0205C22.299 69.0531 22.3239 69.0947 22.3488 69.1362C22.5955 69.2838 22.5435 69.6129 22.8179 69.7244C22.8504 69.8769 22.8213 69.9905 22.8387 70.1436C22.9738 70.2808 22.9114 70.3452 22.9017 70.526C23.0701 70.833 22.8553 71.0443 22.7188 71.327C22.7237 71.5071 22.7209 71.6872 22.6883 71.8611C22.7486 71.8743 22.8283 71.9553 22.9973 72.0475C23.1068 72.0232 23.2232 71.999 23.3403 71.9741C23.4394 72.0191 23.4394 72.0191 23.6631 72.0392C23.871 71.8369 24.2119 72.0558 24.3587 71.9262C24.356 71.8923 24.3546 71.8667 24.3525 71.841C24.2895 71.7849 24.2264 71.7288 24.1641 71.681C24.1509 71.4842 24.1911 71.3103 24.1925 71.1129C24.4121 70.9701 24.464 71.0782 24.6878 71.1073C24.8964 70.6909 25.2712 71.0879 25.5199 71.2694C26.0063 71.3498 25.9613 71.559 26.2869 71.8902C26.5903 71.9997 26.5619 72.1299 26.6229 72.4784C26.6707 72.5269 26.6707 72.5269 26.8432 72.5588C27.0601 72.811 27.279 72.5484 27.4564 72.872C27.4869 72.9987 27.4869 72.9987 27.4647 73.1034C27.1391 73.3216 27.1086 73.7435 27.4404 73.9458C27.8416 73.9632 28.231 74.0331 28.6266 73.9736C28.6273 73.9909 28.6286 74.0075 28.63 74.0248C28.7582 74.0595 28.7582 74.0595 29.0901 74.047C29.2716 74.1038 29.4538 74.1696 29.6429 74.2348C30.0628 74.2084 30.4626 73.9853 30.8706 73.8994C31.0265 73.7948 31.1263 73.6341 30.9316 73.4837C30.8769 73.3327 30.8228 73.19 30.7688 73.0479C30.8367 72.8463 30.8519 72.6392 30.9656 72.4604C30.9947 72.362 31.0771 72.2269 31.1076 72.1071C31.1582 71.9075 31.1713 71.7295 31.3341 71.6817C31.3681 71.8597 31.4401 71.9408 31.5316 72.0814C31.5524 72.1743 31.5739 72.2761 31.6037 72.3773C31.6182 72.3766 31.6328 72.3752 31.6549 72.3738C31.6584 72.4251 31.6625 72.4847 31.6736 72.5443C31.8406 72.8255 31.6327 72.9246 31.5974 73.1671C31.5988 73.1844 31.5995 73.2011 31.6009 73.2184C31.5164 73.2835 31.4401 73.3576 31.3639 73.4304C31.384 73.5066 31.384 73.5066 31.4388 73.5544C31.5247 73.5149 31.5482 73.4186 31.6494 73.3867C31.6605 73.3258 31.6785 73.2648 31.6965 73.2038C31.718 73.1934 31.7394 73.1837 31.7685 73.1733C31.772 73.1131 31.7824 73.0521 31.7935 73.0001C32.284 72.7029 32.5404 72.8844 32.0789 72.2955C32.0949 72.1237 32.2563 71.9429 32.3339 71.7697C32.4441 71.5237 32.4849 71.2861 32.5646 71.0547C32.6013 71.0526 32.638 71.0498 32.6824 71.047C32.8293 71.2521 32.8293 71.2521 32.8902 71.3858C32.9048 71.3851 32.9193 71.3838 32.9415 71.3824C32.954 71.5701 33.0267 71.6602 33.1112 71.8092C33.1099 71.8951 33.1085 71.9893 33.1147 72.0835C32.9429 72.1715 32.6491 72.4133 32.5895 72.6315C32.9581 72.7195 33.0046 72.3288 33.2921 72.1992C33.29 72.1736 33.2893 72.1563 33.2879 72.1396C33.3738 72.1001 33.7764 71.9547 33.7978 71.8334C33.8124 71.8327 33.8276 71.8313 33.8498 71.8299C33.8332 71.6935 33.7521 71.5452 33.7431 71.417C33.5893 71.1177 33.7403 70.9958 33.8685 70.7048C34.0639 70.5295 34.0819 70.1942 34.3147 70.1367C34.3618 70.3909 34.5454 70.5939 34.6292 70.8461C34.4034 70.8946 34.3597 71.018 34.3036 71.2791C34.2184 71.336 34.1553 71.3831 34.1103 71.4801C34.1269 71.505 34.1505 71.5293 34.1747 71.5535C34.287 71.469 34.3306 71.4489 34.3639 71.2923C34.5205 71.205 34.5613 71.151 34.6459 70.9743C34.7262 70.9604 34.8807 70.9424 34.9022 70.8295C35.2493 70.7131 35.3629 70.7491 35.372 70.3362C35.2867 70.1699 35.2867 70.1699 35.2382 70.0016C35.2237 70.0023 35.2091 70.0036 35.1939 70.0043C35.1918 69.9704 35.1897 69.9448 35.1884 69.9191C35.2029 69.9184 35.2181 69.917 35.2327 69.9164C35.2507 69.6323 35.4211 69.4237 35.4308 69.1314C35.4454 69.1307 35.4599 69.1293 35.4752 69.1286C35.5064 68.9291 35.5673 68.7455 35.771 68.9041C36.0052 69.5242 36.0052 69.5242 36.0724 69.6406C36.3475 69.6572 36.4708 69.624 36.6869 69.43C36.6738 69.2332 36.4396 68.9478 36.3003 68.8535C36.3059 68.6041 36.3897 68.4275 36.4638 68.2078C36.4798 68.0097 36.5151 67.7582 36.6779 67.6536C36.8892 67.8289 37.0264 68.1032 37.0971 68.3824C37.2904 68.5071 37.7123 68.0686 37.7463 67.912C37.5357 67.6418 37.3791 67.4464 37.3534 67.0702C37.4497 66.1411 37.526 66.3552 37.6853 66.5769C37.8107 66.7584 38.2063 66.9718 38.1731 67.0903C37.9458 67.1097 37.9202 67.4977 37.9624 67.7187C38.0047 67.6903 38.0546 67.6612 38.1045 67.6328C38.1426 67.4561 38.2673 67.2822 38.2631 67.109L38.4065 66.8721C38.5624 66.8326 38.5659 66.6905 38.4807 66.4162C38.3643 66.3379 38.2555 66.2589 38.1467 66.1799C38.0518 65.8681 38.0463 65.2425 38.1204 64.9197C38.1495 64.9093 38.1855 64.8982 38.2222 64.8961C38.3684 65.0846 38.5139 65.2723 38.6677 65.4684C38.6871 65.7587 38.6269 65.8487 38.7647 66.1314C38.9047 66.1224 38.8423 65.749 38.8347 65.6374C39.1853 65.2377 39.1853 65.2377 39.2165 65.1587C39.0419 64.9806 38.7973 64.9792 38.6414 64.7575C38.5797 64.504 38.3567 64.046 38.489 63.8146C38.8132 63.7938 38.9566 63.9483 39.2158 64.1638C39.3585 64.5234 39.6647 63.8007 39.7098 63.7031C39.6897 63.4038 39.1603 63.3428 38.9851 63.1654C38.9012 62.9042 38.8167 62.6437 38.7322 62.3832C38.9345 62.2072 38.9525 62.2488 39.177 62.3978C39.5171 62.5052 39.6661 62.5211 39.682 62.9749C39.7278 63.101 39.7326 63.0864 39.786 63.2202C39.7756 63.2811 39.7721 63.3414 39.7693 63.41C39.7929 63.4342 39.8171 63.4585 39.8414 63.4917C39.8719 63.507 39.8483 63.4121 39.8795 63.4356C39.9502 63.3878 39.9883 63.4128 39.9744 63.3192C39.9592 63.3116 39.9654 63.2437 39.9502 63.2444C39.901 63.067 39.9349 63.0622 39.937 62.8737C39.9148 62.8751 39.9003 62.8758 39.8857 62.8772C39.8677 62.6125 39.9093 62.6181 40.0333 62.3791C39.9973 62.1754 39.9619 62.2031 39.8137 62.1955C39.8116 62.1698 39.8109 62.1525 39.8095 62.1359C39.5774 61.9876 39.5774 61.9876 39.1728 61.8075C39.1174 61.6481 39.1167 61.5227 39.098 61.3523C39.1125 61.3516 39.0959 61.3232 39.1181 61.3218C39.0917 61.1521 39.053 61.017 39.0474 60.8285C39.143 60.8223 39.1666 60.8382 39.258 60.8839C39.2594 60.9013 39.2601 60.9179 39.2622 60.9435C39.5206 61.0474 39.7513 61.0668 39.9592 61.2941C39.9682 61.5338 39.9211 61.8199 40.0666 62.0084C40.1026 61.9973 40.1393 61.9952 40.1836 61.9925C40.1899 61.9751 40.2037 61.9571 40.2169 61.9391C40.1774 61.4694 40.0472 61.0661 40.4095 60.7426C40.3499 60.6262 39.9356 60.6269 39.7728 60.5167C39.5227 60.5327 39.5317 60.4544 39.4541 60.1849C39.4396 60.1856 39.425 60.1869 39.4098 60.1876C39.346 60.0144 39.116 59.7858 39.1021 59.5807C39.4638 59.447 39.7333 59.6091 40.0091 59.6438C40.104 59.5177 40.1345 59.4214 40.183 59.2551C40.4518 59.075 40.1497 58.6565 40.5806 58.5692C40.7012 58.9308 40.8224 59.3001 40.9437 59.6708C40.9652 59.6992 40.9679 59.7671 41.0047 59.7782C41.2284 59.8461 41.7093 59.6133 41.9157 59.5627C41.933 59.596 41.967 59.589 41.9912 59.6216C41.773 59.8932 41.6504 60.0463 41.5478 60.3962C41.4404 60.4544 41.3337 60.5126 41.234 60.5708C40.8744 60.6193 40.634 60.7807 40.7421 61.2802C40.5883 61.2989 40.643 61.3467 40.6388 61.5012C40.5391 61.6703 40.3776 61.8012 40.51 62.007C40.7961 62.0714 40.7795 61.4791 40.9146 61.3204C40.9132 61.3031 40.9125 61.2865 40.9111 61.2691C40.9395 61.2504 40.9679 61.24 41.0047 61.229C41.0033 61.2116 41.0026 61.195 41.0012 61.1777C41.1294 61.1098 41.5035 60.8368 41.6317 60.8715C41.71 61.15 41.385 61.5996 41.2943 61.8968C41.0261 62.0853 40.6603 62.1518 40.4802 62.4379C40.501 62.5225 40.5211 62.607 40.5418 62.6915C40.5564 62.6901 40.5716 62.6894 40.5862 62.6888C40.5876 62.7061 40.589 62.7227 40.5903 62.7483C40.8273 62.7504 41.1765 62.7712 41.3732 62.6215C41.4176 62.6188 41.4619 62.616 41.5063 62.6215C41.5097 62.6728 41.5208 62.7234 41.5312 62.7747C41.4529 62.9257 41.3538 63.0005 41.227 63.0941C40.979 63.4786 40.979 63.4786 40.9167 63.534C40.5515 63.6088 40.1054 63.4654 40.1421 64.0037C40.203 64.1375 40.264 64.2795 40.3257 64.4208C40.5238 64.4 40.8287 64.3121 41.0414 64.2809C41.0649 64.6224 40.6284 64.9592 40.4116 65.1448C39.8185 65.2342 39.7278 65.0936 39.6516 65.7164C39.6758 65.749 39.7001 65.7822 39.7319 65.8141C39.8559 65.7892 39.9266 65.7414 40.0326 65.6665C40.2238 65.6457 40.4144 65.625 40.6132 65.6042C40.6229 65.7497 40.5051 65.8688 40.422 65.9513C40.3042 66.5083 39.6287 66.5852 39.2075 66.6982C39.2088 66.7155 39.2095 66.7321 39.2109 66.7494C38.9844 66.7896 38.9857 66.8152 38.9747 67.082C38.8423 67.3134 38.3012 67.6224 38.3733 67.9265C38.5943 67.9127 38.7765 67.6522 38.8804 67.4395C39.1423 67.3716 39.4714 67.3162 39.7305 67.4284C39.7361 67.5053 39.7319 67.5573 39.6994 67.6189C39.4368 67.7901 39.2213 67.9924 38.9816 68.1621C38.7315 68.178 38.4807 68.194 38.2375 68.2092C38.1273 68.3277 38.0671 68.7482 38.1093 68.9346C38.3622 68.9526 38.6497 68.8355 38.8797 68.9492C38.8818 68.9748 38.8839 69.0087 38.8936 69.0427C38.8181 69.1244 38.7426 69.2152 38.6747 69.3053C38.3179 69.4993 38.2382 69.7452 37.7809 69.6538C37.4553 69.7605 37.2086 69.5097 36.9932 69.9267C37.0049 70.0979 36.9876 70.2787 37.0853 70.4103C37.2786 70.4242 37.4719 70.4374 37.6652 70.4505C37.6666 70.4678 37.668 70.4845 37.6694 70.5101C37.6839 70.5094 37.6985 70.508 37.7137 70.5073C37.7158 70.533 37.7172 70.5586 37.7193 70.5926C37.6403 70.623 37.5613 70.6625 37.4899 70.7013C37.1788 70.9182 36.829 71.2064 36.4604 71.23C36.1666 71.1544 35.8632 71.045 35.5743 71.1489C35.3013 71.381 35.1218 71.5722 34.7941 71.6533C34.7248 71.726 34.6694 71.7814 34.5752 71.8043C34.5773 71.8383 34.58 71.8729 34.5828 71.9152C34.677 71.8833 34.7276 71.8715 34.8336 71.8992C35.2036 71.6782 35.4343 71.5951 35.8424 71.8265C35.938 71.8202 36.0336 71.8057 36.1001 71.9131C36.0717 72.1466 35.1849 72.4944 34.9528 72.5609C34.6473 72.4175 34.4422 72.2325 34.1131 72.2879C34.0071 72.3634 33.9122 72.4895 33.75 72.6115C33.6336 72.6447 33.3032 72.6738 33.2637 72.865C33.1764 72.8879 32.9457 72.971 33.0219 73.1207C33.0946 73.1075 33.1681 73.0944 33.2491 73.0895C33.2602 73.0369 33.3212 72.9821 33.3323 72.9295C33.4265 72.9066 33.4729 72.8948 33.5754 72.8796C33.8713 72.6634 34.314 72.9703 34.6299 73.0445C34.6313 73.0618 34.6327 73.0784 34.6341 73.1041C34.7082 73.1082 34.7082 73.1082 34.7262 73.1498C34.5184 73.2489 34.3188 73.3646 34.0909 73.3791C33.7119 73.5745 33.5838 73.6431 33.1861 73.4623C32.8078 73.4435 32.6734 73.323 32.5487 73.7775C32.2189 73.9271 32.0096 73.6833 31.6923 74.0207C31.7159 74.0449 31.7401 74.0692 31.7644 74.1017C32.0519 74.0837 32.408 74.2036 32.5812 73.9181C32.6658 73.9639 32.76 73.9445 32.8452 73.9992C33.1694 73.9784 33.5117 74.2313 33.8366 74.3227C33.8387 74.3484 33.8408 74.383 33.8429 74.417C33.6018 74.4578 33.3295 74.5957 33.1168 74.7294C32.927 74.7669 32.5147 74.9137 32.4226 74.9705C32.0782 74.9151 31.8794 74.593 31.5794 74.4322C31.4187 74.1336 31.1859 74.0879 30.9171 74.268C30.8436 74.2729 30.7702 74.286 30.6974 74.2992C30.6954 74.2736 30.6947 74.2562 30.6933 74.2396C30.4868 74.3643 30.3025 74.3761 30.3212 74.6491C30.554 74.8147 30.9254 75.1597 31.181 75.2123C31.1817 75.2297 31.1831 75.2463 31.1852 75.2719C31.3328 75.2622 31.5863 75.5123 31.7103 75.5989C32.0096 75.7604 32.3166 75.9211 32.6235 76.0818C32.6249 76.0992 32.6263 76.1241 32.6283 76.1504C32.5771 76.219 32.4919 76.2523 32.4711 76.2481C32.4586 76.2454 32.5043 76.2197 32.496 76.2052C32.4815 76.1816 32.4683 76.1497 32.4441 76.131C32.415 76.1082 32.3512 76.1012 32.3484 76.0569C32.124 76.0195 31.6314 75.8539 31.4554 76.0881C31.5662 76.3042 31.9113 76.2322 32.108 76.289C32.2473 76.2717 32.4129 76.2142 32.4364 76.2377C32.3145 76.3999 31.7595 76.3174 31.6037 76.3105C31.0515 76.0195 30.7113 75.4832 30.157 75.1666C30.0108 74.9782 29.7822 74.8729 29.582 74.7565C29.3139 74.8424 29.0367 74.9026 28.8379 75.1299C28.3785 75.3391 27.9053 75.6696 27.6421 76.1581C27.4598 76.307 26.0783 76.6694 26.1587 76.1061C26.2987 76.0971 26.4254 76.0036 26.5224 75.9031C26.7393 75.8297 26.8896 75.6391 27.0795 75.4985C27.0781 75.4812 27.0767 75.4645 27.0836 75.4465C27.2901 75.4334 27.428 75.2872 27.6324 75.2484C28.0806 74.9879 28.0806 74.9879 28.312 74.8015C28.5594 74.7343 28.5594 74.7343 28.9169 74.5576C28.9134 74.5063 28.9099 74.4551 28.9072 74.4121C28.1153 74.2992 28.1153 74.2992 28.0307 74.2535C27.8049 74.302 27.3296 74.392 27.1204 74.2507C26.8772 74.2659 26.9146 74.4869 27.0157 74.6782C27.1384 74.7391 27.261 74.8084 27.3919 74.877C27.4169 75.2442 27.1952 75.2588 26.9513 75.1625C26.9049 74.9165 26.8335 74.6123 26.7088 74.4059C26.6569 74.4094 26.6056 74.4121 26.5612 74.4149C26.4684 74.6782 26.6035 74.9269 26.4407 75.1438C26.0714 75.1583 26.0714 75.1583 26.0257 75.1354C25.9231 74.7128 26.3887 74.7093 26.3631 74.3331C26.0686 74.3518 25.9024 74.5167 25.6952 74.7447C25.3197 74.8798 24.931 74.9304 24.5299 74.913C24.2929 74.7994 24.1585 74.6705 23.8932 74.6872C23.7504 74.55 23.7089 74.4759 23.5273 74.3158C23.2925 74.2361 23.201 74.1904 23.1026 73.9396C22.9772 73.8357 22.7638 73.738 22.7147 73.5606C22.82 73.3653 22.6377 73.1879 22.7119 72.9773C22.7472 72.9579 22.7909 72.9468 22.8345 72.935C22.8359 72.9523 22.8366 72.969 22.8387 72.9946C22.9849 72.9683 23.1691 72.9565 23.2641 72.8304C23.2107 72.6967 23.226 72.5928 23.1726 72.4674C23.0715 72.3967 23.0715 72.3967 22.6752 72.2242C22.389 71.9332 22.1978 72.0572 21.956 72.4154C22.0142 72.944 22.0689 72.9918 21.5805 72.9884C21.4489 72.5761 21.7752 72.581 21.8105 72.2269C21.8916 72.1189 22.0038 72.026 22.0364 71.9553C22.0107 71.9055 21.9927 71.8549 21.9747 71.8133C21.886 71.8189 21.798 71.8244 21.717 71.8299C21.6401 71.6803 21.2992 71.8909 21.2001 71.9567C21.0588 71.9484 20.9258 71.9484 20.7927 71.9484C20.6867 71.6976 20.5523 71.7835 20.3389 71.8057C20.3376 71.7884 20.3362 71.7717 20.3355 71.7544C20.1027 71.7087 19.9558 71.5036 19.714 71.4246C19.6967 71.3831 19.6787 71.3415 19.669 71.3076C19.5408 71.2729 19.2186 70.8815 19.1424 70.7401C19.1577 70.5247 19.1937 70.2988 19.1639 70.0778C19.369 70.0473 19.7182 69.854 19.8983 69.9967C19.9212 70.1034 19.9503 70.2129 19.9801 70.3223Z" fill="#058D45"/>
<g id="Group_2">
<path id="Vector_3" d="M36.758 68.6183L36.8155 68.603L36.8717 68.707L36.8266 68.7665L36.749 68.7714L36.758 68.6183Z" fill="white"/>
<path id="Vector_4" d="M26.618 76.3294C26.5542 76.265 26.4953 76.2684 26.4136 76.2567C26.4184 76.222 26.424 76.1874 26.4295 76.161C26.5958 76.1077 27.0891 75.956 27.2436 76.0578C27.238 76.0841 27.2623 76.1562 27.2567 76.1818C27.1833 76.1867 27.1618 76.1922 27.1362 76.2539C26.9609 76.2913 26.7849 76.2844 26.618 76.3294Z" fill="white"/>
<path id="Vector_5" d="M26.2583 75.065C26.2022 74.9999 26.2022 74.9999 26.1904 74.9403C26.275 74.772 26.3193 74.8724 26.3283 75.0089C26.2999 75.0276 26.2791 75.0463 26.2583 75.065Z" fill="white"/>
<path id="Vector_6" d="M25.2726 74.4921C24.9456 74.3667 24.6303 74.4041 24.3372 74.2254C24.3026 74.039 24.3026 74.039 24.3137 73.9863C24.4405 74.0043 24.4433 74.0383 24.5312 74.1443C24.7758 74.1457 24.9885 74.2267 25.2255 74.2288C25.4139 74.2773 25.5843 74.172 25.7444 74.2475C25.7472 74.2815 25.7492 74.3161 25.7589 74.3494C25.6107 74.454 25.4486 74.4727 25.2726 74.4921Z" fill="white"/>
<path id="Vector_7" d="M23.9477 74.0531C23.8161 73.9671 23.7842 73.9346 23.7212 73.7669C23.7704 73.6179 23.9401 73.7184 24.0253 73.7738C24.0302 73.8424 24.035 73.9193 24.0406 73.9963C24.0046 74.015 23.9762 74.0344 23.9477 74.0531Z" fill="white"/>
<path id="Vector_8" d="M26.9031 73.6595C26.8199 73.5188 26.7818 73.401 26.8213 73.2181C26.8788 73.1974 26.9072 73.1696 26.9689 73.2084C26.9786 73.3546 26.9841 73.5514 26.9031 73.6595Z" fill="white"/>
<path id="Vector_9" d="M23.5887 73.6723C23.4328 73.5538 23.1266 73.2981 23.3033 73.064C23.34 73.0619 23.3767 73.0591 23.4218 73.0654C23.4495 73.1492 23.4315 73.2108 23.4446 73.2954C23.5583 73.4429 23.6199 73.4734 23.6712 73.5815C23.6442 73.6085 23.6165 73.6362 23.5887 73.6723Z" fill="white"/>
<path id="Vector_10" d="M21.7593 72.8867C21.7357 72.8708 21.7129 72.8555 21.6976 72.8479C21.6928 72.7793 21.6928 72.7793 21.7253 72.7087C21.7551 72.7066 21.7842 72.7045 21.814 72.7031C21.8237 72.7364 21.8341 72.7786 21.8438 72.8216C21.8154 72.8403 21.7877 72.8597 21.7593 72.8867Z" fill="white"/>
<path id="Vector_11" d="M25.6992 72.268C25.5641 72.1308 25.3105 72.207 25.136 72.1495C25.057 72.0775 25.057 72.0775 24.9274 72.0165C24.9253 71.9825 24.9233 71.9569 24.9219 71.9313C25.0424 71.8551 25.7588 71.9472 25.7491 72.2396C25.7276 72.2493 25.7131 72.259 25.6992 72.268Z" fill="white"/>
<path id="Vector_12" d="M23.7203 72.3333C23.6905 72.3264 23.6677 72.3195 23.6448 72.3125C23.6351 72.2786 23.6261 72.2536 23.624 72.228C23.6891 72.2065 23.7543 72.1851 23.827 72.1636C23.8748 72.2121 23.8748 72.2121 23.8776 72.255C23.8298 72.3098 23.8298 72.3098 23.7203 72.3333Z" fill="white"/>
<path id="Vector_13" d="M24.6743 71.9986C24.6348 71.9584 24.6251 71.9245 24.6348 71.8552C24.7152 71.8413 24.7699 71.7783 24.8475 71.833C24.8281 71.8774 24.817 71.9293 24.806 71.9813C24.7623 71.9841 24.718 71.9868 24.6743 71.9986Z" fill="white"/>
<path id="Vector_14" d="M21.1412 71.7248C21.0705 71.6604 21.0068 71.596 20.9437 71.5398C20.9417 71.5142 20.9486 71.4969 20.9541 71.4789C21.0982 71.4186 21.304 71.508 21.4613 71.5412C21.4633 71.5752 21.4661 71.6098 21.4689 71.6521C21.3601 71.6763 21.2507 71.7006 21.1412 71.7248Z" fill="white"/>
<path id="Vector_15" d="M21.7267 71.627C21.6969 71.6201 21.6664 71.6138 21.6366 71.6069C21.6345 71.573 21.6318 71.5383 21.6304 71.5127C21.6664 71.5016 21.7107 71.4989 21.7551 71.4961C21.7572 71.53 21.7599 71.5647 21.7627 71.6069C21.7475 71.609 21.7336 71.6187 21.7267 71.627Z" fill="white"/>
<path id="Vector_16" d="M36.6412 70.2871C36.7112 70.2309 36.7112 70.2309 36.7846 70.2178C36.7874 70.2607 36.7978 70.303 36.8082 70.3453C36.7867 70.355 36.7652 70.3653 36.7506 70.3744C36.7389 70.418 36.7347 70.47 36.7313 70.5212C36.7022 70.5316 36.6737 70.5503 36.646 70.5697C36.5248 70.6376 36.4832 70.6743 36.3426 70.6834C36.2456 70.7838 36.2456 70.7838 36.1881 70.8046C36.1569 70.781 36.1257 70.7568 36.0952 70.7422C36.0925 70.5877 36.5227 70.3889 36.6412 70.2871Z" fill="white"/>
<path id="Vector_17" d="M35.7203 70.5602C35.7099 70.518 35.7078 70.484 35.7051 70.4494C35.7272 70.448 35.757 70.4459 35.7861 70.4438C35.7882 70.4695 35.7903 70.5034 35.7924 70.5381C35.7633 70.5402 35.7418 70.5505 35.7203 70.5602Z" fill="white"/>
<path id="Vector_18" d="M20.542 71.5053C20.5794 71.4 20.5794 71.4 20.5905 71.2364C20.6196 71.2261 20.6556 71.215 20.6923 71.2129C20.763 71.2683 20.763 71.2683 20.799 71.3695C20.7471 71.4748 20.6438 71.4817 20.542 71.5053Z" fill="white"/>
<path id="Vector_19" d="M22.353 71.2615C22.3502 71.2186 22.3474 71.1763 22.3523 71.1417C22.3737 71.132 22.3952 71.1216 22.4167 71.1119C22.4298 71.0856 22.4423 71.0585 22.4562 71.0405C22.479 71.0481 22.5019 71.0551 22.5317 71.0613C22.5275 71.2158 22.4825 71.3135 22.3834 71.3883C22.3737 71.3461 22.3633 71.3038 22.353 71.2615Z" fill="white"/>
<path id="Vector_20" d="M35.8095 70.3481C35.7084 70.0544 35.8414 70.0544 35.9135 69.8091C35.9578 69.8063 36.0021 69.8036 36.0458 69.8008C36.0513 69.9892 35.9363 70.1514 35.8816 70.3259C35.8525 70.3287 35.831 70.3384 35.8095 70.3481Z" fill="white"/>
<path id="Vector_21" d="M22.5423 70.7778C22.5292 70.6925 22.516 70.608 22.5035 70.5311C22.4647 70.4993 22.4252 70.4674 22.3941 70.4438C22.3913 70.4009 22.3885 70.3586 22.3857 70.324C22.5111 70.3157 22.6483 70.376 22.7031 70.527C22.676 70.563 22.649 70.599 22.622 70.635C22.6303 70.6517 22.6393 70.6766 22.649 70.7022C22.6947 70.8283 22.6795 70.9322 22.559 70.9052C22.5486 70.863 22.5451 70.8207 22.5423 70.7778Z" fill="white"/>
<path id="Vector_22" d="M37.5545 69.3541C37.513 69.2882 37.513 69.2882 37.5234 69.219C37.6952 69.131 37.7423 68.8448 37.9827 68.8982C37.9945 68.9259 38.045 68.9515 38.0326 68.9758C37.9896 69.0631 37.7762 69.1393 37.7568 69.2813C37.6841 69.3028 37.619 69.3243 37.5545 69.3541Z" fill="white"/>
<path id="Vector_23" d="M22.2266 69.7248C22.2252 69.7074 22.2238 69.6908 22.2315 69.6818C22.2536 69.6804 22.2758 69.679 22.298 69.6776C22.3548 69.6395 22.361 69.6222 22.4428 69.634C22.4809 69.7601 22.4809 69.7601 22.4733 69.864C22.4095 69.9021 22.3188 69.9853 22.2432 69.9645C22.2419 69.9388 22.2398 69.9132 22.2384 69.8959C22.1934 69.8813 22.1476 69.8675 22.1026 69.8529C22.0486 69.7102 22.0486 69.7102 22.0396 69.582C22.1019 69.6298 22.1643 69.6776 22.2266 69.7248Z" fill="white"/>
<path id="Vector_24" d="M37.0818 68.8085C37.0714 68.7663 37.061 68.724 37.0513 68.6818C37.0804 68.6714 37.1164 68.6603 37.1531 68.6582C37.1552 68.6921 37.1587 68.7351 37.1614 68.778C37.1316 68.7884 37.1032 68.7988 37.0818 68.8085Z" fill="white"/>
<path id="Vector_25" d="M21.6145 69.0942C21.6768 69.142 21.8189 69.1587 21.9574 69.2356C21.9602 69.2785 21.9713 69.3291 21.9817 69.3797C21.9297 69.3831 21.8791 69.3949 21.8279 69.4067C21.8189 69.3818 21.8106 69.3651 21.8015 69.3485C21.742 69.3437 21.6831 69.3478 21.6318 69.3506C21.6131 69.2917 21.5944 69.2328 21.5757 69.1739C21.5882 69.1476 21.6013 69.1206 21.6145 69.0942Z" fill="white"/>
<path id="Vector_26" d="M18.6706 69.3326C18.6484 69.2224 18.6484 69.2224 18.6734 69.1524C18.7101 69.1504 18.7468 69.1476 18.7842 69.1455C18.787 69.1885 18.7898 69.2307 18.7932 69.2737C18.7496 69.2931 18.7066 69.3132 18.6706 69.3326Z" fill="white"/>
<path id="Vector_27" d="M21.5618 68.8656C21.3858 68.8857 21.365 68.9128 21.2632 68.9363C21.1703 68.8733 21.0775 68.8192 20.9854 68.7652C20.9902 68.7215 20.9951 68.6876 21.0075 68.6523C21.1773 68.6412 21.3796 68.68 21.5327 68.7562C21.5417 68.7901 21.5514 68.8241 21.5618 68.8656Z" fill="white"/>
<path id="Vector_28" d="M18.8547 68.0077C18.7515 67.9024 18.6282 67.9446 18.5132 67.8837C18.5679 67.4853 19.1436 67.9031 18.8547 68.0077Z" fill="white"/>
<path id="Vector_29" d="M18.2519 67.8485C18.0171 67.7688 17.8834 67.6489 17.6665 67.5083C17.6707 67.4563 17.6707 67.4563 17.7323 67.3843C17.8591 67.4023 17.8681 67.4182 17.963 67.5159C18.1071 67.5672 18.2513 67.6261 18.3961 67.6857C18.3912 67.7203 18.3857 67.7549 18.3884 67.7979C18.3379 67.809 18.2949 67.8284 18.2519 67.8485Z" fill="white"/>
<path id="Vector_30" d="M19.3383 67.5047C19.2905 67.4562 19.2621 67.3633 19.3175 67.3086C19.3404 67.3155 19.3632 67.3231 19.3854 67.3301C19.3882 67.364 19.3903 67.3987 19.4 67.4319C19.3792 67.4506 19.3591 67.4777 19.3383 67.5047Z" fill="white"/>
<path id="Vector_31" d="M39.3694 66.1062C39.3666 66.0632 39.3708 66.0202 39.3764 65.9856C39.3985 65.9842 39.4207 65.9828 39.4429 65.9814C39.4844 66.0473 39.5891 66.1193 39.5801 66.2059C39.5586 66.2163 39.4886 66.2191 39.474 66.2288C39.411 66.2759 39.3639 66.3473 39.2974 66.3514C39.3036 66.2225 39.3015 66.1962 39.3694 66.1062Z" fill="white"/>
<path id="Vector_32" d="M17.4573 67.2637C17.4109 67.2325 17.3714 67.2006 17.3326 67.1688C17.3229 67.0323 17.3597 66.918 17.3881 66.7877C17.4165 66.769 17.4456 66.7586 17.4816 66.7476C17.483 66.7649 17.4837 66.7815 17.4858 66.8071C17.5003 66.8058 17.5155 66.8051 17.5377 66.8037C17.553 66.9228 17.5758 67.0413 17.5994 67.1688C17.5446 67.2325 17.5446 67.2325 17.4573 67.2637Z" fill="white"/>
<path id="Vector_33" d="M16.8294 67.2778C16.8266 67.2438 16.8321 67.2092 16.8377 67.1829C16.8813 67.1711 16.925 67.16 16.9693 67.1572C16.9714 67.1912 16.9741 67.2258 16.9769 67.2681C16.925 67.2722 16.8737 67.275 16.8294 67.2778Z" fill="white"/>
<path id="Vector_34" d="M19.6701 66.6084C19.6057 66.5267 19.6292 66.4394 19.6528 66.3521C19.6673 66.3514 19.6826 66.35 19.7048 66.3486C19.7061 66.366 19.7068 66.3826 19.7089 66.4082C19.7235 66.4075 19.7387 66.4151 19.7616 66.4221C19.7574 66.465 19.7602 66.508 19.7637 66.5593C19.7262 66.571 19.6985 66.5897 19.6701 66.6084Z" fill="white"/>
<path id="Vector_35" d="M17.1957 66.4647C17.15 66.4501 17.1126 66.4356 17.0745 66.421C17.062 66.2416 17.2041 66.2582 17.3315 66.2762C17.3343 66.3192 17.3371 66.3614 17.3405 66.4044C17.2893 66.4245 17.2394 66.4446 17.1957 66.4647Z" fill="white"/>
<path id="Vector_36" d="M39.3439 64.8464C39.2213 64.7855 39.2615 64.534 39.2601 64.4051C39.3114 64.3933 39.3654 64.3718 39.4243 64.3677C39.4188 64.5055 39.4534 64.6095 39.4485 64.7557C39.4264 64.757 39.3585 64.8457 39.3439 64.8464Z" fill="white"/>
<path id="Vector_37" d="M39.9697 64.8071C39.9558 64.602 40.0445 64.3262 40.2246 64.2632C40.2323 64.293 40.2953 64.4302 40.2974 64.4565C40.3043 64.5362 40.1824 64.5985 40.1609 64.683C40.1394 64.6934 40.1256 64.7024 40.111 64.7121C40.1124 64.7295 40.1138 64.7461 40.1152 64.7717C40.0646 64.7835 40.0133 64.7953 39.9697 64.8071Z" fill="white"/>
<path id="Vector_38" d="M19.2977 65.8081C19.2873 65.7658 19.2845 65.7236 19.2817 65.6806C19.3039 65.6792 19.3337 65.6772 19.3628 65.6758C19.3656 65.7097 19.3676 65.7444 19.3697 65.7783C19.3406 65.7887 19.3198 65.7984 19.2977 65.8081Z" fill="white"/>
<path id="Vector_39" d="M40.3766 63.1677C40.3662 63.0139 40.308 62.9148 40.4646 62.8275C40.59 62.8199 40.6087 62.9232 40.6302 63.0243C40.5623 63.1144 40.4777 63.1352 40.3766 63.1677Z" fill="white"/>
<path id="Vector_40" d="M18.2755 63.4954C18.2527 63.4885 18.2374 63.4809 18.2222 63.4732C18.2263 63.4296 18.2312 63.3866 18.2353 63.3437C18.2866 63.3402 18.3386 63.3368 18.3898 63.334C18.3857 63.3769 18.3808 63.4206 18.3836 63.4629C18.3476 63.4739 18.3115 63.485 18.2755 63.4954Z" fill="white"/>
<path id="Vector_41" d="M16.6906 63.0391C16.6858 62.9705 16.6816 62.9019 16.6768 62.834C16.7065 62.8409 16.737 62.8471 16.7744 62.8534C16.7855 62.904 16.8035 62.9545 16.8223 63.0134C16.7779 63.0162 16.7343 63.0273 16.6906 63.0391Z" fill="white"/>
<path id="Vector_42" d="M17.3434 62.5246C17.333 62.4823 17.3302 62.4394 17.3281 62.4054C17.3579 62.4034 17.387 62.4013 17.4168 62.3999C17.4189 62.4255 17.421 62.4595 17.4231 62.4941C17.394 62.5045 17.3649 62.5149 17.3434 62.5246Z" fill="white"/>
<path id="Vector_43" d="M18.1382 62.0196C18.0495 61.8021 18.1063 61.764 18.123 61.5741C18.0765 61.5429 18.0301 61.5111 17.9913 61.4882C17.9809 61.4459 17.9788 61.412 17.9761 61.3774C18.0267 61.3573 18.0772 61.3455 18.1285 61.333C18.3765 61.4972 18.247 61.7716 18.1888 61.9988C18.1666 62.0009 18.1521 62.0106 18.1382 62.0196Z" fill="white"/>
<path id="Vector_44" d="M40.7334 60.4671C40.7105 60.4512 40.6946 60.4353 40.6786 60.4277C40.6634 60.2053 40.8061 60.1034 40.8518 59.9025C40.8802 59.8838 40.9087 59.8734 40.9454 59.8623C41.0569 59.9752 40.8629 60.3043 40.8283 60.4436C40.8061 60.4457 40.7548 60.4574 40.7334 60.4671Z" fill="white"/>
<path id="Vector_45" d="M40.3045 60.4685C40.1597 60.4006 40.0883 60.1644 40.0904 59.9752C40.2837 59.7743 40.4077 59.9932 40.4036 60.26C40.3994 60.3119 40.3862 60.3688 40.3904 60.429C40.362 60.4394 40.3329 60.4498 40.3045 60.4685Z" fill="white"/>
<path id="Vector_46" d="M15.9344 61.9275C15.7813 61.7398 15.5734 61.2985 15.942 61.2749C15.9857 61.4779 15.906 61.7232 15.9864 61.9241C15.9642 61.9262 15.949 61.9269 15.9344 61.9275Z" fill="white"/>
<path id="Vector_47" d="M15.9162 60.8994C15.8088 60.846 15.8531 60.6202 15.9938 60.7317C15.9889 60.7747 15.9924 60.8176 15.9952 60.8606C15.9661 60.8703 15.9377 60.8807 15.9162 60.8994Z" fill="white"/>
<path id="Vector_48" d="M18.3094 60.7212C18.299 60.6789 18.2962 60.6367 18.2935 60.5937C18.3156 60.5923 18.3447 60.5903 18.3745 60.5889C18.3766 60.6228 18.3794 60.6575 18.3814 60.6914C18.3523 60.7018 18.3309 60.7115 18.3094 60.7212Z" fill="white"/>
</g>
<path id="Vector_49" d="M28.9516 54C33.5998 54 37.4042 57.7323 37.5199 62.3534C35.519 61.3093 32.9125 60.3844 30.0255 59.7872C26.7367 59.1062 23.569 58.942 21.0645 59.2198C22.3739 56.1561 25.4189 54 28.9516 54Z" fill="#2B4CA0"/>
<path id="Vector_50" d="M29.0639 55.1182L29.3902 56.1228L30.4447 56.1214L29.5891 56.7359L29.9175 57.7447L29.0653 57.126L29.0632 57.1267L29.0625 57.126L28.2103 57.7447L28.5429 56.7463L27.6831 56.1214L28.7369 56.1228L29.0639 55.1182Z" fill="white"/>
<path id="Vector_51" d="M29.2832 63.4614L29.4613 64.2034L30.2199 64.2616L29.5694 64.6552L29.7488 65.4L29.1703 64.906L29.1689 64.9067L29.1682 64.906L28.5197 65.303L28.8163 64.6039L28.2329 64.1051L28.9915 64.166L29.2832 63.4614Z" fill="white"/>
<path id="Vector_52" d="M33.2809 63.7446L33.5545 64.5351L34.3894 64.5178L33.7215 65.0174L33.9972 65.8113L33.3127 65.3347L33.3114 65.3354L33.3107 65.3347L32.6449 65.8377L32.8929 65.0416L32.2021 64.5601L33.0377 64.5455L33.2809 63.7446Z" fill="white"/>
<path id="Vector_53" d="M28.8701 67.8447L29.0772 68.602L29.8601 68.638L29.204 69.0634L29.4119 69.8241L28.8008 69.335H28.8001H28.7994L28.1447 69.7646L28.4267 69.035L27.8101 68.5417L28.5929 68.5791L28.8701 67.8447Z" fill="white"/>
<path id="Vector_54" d="M23.4373 62.4512L23.6715 63.2604L24.5119 63.286L23.8142 63.7537L24.0504 64.5664L23.3867 64.0509L23.3853 64.0516H23.3846L22.6897 64.5227L22.98 63.7357L22.3101 63.2154L23.1512 63.2438L23.4373 62.4512Z" fill="white"/>
</g>
<g id="Contorno">
<g id="Vector_55">
<mask id="path-60-inside-1_828_5446" fill="white">
<path d="M0 44H56V83.9957H0V44Z"/>
</mask>
<path d="M0 44H56V83.9957H0V44Z" stroke="#8B99A7" stroke-width="0.2" stroke-miterlimit="2.6131" mask="url(#path-60-inside-1_828_5446)"/>
</g>
</g>
</g>
</g>
<rect x="-226.5" y="-299.5" width="1181" height="727" rx="4.5" stroke="#9747FF" stroke-dasharray="10 5"/>
</g>
</g>
<defs>
<linearGradient id="paint0_linear_828_5446" x1="32" y1="106.679" x2="110.8" y2="-11.488" gradientUnits="userSpaceOnUse">
<stop stop-color="#9285F9"/>
<stop offset="1" stop-color="#3B4AFF"/>
</linearGradient>
<clipPath id="clip0_828_5446">
<rect width="56" height="40" fill="white" transform="translate(0 44)"/>
</clipPath>
</defs>
</svg>
