<svg width="161" height="128" viewBox="0 0 161 128" fill="none" xmlns="http://www.w3.org/2000/svg">
<g id="&#195;&#141;cones">
<g id="Ilustra&#195;&#167;&#195;&#163;o UF">
<g id="Estado=RO">
<g id="UF">
<path id="ro" fill-rule="evenodd" clip-rule="evenodd" d="M32 47.0109V51.3193H63.6327V80.4016L80.7712 97.5377H100.946L116.321 112.911H142.666L160 95.5793V70.8054H131.697V29.8748L122.002 30.1686L106.92 15.0889H88.508L63.5348 40.0585H39.0513L32 47.0109Z" fill="url(#paint0_linear_828_5446)" stroke="white" stroke-width="1.21084"/>
</g>
<g id="Bandeira do Estado/Rond&#195;&#180;nia - RO" clip-path="url(#clip0_828_5446)">
<g id="Group">
<g id="Group_2">
<path id="Vector" d="M56 44H0V84H56V44Z" fill="#273578"/>
<path id="Vector_2" d="M56 63.9995H0V83.9992H56V63.9995Z" fill="#F2E60E"/>
<path id="Vector_3" d="M0 83.9999L28 63.9995L56 83.9999H0Z" fill="#00994B"/>
</g>
<path id="Vector_4" d="M28.0021 50L30.2119 56.7326L37 56.8473L31.576 61.1542L33.5356 68L28.0021 63.9153L22.4568 68L24.4365 61.1542L19 56.8422L25.7923 56.7326L28.0021 50Z" fill="white"/>
</g>
<g id="Contorno">
<g id="Vector_5">
<mask id="path-7-inside-1_828_5446" fill="white">
<path d="M0 44H56V84H0V44Z"/>
</mask>
<path d="M0 44H56V84H0V44Z" stroke="#8B99A7" stroke-width="0.2" stroke-miterlimit="2.6131" mask="url(#path-7-inside-1_828_5446)"/>
</g>
</g>
</g>
</g>
<rect x="-1005.5" y="-157.5" width="1181" height="727" rx="4.5" stroke="#9747FF" stroke-dasharray="10 5"/>
</g>
</g>
<defs>
<linearGradient id="paint0_linear_828_5446" x1="32" y1="112.911" x2="126.39" y2="-10.5974" gradientUnits="userSpaceOnUse">
<stop stop-color="#9285F9"/>
<stop offset="1" stop-color="#3B4AFF"/>
</linearGradient>
<clipPath id="clip0_828_5446">
<rect width="56" height="40" fill="white" transform="translate(0 44)"/>
</clipPath>
</defs>
</svg>
