<svg width="161" height="128" viewBox="0 0 161 128" fill="none" xmlns="http://www.w3.org/2000/svg">
<g id="&#195;&#141;cones">
<g id="Ilustra&#195;&#167;&#195;&#163;o UF">
<g id="Estado=SP">
<g id="UF">
<path id="sp" fill-rule="evenodd" clip-rule="evenodd" d="M32 61.3822L42.0443 50.996L42.3018 42.67L54.664 30.3095H59.729L59.9007 22.8418H78.3582V33.0563H86.8571L95.0127 24.9019H115.273V35.2022L127.549 47.4768V65.3307H148.582L151.501 62.4123L160 70.91L146.007 84.9014H126.262L106.087 105.159H94.9269V97.09H84.4534V89.4507L79.2166 84.2146V70.2233H58.6989L49.6848 61.2105L32 61.3822Z" fill="url(#paint0_linear_828_5446)" stroke="white" stroke-width="1.21084"/>
</g>
<g id="Bandeira do Estado/S&#195;&#163;o Paulo - SP" clip-path="url(#clip0_828_5446)">
<g id="Group">
<path id="rect2818" d="M56 44.0039H0.00585938V84.0039H56V44.0039Z" fill="white"/>
<path id="rect3691" d="M56 44.0557H0.00585938V47.1246H56V44.0557Z" fill="black"/>
<path id="rect3709" d="M56 50.1934H0.00585938V53.2623H56V50.1934Z" fill="black"/>
<path id="rect3737" d="M56 56.3315H0.00585938V59.4005H56V56.3315Z" fill="black"/>
<path id="rect3739" d="M56 62.4692H0.00585938V65.5382H56V62.4692Z" fill="black"/>
<path id="rect3741" d="M56 68.6074H0.00585938V71.6764H56V68.6074Z" fill="black"/>
<path id="rect3743" d="M56 74.7451H0.00585938V77.8141H56V74.7451Z" fill="black"/>
<path id="rect3745" d="M56 80.8828H0.00585938V83.9518H56V80.8828Z" fill="black"/>
<g id="Group_2">
<path id="rect3601" d="M21.9977 44.0039H0V59.4901H21.9977V44.0039Z" fill="#DA251D"/>
<path id="path3681" d="M17.448 51.7471C17.448 53.4801 16.7687 55.1421 15.5596 56.3675C14.3505 57.5929 12.7106 58.2814 11.0006 58.2814C9.29066 58.2814 7.65074 57.5929 6.44162 56.3675C5.2325 55.1421 4.55322 53.4801 4.55322 51.7471C4.55322 50.0141 5.2325 48.3521 6.44162 47.1267C7.65074 45.9013 9.29066 45.2129 11.0006 45.2129C12.7106 45.2129 14.3505 45.9013 15.5596 47.1267C16.7687 48.3521 17.448 50.0141 17.448 51.7471Z" fill="white"/>
<path id="path633" d="M9.20662 46.1288L9.33027 46.1079L9.30966 46.2541L9.43332 46.3585L9.47453 46.4839L9.3921 46.6718L9.37149 46.8598L9.45393 47.1105L9.6394 47.2358L9.88671 47.194L10.1958 47.0478L10.5462 47.1105L10.505 46.9434L10.7111 46.9016L10.7729 46.8389L11.0202 46.9851L11.185 46.9434L11.4117 46.9643L11.5766 46.7763L11.5972 46.6301L11.8239 46.4003L12.0094 46.6092L12.03 46.8807L12.1537 47.1313L12.2979 47.194L12.1743 47.4237L11.9682 47.6326L11.8857 47.737L11.9064 47.925H12.03L12.1124 47.6744H12.3803L12.6895 47.6953V47.8415L12.6277 47.9877L12.4834 48.0921L12.6895 48.0503L12.7925 47.8624L13.0192 47.8206L13.5138 48.0086L13.6375 48.1339L13.7817 48.0921L13.8642 48.2592V48.4054L13.926 48.4681L14.1527 48.3845L14.4 48.4681L14.7297 48.5516L15.1007 48.5307L15.5335 48.8231L15.7396 49.0111L16.0075 49.22L16.3578 49.3244L16.5227 49.5541L16.5845 49.9092L16.5021 50.2851L16.2136 50.6193L16.0281 50.8073L15.7808 51.0997L15.5953 51.413L15.3892 51.4965L15.2656 51.6636L15.2862 51.8934V52.2067L15.2243 52.5826L15.1213 52.9168L14.9564 53.1674L14.977 53.3763L14.7503 53.6478L14.5855 53.8984V54.1073L14.3382 54.2326L14.2763 54.3162V54.3579L14.0703 54.3788L13.7817 54.3162L13.6375 54.3997L13.4932 54.4206L13.3696 54.5041L13.3077 54.5877H13.1429L12.8337 54.8174L12.6689 54.9845L12.504 55.089L12.4422 55.3814L12.4834 55.5902L12.4216 55.8617L12.2155 56.0706L12.0712 56.363L11.8033 56.7807L11.5766 56.906L11.4117 57.1567L11.3087 57.3655L11.2057 57.3864L11.1644 57.1985L11.2881 57.0731L11.1644 56.9478L11.082 56.8643L10.7523 56.6554L10.7111 56.5301L10.5874 56.6136L10.3813 56.363H10.2164L10.2783 56.2377L10.5874 55.8826L10.9377 55.5902L11.1232 55.4649L11.1644 55.1934L11.082 55.0472L10.9377 55.0054L11.0202 54.6921L10.9377 54.5041L10.7317 54.5668L10.6286 54.0864L10.4019 54.0238L10.0516 54.0446L10.0722 53.7105L9.96913 53.4181L10.134 52.9168L10.0516 52.7079L9.88669 52.5826V52.3529H9.37147L9.28904 52.0396L9.35086 51.9769L9.30965 51.6845C9.30965 51.6845 9.10356 51.5383 9.06235 51.5383C9.02113 51.5383 8.65018 51.4548 8.65018 51.4548L8.40426 51.2449C8.40426 51.2449 8.28061 51.3075 8.19818 51.2657C8.11574 51.224 7.88905 50.9316 7.88905 50.9316V50.493L7.49749 50.5974L7.31201 50.8271H7.12653L6.94106 50.9942L6.61132 50.9316L6.50827 50.9733L6.38462 50.848L6.40523 50.5138L6.24036 50.6809H5.95184L5.91063 50.5347L5.68393 50.5138L5.74576 50.3885L5.41602 49.9917L5.47784 49.7828L5.68393 49.6993L5.64271 49.5531L5.68393 49.2816L6.21975 48.9683L6.46705 49.0309L6.69375 48.091L6.61132 47.8613L6.44645 47.7777L6.48767 47.5689L6.73497 47.5271L6.65253 47.4018H6.54949V47.2556L7.02348 47.1302L7.08531 47.2347L7.25018 47.0676L7.35322 47.2973L7.5387 47.4435L7.80661 47.3809L8.19817 47.1929L8.38364 47.0258L8.30121 46.9214L8.11573 46.6708L8.01269 46.441L8.2806 46.5245L8.52791 46.5872L8.67217 46.4201L9.00191 46.3157L9.208 46.1277L9.20662 46.1288Z" fill="#3F3272"/>
<path id="path3693" d="M3.81039 48.5812L2.69256 47.9813L1.57113 48.5743L1.78878 47.3115L0.885712 46.414L2.13802 46.2336L2.70131 45.0858L3.25765 46.237L4.50885 46.4253L3.60035 47.3171L3.81034 48.5812L3.81039 48.5812Z" fill="#FFF500"/>
<path id="path3695" d="M20.4149 48.5813L19.2971 47.9813L18.1757 48.5743L18.3933 47.3116L17.4903 46.414L18.7425 46.2336L19.3058 45.0859L19.8621 46.2371L21.1133 46.4254L20.2049 47.3172L20.4149 48.5813L20.4149 48.5813Z" fill="#FFF500"/>
<path id="path3697" d="M3.81039 58.4084L2.69256 57.8084L1.57112 58.4014L1.78878 57.1387L0.885712 56.2412L2.13802 56.0607L2.70131 54.913L3.25765 56.0642L4.50885 56.2524L3.60035 57.1443L3.81034 58.4083L3.81039 58.4084Z" fill="#FFF500"/>
<path id="path3699" d="M20.4149 58.409L19.2971 57.809L18.1757 58.4019L18.3933 57.1392L17.4903 56.2417L18.7425 56.0612L19.3058 54.9135L19.8621 56.0648L21.1133 56.253L20.2049 57.1449L20.4149 58.4089L20.4149 58.409Z" fill="#FFF500"/>
</g>
</g>
<g id="Contorno">
<g id="Vector">
<mask id="path-18-inside-1_828_5446" fill="white">
<path d="M-0.000488281 44H55.9995V83.9957H-0.000488281V44Z"/>
</mask>
<path d="M-0.000488281 44H55.9995V83.9957H-0.000488281V44Z" stroke="#8B99A7" stroke-width="0.2" stroke-miterlimit="2.6131" mask="url(#path-18-inside-1_828_5446)"/>
</g>
</g>
</g>
</g>
<rect x="-15.5" y="-299.5" width="1181" height="727" rx="4.5" stroke="#9747FF" stroke-dasharray="10 5"/>
</g>
</g>
<defs>
<linearGradient id="paint0_linear_828_5446" x1="32" y1="105.159" x2="106.899" y2="-11.3073" gradientUnits="userSpaceOnUse">
<stop stop-color="#9285F9"/>
<stop offset="1" stop-color="#3B4AFF"/>
</linearGradient>
<clipPath id="clip0_828_5446">
<rect width="56" height="40" fill="white" transform="translate(0 44)"/>
</clipPath>
</defs>
</svg>
