<svg width="109" height="130" viewBox="0 0 109 130" fill="none" xmlns="http://www.w3.org/2000/svg">
<g id="&#195;&#141;cones">
<g id="Ilustra&#195;&#167;&#195;&#163;o UF">
<g id="Estado=TO">
<g id="UF">
<path id="to" fill-rule="evenodd" clip-rule="evenodd" d="M108.142 79.7335L92.0579 63.5592L91.872 51.289H97.7291V42.3653H92.7087L80.5298 30.281V1H60.0766V9.08714H68.6298L52.3602 25.3544V53.427L32 73.7843V108.922V117.473V120.448H40.8321V128.907H55.7071L62.5868 122.028H69.0946V129H95.2189L104.981 119.147V99.719H94.94L108.142 86.5193V79.7335Z" fill="url(#paint0_linear_828_5446)" stroke="white" stroke-width="1.21084"/>
</g>
<g id="Bandeira do Estado/Tocantins - TO" clip-path="url(#clip0_828_5446)">
<g id="Group">
<path id="Vector" d="M56 45H0V85H56V45Z" fill="white"/>
<path id="Vector_2" d="M55.9888 59.2202V84.9751H19.5962L55.9888 59.2202Z" fill="#F8951D"/>
<path id="Vector_3" d="M0 70.6782V45H36.3218L0 70.6782Z" fill="#2E4EA2"/>
<path id="Vector_4" d="M27.9947 53.6177L28.7658 60.4453L29.7757 58.714L29.7261 60.7316L31.0691 59.2742L30.5666 61.2043L35.8884 56.9429L31.6949 62.3602L33.6113 61.8405L32.1541 63.2197L34.1428 63.1778L32.4249 64.1638L39.1747 64.9872L32.4234 65.7983L34.1428 66.8016L32.1541 66.7322L33.585 68.1296L31.6729 67.6243L35.8884 73.0365L30.5808 68.7375L31.0868 70.6777L29.7112 69.2262L29.7665 71.2379L28.7764 69.5052L27.9947 76.3437L27.213 69.5081L26.1967 71.2473L26.2498 69.2218L24.9032 70.6777L25.3994 68.744L20.1017 73.0271L24.2952 67.6185L22.3873 68.1209L23.8203 66.7402L21.8558 66.7835L23.5468 65.7881L16.8062 64.9872L23.5439 64.1819L21.838 63.1691L23.8203 63.2118L22.3958 61.8318L24.2824 62.3515L20.0925 56.9343L25.405 61.2043L24.9118 59.2656L26.2647 60.7236L26.2229 58.7053L27.2144 60.4439L27.9947 53.6177Z" fill="#F8951D"/>
</g>
<g id="Contorno">
<g id="Vector_5">
<mask id="path-7-inside-1_828_5446" fill="white">
<path d="M-0.000488281 45H55.9995V84.9957H-0.000488281V45Z"/>
</mask>
<path d="M-0.000488281 45H55.9995V84.9957H-0.000488281V45Z" stroke="#8B99A7" stroke-width="0.2" stroke-miterlimit="2.6131" mask="url(#path-7-inside-1_828_5446)"/>
</g>
</g>
</g>
</g>
<rect x="-351.5" y="-156.5" width="1181" height="727" rx="4.5" stroke="#9747FF" stroke-dasharray="10 5"/>
</g>
</g>
<defs>
<linearGradient id="paint0_linear_828_5446" x1="32" y1="129" x2="144.481" y2="62.0898" gradientUnits="userSpaceOnUse">
<stop stop-color="#9285F9"/>
<stop offset="1" stop-color="#3B4AFF"/>
</linearGradient>
<clipPath id="clip0_828_5446">
<rect width="56" height="40" fill="white" transform="translate(0 45)"/>
</clipPath>
</defs>
</svg>
