<svg width="286" height="240" viewBox="0 0 286 240" fill="none" xmlns="http://www.w3.org/2000/svg">
<path d="M196.419 46.4031H124.734L134.052 3.01481L50.7897 3L31.125 93.1309L60.2406 93.142L53.1376 124.86L199.808 124.886H179.565L196.419 46.4031Z" fill="white" fill-opacity="0.6"/>
<mask id="mask0_5568_10015" style="mask-type:alpha" maskUnits="userSpaceOnUse" x="46" y="7" width="64" height="112">
<path d="M53.7951 7.35347L61.1651 7.47498L98.0746 8.09714L103.234 8.18464C106.615 8.24297 109.324 10.5955 109.29 13.439L108.022 113.344C107.984 116.188 105.216 118.448 101.836 118.39L52.392 117.558C49.0113 117.5 46.3024 115.147 46.3363 112.304L47.604 12.3988C47.6463 9.56019 50.4143 7.3 53.7951 7.35347Z" fill="url(#paint0_linear_5568_10015)"/>
</mask>
<g mask="url(#mask0_5568_10015)">
<path d="M110.44 78.0865C103.505 63.3845 81.2725 63.8612 77.8639 63.3086C76.8683 63.3508 76.5308 63.3761 76.1343 63.393C69.452 63.9076 55.6613 66.8143 46.9836 76.1206C43.3345 80.0355 41.0607 85.0303 40.276 90.3205L26.8945 180.553H117.544C117.544 180.553 112.777 99.5171 111.858 83.8449C111.735 81.8579 111.288 79.892 110.44 78.0865Z" fill="#00CC92"/>
<path d="M80.5038 57.2035C74.3277 57.0095 72.3281 58.5408 72.3281 58.5408L80.1663 66.3833L87.9834 58.5408C87.9834 58.545 86.6799 57.3976 80.5038 57.2035Z" fill="#5C8FD6"/>
<path d="M87.1969 67.3924L86.0747 45.8184L80.1434 49.5898L74.212 45.8184L73.0898 67.3924C73.0898 67.3924 75.5957 69.3203 80.1434 69.3203C85.2859 69.3203 87.1969 67.3924 87.1969 67.3924Z" fill="#FFBB99"/>
<path d="M95.1574 39.4276C93.027 36.019 88.125 39.6765 88.125 39.6765L89.205 47.2363C92.8456 48.2024 97.6042 43.3341 95.1574 39.4276Z" fill="#FFBB99"/>
<path d="M64.8804 39.4276C67.0108 36.019 71.9128 39.6765 71.9128 39.6765L70.8329 47.2363C67.1964 48.2024 62.4378 43.3341 64.8804 39.4276Z" fill="#FFBB99"/>
<path d="M91.596 38.2583C91.596 38.2583 90.959 33.9975 90.5751 32.888C83.8253 33.7106 77.0755 32.9766 70.4607 32.3564C69.2457 36.0435 68.1953 42.4052 68.1953 43.7974C68.2712 44.9026 68.3725 45.8729 68.5117 46.5985C69.1318 49.8173 70.3257 53.2513 74.2195 55.3691C77.4805 57.0228 82.5808 57.5712 85.6815 55.3691C89.2715 52.8168 90.7691 49.8131 91.3893 46.5985C91.52 45.9278 91.6297 45.0503 91.7225 44.0463L91.596 38.2583Z" fill="#FFBB99"/>
<path d="M77.3882 73.0371L79.8604 78.7153L70.9844 147.884L85.2349 147.508L82.2692 78.9769L85.1505 73.0371L82.2903 69.9912L77.3882 73.0371Z" fill="#00805C"/>
<path d="M87.9799 58.5449L80.1544 65.1302L72.3288 58.5449L69.7344 64.2696L71.2995 75.5333L80.1417 69.8508C80.1628 69.8508 89.0093 75.5333 89.0093 75.5333L90.5744 64.2696L87.9799 58.5449Z" fill="#EBFAF0"/>
<path d="M75.7751 42.2702C77.0984 42.2702 78.1712 41.3353 78.1712 40.182C78.1712 39.0287 77.0984 38.0938 75.7751 38.0938C74.4517 38.0938 73.3789 39.0287 73.3789 40.182C73.3789 41.3353 74.4517 42.2702 75.7751 42.2702Z" fill="#FFBB99"/>
<path d="M84.404 42.2702C85.7274 42.2702 86.8002 41.3353 86.8002 40.182C86.8002 39.0287 85.7274 38.0938 84.404 38.0938C83.0806 38.0938 82.0078 39.0287 82.0078 40.182C82.0078 41.3353 83.0806 42.2702 84.404 42.2702Z" fill="#FFBB99"/>
<path d="M75.747 41.9457C76.5112 41.9457 77.1307 41.1562 77.1307 40.1823C77.1307 39.2084 76.5112 38.4189 75.747 38.4189C74.9828 38.4189 74.3633 39.2084 74.3633 40.1823C74.3633 41.1562 74.9828 41.9457 75.747 41.9457Z" fill="#FFBB99"/>
<path d="M84.4032 41.9457C85.1674 41.9457 85.7869 41.1562 85.7869 40.1823C85.7869 39.2084 85.1674 38.4189 84.4032 38.4189C83.639 38.4189 83.0195 39.2084 83.0195 40.1823C83.0195 41.1562 83.639 41.9457 84.4032 41.9457Z" fill="#FFBB99"/>
<path d="M73.9046 35.9556C73.7907 35.6096 73.9763 35.2342 74.3222 35.1203L75.8663 34.6098C76.208 34.4959 76.5834 34.69 76.6973 35.0359C76.8112 35.3818 76.6256 35.7615 76.2797 35.8712L74.7357 36.3816C74.3898 36.4913 74.0185 36.3015 73.9046 35.9556Z" fill="#FFBB99"/>
<path d="M83.5639 35.3219C83.6862 34.976 84.0617 34.7904 84.4034 34.9127L85.939 35.4485C86.2807 35.5666 86.4579 35.9463 86.3398 36.2922C86.2174 36.6381 85.842 36.8195 85.5003 36.7014L83.9647 36.1656C83.623 36.0433 83.4458 35.6636 83.5639 35.3219Z" fill="#FFBB99"/>
<path d="M98.0149 24.0331C96.8759 22.5524 95.2138 21.4724 94.7497 21.8268C95.893 17.5913 94.8172 16.6252 93.3871 14.9799C90.9909 12.221 83.7897 6.6608 79.5374 11.9088C77.7276 14.1404 78.0271 16.8024 74.0616 14.3851C70.0961 11.9678 66.409 15.8237 64.8228 18.608C64.131 19.8229 64.6583 24.8304 65.4725 30.1037C64.8017 29.6692 63.9116 29.3275 62.6798 30.437C60.7392 32.1835 66.2023 44.4302 68.2399 44.1518C68.299 43.2194 69.1553 36.3093 70.9567 33.1665C79.2505 34.1874 89.6958 34.0988 89.6958 34.0988C90.742 36.2671 91.86 41.8906 91.5225 43.9071C95.7875 44.4977 100.301 26.9988 98.0149 24.0331Z" fill="#773607"/>
<path d="M79.9365 46.6159C79.8943 46.5948 79.8563 46.5695 79.8141 46.5484C77.8441 45.4136 77.3336 44.0974 77.3125 44.0425C77.3294 43.8231 80.3077 38.2588 80.3077 38.2588C80.7338 38.5035 77.8145 43.9455 77.8145 43.9455C77.9706 44.2535 78.5359 45.2069 79.9533 46.0464C80.004 46.0759 81.8812 45.0465 81.9319 45.0761C81.974 45.5275 80.0419 46.6412 79.9365 46.6159Z" fill="#FFBB99"/>
<path d="M75.0508 48.1045C79.1639 50.4332 84.3191 49.8215 84.3191 49.8215C84.3191 49.8215 79.1049 55.5968 75.0508 48.1045Z" fill="#FFBB99"/>
<path d="M84.3189 49.9191C79.3663 50.5604 74.8945 48.2823 74.8945 48.2823C74.8945 48.2823 80.7795 45.3419 84.3189 49.9191Z" fill="#FFBB99"/>
</g>
<mask id="mask1_5568_10015" style="mask-type:alpha" maskUnits="userSpaceOnUse" x="46" y="124" width="64" height="112">
<path d="M54.256 124.887L61.6261 125.008L98.5355 125.63L103.695 125.718C107.076 125.776 109.785 128.129 109.751 130.972L108.483 230.877C108.445 233.721 105.677 235.981 102.297 235.923L52.853 235.092C49.4722 235.033 46.7634 232.681 46.7972 229.837L48.065 129.932C48.1072 127.093 50.8752 124.833 54.256 124.887Z" fill="url(#paint1_linear_5568_10015)"/>
</mask>
<g mask="url(#mask1_5568_10015)">
<path d="M110.909 195.62C103.973 180.918 81.7413 181.394 78.3326 180.842C77.337 180.884 76.9996 180.909 76.603 180.926C69.9207 181.441 56.1301 184.347 47.4524 193.654C43.8032 197.569 41.5294 202.564 40.7448 207.854L27.3633 298.086H118.013C118.013 298.086 113.246 217.05 112.326 201.378C112.204 199.391 111.757 197.425 110.909 195.62Z" fill="#FF8566"/>
<path d="M80.9725 174.737C74.7965 174.543 72.7969 176.074 72.7969 176.074L80.6351 183.916L88.4522 176.074C88.4522 176.078 87.1486 174.931 80.9725 174.737Z" fill="#96DBE9"/>
<path d="M87.6657 184.926L86.5435 163.352L80.6121 167.123L74.6807 163.352L73.5586 184.926C73.5586 184.926 76.0645 186.854 80.6121 186.854C85.7546 186.854 87.6657 184.926 87.6657 184.926Z" fill="#FFBB99"/>
<path d="M95.6262 156.961C93.4958 153.552 88.5938 157.21 88.5938 157.21L89.6737 164.77C93.3144 165.736 98.073 160.867 95.6262 156.961Z" fill="#FFBB99"/>
<path d="M65.3492 156.961C67.4796 153.552 72.3816 157.21 72.3816 157.21L71.3016 164.77C67.6652 165.736 62.9066 160.867 65.3492 156.961Z" fill="#FFBB99"/>
<path d="M92.0647 155.792C92.0647 155.792 91.4277 151.531 91.0438 150.421C84.294 151.244 77.5443 150.51 70.9295 149.89C69.7145 153.577 68.6641 159.938 68.6641 161.331C68.74 162.436 68.8412 163.406 68.9805 164.132C69.6006 167.351 70.7945 170.785 74.6882 172.902C77.9492 174.556 83.0495 175.104 86.1502 172.902C89.7403 170.35 91.2379 167.346 91.858 164.132C91.9888 163.461 92.0985 162.583 92.1913 161.579L92.0647 155.792Z" fill="#FFBB99"/>
<path d="M77.857 190.57L80.3291 196.249L71.4531 265.417L85.7036 265.042L82.7379 196.51L85.6193 190.57L82.759 187.524L77.857 190.57Z" fill="#F5623D"/>
<path d="M88.4487 176.078L80.6231 182.663L72.7976 176.078L70.2031 181.803L71.7682 193.067L80.6105 187.384C80.6316 187.384 89.478 193.067 89.478 193.067L91.0431 181.803L88.4487 176.078Z" fill="#FFEAE5"/>
<path d="M76.2438 159.803C77.5672 159.803 78.64 158.868 78.64 157.715C78.64 156.562 77.5672 155.627 76.2438 155.627C74.9205 155.627 73.8477 156.562 73.8477 157.715C73.8477 158.868 74.9205 159.803 76.2438 159.803Z" fill="#FFBB99"/>
<path d="M84.8727 159.803C86.1961 159.803 87.2689 158.868 87.2689 157.715C87.2689 156.562 86.1961 155.627 84.8727 155.627C83.5494 155.627 82.4766 156.562 82.4766 157.715C82.4766 158.868 83.5494 159.803 84.8727 159.803Z" fill="#FFBB99"/>
<path d="M76.2157 159.479C76.9799 159.479 77.5994 158.689 77.5994 157.716C77.5994 156.742 76.9799 155.952 76.2157 155.952C75.4515 155.952 74.832 156.742 74.832 157.716C74.832 158.689 75.4515 159.479 76.2157 159.479Z" fill="#FFBB99"/>
<path d="M84.872 159.479C85.6362 159.479 86.2557 158.689 86.2557 157.716C86.2557 156.742 85.6362 155.952 84.872 155.952C84.1078 155.952 83.4883 156.742 83.4883 157.716C83.4883 158.689 84.1078 159.479 84.872 159.479Z" fill="#FFBB99"/>
<path d="M74.3734 153.489C74.2595 153.143 74.4451 152.767 74.791 152.653L76.335 152.143C76.6767 152.029 77.0522 152.223 77.1661 152.569C77.28 152.915 77.0944 153.295 76.7485 153.404L75.2044 153.915C74.8585 154.025 74.4873 153.835 74.3734 153.489Z" fill="#FFBB99"/>
<path d="M84.0327 152.855C84.155 152.509 84.5304 152.324 84.8722 152.446L86.4077 152.982C86.7495 153.1 86.9266 153.479 86.8085 153.825C86.6862 154.171 86.3107 154.353 85.969 154.235L84.4334 153.699C84.0917 153.576 83.9145 153.197 84.0327 152.855Z" fill="#FFBB99"/>
<path d="M98.4837 141.566C97.3447 140.086 95.6825 139.006 95.2185 139.36C96.3617 135.124 95.286 134.158 93.8559 132.513C91.4597 129.754 84.2585 124.194 80.0061 129.442C78.1963 131.674 78.4959 134.336 74.5304 131.918C70.5649 129.501 66.8778 133.357 65.2916 136.141C64.5997 137.356 65.127 142.364 65.9412 147.637C65.2705 147.202 64.3803 146.861 63.1485 147.97C61.2079 149.717 66.6711 161.963 68.7087 161.685C68.7677 160.753 69.6241 153.843 71.4254 150.7C79.7193 151.721 90.1646 151.632 90.1646 151.632C91.2108 153.8 92.3287 159.424 91.9912 161.44C96.2562 162.031 100.77 144.532 98.4837 141.566Z" fill="#773607"/>
<path d="M80.4052 164.149C80.363 164.128 80.3251 164.103 80.2829 164.082C78.3128 162.947 77.8023 161.631 77.7812 161.576C77.7981 161.356 80.7765 155.792 80.7765 155.792C81.2025 156.037 78.2833 161.479 78.2833 161.479C78.4394 161.787 79.0046 162.74 80.4221 163.58C80.4727 163.609 82.35 162.58 82.4006 162.609C82.4428 163.061 80.5107 164.174 80.4052 164.149Z" fill="#FFBB99"/>
<path d="M75.5195 165.638C79.6327 167.966 84.7878 167.355 84.7878 167.355C84.7878 167.355 79.5736 173.13 75.5195 165.638Z" fill="#FFBB99"/>
<path d="M84.7877 167.452C79.835 168.094 75.3633 165.816 75.3633 165.816C75.3633 165.816 81.2483 162.875 84.7877 167.452Z" fill="#FFBB99"/>
</g>
<mask id="mask2_5568_10015" style="mask-type:alpha" maskUnits="userSpaceOnUse" x="118" y="7" width="64" height="112">
<path d="M125.795 7.35347L133.165 7.47498L170.075 8.09714L175.234 8.18464C178.615 8.24297 181.324 10.5955 181.29 13.439L180.022 113.344C179.984 116.188 177.216 118.448 173.836 118.39L124.392 117.558C121.011 117.5 118.302 115.147 118.336 112.304L119.604 12.3988C119.646 9.56019 122.414 7.3 125.795 7.35347Z" fill="url(#paint2_linear_5568_10015)"/>
</mask>
<g mask="url(#mask2_5568_10015)">
<path d="M182.44 78.0865C175.505 63.3845 153.273 63.8612 149.864 63.3086C148.868 63.3508 148.531 63.3761 148.134 63.393C141.452 63.9076 127.661 66.8143 118.984 76.1206C115.334 80.0355 113.061 85.0303 112.276 90.3205L98.8945 180.553H189.544C189.544 180.553 184.777 99.5171 183.858 83.8449C183.735 81.8579 183.288 79.892 182.44 78.0865Z" fill="#00CC92"/>
<path d="M152.504 57.2035C146.328 57.0095 144.328 58.5408 144.328 58.5408L152.166 66.3833L159.983 58.5408C159.983 58.545 158.68 57.3976 152.504 57.2035Z" fill="#5C8FD6"/>
<path d="M159.197 67.3924L158.075 45.8184L152.143 49.5898L146.212 45.8184L145.09 67.3924C145.09 67.3924 147.596 69.3203 152.143 69.3203C157.286 69.3203 159.197 67.3924 159.197 67.3924Z" fill="#FFBB99"/>
<path d="M167.157 39.4276C165.027 36.019 160.125 39.6765 160.125 39.6765L161.205 47.2363C164.846 48.2024 169.604 43.3341 167.157 39.4276Z" fill="#FFBB99"/>
<path d="M136.88 39.4276C139.011 36.019 143.913 39.6765 143.913 39.6765L142.833 47.2363C139.196 48.2024 134.438 43.3341 136.88 39.4276Z" fill="#FFBB99"/>
<path d="M163.596 38.2583C163.596 38.2583 162.959 33.9975 162.575 32.888C155.825 33.7106 149.076 32.9766 142.461 32.3564C141.246 36.0435 140.195 42.4052 140.195 43.7974C140.271 44.9026 140.372 45.8729 140.512 46.5985C141.132 49.8173 142.326 53.2513 146.219 55.3691C149.48 57.0228 154.581 57.5712 157.681 55.3691C161.272 52.8168 162.769 49.8131 163.389 46.5985C163.52 45.9278 163.63 45.0503 163.723 44.0463L163.596 38.2583Z" fill="#FFBB99"/>
<path d="M149.388 73.0371L151.86 78.7153L142.984 147.884L157.235 147.508L154.269 78.9769L157.151 73.0371L154.29 69.9912L149.388 73.0371Z" fill="#00805C"/>
<path d="M159.98 58.5449L152.154 65.1302L144.329 58.5449L141.734 64.2696L143.299 75.5333L152.142 69.8508C152.163 69.8508 161.009 75.5333 161.009 75.5333L162.574 64.2696L159.98 58.5449Z" fill="#EBFAF0"/>
<path d="M147.775 42.2702C149.098 42.2702 150.171 41.3353 150.171 40.182C150.171 39.0287 149.098 38.0938 147.775 38.0938C146.452 38.0938 145.379 39.0287 145.379 40.182C145.379 41.3353 146.452 42.2702 147.775 42.2702Z" fill="#FFBB99"/>
<path d="M156.404 42.2702C157.727 42.2702 158.8 41.3353 158.8 40.182C158.8 39.0287 157.727 38.0938 156.404 38.0938C155.081 38.0938 154.008 39.0287 154.008 40.182C154.008 41.3353 155.081 42.2702 156.404 42.2702Z" fill="#FFBB99"/>
<path d="M147.747 41.9457C148.511 41.9457 149.131 41.1562 149.131 40.1823C149.131 39.2084 148.511 38.4189 147.747 38.4189C146.983 38.4189 146.363 39.2084 146.363 40.1823C146.363 41.1562 146.983 41.9457 147.747 41.9457Z" fill="#FFBB99"/>
<path d="M156.403 41.9457C157.167 41.9457 157.787 41.1562 157.787 40.1823C157.787 39.2084 157.167 38.4189 156.403 38.4189C155.639 38.4189 155.02 39.2084 155.02 40.1823C155.02 41.1562 155.639 41.9457 156.403 41.9457Z" fill="#FFBB99"/>
<path d="M145.905 35.9556C145.791 35.6096 145.976 35.2342 146.322 35.1203L147.866 34.6098C148.208 34.4959 148.583 34.69 148.697 35.0359C148.811 35.3818 148.626 35.7615 148.28 35.8712L146.736 36.3816C146.39 36.4913 146.019 36.3015 145.905 35.9556Z" fill="#FFBB99"/>
<path d="M155.564 35.3219C155.686 34.976 156.062 34.7904 156.403 34.9127L157.939 35.4485C158.281 35.5666 158.458 35.9463 158.34 36.2922C158.217 36.6381 157.842 36.8195 157.5 36.7014L155.965 36.1656C155.623 36.0433 155.446 35.6636 155.564 35.3219Z" fill="#FFBB99"/>
<path d="M170.015 24.0331C168.876 22.5524 167.214 21.4724 166.75 21.8268C167.893 17.5913 166.817 16.6252 165.387 14.9799C162.991 12.221 155.79 6.6608 151.537 11.9088C149.728 14.1404 150.027 16.8024 146.062 14.3851C142.096 11.9678 138.409 15.8237 136.823 18.608C136.131 19.8229 136.658 24.8304 137.472 30.1037C136.802 29.6692 135.912 29.3275 134.68 30.437C132.739 32.1835 138.202 44.4302 140.24 44.1518C140.299 43.2194 141.155 36.3093 142.957 33.1665C151.251 34.1874 161.696 34.0988 161.696 34.0988C162.742 36.2671 163.86 41.8906 163.522 43.9071C167.787 44.4977 172.301 26.9988 170.015 24.0331Z" fill="#773607"/>
<path d="M151.936 46.6159C151.894 46.5948 151.856 46.5695 151.814 46.5484C149.844 45.4136 149.334 44.0974 149.312 44.0425C149.329 43.8231 152.308 38.2588 152.308 38.2588C152.734 38.5035 149.815 43.9455 149.815 43.9455C149.971 44.2535 150.536 45.2069 151.953 46.0464C152.004 46.0759 153.881 45.0465 153.932 45.0761C153.974 45.5275 152.042 46.6412 151.936 46.6159Z" fill="#FFBB99"/>
<path d="M147.051 48.1045C151.164 50.4332 156.319 49.8215 156.319 49.8215C156.319 49.8215 151.105 55.5968 147.051 48.1045Z" fill="#FFBB99"/>
<path d="M156.319 49.9191C151.366 50.5604 146.895 48.2823 146.895 48.2823C146.895 48.2823 152.78 45.3419 156.319 49.9191Z" fill="#FFBB99"/>
</g>
<mask id="mask3_5568_10015" style="mask-type:alpha" maskUnits="userSpaceOnUse" x="118" y="124" width="64" height="112">
<path d="M125.795 124.887L133.165 125.008L170.075 125.63L175.234 125.718C178.615 125.776 181.324 128.129 181.29 130.972L180.022 230.877C179.984 233.721 177.216 235.981 173.836 235.923L124.392 235.092C121.011 235.033 118.302 232.681 118.336 229.837L119.604 129.932C119.646 127.093 122.414 124.833 125.795 124.887Z" fill="url(#paint3_linear_5568_10015)"/>
</mask>
<g mask="url(#mask3_5568_10015)">
<path d="M182.44 195.62C175.505 180.918 153.273 181.394 149.864 180.842C148.868 180.884 148.531 180.909 148.134 180.926C141.452 181.441 127.661 184.347 118.984 193.654C115.334 197.569 113.061 202.564 112.276 207.854L98.8945 298.086H189.544C189.544 298.086 184.777 217.05 183.858 201.378C183.735 199.391 183.288 197.425 182.44 195.62Z" fill="#FF8566"/>
<path d="M152.504 174.737C146.328 174.543 144.328 176.074 144.328 176.074L152.166 183.916L159.983 176.074C159.983 176.078 158.68 174.931 152.504 174.737Z" fill="#96DBE9"/>
<path d="M159.197 184.926L158.075 163.352L152.143 167.123L146.212 163.352L145.09 184.926C145.09 184.926 147.596 186.854 152.143 186.854C157.286 186.854 159.197 184.926 159.197 184.926Z" fill="#FFBB99"/>
<path d="M167.157 156.961C165.027 153.552 160.125 157.21 160.125 157.21L161.205 164.77C164.846 165.736 169.604 160.867 167.157 156.961Z" fill="#FFBB99"/>
<path d="M136.88 156.961C139.011 153.552 143.913 157.21 143.913 157.21L142.833 164.77C139.196 165.736 134.438 160.867 136.88 156.961Z" fill="#FFBB99"/>
<path d="M163.596 155.792C163.596 155.792 162.959 151.531 162.575 150.421C155.825 151.244 149.076 150.51 142.461 149.89C141.246 153.577 140.195 159.938 140.195 161.331C140.271 162.436 140.372 163.406 140.512 164.132C141.132 167.351 142.326 170.785 146.219 172.902C149.48 174.556 154.581 175.104 157.681 172.902C161.272 170.35 162.769 167.346 163.389 164.132C163.52 163.461 163.63 162.583 163.723 161.579L163.596 155.792Z" fill="#FFBB99"/>
<path d="M149.388 190.57L151.86 196.249L142.984 265.417L157.235 265.042L154.269 196.51L157.151 190.57L154.29 187.524L149.388 190.57Z" fill="#F5623D"/>
<path d="M159.98 176.078L152.154 182.663L144.329 176.078L141.734 181.803L143.299 193.067L152.142 187.384C152.163 187.384 161.009 193.067 161.009 193.067L162.574 181.803L159.98 176.078Z" fill="#FFEAE5"/>
<path d="M147.775 159.803C149.098 159.803 150.171 158.868 150.171 157.715C150.171 156.562 149.098 155.627 147.775 155.627C146.452 155.627 145.379 156.562 145.379 157.715C145.379 158.868 146.452 159.803 147.775 159.803Z" fill="#FFBB99"/>
<path d="M156.404 159.803C157.727 159.803 158.8 158.868 158.8 157.715C158.8 156.562 157.727 155.627 156.404 155.627C155.081 155.627 154.008 156.562 154.008 157.715C154.008 158.868 155.081 159.803 156.404 159.803Z" fill="#FFBB99"/>
<path d="M147.747 159.479C148.511 159.479 149.131 158.689 149.131 157.716C149.131 156.742 148.511 155.952 147.747 155.952C146.983 155.952 146.363 156.742 146.363 157.716C146.363 158.689 146.983 159.479 147.747 159.479Z" fill="#FFBB99"/>
<path d="M156.403 159.479C157.167 159.479 157.787 158.689 157.787 157.716C157.787 156.742 157.167 155.952 156.403 155.952C155.639 155.952 155.02 156.742 155.02 157.716C155.02 158.689 155.639 159.479 156.403 159.479Z" fill="#FFBB99"/>
<path d="M145.905 153.489C145.791 153.143 145.976 152.767 146.322 152.653L147.866 152.143C148.208 152.029 148.583 152.223 148.697 152.569C148.811 152.915 148.626 153.295 148.28 153.404L146.736 153.915C146.39 154.025 146.019 153.835 145.905 153.489Z" fill="#FFBB99"/>
<path d="M155.564 152.855C155.686 152.509 156.062 152.324 156.403 152.446L157.939 152.982C158.281 153.1 158.458 153.479 158.34 153.825C158.217 154.171 157.842 154.353 157.5 154.235L155.965 153.699C155.623 153.576 155.446 153.197 155.564 152.855Z" fill="#FFBB99"/>
<path d="M170.015 141.566C168.876 140.086 167.214 139.006 166.75 139.36C167.893 135.124 166.817 134.158 165.387 132.513C162.991 129.754 155.79 124.194 151.537 129.442C149.728 131.674 150.027 134.336 146.062 131.918C142.096 129.501 138.409 133.357 136.823 136.141C136.131 137.356 136.658 142.364 137.472 147.637C136.802 147.202 135.912 146.861 134.68 147.97C132.739 149.717 138.202 161.963 140.24 161.685C140.299 160.753 141.155 153.843 142.957 150.7C151.251 151.721 161.696 151.632 161.696 151.632C162.742 153.8 163.86 159.424 163.522 161.44C167.787 162.031 172.301 144.532 170.015 141.566Z" fill="#773607"/>
<path d="M151.936 164.149C151.894 164.128 151.856 164.103 151.814 164.082C149.844 162.947 149.334 161.631 149.312 161.576C149.329 161.356 152.308 155.792 152.308 155.792C152.734 156.037 149.815 161.479 149.815 161.479C149.971 161.787 150.536 162.74 151.953 163.58C152.004 163.609 153.881 162.58 153.932 162.609C153.974 163.061 152.042 164.174 151.936 164.149Z" fill="#FFBB99"/>
<path d="M147.051 165.638C151.164 167.966 156.319 167.355 156.319 167.355C156.319 167.355 151.105 173.13 147.051 165.638Z" fill="#FFBB99"/>
<path d="M156.319 167.452C151.366 168.094 146.895 165.816 146.895 165.816C146.895 165.816 152.78 162.875 156.319 167.452Z" fill="#FFBB99"/>
</g>
<mask id="mask4_5568_10015" style="mask-type:alpha" maskUnits="userSpaceOnUse" x="191" y="7" width="64" height="112">
<path d="M199.377 7.35347L206.747 7.47498L243.657 8.09714L248.817 8.18464C252.197 8.24297 254.906 10.5955 254.872 13.439L253.604 113.344C253.566 116.188 250.798 118.448 247.418 118.39L197.974 117.558C194.593 117.5 191.884 115.147 191.918 112.304L193.186 12.3988C193.228 9.56019 195.996 7.3 199.377 7.35347Z" fill="url(#paint4_linear_5568_10015)"/>
</mask>
<g mask="url(#mask4_5568_10015)">
<path d="M256.026 78.0865C249.091 63.3845 226.858 63.8612 223.45 63.3086C222.454 63.3508 222.117 63.3761 221.72 63.393C215.038 63.9076 201.247 66.8143 192.57 76.1206C188.92 80.0355 186.647 85.0303 185.862 90.3205L172.48 180.553H263.13C263.13 180.553 258.363 99.5171 257.443 83.8449C257.321 81.8579 256.874 79.892 256.026 78.0865Z" fill="#FF8566"/>
<path d="M226.09 57.2035C219.914 57.0095 217.914 58.5408 217.914 58.5408L225.752 66.3833L233.569 58.5408C233.569 58.545 232.266 57.3976 226.09 57.2035Z" fill="#96DBE9"/>
<path d="M232.783 67.3924L231.661 45.8184L225.729 49.5898L219.798 45.8184L218.676 67.3924C218.676 67.3924 221.182 69.3203 225.729 69.3203C230.872 69.3203 232.783 67.3924 232.783 67.3924Z" fill="#FFBB99"/>
<path d="M240.743 39.4276C238.613 36.019 233.711 39.6765 233.711 39.6765L234.791 47.2363C238.432 48.2024 243.19 43.3341 240.743 39.4276Z" fill="#FFBB99"/>
<path d="M210.466 39.4276C212.597 36.019 217.499 39.6765 217.499 39.6765L216.419 47.2363C212.782 48.2024 208.024 43.3341 210.466 39.4276Z" fill="#FFBB99"/>
<path d="M237.182 38.2583C237.182 38.2583 236.545 33.9975 236.161 32.888C229.411 33.7106 222.661 32.9766 216.047 32.3564C214.832 36.0435 213.781 42.4052 213.781 43.7974C213.857 44.9026 213.958 45.8729 214.098 46.5985C214.718 49.8173 215.912 53.2513 219.805 55.3691C223.066 57.0228 228.167 57.5712 231.267 55.3691C234.857 52.8168 236.355 49.8131 236.975 46.5985C237.106 45.9278 237.216 45.0503 237.308 44.0463L237.182 38.2583Z" fill="#FFBB99"/>
<path d="M222.974 73.0371L225.446 78.7153L216.57 147.884L230.821 147.508L227.855 78.9769L230.736 73.0371L227.876 69.9912L222.974 73.0371Z" fill="#F5623D"/>
<path d="M233.566 58.5449L225.74 65.1302L217.915 58.5449L215.32 64.2696L216.885 75.5333L225.728 69.8508C225.749 69.8508 234.595 75.5333 234.595 75.5333L236.16 64.2696L233.566 58.5449Z" fill="#FFEAE5"/>
<path d="M221.361 42.2702C222.684 42.2702 223.757 41.3353 223.757 40.182C223.757 39.0287 222.684 38.0938 221.361 38.0938C220.038 38.0938 218.965 39.0287 218.965 40.182C218.965 41.3353 220.038 42.2702 221.361 42.2702Z" fill="#FFBB99"/>
<path d="M229.99 42.2702C231.313 42.2702 232.386 41.3353 232.386 40.182C232.386 39.0287 231.313 38.0938 229.99 38.0938C228.667 38.0938 227.594 39.0287 227.594 40.182C227.594 41.3353 228.667 42.2702 229.99 42.2702Z" fill="#FFBB99"/>
<path d="M221.333 41.9457C222.097 41.9457 222.717 41.1562 222.717 40.1823C222.717 39.2084 222.097 38.4189 221.333 38.4189C220.569 38.4189 219.949 39.2084 219.949 40.1823C219.949 41.1562 220.569 41.9457 221.333 41.9457Z" fill="#FFBB99"/>
<path d="M229.989 41.9457C230.753 41.9457 231.373 41.1562 231.373 40.1823C231.373 39.2084 230.753 38.4189 229.989 38.4189C229.225 38.4189 228.605 39.2084 228.605 40.1823C228.605 41.1562 229.225 41.9457 229.989 41.9457Z" fill="#FFBB99"/>
<path d="M219.491 35.9556C219.377 35.6096 219.562 35.2342 219.908 35.1203L221.452 34.6098C221.794 34.4959 222.169 34.69 222.283 35.0359C222.397 35.3818 222.212 35.7615 221.866 35.8712L220.322 36.3816C219.976 36.4913 219.604 36.3015 219.491 35.9556Z" fill="#FFBB99"/>
<path d="M229.15 35.3219C229.272 34.976 229.648 34.7904 229.989 34.9127L231.525 35.4485C231.867 35.5666 232.044 35.9463 231.926 36.2922C231.803 36.6381 231.428 36.8195 231.086 36.7014L229.551 36.1656C229.209 36.0433 229.032 35.6636 229.15 35.3219Z" fill="#FFBB99"/>
<path d="M243.601 24.0331C242.462 22.5524 240.8 21.4724 240.336 21.8268C241.479 17.5913 240.403 16.6252 238.973 14.9799C236.577 12.221 229.376 6.6608 225.123 11.9088C223.314 14.1404 223.613 16.8024 219.648 14.3851C215.682 11.9678 211.995 15.8237 210.409 18.608C209.717 19.8229 210.244 24.8304 211.058 30.1037C210.388 29.6692 209.498 29.3275 208.266 30.437C206.325 32.1835 211.788 44.4302 213.826 44.1518C213.885 43.2194 214.741 36.3093 216.543 33.1665C224.836 34.1874 235.282 34.0988 235.282 34.0988C236.328 36.2671 237.446 41.8906 237.108 43.9071C241.373 44.4977 245.887 26.9988 243.601 24.0331Z" fill="#773607"/>
<path d="M225.522 46.6159C225.48 46.5948 225.442 46.5695 225.4 46.5484C223.43 45.4136 222.92 44.0974 222.898 44.0425C222.915 43.8231 225.894 38.2588 225.894 38.2588C226.32 38.5035 223.4 43.9455 223.4 43.9455C223.557 44.2535 224.122 45.2069 225.539 46.0464C225.59 46.0759 227.467 45.0465 227.518 45.0761C227.56 45.5275 225.628 46.6412 225.522 46.6159Z" fill="#FFBB99"/>
<path d="M220.637 48.1045C224.75 50.4332 229.905 49.8215 229.905 49.8215C229.905 49.8215 224.691 55.5968 220.637 48.1045Z" fill="#FFBB99"/>
<path d="M229.905 49.9191C224.952 50.5604 220.48 48.2823 220.48 48.2823C220.48 48.2823 226.365 45.3419 229.905 49.9191Z" fill="#FFBB99"/>
</g>
<mask id="mask5_5568_10015" style="mask-type:alpha" maskUnits="userSpaceOnUse" x="191" y="124" width="64" height="112">
<path d="M199.377 124.887L206.747 125.008L243.657 125.63L248.817 125.718C252.197 125.776 254.906 128.129 254.872 130.972L253.604 230.877C253.566 233.721 250.798 235.981 247.418 235.923L197.974 235.092C194.593 235.033 191.884 232.681 191.918 229.837L193.186 129.932C193.228 127.093 195.996 124.833 199.377 124.887Z" fill="url(#paint5_linear_5568_10015)"/>
</mask>
<g mask="url(#mask5_5568_10015)">
<path d="M256.026 195.62C249.091 180.918 226.858 181.394 223.45 180.842C222.454 180.884 222.117 180.909 221.72 180.926C215.038 181.441 201.247 184.347 192.57 193.654C188.92 197.569 186.647 202.564 185.862 207.854L172.48 298.086H263.13C263.13 298.086 258.363 217.05 257.443 201.378C257.321 199.391 256.874 197.425 256.026 195.62Z" fill="#FF8566"/>
<path d="M226.09 174.737C219.914 174.543 217.914 176.074 217.914 176.074L225.752 183.916L233.569 176.074C233.569 176.078 232.266 174.931 226.09 174.737Z" fill="#96DBE9"/>
<path d="M232.783 184.926L231.661 163.352L225.729 167.123L219.798 163.352L218.676 184.926C218.676 184.926 221.182 186.854 225.729 186.854C230.872 186.854 232.783 184.926 232.783 184.926Z" fill="#FFBB99"/>
<path d="M240.743 156.961C238.613 153.552 233.711 157.21 233.711 157.21L234.791 164.77C238.432 165.736 243.19 160.867 240.743 156.961Z" fill="#FFBB99"/>
<path d="M210.466 156.961C212.597 153.552 217.499 157.21 217.499 157.21L216.419 164.77C212.782 165.736 208.024 160.867 210.466 156.961Z" fill="#FFBB99"/>
<path d="M237.182 155.792C237.182 155.792 236.545 151.531 236.161 150.421C229.411 151.244 222.661 150.51 216.047 149.89C214.832 153.577 213.781 159.938 213.781 161.331C213.857 162.436 213.958 163.406 214.098 164.132C214.718 167.351 215.912 170.785 219.805 172.902C223.066 174.556 228.167 175.104 231.267 172.902C234.857 170.35 236.355 167.346 236.975 164.132C237.106 163.461 237.216 162.583 237.308 161.579L237.182 155.792Z" fill="#FFBB99"/>
<path d="M222.974 190.57L225.446 196.249L216.57 265.417L230.821 265.042L227.855 196.51L230.736 190.57L227.876 187.524L222.974 190.57Z" fill="#F5623D"/>
<path d="M233.566 176.078L225.74 182.663L217.915 176.078L215.32 181.803L216.885 193.067L225.728 187.384C225.749 187.384 234.595 193.067 234.595 193.067L236.16 181.803L233.566 176.078Z" fill="#FFEAE5"/>
<path d="M221.361 159.803C222.684 159.803 223.757 158.868 223.757 157.715C223.757 156.562 222.684 155.627 221.361 155.627C220.038 155.627 218.965 156.562 218.965 157.715C218.965 158.868 220.038 159.803 221.361 159.803Z" fill="#FFBB99"/>
<path d="M229.99 159.803C231.313 159.803 232.386 158.868 232.386 157.715C232.386 156.562 231.313 155.627 229.99 155.627C228.667 155.627 227.594 156.562 227.594 157.715C227.594 158.868 228.667 159.803 229.99 159.803Z" fill="#FFBB99"/>
<path d="M221.333 159.479C222.097 159.479 222.717 158.689 222.717 157.716C222.717 156.742 222.097 155.952 221.333 155.952C220.569 155.952 219.949 156.742 219.949 157.716C219.949 158.689 220.569 159.479 221.333 159.479Z" fill="#FFBB99"/>
<path d="M229.989 159.479C230.753 159.479 231.373 158.689 231.373 157.716C231.373 156.742 230.753 155.952 229.989 155.952C229.225 155.952 228.605 156.742 228.605 157.716C228.605 158.689 229.225 159.479 229.989 159.479Z" fill="#FFBB99"/>
<path d="M219.491 153.489C219.377 153.143 219.562 152.767 219.908 152.653L221.452 152.143C221.794 152.029 222.169 152.223 222.283 152.569C222.397 152.915 222.212 153.295 221.866 153.404L220.322 153.915C219.976 154.025 219.604 153.835 219.491 153.489Z" fill="#FFBB99"/>
<path d="M229.15 152.855C229.272 152.509 229.648 152.324 229.989 152.446L231.525 152.982C231.867 153.1 232.044 153.479 231.926 153.825C231.803 154.171 231.428 154.353 231.086 154.235L229.551 153.699C229.209 153.576 229.032 153.197 229.15 152.855Z" fill="#FFBB99"/>
<path d="M243.601 141.566C242.462 140.086 240.8 139.006 240.336 139.36C241.479 135.124 240.403 134.158 238.973 132.513C236.577 129.754 229.376 124.194 225.123 129.442C223.314 131.674 223.613 134.336 219.648 131.918C215.682 129.501 211.995 133.357 210.409 136.141C209.717 137.356 210.244 142.364 211.058 147.637C210.388 147.202 209.498 146.861 208.266 147.97C206.325 149.717 211.788 161.963 213.826 161.685C213.885 160.753 214.741 153.843 216.543 150.7C224.836 151.721 235.282 151.632 235.282 151.632C236.328 153.8 237.446 159.424 237.108 161.44C241.373 162.031 245.887 144.532 243.601 141.566Z" fill="#773607"/>
<path d="M225.522 164.149C225.48 164.128 225.442 164.103 225.4 164.082C223.43 162.947 222.92 161.631 222.898 161.576C222.915 161.356 225.894 155.792 225.894 155.792C226.32 156.037 223.4 161.479 223.4 161.479C223.557 161.787 224.122 162.74 225.539 163.58C225.59 163.609 227.467 162.58 227.518 162.609C227.56 163.061 225.628 164.174 225.522 164.149Z" fill="#FFBB99"/>
<path d="M220.637 165.638C224.75 167.966 229.905 167.355 229.905 167.355C229.905 167.355 224.691 173.13 220.637 165.638Z" fill="#FFBB99"/>
<path d="M229.905 167.452C224.952 168.094 220.48 165.816 220.48 165.816C220.48 165.816 226.365 162.875 229.905 167.452Z" fill="#FFBB99"/>
</g>
<defs>
<linearGradient id="paint0_linear_5568_10015" x1="78.0426" y1="135.767" x2="78.4389" y2="12.8144" gradientUnits="userSpaceOnUse">
<stop offset="0.043"/>
<stop offset="0.2715" stop-color="#8785BA"/>
<stop offset="0.3139" stop-color="#8F86BE"/>
<stop offset="0.4805" stop-color="#AA88CC"/>
<stop offset="0.6497" stop-color="#BE89D5"/>
<stop offset="0.8215" stop-color="#C98ADB"/>
<stop offset="1" stop-color="#CD8ADD"/>
</linearGradient>
<linearGradient id="paint1_linear_5568_10015" x1="78.5035" y1="253.3" x2="78.8999" y2="130.348" gradientUnits="userSpaceOnUse">
<stop offset="0.043"/>
<stop offset="0.2715" stop-color="#8785BA"/>
<stop offset="0.3139" stop-color="#8F86BE"/>
<stop offset="0.4805" stop-color="#AA88CC"/>
<stop offset="0.6497" stop-color="#BE89D5"/>
<stop offset="0.8215" stop-color="#C98ADB"/>
<stop offset="1" stop-color="#CD8ADD"/>
</linearGradient>
<linearGradient id="paint2_linear_5568_10015" x1="150.043" y1="135.767" x2="150.439" y2="12.8144" gradientUnits="userSpaceOnUse">
<stop offset="0.043"/>
<stop offset="0.2715" stop-color="#8785BA"/>
<stop offset="0.3139" stop-color="#8F86BE"/>
<stop offset="0.4805" stop-color="#AA88CC"/>
<stop offset="0.6497" stop-color="#BE89D5"/>
<stop offset="0.8215" stop-color="#C98ADB"/>
<stop offset="1" stop-color="#CD8ADD"/>
</linearGradient>
<linearGradient id="paint3_linear_5568_10015" x1="150.043" y1="253.3" x2="150.439" y2="130.348" gradientUnits="userSpaceOnUse">
<stop offset="0.043"/>
<stop offset="0.2715" stop-color="#8785BA"/>
<stop offset="0.3139" stop-color="#8F86BE"/>
<stop offset="0.4805" stop-color="#AA88CC"/>
<stop offset="0.6497" stop-color="#BE89D5"/>
<stop offset="0.8215" stop-color="#C98ADB"/>
<stop offset="1" stop-color="#CD8ADD"/>
</linearGradient>
<linearGradient id="paint4_linear_5568_10015" x1="223.625" y1="135.767" x2="224.021" y2="12.8144" gradientUnits="userSpaceOnUse">
<stop offset="0.043"/>
<stop offset="0.2715" stop-color="#8785BA"/>
<stop offset="0.3139" stop-color="#8F86BE"/>
<stop offset="0.4805" stop-color="#AA88CC"/>
<stop offset="0.6497" stop-color="#BE89D5"/>
<stop offset="0.8215" stop-color="#C98ADB"/>
<stop offset="1" stop-color="#CD8ADD"/>
</linearGradient>
<linearGradient id="paint5_linear_5568_10015" x1="223.625" y1="253.3" x2="224.021" y2="130.348" gradientUnits="userSpaceOnUse">
<stop offset="0.043"/>
<stop offset="0.2715" stop-color="#8785BA"/>
<stop offset="0.3139" stop-color="#8F86BE"/>
<stop offset="0.4805" stop-color="#AA88CC"/>
<stop offset="0.6497" stop-color="#BE89D5"/>
<stop offset="0.8215" stop-color="#C98ADB"/>
<stop offset="1" stop-color="#CD8ADD"/>
</linearGradient>
</defs>
</svg>
