<svg width="45" height="44" viewBox="0 0 45 44" fill="none" xmlns="http://www.w3.org/2000/svg">
<g opacity="0.7">
<path d="M33.0325 38.8622C30.9793 40.7972 28.7374 40.4917 26.5794 39.5751C24.2956 38.6382 22.2005 38.5975 19.791 39.5751C16.7739 40.8379 15.1816 40.4713 13.3797 38.8622C3.15526 28.6172 4.66379 13.0155 16.2711 12.4452C19.0996 12.5878 21.0691 13.9524 22.7243 14.0746C25.1966 13.5858 27.5641 12.1804 30.204 12.3637C33.3678 12.6081 35.7563 13.8302 37.3277 16.0299C30.7907 19.8387 32.3411 28.2099 38.3333 30.5522C37.1391 33.6073 35.5887 36.6421 33.0116 38.8826L33.0325 38.8622ZM22.5147 12.323C22.2005 7.78097 25.9927 4.03329 30.3507 3.66667C30.9583 8.92156 25.448 12.8322 22.5147 12.323Z" fill="black"/>
</g>
</svg>
