<svg width="45" height="44" viewBox="0 0 45 44" fill="none" xmlns="http://www.w3.org/2000/svg">
<g opacity="0.8">
<path opacity="0.7" d="M23.2959 10.9578C25.9021 10.9141 28.4204 11.8995 30.3047 13.7005L35.5627 8.44245C32.2444 5.32538 27.8483 3.61384 23.2959 3.66662C19.8967 3.66521 16.5641 4.60924 13.6706 6.39317C10.7772 8.17709 8.4369 10.7306 6.91141 13.7683L13.0366 18.5166C13.741 16.3418 15.1098 14.4427 16.9502 13.0868C18.7907 11.7308 21.0101 10.9862 23.2959 10.9578Z" fill="black"/>
<path d="M6.91139 13.7684C5.62972 16.3231 4.96231 19.1418 4.96231 22C4.96231 24.8582 5.62972 27.677 6.91139 30.2317L13.0366 25.4834C12.27 23.2244 12.27 20.7757 13.0366 18.5167L6.91139 13.7684Z" fill="black"/>
<path opacity="0.5" d="M29.5036 31.2914C28.0862 32.2012 26.4797 32.7754 24.8066 32.97C23.1336 33.1646 21.4382 32.9745 19.8498 32.4142C18.2614 31.854 16.8219 30.9384 15.6411 29.7372C14.4604 28.5361 13.5695 27.0812 13.0366 25.4834L6.91324 30.2317C8.43845 33.2688 10.7782 35.822 13.6709 37.6059C16.5637 39.3898 19.8955 40.3341 23.2941 40.3334C27.7569 40.4543 32.0973 38.8651 35.4271 35.8912L29.5036 31.2914Z" fill="black"/>
<path opacity="0.25" d="M40.5622 18.667H23.2959V25.7583H33.1629C32.9587 26.8801 32.5291 27.9487 31.9001 28.8997C31.2711 29.8508 30.4559 30.6643 29.5036 31.2913L35.4289 35.893C37.2333 34.1552 38.6523 32.0577 39.5941 29.7364C40.5359 27.415 40.9794 24.9217 40.8959 22.418C40.8959 21.1585 40.7859 19.9045 40.5622 18.667Z" fill="black"/>
</g>
</svg>
