<svg width="45" height="44" viewBox="0 0 45 44" fill="none" xmlns="http://www.w3.org/2000/svg">
<g opacity="0.7">
<path d="M11.6082 26.8246C11.6082 27.8482 11.2015 28.8299 10.4777 29.5538C9.75389 30.2776 8.77218 30.6842 7.74853 30.6842C6.72489 30.6842 5.74318 30.2776 5.01935 29.5538C4.29553 28.8299 3.88889 27.8482 3.88889 26.8246C3.88889 25.8009 4.29553 24.8192 5.01935 24.0954C5.74318 23.3716 6.72489 22.9649 7.74853 22.9649H11.6082V26.8246ZM13.538 26.8246C13.538 25.8009 13.9446 24.8192 14.6685 24.0954C15.3923 23.3716 16.374 22.9649 17.3977 22.9649C18.4213 22.9649 19.403 23.3716 20.1268 24.0954C20.8507 24.8192 21.2573 25.8009 21.2573 26.8246V36.4737C21.2573 37.4973 20.8507 38.479 20.1268 39.2029C19.403 39.9267 18.4213 40.3333 17.3977 40.3333C16.374 40.3333 15.3923 39.9267 14.6685 39.2029C13.9446 38.479 13.538 37.4973 13.538 36.4737V26.8246ZM17.3977 11.386C16.374 11.386 15.3923 10.9793 14.6685 10.2555C13.9446 9.53168 13.538 8.54996 13.538 7.52632C13.538 6.50268 13.9446 5.52096 14.6685 4.79714C15.3923 4.07331 16.374 3.66667 17.3977 3.66667C18.4213 3.66667 19.403 4.07331 20.1268 4.79714C20.8507 5.52096 21.2573 6.50268 21.2573 7.52632V11.386H17.3977ZM17.3977 13.3158C18.4213 13.3158 19.403 13.7224 20.1268 14.4463C20.8507 15.1701 21.2573 16.1518 21.2573 17.1754C21.2573 18.1991 20.8507 19.1808 20.1268 19.9046C19.403 20.6285 18.4213 21.0351 17.3977 21.0351H7.74853C6.72489 21.0351 5.74318 20.6285 5.01935 19.9046C4.29553 19.1808 3.88889 18.1991 3.88889 17.1754C3.88889 16.1518 4.29553 15.1701 5.01935 14.4463C5.74318 13.7224 6.72489 13.3158 7.74853 13.3158H17.3977ZM32.8363 17.1754C32.8363 16.1518 33.2429 15.1701 33.9667 14.4463C34.6905 13.7224 35.6723 13.3158 36.6959 13.3158C37.7195 13.3158 38.7013 13.7224 39.4251 14.4463C40.1489 15.1701 40.5556 16.1518 40.5556 17.1754C40.5556 18.1991 40.1489 19.1808 39.4251 19.9046C38.7013 20.6285 37.7195 21.0351 36.6959 21.0351H32.8363V17.1754ZM30.9064 17.1754C30.9064 18.1991 30.4998 19.1808 29.776 19.9046C29.0521 20.6285 28.0704 21.0351 27.0468 21.0351C26.0231 21.0351 25.0414 20.6285 24.3176 19.9046C23.5938 19.1808 23.1871 18.1991 23.1871 17.1754V7.52632C23.1871 6.50268 23.5938 5.52096 24.3176 4.79714C25.0414 4.07331 26.0231 3.66667 27.0468 3.66667C28.0704 3.66667 29.0521 4.07331 29.776 4.79714C30.4998 5.52096 30.9064 6.50268 30.9064 7.52632V17.1754ZM27.0468 32.614C28.0704 32.614 29.0521 33.0207 29.776 33.7445C30.4998 34.4683 30.9064 35.45 30.9064 36.4737C30.9064 37.4973 30.4998 38.479 29.776 39.2029C29.0521 39.9267 28.0704 40.3333 27.0468 40.3333C26.0231 40.3333 25.0414 39.9267 24.3176 39.2029C23.5938 38.479 23.1871 37.4973 23.1871 36.4737V32.614H27.0468ZM27.0468 30.6842C26.0231 30.6842 25.0414 30.2776 24.3176 29.5538C23.5938 28.8299 23.1871 27.8482 23.1871 26.8246C23.1871 25.8009 23.5938 24.8192 24.3176 24.0954C25.0414 23.3716 26.0231 22.9649 27.0468 22.9649H36.6959C37.7195 22.9649 38.7013 23.3716 39.4251 24.0954C40.1489 24.8192 40.5556 25.8009 40.5556 26.8246C40.5556 27.8482 40.1489 28.8299 39.4251 29.5538C38.7013 30.2776 37.7195 30.6842 36.6959 30.6842H27.0468Z" fill="black"/>
</g>
</svg>
